<svg width="94" height="94" xmlns="http://www.w3.org/2000/svg" xmlns:xlink="http://www.w3.org/1999/xlink" xml:space="preserve" overflow="hidden"><g><path d="M44.3446 22.3051 46.7345 16.1977 43.548 15.1356 41.4237 21.2429Z" stroke="#000000" stroke-width="0.783333" fill-rule="evenodd"/><path d="M48.8588 16.1977 55.4972 34.7853 58.6836 33.7232 51.7797 15.1356Z" stroke="#000000" stroke-width="0.783333" fill-rule="evenodd"/><path d="M58.6836 42.7514 65.322 61.339 68.5085 60.0113 61.6045 41.4237Z" stroke="#000000" stroke-width="0.783333" fill-rule="evenodd"/><path d="M68.5085 69.5706 75.1469 88.1582 78.3333 87.096 71.4294 68.5085Z" stroke="#000000" stroke-width="0.783333" fill-rule="evenodd"/><path d="M40.3616 30.8023 33.4576 49.3898 30.5367 48.3277 37.1751 29.7401Z" stroke="#000000" stroke-width="0.783333" fill-rule="evenodd"/><path d="M30.0056 57.887 23.1017 76.4746 20.1808 75.1469 26.8192 56.5593Z" stroke="#000000" stroke-width="0.783333" fill-rule="evenodd"/><path d="M1.85298 0C1.85298 1.02337 1.02337 1.85298 -2.74296e-16 1.85298-1.02337 1.85298-1.85298 1.02337-1.85298 1.37148e-16-1.85298-1.02337-1.02337-1.85298 -1.37148e-16-1.85298 1.02337-1.85298 1.85298-1.02337 1.85298 0Z" stroke="#000000" stroke-width="0.728838" fill-rule="evenodd" transform="matrix(0.984808 0.173648 0.173648 -0.984808 68.7724 64.4856)"/><path d="M1.85298 0C1.85298 1.02337 1.02337 1.85298 -2.74296e-16 1.85298-1.02337 1.85298-1.85298 1.02337-1.85298 1.37148e-16-1.85298-1.02337-1.02337-1.85298 -1.37148e-16-1.85298 1.02337-1.85298 1.85298-1.02337 1.85298 0Z" stroke="#000000" stroke-width="0.728838" fill-rule="evenodd" transform="matrix(0.984808 0.173648 0.173648 -0.984808 58.4861 38.0883)"/><path d="M1.85298 0C1.85298 1.02337 1.02337 1.85298 -2.74296e-16 1.85298-1.02337 1.85298-1.85298 1.02337-1.85298 1.37148e-16-1.85298-1.02337-1.02337-1.85298 -1.37148e-16-1.85298 1.02337-1.85298 1.85298-1.02337 1.85298 0Z" stroke="#000000" stroke-width="0.728838" fill-rule="evenodd" transform="matrix(0.984808 0.173648 0.173648 -0.984808 47.6572 10.6969)"/><path d="M1.85298 0C1.85298 1.02337 1.02337 1.85298 -2.74296e-16 1.85298-1.02337 1.85298-1.85298 1.02337-1.85298 1.37148e-16-1.85298-1.02337-1.02337-1.85298 -1.37148e-16-1.85298 1.02337-1.85298 1.85298-1.02337 1.85298 0Z" stroke="#000000" stroke-width="0.728838" fill-rule="evenodd" transform="matrix(0.984808 -0.173648 -0.173648 -0.984808 40.7509 25.9208)"/><path d="M1.85298 0C1.85298 1.02337 1.02337 1.85298 -2.74296e-16 1.85298-1.02337 1.85298-1.85298 1.02337-1.85298 1.37148e-16-1.85298-1.02337-1.02337-1.85298 -1.37148e-16-1.85298 1.02337-1.85298 1.85298-1.02337 1.85298 0Z" stroke="#000000" stroke-width="0.728838" fill-rule="evenodd" transform="matrix(0.984808 -0.173648 -0.173648 -0.984808 30.0449 53.0776)"/><path d="M70.6328 25.226C70.6328 35.9316 61.8353 44.6102 50.9831 44.6102 40.1308 44.6102 31.3333 35.9316 31.3333 25.226 31.3333 14.5204 40.1308 5.84181 50.9831 5.84181 61.8353 5.84181 70.6328 14.5204 70.6328 25.226Z" stroke="#FF0000" stroke-width="3.13333" fill="none" fill-rule="evenodd"/><path d="M80.4576 55.2316 80.4576 20.7119 82.0508 20.7119 82.0508 55.2316 80.4576 55.2316ZM85.2373 54.435 81.2542 61.8701 77.0057 54.435 85.2373 54.435Z"/><path d="M16.9944 28.1469 8.76271 28.1469 12.7458 20.7119 16.9944 28.1469ZM11.9492 61.8701 11.9492 27.6158 13.5424 27.6158 13.5424 61.8701 11.9492 61.8701Z"/></g></svg>