<svg width="94" height="94" xmlns="http://www.w3.org/2000/svg" xmlns:xlink="http://www.w3.org/1999/xlink" xml:space="preserve" overflow="hidden"><g><path d="M53.904 22.3051 51.7797 16.1977 54.7006 15.1356 57.0904 21.2429Z" stroke="#000000" stroke-width="0.783333" fill-rule="evenodd"/><path d="M49.6554 16.1977 43.0169 34.7853 39.8305 33.7232 46.4689 15.1356Z" stroke="#000000" stroke-width="0.783333" fill-rule="evenodd"/><path d="M39.8305 42.7514 33.1921 61.339 30.0056 60.0113 36.6441 41.4237Z" stroke="#000000" stroke-width="0.783333" fill-rule="evenodd"/><path d="M30.0056 69.5706 23.1017 88.1582 20.1808 87.096 26.8192 68.5085Z" stroke="#000000" stroke-width="0.783333" fill-rule="evenodd"/><path d="M58.1525 30.8023 64.791 49.3898 67.9774 48.3277 61.339 29.7401Z" stroke="#000000" stroke-width="0.783333" fill-rule="evenodd"/><path d="M68.5085 57.887 75.1469 76.4746 78.3333 75.1469 71.4294 56.5593Z" stroke="#000000" stroke-width="0.783333" fill-rule="evenodd"/><path d="M27.8258 64.8074C27.6481 63.7995 28.321 62.8385 29.3289 62.6608 30.3367 62.4831 31.2977 63.156 31.4755 64.1638 31.6532 65.1717 30.9802 66.1327 29.9724 66.3104 28.9646 66.4881 28.0035 65.8152 27.8258 64.8074Z" stroke="#000000" stroke-width="0.728838" fill-rule="evenodd"/><path d="M38.1119 38.4101C37.9342 37.4023 38.6071 36.4412 39.615 36.2635 40.6228 36.0858 41.5838 36.7587 41.7615 37.7666 41.9393 38.7744 41.2663 39.7354 40.2585 39.9131 39.2507 40.0909 38.2896 39.4179 38.1119 38.4101Z" stroke="#000000" stroke-width="0.728838" fill-rule="evenodd"/><path d="M48.941 11.0186C48.7633 10.0108 49.4363 9.04976 50.4441 8.87206 51.4519 8.69435 52.413 9.36729 52.5907 10.3751 52.7684 11.3829 52.0954 12.344 51.0876 12.5217 50.0798 12.6994 49.1187 12.0265 48.941 11.0186Z" stroke="#000000" stroke-width="0.728838" fill-rule="evenodd"/><path d="M55.8474 25.599C56.0251 24.5912 56.9861 23.9182 57.994 24.0959 59.0018 24.2736 59.6747 25.2347 59.497 26.2425 59.3193 27.2504 58.3582 27.9233 57.3504 27.7456 56.3426 27.5679 55.6697 26.6068 55.8474 25.599Z" stroke="#000000" stroke-width="0.728838" fill-rule="evenodd"/><path d="M66.5533 52.7558C66.731 51.748 67.692 51.0751 68.6999 51.2528 69.7077 51.4305 70.3806 52.3915 70.2029 53.3994 70.0252 54.4072 69.0642 55.0801 68.0563 54.9024 67.0485 54.7247 66.3756 53.7637 66.5533 52.7558Z" stroke="#000000" stroke-width="0.728838" fill-rule="evenodd"/><path d="M67.1808 25.226C67.1808 35.9316 58.3833 44.6102 47.5311 44.6102 36.6788 44.6102 27.8814 35.9316 27.8814 25.226 27.8814 14.5204 36.6788 5.84181 47.5311 5.84181 58.3833 5.84181 67.1808 14.5204 67.1808 25.226Z" stroke="#FF0000" stroke-width="3.13333" fill="none" fill-rule="evenodd"/><path d="M80.4576 55.2316 80.4576 20.7119 82.0508 20.7119 82.0508 55.2316 80.4576 55.2316ZM85.2373 54.435 81.2542 61.8701 77.0057 54.435 85.2373 54.435Z"/><path d="M16.9944 28.1469 8.76271 28.1469 12.7458 20.7119 16.9944 28.1469ZM11.9492 61.8701 11.9492 27.6158 13.5424 27.6158 13.5424 61.8701 11.9492 61.8701Z"/></g></svg>