<svg width="94" height="94" xmlns="http://www.w3.org/2000/svg" xmlns:xlink="http://www.w3.org/1999/xlink" xml:space="preserve" overflow="hidden"><g><path d="M49.6554 71.6949 47.2655 77.8023 50.452 78.8644 52.5763 72.7571Z" stroke="#000000" stroke-width="0.783333" fill-rule="evenodd"/><path d="M45.1412 77.8023 38.5028 59.2147 35.3164 60.2768 42.2203 78.8644Z" stroke="#000000" stroke-width="0.783333" fill-rule="evenodd"/><path d="M35.3164 51.2486 28.678 32.661 25.4915 33.9887 32.3955 52.5763Z" stroke="#000000" stroke-width="0.783333" fill-rule="evenodd"/><path d="M25.4915 24.4294 18.8531 5.84181 15.6667 6.90395 22.5706 25.4915Z" stroke="#000000" stroke-width="0.783333" fill-rule="evenodd"/><path d="M53.6384 63.1977 60.5424 44.6102 63.4633 45.6723 56.8249 64.2599Z" stroke="#000000" stroke-width="0.783333" fill-rule="evenodd"/><path d="M63.9944 36.113 70.8983 17.5254 73.8192 18.8531 67.1808 37.4407Z" stroke="#000000" stroke-width="0.783333" fill-rule="evenodd"/><path d="M1.85298 0C1.85298 1.02337 1.02337 1.85298 -2.74296e-16 1.85298-1.02337 1.85298-1.85298 1.02337-1.85298 1.37148e-16-1.85298-1.02337-1.02337-1.85298 -1.37148e-16-1.85298 1.02337-1.85298 1.85298-1.02337 1.85298 0Z" stroke="#000000" stroke-width="0.728838" fill-rule="evenodd" transform="matrix(-0.984808 -0.173648 -0.173648 0.984808 25.2274 29.5141)"/><path d="M1.85298 0C1.85298 1.02337 1.02337 1.85298 -2.74296e-16 1.85298-1.02337 1.85298-1.85298 1.02337-1.85298 1.37148e-16-1.85298-1.02337-1.02337-1.85298 -1.37148e-16-1.85298 1.02337-1.85298 1.85298-1.02337 1.85298 0Z" stroke="#000000" stroke-width="0.728838" fill-rule="evenodd" transform="matrix(-0.984808 -0.173648 -0.173648 0.984808 35.5134 55.9114)"/><path d="M1.85298 0C1.85298 1.02337 1.02337 1.85298 -2.74296e-16 1.85298-1.02337 1.85298-1.85298 1.02337-1.85298 1.37148e-16-1.85298-1.02337-1.02337-1.85298 -1.37148e-16-1.85298 1.02337-1.85298 1.85298-1.02337 1.85298 0Z" stroke="#000000" stroke-width="0.728838" fill-rule="evenodd" transform="matrix(-0.984808 -0.173648 -0.173648 0.984808 46.3423 83.3029)"/><path d="M1.85298 0C1.85298 1.02337 1.02337 1.85298 -2.74296e-16 1.85298-1.02337 1.85298-1.85298 1.02337-1.85298 1.37148e-16-1.85298-1.02337-1.02337-1.85298 -1.37148e-16-1.85298 1.02337-1.85298 1.85298-1.02337 1.85298 0Z" stroke="#000000" stroke-width="0.728838" fill-rule="evenodd" transform="matrix(-0.984808 0.173648 0.173648 0.984808 53.2489 68.0788)"/><path d="M1.85298 0C1.85298 1.02337 1.02337 1.85298 -2.74296e-16 1.85298-1.02337 1.85298-1.85298 1.02337-1.85298 1.37148e-16-1.85298-1.02337-1.02337-1.85298 -1.37148e-16-1.85298 1.02337-1.85298 1.85298-1.02337 1.85298 0Z" stroke="#000000" stroke-width="0.728838" fill-rule="evenodd" transform="matrix(-0.984808 0.173648 0.173648 0.984808 63.9548 40.9221)"/><path d="M62.6667 68.774C62.6667 79.4796 53.8692 88.1582 43.0169 88.1582 32.1647 88.1582 23.3672 79.4796 23.3672 68.774 23.3672 58.0684 32.1647 49.3898 43.0169 49.3898 53.8692 49.3898 62.6667 58.0684 62.6667 68.774Z" stroke="#FF0000" stroke-width="3.13333" fill="none" fill-rule="evenodd"/><path d="M8.76271 65.8531 16.9944 65.8531 12.7458 73.2881 8.76271 65.8531ZM13.5424 32.1299 13.5424 66.3842 11.9492 66.3842 11.9492 32.1299 13.5424 32.1299Z"/><path d="M82.0508 38.7684 82.0508 73.2881 80.4576 73.2881 80.4576 38.7684 82.0508 38.7684ZM77.0057 39.565 81.2542 32.1299 85.2373 39.565 77.0057 39.565Z"/></g></svg>