<svg width="94" height="94" xmlns="http://www.w3.org/2000/svg" xmlns:xlink="http://www.w3.org/1999/xlink" xml:space="preserve" overflow="hidden"><g><path d="M44.3446 71.6949 46.7345 77.8023 43.548 78.8644 41.4237 72.7571Z" stroke="#000000" stroke-width="0.783333" fill-rule="evenodd"/><path d="M48.8588 77.8023 55.4972 59.2147 58.6836 60.2768 51.7797 78.8644Z" stroke="#000000" stroke-width="0.783333" fill-rule="evenodd"/><path d="M58.6836 51.2486 65.322 32.661 68.5085 33.9887 61.6045 52.5763Z" stroke="#000000" stroke-width="0.783333" fill-rule="evenodd"/><path d="M68.5085 24.4294 75.1469 5.84181 78.3333 6.90395 71.4294 25.4915Z" stroke="#000000" stroke-width="0.783333" fill-rule="evenodd"/><path d="M40.3616 63.1977 33.4576 44.6102 30.5367 45.6723 37.1751 64.2599Z" stroke="#000000" stroke-width="0.783333" fill-rule="evenodd"/><path d="M30.0056 36.113 23.1017 17.5254 20.1808 18.8531 26.8192 37.4407Z" stroke="#000000" stroke-width="0.783333" fill-rule="evenodd"/><path d="M70.5972 29.1924C70.7749 30.2002 70.102 31.1613 69.0942 31.339 68.0864 31.5167 67.1253 30.8437 66.9476 29.8359 66.7699 28.8281 67.4428 27.867 68.4507 27.6893 69.4585 27.5116 70.4195 28.1846 70.5972 29.1924Z" stroke="#000000" stroke-width="0.728838" fill-rule="evenodd"/><path d="M60.3109 55.5896C60.4886 56.5975 59.8156 57.5585 58.8078 57.7362 57.8 57.9139 56.8389 57.241 56.6612 56.2332 56.4835 55.2254 57.1565 54.2643 58.1643 54.0866 59.1721 53.9089 60.1332 54.5818 60.3109 55.5896Z" stroke="#000000" stroke-width="0.728838" fill-rule="evenodd"/><path d="M49.482 82.9811C49.6597 83.9889 48.9868 84.95 47.979 85.1277 46.9711 85.3054 46.0101 84.6324 45.8324 83.6246 45.6547 82.6168 46.3276 81.6557 47.3354 81.478 48.3433 81.3003 49.3043 81.9733 49.482 82.9811Z" stroke="#000000" stroke-width="0.728838" fill-rule="evenodd"/><path d="M42.5757 68.4006C42.398 69.4084 41.4369 70.0814 40.4291 69.9037 39.4213 69.726 38.7483 68.7649 38.926 67.7571 39.1037 66.7492 40.0648 66.0763 41.0726 66.254 42.0804 66.4317 42.7534 67.3928 42.5757 68.4006Z" stroke="#000000" stroke-width="0.728838" fill-rule="evenodd"/><path d="M31.8698 41.2439C31.6921 42.2517 30.731 42.9247 29.7232 42.747 28.7154 42.5693 28.0424 41.6082 28.2201 40.6004 28.3978 39.5925 29.3589 38.9196 30.3667 39.0973 31.3745 39.275 32.0475 40.2361 31.8698 41.2439Z" stroke="#000000" stroke-width="0.728838" fill-rule="evenodd"/><path d="M70.6328 68.774C70.6328 79.4796 61.8353 88.1582 50.9831 88.1582 40.1308 88.1582 31.3333 79.4796 31.3333 68.774 31.3333 58.0684 40.1308 49.3898 50.9831 49.3898 61.8353 49.3898 70.6328 58.0684 70.6328 68.774Z" stroke="#FF0000" stroke-width="3.13333" fill="none" fill-rule="evenodd"/><path d="M82.0508 38.7684 82.0508 73.2881 80.4576 73.2881 80.4576 38.7684 82.0508 38.7684ZM77.0057 39.565 81.2542 32.1299 85.2373 39.565 77.0057 39.565Z"/><path d="M8.76271 65.8531 16.9944 65.8531 12.7458 73.2881 8.76271 65.8531ZM13.5424 32.1299 13.5424 66.3842 11.9492 66.3842 11.9492 32.1299 13.5424 32.1299Z"/></g></svg>