<?xml version="1.0" encoding="UTF-8"?>
<!DOCTYPE svg PUBLIC "-//W3C//DTD SVG 1.1//EN" "http://www.w3.org/Graphics/SVG/1.1/DTD/svg11.dtd">
<!-- Creator: CorelDRAW X8 -->
<svg xmlns="http://www.w3.org/2000/svg" xml:space="preserve" width="80.2mm" height="322.2mm" version="1.1" style="shape-rendering:geometricPrecision; text-rendering:geometricPrecision; image-rendering:optimizeQuality; fill-rule:evenodd; clip-rule:evenodd"
viewBox="0 0 6931 27847"
 xmlns:xlink="http://www.w3.org/1999/xlink">
 <defs>
  <style type="text/css">
   <![CDATA[
    .str3 {stroke:#FEFEFE;stroke-width:45.7372}
    .str2 {stroke:#332C2B;stroke-width:30.4915}
    .str0 {stroke:#332C2B;stroke-width:17.2854}
    .str1 {stroke:#332C2B;stroke-width:30.4915;stroke-dasharray:30.491470 30.491470}
    .fil0 {fill:none}
    .fil1 {fill:#332C2B}
    .fil2 {fill:#FEFEFE;fill-rule:nonzero}
   ]]>
  </style>
 </defs>
 <g id="图层_x0020_1">
  <metadata id="CorelCorpID_0Corel-Layer"/>
  <g id="_2675749286864">
   <g>
    <path class="fil0 str0" d="M9 181l6914 0 0 27571c0,47 -39,86 -87,86l-6741 0c-47,0 -86,-39 -86,-86l0 -27571z"/>
    <rect class="fil0 str0" x="9" y="9" width="6914" height="173"/>
   </g>
   <circle class="fil0 str0" cx="527" cy="14485" r="259"/>
   <circle class="fil0 str0" cx="527" cy="27147" r="259"/>
   <circle class="fil0 str0" cx="527" cy="1824" r="259"/>
   <circle class="fil0 str0" cx="6404" cy="14485" r="259"/>
   <circle class="fil0 str0" cx="6404" cy="27147" r="259"/>
   <circle class="fil0 str0" cx="6404" cy="1824" r="259"/>
  </g>
  <rect class="fil0 str0" x="4062" y="16300" width="1175" height="3509"/>
  <rect class="fil0 str0" x="4062" y="21244" width="1175" height="3509"/>
  <rect class="fil0 str0" x="4062" y="7882" width="1175" height="2783"/>
  <rect class="fil0 str0" x="4062" y="11754" width="1175" height="2783"/>
  <rect class="fil0 str0" x="2411" y="7882" width="1175" height="2783"/>
  <rect class="fil0 str0" x="2411" y="11754" width="1175" height="2783"/>
  <rect class="fil0 str0" x="4460" y="3163" width="778" height="3457"/>
  <line class="fil0 str1" x1="527" y1="1564" x2="527" y2= "849" />
  <line class="fil0 str1" x1="511" y1="876" x2="1233" y2= "876" />
  <rect class="fil0 str0" x="3034" y="9" width="864" height="1210"/>
  <g id="_2710420545680">
   <rect class="fil1 str0" transform="matrix(1.46524E-14 -0.553244 0.554494 1.46855E-14 1456.62 10184.5)" width="3293" height="1189"/>
   <path class="fil2" d="M1707 9853c17,0 34,3 49,10 16,6 29,14 40,25 13,14 24,30 31,48 7,19 10,42 10,71l0 44 149 0 0 54 -399 0 0 -100c0,-24 2,-44 6,-60 4,-17 10,-32 19,-44 10,-15 23,-27 38,-35 16,-8 35,-13 57,-13zm1 56c-13,0 -25,2 -35,7 -10,5 -19,12 -25,21 -5,9 -9,18 -12,29 -2,11 -3,25 -3,42l0 43 158 0 0 -36c0,-21 -2,-38 -5,-51 -4,-13 -10,-24 -19,-33 -8,-8 -16,-13 -26,-17 -9,-4 -20,-5 -33,-5zm278 -85l-399 -135 0 -65 399 -135 0 56 -111 36 0 153 111 36 0 54zm-157 -228l-187 62 187 61 0 -123zm157 -464l0 59 -344 177 344 0 0 49 -399 0 0 -75 316 -160 -316 0 0 -50 399 0zm0 -116l-399 0 0 -249 47 0 0 196 109 0 0 -183 47 0 0 183 149 0 0 -196 47 0 0 249zm0 -573l0 231 -399 0 0 -53 352 0 0 -178 47 0z"/>
  </g>
  <g id="_2710420544240">
   <path class="fil1 str2" d="M1720 415c255,0 461,206 461,461 0,255 -206,462 -461,462 -255,0 -462,-207 -462,-462 0,-255 207,-461 462,-461z"/>
   <path class="fil0 str3" d="M1549 1219l341 0m-409 -107l477 0m-552 -106l627 0m-313 0l0 -472"/>
  </g>
  <g id="_2710420544560">
   <rect class="fil1 str0" transform="matrix(1.46524E-14 -0.553244 0.554494 1.46855E-14 5551.43 14056.4)" width="3293" height="1189"/>
   <path class="fil2" d="M5802 13734c17,0 34,4 49,10 16,6 29,14 40,25 13,14 23,30 30,49 7,18 11,41 11,70l0 45 149 0 0 53 -399 0 0 -100c0,-24 2,-44 5,-60 4,-17 11,-32 19,-44 11,-15 24,-27 39,-35 16,-8 35,-13 57,-13zm1 56c-13,0 -25,2 -35,7 -11,5 -19,12 -25,21 -6,9 -10,18 -12,30 -2,11 -3,24 -3,41l0 44 158 0 0 -36c0,-22 -2,-39 -5,-52 -4,-13 -10,-24 -19,-33 -8,-8 -16,-13 -26,-17 -9,-3 -20,-5 -33,-5zm278 -141l-399 0 0 -250 47 0 0 197 109 0 0 -184 47 0 0 184 148 0 0 -197 48 0 0 250zm-200 -656c37,0 70,7 99,22 29,15 52,34 69,59 12,20 21,41 25,62 4,20 7,47 7,79l0 92 -399 0 0 -91c0,-37 2,-67 8,-88 6,-21 13,-39 23,-54 17,-26 40,-46 68,-60 28,-14 62,-21 100,-21zm0 55c-31,0 -57,5 -79,15 -21,11 -38,26 -50,46 -9,14 -15,29 -19,45 -3,16 -5,36 -5,59l0 41 306 0 0 -41c0,-23 -1,-44 -5,-61 -4,-18 -11,-34 -21,-49 -12,-18 -29,-32 -50,-41 -20,-9 -46,-14 -77,-14zm200 -104l-399 -135 0 -66 399 -134 0 56 -111 36 0 153 111 36 0 54zm-157 -228l-188 62 188 61 0 -123zm157 -411l0 232 -399 0 0 -53 351 0 0 -179 48 0z"/>
  </g>
  <g id="_2710420546832">
   <rect class="fil1 str0" transform="matrix(1.05449E-14 -0.358976 0.554494 1.32406E-14 5551.43 5482.8)" width="3293" height="1189"/>
   <path class="fil2" d="M6081 4886l0 53 -343 0 234 104 0 32 -234 103 343 0 0 50 -399 0 0 -73 223 -99 -223 -96 0 -74 399 0zm0 -330l0 195 -40 0 0 -73 -268 0 0 73 -36 0c0,-28 -4,-48 -12,-61 -8,-13 -23,-20 -44,-22l0 -41 360 0 0 -71 40 0z"/>
  </g>
  <g id="_2710420547856">
   <rect class="fil1 str0" transform="matrix(1.05449E-14 -0.524934 0.554494 1.93618E-14 5551.43 18918.9)" width="3293" height="1189"/>
   <path class="fil2" d="M6081 18377l0 61 -159 97 159 99 0 57 -200 -127 -199 124 0 -61 156 -95 -156 -98 0 -57 196 125 203 -125zm0 -291l0 194 -41 0 0 -72 -268 0 0 72 -36 0c0,-27 -4,-47 -12,-60 -8,-13 -22,-20 -44,-22l0 -42 360 0 0 -70 41 0zm-200 -357c71,0 124,11 158,31 33,21 50,53 50,97 0,44 -17,76 -51,97 -35,20 -87,30 -157,30 -72,0 -124,-10 -158,-31 -33,-21 -50,-53 -50,-96 0,-44 18,-76 52,-97 35,-21 86,-31 156,-31zm121 69c-13,-5 -30,-9 -50,-11 -20,-2 -44,-4 -71,-4 -27,0 -51,2 -71,4 -21,2 -37,6 -51,11 -13,5 -24,13 -31,22 -7,10 -10,22 -10,37 0,15 3,27 10,36 7,10 18,18 32,23 13,5 31,9 51,11 21,2 44,3 70,3 28,0 52,-1 70,-3 19,-1 36,-5 51,-11 13,-5 24,-12 31,-22 8,-9 11,-22 11,-37 0,-15 -3,-27 -10,-37 -7,-9 -18,-17 -32,-22zm79 -380l0 195 -41 0 0 -73 -268 0 0 73 -36 0c0,-28 -4,-48 -12,-61 -8,-13 -22,-20 -44,-22l0 -41 360 0 0 -71 41 0z"/>
  </g>
  <g id="_2710420546544">
   <rect class="fil1 str0" transform="matrix(1.05449E-14 -0.467593 0.554494 1.72468E-14 5551.43 10043.5)" width="3293" height="1189"/>
   <path class="fil2" d="M6081 9535l0 53 -343 0 234 104 0 32 -234 103 343 0 0 50 -399 0 0 -73 223 -99 -223 -96 0 -74 399 0zm0 -330l0 195 -40 0 0 -73 -268 0 0 73 -36 0c0,-28 -4,-48 -12,-61 -8,-13 -23,-20 -44,-22l0 -41 360 0 0 -71 40 0zm0 -194l0 64 -76 0 0 -64 76 0zm0 -340l0 194 -40 0 0 -72 -268 0 0 72 -36 0c0,-27 -4,-47 -12,-60 -8,-13 -23,-20 -44,-22l0 -42 360 0 0 -70 40 0z"/>
  </g>
  <g id="_2710420548592">
   <rect class="fil1 str0" transform="matrix(1.05449E-14 -0.524934 0.554494 1.93618E-14 1456.62 14009.8)" width="3293" height="1189"/>
   <path class="fil2" d="M1986 13479l0 61 -159 97 159 99 0 58 -200 -128 -199 124 0 -61 156 -95 -156 -98 0 -57 196 126 203 -126zm0 -291l0 195 -41 0 0 -73 -268 0 0 73 -36 0c0,-28 -4,-48 -12,-61 -7,-13 -22,-20 -44,-22l0 -41 360 0 0 -71 41 0zm-200 -357c72,0 124,11 158,32 33,20 50,53 50,96 0,44 -17,76 -51,97 -34,20 -86,31 -156,31 -72,0 -125,-11 -158,-32 -34,-20 -50,-53 -50,-96 0,-44 17,-76 51,-97 35,-20 87,-31 156,-31zm122 69c-14,-5 -30,-9 -51,-11 -20,-2 -43,-3 -71,-3 -27,0 -51,1 -71,3 -20,2 -37,6 -50,11 -14,6 -24,13 -31,22 -7,10 -11,22 -11,37 0,15 4,27 11,37 7,9 17,17 31,22 14,6 31,9 51,11 21,2 44,3 71,3 27,0 51,-1 69,-2 19,-2 36,-6 51,-11 13,-6 24,-13 31,-23 8,-9 12,-22 12,-37 0,-15 -4,-27 -11,-37 -7,-9 -18,-17 -31,-22zm-122 -402c72,0 124,10 158,31 33,21 50,53 50,96 0,44 -17,76 -51,97 -34,20 -86,31 -156,31 -72,0 -125,-11 -158,-31 -34,-21 -50,-53 -50,-97 0,-44 17,-76 51,-97 35,-20 87,-30 156,-30zm122 68c-14,-5 -30,-9 -51,-11 -20,-2 -43,-3 -71,-3 -27,0 -51,1 -71,3 -20,2 -37,6 -50,11 -14,6 -24,13 -31,22 -7,10 -11,22 -11,37 0,15 4,27 11,37 7,9 17,17 31,22 14,6 31,9 51,11 21,2 44,3 71,3 27,0 51,0 69,-2 19,-2 36,-6 51,-11 13,-5 24,-13 31,-22 8,-10 12,-23 12,-38 0,-15 -4,-27 -11,-37 -7,-9 -18,-17 -31,-22z"/>
  </g>
  <g id="_2710420549072">
   <rect class="fil1 str0" transform="matrix(1.05449E-14 -0.524934 0.554494 1.93618E-14 5551.43 23862.5)" width="3293" height="1189"/>
   <path class="fil2" d="M6081 23332l0 61 -159 97 159 99 0 57 -200 -127 -199 123 0 -60 156 -95 -156 -98 0 -57 196 125 203 -125zm0 -311l0 246 -57 0c-16,-18 -33,-35 -48,-51 -15,-15 -31,-31 -48,-46 -33,-30 -60,-51 -80,-62 -20,-11 -41,-17 -62,-17 -11,0 -21,2 -30,6 -8,3 -15,8 -20,14 -6,6 -10,14 -13,22 -2,8 -4,17 -4,27 0,9 2,19 4,29 2,9 6,19 9,28 3,7 7,14 11,21 4,7 8,13 11,17l0 3 -57 0c-5,-11 -10,-26 -16,-46 -5,-20 -8,-38 -8,-56 0,-37 10,-66 30,-87 20,-21 46,-32 80,-32 16,0 30,2 43,6 13,3 26,8 37,15 12,6 23,14 34,24 12,9 23,19 34,29 18,17 37,35 57,56 20,21 35,37 46,49l0 -195 47 0zm-200 -337c71,0 124,10 158,31 33,21 50,53 50,97 0,44 -17,76 -51,96 -35,21 -87,31 -157,31 -72,0 -124,-10 -158,-31 -33,-21 -50,-53 -50,-96 0,-44 18,-77 52,-97 35,-21 86,-31 156,-31zm121 69c-13,-6 -30,-9 -50,-11 -20,-3 -44,-4 -71,-4 -27,0 -51,1 -71,4 -21,2 -37,6 -51,11 -13,5 -24,13 -31,22 -7,9 -10,22 -10,37 0,14 3,27 10,36 7,10 18,17 32,23 13,5 31,9 51,11 21,2 44,3 70,3 28,0 52,-1 70,-3 19,-1 36,-5 51,-11 13,-5 24,-12 31,-22 8,-9 11,-22 11,-37 0,-15 -3,-27 -10,-37 -7,-10 -18,-17 -32,-22zm-121 -403c71,0 124,11 158,31 33,21 50,53 50,97 0,44 -17,76 -51,97 -35,20 -87,30 -157,30 -72,0 -124,-10 -158,-31 -33,-21 -50,-53 -50,-96 0,-44 18,-76 52,-97 35,-21 86,-31 156,-31zm121 69c-13,-5 -30,-9 -50,-11 -20,-2 -44,-3 -71,-3 -27,0 -51,1 -71,3 -21,2 -37,6 -51,11 -13,5 -24,13 -31,22 -7,10 -10,22 -10,37 0,15 3,27 10,36 7,10 18,18 32,23 13,5 31,9 51,11 21,2 44,3 70,3 28,0 52,-1 70,-3 19,-1 36,-5 51,-11 13,-5 24,-12 31,-22 8,-9 11,-22 11,-37 0,-15 -3,-27 -10,-37 -7,-9 -18,-17 -32,-22z"/>
  </g>
 </g>
</svg>
