<?xml version="1.0" encoding="UTF-8"?>
<!DOCTYPE svg PUBLIC "-//W3C//DTD SVG 1.1//EN" "http://www.w3.org/Graphics/SVG/1.1/DTD/svg11.dtd">
<!-- Creator: CorelDRAW X8 -->
<svg xmlns="http://www.w3.org/2000/svg" xml:space="preserve" width="19.0669mm" height="40.0762mm" version="1.1" style="shape-rendering:geometricPrecision; text-rendering:geometricPrecision; image-rendering:optimizeQuality; fill-rule:evenodd; clip-rule:evenodd"
viewBox="0 0 4928 10357"
 xmlns:xlink="http://www.w3.org/1999/xlink">
 <defs>
  <style type="text/css">
   <![CDATA[
    .str2 {stroke:#2B2A29;stroke-width:129.218}
    .str1 {stroke:#2B2A29;stroke-width:19.6928}
    .str0 {stroke:black;stroke-width:19.6928;stroke-linejoin:bevel}
    .fil1 {fill:none}
    .fil0 {fill:black}
    .fil2 {fill:#2B2A29;fill-rule:nonzero}
   ]]>
  </style>
 </defs>
 <g id="图层_x0020_1">
  <metadata id="CorelCorpID_0Corel-Layer"/>
  <path class="fil0 str0" d="M4915 5181c2,0 3,-1 3,-2 0,-2 -1,-3 -3,-3 -1,0 -2,1 -2,3 0,1 1,2 2,2z"/>
  <line class="fil1 str0" x1="3608" y1="10347" x2="1024" y2= "10347" />
  <path class="fil1 str0" d="M3608 10l-2584 0m2584 0l0 10337"/>
  <line class="fil1 str0" x1="1024" y1="10" x2="1024" y2= "10347" />
  <polygon class="fil1 str1" points="1852,9443 1852,8762 1218,8762 1218,1595 1852,1595 1852,914 2539,914 2539,1595 3172,1595 3344,1595 3344,1853 3172,1853 3172,8504 3344,8504 3344,8762 3172,8762 2539,8762 2539,9443 "/>
  <ellipse class="fil1 str1" transform="matrix(2.38751E-14 -0.901479 0.949921 2.51584E-14 2199.63 6043.58)" rx="838" ry="795"/>
  <ellipse class="fil1 str1" transform="matrix(2.08907E-14 -0.788794 0.831181 2.20136E-14 2199.63 6043.58)" rx="838" ry="795"/>
  <ellipse class="fil1 str1" transform="matrix(1.19376E-14 -0.450739 0.474961 1.25792E-14 2199.63 6043.58)" rx="838" ry="795"/>
  <ellipse class="fil1 str2" transform="matrix(5.96878E-15 -0.22537 0.23748 6.28959E-15 2199.63 6043.58)" rx="838" ry="795"/>
  <path class="fil1 str1" d="M2260 7019c369,0 667,338 667,755 0,417 -298,755 -667,755m0 0l-788 0 0 -1510 788 0"/>
  <path class="fil1 str1" d="M2252 7113c323,0 584,296 584,661 0,365 -261,660 -584,660m0 0l-689 0 0 -1321 689 0"/>
  <ellipse class="fil1 str1" transform="matrix(1.19376E-14 -0.450739 0.474961 1.25792E-14 2212.64 7773.67)" rx="838" ry="795"/>
  <ellipse class="fil1 str2" transform="matrix(5.96878E-15 -0.22537 0.23748 6.28959E-15 2212.64 7773.67)" rx="838" ry="795"/>
  <ellipse class="fil1 str1" transform="matrix(2.38751E-14 -0.901479 0.949921 2.51584E-14 2199.63 4313.49)" rx="838" ry="795"/>
  <ellipse class="fil1 str1" transform="matrix(2.08907E-14 -0.788794 0.831181 2.20136E-14 2199.63 4313.49)" rx="838" ry="795"/>
  <ellipse class="fil1 str1" transform="matrix(1.19376E-14 -0.450739 0.474961 1.25792E-14 2199.63 4313.49)" rx="838" ry="795"/>
  <ellipse class="fil1 str2" transform="matrix(5.96878E-15 -0.22537 0.23748 6.28959E-15 2199.63 4313.49)" rx="838" ry="795"/>
  <path class="fil1 str1" d="M2260 1828c369,0 667,338 667,755 0,417 -298,756 -667,756m0 0l-788 0 0 -1511 788 0"/>
  <path class="fil1 str1" d="M2252 1923c323,0 584,295 584,660 0,365 -261,661 -584,661m0 0l-689 0 0 -1321 689 0"/>
  <ellipse class="fil1 str1" transform="matrix(1.19376E-14 -0.450739 0.474961 1.25792E-14 2212.64 2583.4)" rx="838" ry="795"/>
  <ellipse class="fil1 str2" transform="matrix(5.96878E-15 -0.22537 0.23748 6.28959E-15 2212.64 2583.4)" rx="838" ry="795"/>
  <path class="fil2" d="M553 3036l-128 0 0 -817c-31,29 -71,59 -121,88 -50,30 -95,52 -135,66l0 -123c72,-34 134,-75 188,-123 54,-48 92,-95 114,-140l82 0 0 1049z"/>
  <path class="fil2" d="M706 4695l0 123 -690 0c-1,-31 4,-60 15,-89 17,-47 46,-93 84,-139 39,-45 95,-98 168,-158 114,-93 190,-167 230,-221 40,-54 60,-106 60,-154 0,-51 -18,-94 -54,-129 -37,-35 -84,-52 -143,-52 -61,0 -111,18 -148,56 -37,37 -56,88 -56,153l-132 -13c9,-99 43,-173 102,-225 59,-52 138,-77 237,-77 101,0 180,28 238,83 59,56 88,125 88,207 0,42 -9,83 -26,123 -17,40 -45,83 -85,127 -40,45 -106,106 -198,184 -76,65 -126,109 -148,132 -22,23 -40,46 -54,69l512 0z"/>
  <path class="fil2" d="M19 6316l128 -17c15,72 40,125 76,157 35,32 78,48 129,48 60,0 111,-21 153,-63 41,-42 62,-94 62,-155 0,-59 -19,-108 -58,-146 -38,-38 -87,-57 -146,-57 -25,0 -55,5 -91,14l15 -113c8,1 15,2 20,2 55,0 104,-14 148,-43 43,-28 65,-72 65,-132 0,-47 -16,-86 -48,-116 -32,-31 -73,-47 -123,-47 -50,0 -91,16 -124,47 -34,31 -55,79 -65,141l-128 -22c16,-87 52,-153 107,-200 56,-47 125,-71 207,-71 57,0 110,12 158,36 48,25 84,58 110,101 25,42 38,87 38,134 0,45 -12,86 -37,124 -24,36 -60,66 -107,88 62,14 110,44 144,88 34,45 51,101 51,169 0,91 -33,168 -100,232 -66,63 -150,95 -252,95 -91,0 -168,-28 -228,-82 -61,-55 -95,-125 -104,-212z"/>
  <path class="fil2" d="M453 8230l0 -250 -453 0 0 -117 477 -677 104 0 0 677 141 0 0 117 -141 0 0 250 -128 0zm0 -367l0 -471 -327 471 327 0z"/>
 </g>
</svg>
