<?xml version="1.0" encoding="UTF-8"?>
<!DOCTYPE svg PUBLIC "-//W3C//DTD SVG 1.1//EN" "http://www.w3.org/Graphics/SVG/1.1/DTD/svg11.dtd">
<!-- Creator: CorelDRAW X8 -->
<svg xmlns="http://www.w3.org/2000/svg" xml:space="preserve" width="8.9562mm" height="21.9933mm" version="1.1" style="shape-rendering:geometricPrecision; text-rendering:geometricPrecision; image-rendering:optimizeQuality; fill-rule:evenodd; clip-rule:evenodd"
viewBox="0 0 338 830"
 xmlns:xlink="http://www.w3.org/1999/xlink">
 <defs>
  <style type="text/css">
   <![CDATA[
    .str0 {stroke:black;stroke-width:1.69469;stroke-linecap:round;stroke-linejoin:round}
    .str1 {stroke:black;stroke-width:1.69469;stroke-linecap:round;stroke-linejoin:bevel}
    .fil0 {fill:none;fill-rule:nonzero}
    .fil1 {fill:black;fill-rule:nonzero}
   ]]>
  </style>
 </defs>
 <g id="图层_x0020_1">
  <metadata id="CorelCorpID_0Corel-Layer"/>
  <polygon class="fil0 str0" points="162,122 176,122 176,108 183,96 195,89 210,89 210,74 195,74 183,67 176,55 176,41 162,41 162,55 155,67 143,74 128,74 128,89 143,89 155,96 162,108 "/>
  <polygon class="fil0 str1" points="97,81 98,88 99,96 100,103 103,109 106,116 110,122 114,127 119,133 124,138 130,142 136,145 143,148 150,151 157,152 164,153 171,153 178,153 185,151 192,150 198,147 205,144 211,140 217,135 222,130 226,125 230,119 234,112 237,106 239,99 240,92 241,85 241,78 240,71 239,64 237,57 234,50 230,44 226,38 222,33 217,28 211,23 205,19 198,16 192,13 185,11 178,10 171,10 164,10 157,11 150,12 143,15 136,18 130,21 124,25 119,30 114,35 110,41 106,47 103,53 100,60 99,67 98,74 "/>
  <line class="fil0 str0" x1="337" y1="787" x2="337" y2= "43" />
  <polyline class="fil0 str1" points="337,43 337,37 335,32 334,27 331,22 328,17 325,13 321,10 316,6 311,4 306,2 300,1 295,1 "/>
  <line class="fil0 str0" x1="295" y1="1" x2="43" y2= "1" />
  <g>
   <path class="fil1" d="M48 572c0,-1 1,-1 1,-1 1,0 1,0 1,1l-2 0zm1 7l-1 -7 2 0 0 7 -1 1 0 -1zm1 8l-1 -7 1 -1 2 8 -2 0 0 0zm2 7l-2 -7 2 -1 2 8 -2 0 0 0zm3 7l-3 -7 1 0 3 7 -1 0 0 0zm3 7l-3 -7 1 0 4 6 -2 1 0 0zm4 7l-4 -7 1 -1 4 7 -1 1 0 0zm5 5l-5 -5 1 -1 5 5 -1 2 0 -1zm5 6l-5 -5 1 -2 5 6 -1 1 0 0zm6 5l-6 -5 1 -1 6 5 -1 1 0 0zm6 4l-6 -4 1 -2 6 4 -1 2 0 0zm7 4l-7 -4 1 -2 6 4 0 2 0 0zm7 2l-7 -2 0 -2 7 3 0 1 0 0zm7 3l-7 -3 0 -1 8 2 -1 2 0 0zm7 1l-7 -1 0 -2 8 1 0 2 -1 0zm8 1l-7 -1 0 -2 7 1 0 2 0 0zm8 -1l-8 1 0 -2 7 0 1 1 0 0zm7 0l-7 0 -1 -1 8 -1 0 2zm0 -2c1,0 1,0 1,1 0,0 0,0 -1,1l0 -2z"/>
  </g>
  <g>
   <path class="fil1" d="M65 556c0,0 -1,1 -1,1 -1,0 -1,-1 -1,-1l2 0zm0 -291l0 291 -2 0 0 -291 2 0zm-2 0c0,-1 0,-1 1,-1 0,0 1,0 1,1l-2 0z"/>
  </g>
  <g>
   <path class="fil1" d="M150 192c0,0 1,1 1,1 0,1 -1,1 -1,1l0 -2zm-8 -1l8 1 0 2 -8 -1 0 -2 0 0zm-7 0l7 0 0 2 -7 0 0 -2 0 0zm-8 1l8 -1 0 2 -8 1 0 -2 0 0zm-7 1l7 -1 0 2 -7 1 0 -2 0 0zm-8 2l8 -2 0 2 -7 2 -1 -1 0 -1zm-7 3l7 -2 1 1 -7 3 -1 -2 0 0zm-6 4l6 -4 1 2 -6 4 -1 -2 0 0zm-7 4l7 -4 1 2 -7 3 -1 -1 0 0zm-5 5l5 -5 1 1 -5 5 -1 -1 0 0zm-6 5l6 -5 1 1 -6 6 -1 -1 0 -1zm-4 6l4 -5 2 1 -5 5 -2 -1 1 0zm-4 7l3 -7 2 1 -4 7 -1 -1 0 0zm-4 7l4 -7 1 1 -3 6 -2 0 0 0zm-3 7l3 -7 2 0 -3 7 -2 0 0 0zm-1 7l1 -7 2 0 -2 7 -1 0 0 0zm-2 7l2 -7 1 0 -1 8 -2 0 0 -1zm0 8l0 -7 2 0 0 7 -2 0zm2 0c0,0 -1,1 -1,1 -1,0 -1,-1 -1,-1l2 0z"/>
  </g>
  <g>
   <path class="fil1" d="M150 194c-1,0 -1,-1 -1,-1 0,-1 0,-1 1,-1l0 2zm51 9l-51 -9 0 -2 51 9 0 2zm0 -2c1,0 1,1 1,1 0,0 -1,1 -1,1l0 -2z"/>
  </g>
  <g>
   <path class="fil1" d="M262 274c0,0 0,1 -1,1 0,0 -1,-1 -1,-1l2 0zm0 -8l0 8 -2 0 0 -8 2 0 0 0zm-2 -8l2 8 -2 0 -2 -8 2 0 0 0zm-2 -8l2 8 -2 0 -1 -7 1 -1 0 0zm-3 -7l3 7 -1 1 -3 -7 1 -1 0 0zm-3 -7l3 7 -1 1 -4 -7 2 -1 0 0zm-5 -7l5 7 -2 1 -4 -7 1 -1 0 0zm-5 -6l5 6 -1 1 -5 -5 1 -2 0 0zm-5 -5l5 5 -1 2 -6 -6 1 -1 1 0zm-7 -5l6 5 -1 1 -6 -5 1 -1 0 0zm-7 -4l7 4 -1 2 -7 -4 1 -2 0 0zm-7 -3l7 3 -1 2 -7 -4 1 -1 0 0zm-7 -3l7 3 -1 1 -7 -2 1 -2 0 0zm-8 -2l8 2 -1 2 -7 -2 0 -2zm0 2c-1,0 -1,-1 -1,-1 0,-1 1,-1 1,-1l0 2z"/>
  </g>
  <g>
   <path class="fil1" d="M260 274c0,-1 1,-1 1,-1 1,0 1,0 1,1l-2 0zm0 272l0 -272 2 0 0 272 -2 0zm2 0c0,1 0,1 -1,1 0,0 -1,0 -1,-1l2 0z"/>
  </g>
  <g>
   <path class="fil1" d="M201 619c0,0 -1,0 -1,-1 0,0 0,-1 1,-1l0 2zm8 -2l-8 2 0 -2 7 -1 1 1 0 0zm7 -2l-7 2 -1 -1 7 -3 1 2 0 0zm7 -4l-7 4 -1 -2 7 -3 1 1 0 0zm7 -4l-7 4 -1 -1 7 -4 1 1 0 0zm6 -5l-6 5 -1 -1 6 -5 2 1 -1 0zm6 -5l-5 5 -2 -1 6 -6 1 2 0 0zm5 -6l-5 6 -1 -1 5 -6 1 1 0 0zm5 -7l-5 7 -1 -1 4 -7 2 1 0 0zm3 -7l-3 7 -2 -1 4 -6 1 0 0 0zm3 -7l-3 7 -1 0 3 -8 1 1 0 0zm2 -8l-2 8 -1 -1 1 -7 2 0 0 0zm2 -7l-2 7 -2 0 2 -8 2 0 0 1zm0 -8l0 7 -2 0 0 -8 2 1zm-2 -1c0,0 1,0 1,0 1,0 1,0 1,1l-2 -1z"/>
  </g>
  <g>
   <path class="fil1" d="M201 618c0,0 1,0 1,0 0,1 0,1 -1,2l0 -2zm-51 9l51 -9 0 2 -51 8 0 -1zm0 1c-1,0 -1,0 -1,0 0,-1 0,-1 1,-1l0 1z"/>
  </g>
  <g>
   <path class="fil1" d="M63 556c0,-1 0,-1 1,-1 0,0 1,0 1,1l-2 0zm0 7l0 -7 2 0 0 7 -2 0 0 0zm2 8l-2 -8 2 0 1 7 -1 1 0 0zm1 7l-1 -7 1 -1 2 7 -2 1 0 0zm3 7l-3 -7 2 -1 3 7 -2 1 0 0zm4 7l-4 -7 2 -1 3 7 -1 1 0 0zm3 6l-3 -6 1 -1 4 6 -1 1 -1 0zm5 6l-4 -6 1 -1 5 6 -2 1 0 0zm6 6l-6 -6 1 -1 6 5 -1 2 0 0zm5 4l-5 -4 1 -2 5 5 -1 2 0 -1zm7 5l-7 -4 1 -2 7 4 -1 2 0 0zm6 3l-6 -3 1 -2 6 4 -1 1 0 0zm7 3l-7 -3 1 -1 7 2 -1 2 0 0zm8 2l-8 -2 1 -2 7 2 0 2 0 0zm7 2l-7 -2 0 -2 7 2 0 2 0 0zm8 0l-8 0 0 -2 8 0 0 2 0 0zm7 0l-7 0 0 -2 7 0 0 2 0 0zm8 -1l-8 1 0 -2 8 -1 0 2zm0 -2c0,0 1,1 1,1 0,1 -1,1 -1,1l0 -2z"/>
  </g>
  <g>
   <path class="fil1" d="M105 572l-1 -4 2 0 1 3 -2 1 0 0zm1 3l-1 -3 1 -1 2 4 -2 0 0 0zm2 3l-2 -3 2 -1 1 3 -1 2 0 -1zm2 3l-2 -2 1 -2 3 3 -1 1 -1 0zm4 2l-3 -2 1 -1 3 2 -1 1 0 0zm3 1l-3 -1 0 -1 4 1 -1 2 0 -1zm4 1l-4 0 1 -2 3 0 0 2 0 0zm4 0l-4 0 0 -2 3 0 1 2 0 0zm3 -1l-3 1 -1 -2 4 -1 0 2 0 0zm3 -2l-3 2 -1 -2 3 -1 1 1 0 0zm3 -2l-3 2 -1 -1 3 -3 1 2 0 0zm2 -3l-2 3 -1 -1 2 -3 2 1 -1 0zm2 -3l-1 3 -2 -1 1 -3 2 1 0 0zm1 -4l-1 4 -2 -1 1 -3 2 0 0 0zm0 -4l0 4 -2 0 0 -4 2 0 0 0zm-1 -3l1 3 -2 1 -1 -4 2 0 0 0zm-1 -4l1 4 -2 0 -1 -3 1 -1 1 0zm-3 -2l2 2 -1 1 -2 -2 1 -2 0 1zm-3 -3l3 2 -1 2 -3 -3 1 -1 0 0zm-3 -2l3 2 -1 2 -3 -2 1 -2 0 0zm-3 -1l3 1 0 2 -4 -1 1 -2 0 0zm-4 0l4 0 -1 2 -3 0 0 -2 0 0zm-4 1l4 -1 0 2 -3 0 -1 -1 0 0zm-3 1l3 -1 1 1 -4 2 0 -2 0 0zm-3 2l3 -2 1 2 -3 2 -2 -2 1 0zm-3 3l2 -3 2 2 -3 2 -1 -1 0 0zm-2 3l2 -3 1 1 -1 3 -2 -1 0 0zm-1 3l1 -3 2 1 -2 3 -1 0 0 -1zm-1 4l1 -3 2 0 -1 3 -2 0 0 0z"/>
  </g>
  <g>
   <path class="fil1" d="M91 573l0 -5 2 0 0 5 -2 0 0 0zm2 5l-2 -5 2 0 1 4 -1 1 0 0zm1 4l-1 -4 1 -1 2 5 -2 1 0 -1zm3 5l-3 -4 2 -1 3 4 -2 1 0 0zm3 3l-3 -3 2 -2 3 4 -2 1 0 0zm4 3l-4 -3 2 -1 3 3 -1 2 0 -1zm4 3l-4 -2 1 -2 4 2 0 2 -1 0zm5 2l-4 -2 0 -2 5 2 -1 2 0 0zm5 1l-5 -1 1 -2 4 1 0 2 0 0zm5 0l-5 0 0 -2 5 0 0 2 0 0zm5 -1l-5 1 0 -2 5 -1 0 2 0 0zm5 -1l-5 1 0 -2 4 -1 1 2 0 0zm4 -2l-4 2 -1 -2 4 -2 1 2 0 0zm4 -3l-4 3 -1 -2 4 -2 1 1 0 0zm4 -3l-4 3 -1 -1 3 -4 2 1 0 1zm3 -5l-3 4 -2 -1 3 -4 2 1 0 0zm2 -4l-2 4 -2 0 2 -5 2 1 0 0zm2 -5l-2 5 -2 -1 2 -4 2 0 0 0zm0 -4l0 4 -2 0 1 -5 1 1 0 0zm0 -5l0 5 -1 0 0 -5 1 -1 0 1zm0 -5l0 4 -1 1 -1 -5 2 0 0 0zm-2 -5l2 5 -2 0 -2 -4 2 -1 0 0zm-2 -4l2 4 -2 1 -2 -4 2 -1 0 0zm-3 -4l3 4 -2 1 -3 -4 2 -1 0 0zm-4 -4l4 4 -2 1 -3 -3 1 -2 0 0zm-4 -3l4 3 -1 2 -4 -3 1 -2 0 0zm-4 -2l4 2 -1 2 -4 -2 1 -2 0 0zm-5 -1l5 1 -1 2 -4 -1 0 -2 0 0zm-5 -1l5 1 0 2 -5 -1 0 -2 0 0zm-5 1l5 -1 0 2 -5 0 0 -1 0 0zm-5 1l5 -1 0 1 -4 1 -1 -1 0 0zm-4 1l4 -1 1 1 -5 2 -1 -2 1 0zm-5 3l4 -3 1 2 -4 2 -1 -1 0 0zm-4 3l4 -3 1 1 -3 3 -2 -1 0 0zm-3 4l3 -4 2 1 -3 4 -2 -1 0 0zm-3 4l3 -4 2 1 -3 4 -2 -1 0 0zm-1 4l1 -4 2 0 -2 5 -1 -1 0 0zm-2 5l2 -5 1 1 -1 4 -2 0 0 0zm0 5l0 -5 2 0 0 5 -2 0 0 0z"/>
  </g>
  <g>
   <path class="fil1" d="M69 564c0,-1 0,-1 1,-1 0,0 0,0 0,1l-1 0zm0 9l0 -9 1 0 0 9 0 0 -1 0zm1 0c0,0 0,0 0,0 -1,0 -1,0 -1,0l1 0zm7 1l-7 -1 0 -1 7 1 0 0 0 1zm0 -1c0,0 0,0 0,0 0,1 0,1 0,1l0 -1zm-1 -1l1 1 -1 1 0 -1 -1 0 1 -1zm0 1c-1,0 -1,0 -1,-1 1,0 1,0 1,0l0 1zm0 -3l0 3 -1 0 0 -3 0 0 1 0zm-1 0c0,0 0,0 0,-1 0,0 1,1 1,1l-1 0zm1 -3l0 3 -1 0 0 -3 0 0 1 0zm-1 0c0,0 0,0 0,0 0,0 1,0 1,0l-1 0zm1 -2l0 2 -1 0 0 -3 0 0 1 1zm-1 -1c0,0 1,0 1,0 0,0 0,0 0,1l-1 -1zm3 -1l-2 2 -1 -1 2 -2 0 0 1 1zm-1 -1c0,0 1,0 1,0 0,0 0,1 0,1l-1 -1zm3 0l-2 1 -1 -1 3 0 0 0 0 0zm0 0c0,0 0,0 0,0 0,0 0,0 0,0l0 0zm1 0l-1 0 0 0 1 0 0 0 0 0zm0 0c0,0 1,0 1,0 0,0 -1,0 -1,0l0 0zm3 1l-3 -1 0 0 3 0 0 0 0 1zm0 -1c0,0 0,0 0,1 0,0 0,0 0,0l0 -1zm1 3l-2 -2 1 -1 2 2 0 0 -1 1zm1 -1c0,0 0,1 -1,1 0,0 0,0 0,0l1 -1zm0 3l-1 -2 1 -1 1 3 0 0 -1 0zm1 0c0,0 -1,1 -1,1 0,0 0,0 0,-1l1 0zm-1 3l0 -3 1 0 0 3 0 0 -1 0zm1 0c0,0 -1,0 -1,0 0,0 0,0 0,0l1 0zm-2 3l1 -3 1 0 -1 3 0 0 -1 0zm1 0c0,0 -1,0 -1,0 0,0 0,0 0,0l1 0zm-2 0l1 -1 1 1 -1 1 0 0 -1 -1zm1 1c0,0 -1,0 -1,0 0,-1 0,-1 0,-1l1 1zm-2 0l1 -1 1 1 -2 1 0 -1zm0 1c0,0 0,0 0,-1 0,0 0,0 0,0l0 1z"/>
  </g>
  <g>
   <path class="fil1" d="M105 493l-1 -4 2 0 1 4 -2 0 0 0zm1 3l-1 -3 1 -1 2 4 -2 0 0 0zm2 3l-2 -3 2 -1 1 4 -1 1 0 -1zm2 3l-2 -2 1 -2 3 3 -1 1 -1 0zm4 2l-3 -2 1 -1 3 2 -1 1 0 0zm3 2l-3 -2 0 -1 4 1 -1 2 0 0zm4 0l-4 0 1 -2 3 0 0 2 0 0zm4 0l-4 0 0 -2 3 0 1 2 0 0zm3 -1l-3 1 -1 -2 4 -1 0 2 0 0zm3 -2l-3 2 -1 -2 3 -1 1 1 0 0zm3 -2l-3 2 -1 -1 3 -2 1 1 0 0zm2 -3l-2 3 -1 -1 2 -3 2 1 -1 0zm2 -3l-1 3 -2 -1 1 -3 2 1 0 0zm1 -4l-1 4 -2 -1 1 -3 2 0 0 0zm0 -4l0 4 -2 0 0 -4 2 0 0 0zm-1 -3l1 3 -2 1 -1 -4 2 0 0 0zm-1 -3l1 3 -2 0 -1 -3 1 -1 1 1zm-3 -3l2 2 -1 2 -2 -3 1 -1 0 0zm-3 -3l3 3 -1 1 -3 -2 1 -2 0 0zm-3 -1l3 1 -1 2 -3 -2 1 -2 0 1zm-3 -1l3 0 0 2 -4 -1 1 -1 0 0zm-4 -1l4 1 -1 1 -3 0 0 -2 0 0zm-4 1l4 -1 0 2 -3 1 -1 -2 0 0zm-3 1l3 -1 1 2 -4 1 0 -2 0 0zm-3 2l3 -2 1 2 -3 2 -2 -2 1 0zm-3 3l2 -3 2 2 -3 2 -1 -1 0 0zm-2 3l2 -3 1 1 -1 3 -2 -1 0 0zm-1 4l1 -4 2 1 -2 3 -1 0 0 0zm-1 3l1 -3 2 0 -1 3 -2 0 0 0z"/>
  </g>
  <g>
   <path class="fil1" d="M91 494l0 -5 2 0 0 5 -2 0 0 0zm2 5l-2 -5 2 0 1 4 -1 1 0 0zm1 5l-1 -5 1 -1 2 5 -2 1 0 0zm3 4l-3 -4 2 -1 3 4 -2 1 0 0zm3 3l-3 -3 2 -1 3 3 -2 2 0 -1zm4 4l-4 -3 2 -2 3 3 -1 2 0 0zm4 2l-4 -2 1 -2 4 3 0 1 -1 0zm5 2l-4 -2 0 -2 5 2 -1 2 0 0zm5 1l-5 -1 1 -2 4 1 0 2 0 0zm5 0l-5 0 0 -2 5 0 0 2 0 0zm5 -1l-5 1 0 -2 5 0 0 1 0 0zm5 -1l-5 1 0 -1 4 -2 1 2 0 0zm4 -2l-4 2 -1 -2 4 -2 1 2 0 0zm4 -3l-4 3 -1 -2 4 -2 1 1 0 0zm4 -3l-4 3 -1 -1 3 -4 2 2 0 0zm3 -4l-3 4 -2 -2 3 -3 2 0 0 1zm2 -5l-2 4 -2 0 2 -5 2 1 0 0zm2 -4l-2 4 -2 0 2 -5 2 0 0 1zm0 -5l0 4 -2 0 1 -4 1 0 0 0zm0 -5l0 5 -1 0 0 -5 1 0 0 0zm0 -5l0 5 -1 0 -1 -5 2 0 0 0zm-2 -5l2 5 -2 1 -2 -5 2 -1 0 0zm-2 -4l2 4 -2 1 -2 -4 2 -1 0 0zm-3 -4l3 4 -2 1 -3 -4 2 -1 0 0zm-4 -4l4 4 -2 1 -3 -3 1 -2 0 0zm-4 -2l4 2 -1 2 -4 -3 1 -1 0 0zm-4 -3l4 3 -1 1 -4 -2 1 -2 0 0zm-5 -1l5 1 -1 2 -4 -1 0 -2 0 0zm-5 0l5 0 0 2 -5 -1 0 -1 0 0zm-5 0l5 0 0 1 -5 1 0 -2 0 0zm-5 1l5 -1 0 2 -4 1 -1 -2 0 0zm-4 1l4 -1 1 2 -5 1 -1 -2 1 0zm-5 3l4 -3 1 2 -4 2 -1 -1 0 0zm-4 3l4 -3 1 1 -3 3 -2 -1 0 0zm-3 4l3 -4 2 1 -3 4 -2 -1 0 0zm-3 4l3 -4 2 1 -3 4 -2 -1 0 0zm-1 4l1 -4 2 1 -2 4 -1 0 0 -1zm-2 5l2 -4 1 0 -1 5 -2 -1 0 0zm0 5l0 -5 2 0 0 5 -2 0 0 0z"/>
  </g>
  <g>
   <path class="fil1" d="M69 487c0,0 0,0 0,0 0,0 1,0 1,0l-1 0zm11 9l-11 -9 1 0 11 8 0 0 -1 1zm1 -1c0,0 0,0 0,1 0,0 0,0 -1,0l1 -1zm0 -12l0 12 -1 0 0 -12 1 0zm-1 0c0,0 0,-1 1,-1 0,0 0,1 0,1l-1 0z"/>
  </g>
  <g>
   <path class="fil1" d="M70 488c-1,0 -1,-1 -1,-1 0,0 0,0 1,0l0 1zm16 0l-16 0 0 -1 16 0 0 1zm0 -1c0,0 1,0 1,0 0,0 -1,1 -1,1l0 -1z"/>
  </g>
  <g>
   <path class="fil1" d="M105 335l-1 -4 2 0 1 4 -2 0 0 0zm1 3l-1 -3 1 -1 2 4 -2 0 0 0zm2 3l-2 -3 2 -1 1 4 -1 1 0 -1zm2 3l-2 -2 1 -2 3 3 -1 1 -1 0zm4 2l-3 -2 1 -1 3 2 -1 1 0 0zm3 2l-3 -2 0 -1 4 1 -1 2 0 0zm4 0l-4 0 1 -2 3 0 0 2 0 0zm4 0l-4 0 0 -2 3 0 1 2 0 0zm3 -1l-3 1 -1 -2 4 -1 0 2 0 0zm3 -2l-3 2 -1 -2 3 -1 1 1 0 0zm3 -2l-3 2 -1 -1 3 -2 1 1 0 0zm2 -3l-2 3 -1 -1 2 -3 2 1 -1 0zm2 -3l-1 3 -2 -1 1 -3 2 1 0 0zm1 -4l-1 4 -2 -1 1 -3 2 0 0 0zm0 -4l0 4 -2 0 0 -4 2 0 0 0zm-1 -3l1 3 -2 1 -1 -4 2 0 0 0zm-1 -3l1 3 -2 0 -1 -3 1 -1 1 1zm-3 -3l2 2 -1 2 -2 -3 1 -1 0 0zm-3 -3l3 3 -1 1 -3 -2 1 -2 0 0zm-3 -2l3 2 -1 2 -3 -2 1 -2 0 0zm-3 0l3 0 0 2 -4 -1 1 -2 0 1zm-4 -1l4 0 -1 2 -3 0 0 -2 0 0zm-4 1l4 -1 0 2 -3 1 -1 -2 0 0zm-3 1l3 -1 1 2 -4 1 0 -2 0 0zm-3 2l3 -2 1 2 -3 2 -2 -2 1 0zm-3 3l2 -3 2 2 -3 2 -1 -1 0 0zm-2 3l2 -3 1 1 -1 3 -2 -1 0 0zm-1 4l1 -4 2 1 -2 3 -1 0 0 0zm-1 3l1 -3 2 0 -1 3 -2 0 0 0z"/>
  </g>
  <g>
   <path class="fil1" d="M91 336l0 -5 2 0 0 5 -2 0 0 0zm2 5l-2 -5 2 0 1 4 -1 1 0 0zm1 5l-1 -5 1 -1 2 5 -2 1 0 0zm3 4l-3 -4 2 -1 3 4 -2 1 0 0zm3 3l-3 -3 2 -1 3 3 -2 2 0 -1zm4 4l-4 -3 2 -2 3 3 -1 2 0 0zm4 2l-4 -2 1 -2 4 3 0 1 -1 0zm5 2l-4 -2 0 -2 5 2 -1 2 0 0zm5 1l-5 -1 1 -2 4 1 0 2 0 0zm5 0l-5 0 0 -2 5 0 0 2 0 0zm5 -1l-5 1 0 -2 5 0 0 1 0 0zm5 -1l-5 1 0 -1 4 -2 1 2 0 0zm4 -2l-4 2 -1 -2 4 -2 1 2 0 0zm4 -3l-4 3 -1 -2 4 -2 1 1 0 0zm4 -3l-4 3 -1 -1 3 -4 2 2 0 0zm3 -4l-3 4 -2 -2 3 -3 2 0 0 1zm2 -5l-2 4 -2 0 2 -5 2 1 0 0zm2 -4l-2 4 -2 0 2 -5 2 0 0 1zm0 -5l0 4 -2 0 1 -5 1 1 0 0zm0 -5l0 5 -1 0 0 -5 1 0 0 0zm0 -5l0 5 -1 0 -1 -5 2 0 0 0zm-2 -5l2 5 -2 1 -2 -5 2 -1 0 0zm-2 -4l2 4 -2 1 -2 -4 2 -1 0 0zm-3 -4l3 4 -2 1 -3 -4 2 -1 0 0zm-4 -4l4 4 -2 1 -3 -3 1 -2 0 0zm-4 -2l4 2 -1 2 -4 -3 1 -1 0 0zm-4 -3l4 3 -1 1 -4 -2 1 -2 0 0zm-5 -1l5 1 -1 2 -4 -1 0 -2 0 0zm-5 -1l5 1 0 2 -5 -1 0 -2 0 0zm-5 1l5 -1 0 2 -5 1 0 -2 0 0zm-5 1l5 -1 0 2 -4 1 -1 -2 0 0zm-4 1l4 -1 1 1 -5 2 -1 -2 1 0zm-5 3l4 -3 1 2 -4 2 -1 -1 0 0zm-4 3l4 -3 1 1 -3 3 -2 -1 0 0zm-3 4l3 -4 2 1 -3 4 -2 -1 0 0zm-3 4l3 -4 2 1 -3 4 -2 -1 0 0zm-1 4l1 -4 2 1 -2 4 -1 0 0 -1zm-2 5l2 -4 1 0 -1 5 -2 -1 0 0zm0 5l0 -5 2 0 0 5 -2 0 0 0z"/>
  </g>
  <g>
   <path class="fil1" d="M74 336c0,0 0,0 0,1 0,0 0,0 0,0l0 -1zm-1 0l1 0 0 1 -1 0 -1 0 1 -1zm0 1c-1,0 -1,0 -1,0 0,-1 0,-1 1,-1l0 1zm-2 -2l2 1 -1 1 -1 -1 0 0 0 -1zm0 1c0,0 0,0 0,0 0,-1 0,-1 0,-1l0 1zm0 -1l1 0 -1 1 -1 -1 0 0 1 0zm-1 0c0,0 0,0 0,0 0,-1 0,-1 1,0l-1 0zm0 -2l1 2 -1 0 -1 -2 0 0 1 0zm-1 0c0,0 0,0 1,0 0,0 0,0 0,0l-1 0zm1 -4l0 4 -1 0 0 -4 0 0 1 0zm-1 0c0,0 0,0 1,0 0,0 0,0 0,0l-1 0zm2 -1l-1 2 -1 -1 1 -1 0 0 1 0zm-1 0c0,-1 0,-1 0,-1 1,1 1,1 1,1l-1 0zm2 -1l-1 1 -1 0 1 -1 0 0 1 0zm-1 0c0,-1 0,-1 1,0 0,0 0,0 0,0l-1 0zm2 -1l-2 1 0 0 1 -1 1 0 0 0zm-1 0c1,0 1,0 1,0 0,0 0,0 0,0l-1 0zm2 1l-1 0 0 -1 1 0 0 0 0 1zm0 -1c0,0 1,0 1,0 0,0 -1,1 -1,1l0 -1zm2 1l-2 -1 0 0 2 1 0 0 0 0zm0 0c0,0 0,0 0,0 0,0 0,0 0,0l0 0zm2 2l-3 -2 1 0 2 1 1 0 -1 1zm0 -1c1,1 1,1 1,1 -1,0 -1,0 -1,0l0 -1zm8 10l-8 -9 1 -1 7 9 1 1 -1 0zm0 -1c1,1 1,1 0,1 0,0 0,0 0,0l0 -1zm1 -12l0 13 -1 0 0 -13 1 0zm-1 0c0,0 0,0 0,0 0,0 1,0 1,0l-1 0z"/>
  </g>
  <g>
   <path class="fil1" d="M105 256l-1 -4 2 0 1 4 -2 0 0 0zm1 3l-1 -3 1 -1 2 4 -2 1 0 -1zm2 4l-2 -3 2 -1 1 3 -1 1 0 0zm2 2l-2 -2 1 -2 3 3 -1 1 -1 0zm4 2l-3 -2 1 -1 3 2 -1 2 0 -1zm3 2l-3 -1 0 -2 4 1 -1 2 0 0zm4 0l-4 0 1 -2 3 1 0 1 0 0zm4 0l-4 0 0 -1 3 -1 1 2 0 0zm3 -1l-3 1 -1 -2 4 -1 0 2 0 0zm3 -1l-3 1 -1 -2 3 -1 1 1 0 1zm3 -3l-3 2 -1 -1 3 -2 1 1 0 0zm2 -3l-2 3 -1 -1 2 -3 2 1 -1 0zm2 -3l-1 3 -2 -1 1 -3 2 1 0 0zm1 -4l-1 4 -2 -1 1 -3 2 0 0 0zm0 -3l0 3 -2 0 0 -3 2 -1 0 1zm-1 -4l1 3 -2 1 -1 -4 2 0 0 0zm-1 -3l1 3 -2 1 -1 -3 1 -1 1 0zm-3 -3l2 3 -1 1 -2 -3 1 -1 0 0zm-3 -3l3 3 -1 1 -3 -2 1 -2 0 0zm-3 -1l3 1 -1 2 -3 -2 1 -1 0 0zm-3 -1l3 1 0 1 -4 -1 1 -1 0 0zm-4 -1l4 1 -1 1 -3 0 0 -2 0 0zm-4 1l4 -1 0 2 -3 1 -1 -2 0 0zm-3 1l3 -1 1 2 -4 1 0 -2 0 0zm-3 2l3 -2 1 2 -3 2 -2 -1 1 -1zm-3 3l2 -2 2 1 -3 2 -1 -1 0 0zm-2 3l2 -3 1 1 -1 3 -2 -1 0 0zm-1 4l1 -4 2 1 -2 3 -1 0 0 0zm-1 3l1 -3 2 0 -1 3 -2 0 0 0z"/>
  </g>
  <g>
   <path class="fil1" d="M91 257l0 -5 2 0 0 5 -2 0 0 0zm2 5l-2 -5 2 0 1 5 -1 0 0 0zm1 5l-1 -5 1 -1 2 5 -2 1 0 0zm3 4l-3 -4 2 -1 3 4 -2 1 0 0zm3 4l-3 -4 2 -1 3 3 -2 2 0 0zm4 3l-4 -3 2 -2 3 3 -1 2 0 0zm4 2l-4 -2 1 -2 4 3 0 1 -1 0zm5 2l-4 -2 0 -1 5 1 -1 2 0 0zm5 1l-5 -1 1 -2 4 1 0 2 0 0zm5 0l-5 0 0 -2 5 0 0 2 0 0zm5 0l-5 0 0 -2 5 0 0 1 0 1zm5 -2l-5 1 0 -1 4 -1 1 1 0 0zm4 -2l-4 2 -1 -1 4 -3 1 2 0 0zm4 -3l-4 3 -1 -1 4 -3 1 1 0 0zm4 -3l-4 3 -1 -1 3 -3 2 1 0 0zm3 -4l-3 4 -2 -1 3 -4 2 1 0 0zm2 -5l-2 5 -2 -1 2 -4 2 0 0 0zm2 -4l-2 4 -2 0 2 -5 2 1 0 0zm0 -5l0 5 -2 -1 1 -4 1 0 0 0zm0 -5l0 5 -1 0 0 -5 1 0 0 0zm0 -5l0 5 -1 0 -1 -4 2 -1 0 0zm-2 -4l2 4 -2 1 -2 -5 2 -1 0 1zm-2 -5l2 4 -2 1 -2 -4 2 -1 0 0zm-3 -4l3 4 -2 1 -3 -4 2 -1 0 0zm-4 -3l4 3 -2 1 -3 -3 1 -2 0 1zm-4 -3l4 2 -1 2 -4 -3 1 -1 0 0zm-4 -2l4 2 -1 1 -4 -2 1 -2 0 1zm-5 -2l5 1 -1 2 -4 -1 0 -2 0 0zm-5 0l5 0 0 2 -5 -1 0 -1 0 0zm-5 0l5 0 0 1 -5 1 0 -2 0 0zm-5 1l5 -1 0 2 -4 1 -1 -2 0 0zm-4 1l4 -1 1 2 -5 1 -1 -2 1 0zm-5 3l4 -3 1 2 -4 3 -1 -2 0 0zm-4 3l4 -3 1 1 -3 3 -2 -1 0 0zm-3 4l3 -4 2 1 -3 4 -2 -1 0 0zm-3 4l3 -4 2 1 -3 4 -2 -1 0 0zm-1 5l1 -5 2 1 -2 4 -1 0 0 0zm-2 4l2 -4 1 0 -1 5 -2 -1 0 0zm0 5l0 -5 2 1 0 4 -2 0 0 0z"/>
  </g>
  <g>
   <path class="fil1" d="M73 254c0,1 0,1 0,1 0,0 -1,0 -1,0l1 -1zm0 -1l0 1 -1 1 0 -2 0 -1 1 1zm-1 0c0,0 0,-1 0,-1 0,0 0,0 1,1l-1 0zm-2 -3l2 2 0 1 -3 -2 1 -1 0 0zm-1 1c0,0 0,-1 0,-1 0,0 1,0 1,0l-1 1zm17 0l-16 0 0 -1 16 0 0 1zm0 -1c0,0 1,0 1,1 0,0 -1,0 -1,0l0 -1z"/>
  </g>
  <g>
   <path class="fil1" d="M187 374l-1 -3 2 0 0 3 -1 0 0 0zm1 4l-1 -4 1 0 2 3 -2 1 0 0zm2 3l-2 -3 1 -1 2 3 -1 1 0 0zm2 3l-2 -3 1 -1 3 2 -2 2 0 0zm3 2l-3 -2 1 -2 4 2 -1 2 -1 0zm4 1l-3 -1 0 -2 4 1 -1 2 0 0zm4 1l-4 -1 1 -2 3 1 0 2 0 0zm3 0l-3 0 0 -2 3 0 1 2 -1 0zm4 -1l-3 1 -1 -2 3 -1 1 2 0 0zm3 -2l-3 2 -1 -2 3 -2 1 2 0 0zm3 -3l-3 3 -1 -1 3 -3 1 1 0 0zm2 -2l-2 2 -1 -1 2 -3 1 1 0 1zm2 -4l-2 3 -1 0 1 -3 2 0 0 0zm1 -3l-1 3 -2 0 1 -4 2 1 0 0zm0 -4l0 4 -2 0 0 -4 2 0 0 0zm-1 -4l1 4 -2 0 -1 -3 2 -1 0 0zm-2 -3l2 3 -2 1 -1 -3 1 -1 0 0zm-2 -3l2 3 -1 1 -2 -3 1 -1 0 0zm-3 -2l3 2 -1 2 -3 -3 1 -1 0 0zm-3 -2l3 2 -1 1 -3 -1 1 -2 0 0zm-3 -1l3 1 -1 2 -3 -1 0 -2 1 0zm-4 0l3 0 0 2 -3 0 0 -2 0 0zm-4 0l4 0 0 2 -3 0 -1 -2 0 0zm-3 2l3 -2 1 2 -4 1 -1 -1 1 0zm-4 2l3 -2 2 1 -4 2 -1 -1 0 0zm-2 2l2 -2 2 1 -3 3 -1 -1 0 -1zm-2 4l2 -3 1 1 -2 3 -1 -1 0 0zm-1 3l1 -3 2 0 -2 4 -1 -1 0 0zm-1 4l1 -4 1 1 0 3 -2 0 0 0z"/>
  </g>
  <g>
   <path class="fil1" d="M173 376l0 -5 2 0 0 5 -2 0 0 0zm1 4l-1 -4 2 -1 1 5 -2 1 0 -1zm2 5l-2 -4 2 -1 2 4 -2 1 0 0zm3 4l-3 -4 2 -1 3 4 -2 1 0 0zm3 4l-3 -4 2 -1 3 4 -2 1 0 0zm4 3l-4 -3 2 -1 3 3 -1 1 0 0zm4 3l-4 -3 1 -1 4 2 0 2 -1 0zm5 1l-4 -1 0 -2 5 2 -1 1 0 0zm5 1l-5 -1 1 -1 4 0 0 2 0 0zm5 1l-5 -1 0 -2 5 1 0 2 0 0zm5 -1l-5 1 0 -2 5 -1 0 2 0 0zm5 -1l-5 1 -1 -2 5 -1 1 2 0 0zm4 -2l-4 2 -1 -2 4 -2 1 1 0 1zm4 -3l-4 2 -1 -1 4 -3 1 2 0 0zm3 -4l-3 4 -1 -2 3 -3 2 1 -1 0zm4 -4l-3 4 -2 -1 3 -4 2 1 0 0zm2 -4l-2 4 -2 -1 2 -4 2 1 0 0zm1 -5l-1 5 -2 -1 2 -4 1 0 0 0zm1 -5l-1 5 -1 0 1 -5 1 0 0 0zm0 -5l0 5 -1 0 0 -5 1 0 0 0zm-1 -4l1 4 -1 1 -1 -5 1 0 0 0zm-1 -5l1 5 -1 0 -2 -4 2 -1 0 0zm-2 -4l2 4 -2 1 -2 -5 2 -1 0 1zm-3 -5l3 4 -2 2 -3 -4 1 -2 1 0zm-4 -3l3 3 -1 2 -3 -4 1 -1 0 0zm-4 -3l4 3 -1 1 -4 -2 1 -2 0 0zm-4 -2l4 2 -1 2 -4 -2 1 -2 0 0zm-5 -1l5 1 -1 2 -5 -2 1 -1 0 0zm-5 -1l5 1 0 1 -5 0 0 -2 0 0zm-5 0l5 0 0 2 -5 0 0 -2 0 0zm-5 1l5 -1 0 2 -4 1 -1 -2 0 0zm-4 2l4 -2 1 2 -5 2 -1 -2 1 0zm-5 2l4 -2 1 2 -4 2 -1 -2 0 0zm-4 3l4 -3 1 2 -3 3 -2 -1 0 -1zm-3 4l3 -3 2 1 -3 3 -2 -1 0 0zm-3 4l3 -4 2 1 -3 4 -2 -1 0 0zm-2 5l2 -5 2 1 -2 5 -2 -1 0 0zm-1 5l1 -5 2 1 -1 4 -2 0 0 0zm0 5l0 -5 2 0 0 5 -2 0 0 0z"/>
  </g>
  <g>
   <path class="fil1" d="M256 373c0,0 0,1 0,1 0,0 0,0 -1,0l1 -1zm-17 -9l17 9 -1 1 -16 -9 0 0 0 -1zm0 1c0,0 0,0 0,0 0,-1 0,-1 0,-1l0 1zm0 12l0 -12 1 0 0 12 -1 0zm1 0c0,0 -1,0 -1,0 0,0 0,0 0,0l1 0z"/>
  </g>
  <g>
   <path class="fil1" d="M187 453l-1 -3 2 0 0 3 -1 0 0 0zm1 4l-1 -4 1 0 2 3 -2 1 0 0zm2 3l-2 -3 1 -1 2 3 -1 1 0 0zm2 2l-2 -2 1 -1 3 2 -2 2 0 -1zm3 3l-3 -2 1 -2 4 2 -1 2 -1 0zm4 1l-3 -1 0 -2 4 1 -1 2 0 0zm4 1l-4 -1 1 -2 3 1 0 2 0 0zm3 -1l-3 1 0 -2 3 0 1 1 -1 0zm4 -1l-3 1 -1 -1 3 -1 1 1 0 0zm3 -1l-3 1 -1 -1 3 -2 1 2 0 0zm3 -3l-3 3 -1 -2 3 -2 1 1 0 0zm2 -3l-2 3 -1 -1 2 -3 1 1 0 0zm2 -3l-2 3 -1 -1 1 -3 2 1 0 0zm1 -3l-1 3 -2 0 1 -4 2 1 0 0zm0 -4l0 4 -2 0 0 -4 2 0 0 0zm-1 -4l1 4 -2 0 -1 -3 2 -1 0 0zm-2 -3l2 3 -2 1 -1 -3 1 -1 0 0zm-2 -3l2 3 -1 1 -2 -3 1 -1 0 0zm-3 -2l3 2 -1 1 -3 -2 1 -2 0 1zm-3 -2l3 1 -1 2 -3 -1 1 -2 0 0zm-3 -1l3 1 -1 2 -3 -1 0 -2 1 0zm-4 0l3 0 0 2 -3 -1 0 -1 0 0zm-4 0l4 0 0 1 -3 1 -1 -2 0 0zm-3 2l3 -2 1 2 -4 1 -1 -1 1 0zm-4 2l3 -2 2 1 -4 2 -1 -1 0 0zm-2 2l2 -2 2 1 -3 3 -1 -2 0 0zm-2 4l2 -4 1 1 -2 3 -1 0 0 0zm-1 3l1 -3 2 0 -2 4 -1 -1 0 0zm-1 4l1 -4 1 0 0 4 -2 0 0 0z"/>
  </g>
  <g>
   <path class="fil1" d="M173 455l0 -5 2 0 0 4 -2 1 0 0zm1 4l-1 -4 2 -1 1 5 -2 0 0 0zm2 5l-2 -5 2 0 2 4 -2 1 0 0zm3 4l-3 -4 2 -1 3 4 -2 1 0 0zm3 4l-3 -4 2 -1 3 4 -2 1 0 0zm4 3l-4 -3 2 -1 3 3 -1 1 0 0zm4 3l-4 -3 1 -1 4 2 0 2 -1 0zm5 1l-4 -1 0 -2 5 1 -1 2 0 0zm5 1l-5 -1 1 -2 4 1 0 2 0 0zm5 0l-5 0 0 -2 5 1 0 1 0 0zm5 0l-5 0 0 -1 5 -1 0 2 0 0zm5 -1l-5 1 -1 -2 5 -1 1 2 0 0zm4 -3l-4 3 -1 -2 4 -2 1 1 0 0zm4 -2l-4 2 -1 -1 4 -3 1 1 0 1zm3 -4l-3 3 -1 -1 3 -3 2 1 -1 0zm4 -4l-3 4 -2 -1 3 -4 2 1 0 0zm2 -4l-2 4 -2 -1 2 -4 2 1 0 0zm1 -5l-1 5 -2 -1 2 -5 1 1 0 0zm1 -5l-1 5 -1 0 1 -5 1 0 0 0zm0 -5l0 5 -1 0 0 -5 1 0 0 0zm-1 -5l1 5 -1 0 -1 -4 1 -1 0 0zm-1 -4l1 4 -1 1 -2 -5 2 0 0 0zm-2 -5l2 5 -2 1 -2 -5 2 -1 0 0zm-3 -4l3 4 -2 1 -3 -4 1 -1 1 0zm-4 -3l3 3 -1 2 -3 -4 1 -1 0 0zm-4 -3l4 3 -1 1 -4 -2 1 -2 0 0zm-4 -2l4 2 -1 2 -4 -3 1 -1 0 0zm-5 -1l5 1 -1 2 -5 -2 1 -1 0 0zm-5 -1l5 1 0 1 -5 0 0 -2 0 0zm-5 0l5 0 0 2 -5 0 0 -2 0 0zm-5 1l5 -1 0 2 -4 1 -1 -2 0 0zm-4 2l4 -2 1 2 -5 1 -1 -1 1 0zm-5 2l4 -2 1 1 -4 3 -1 -2 0 0zm-4 3l4 -3 1 2 -3 3 -2 -2 0 0zm-3 4l3 -4 2 2 -3 3 -2 -1 0 0zm-3 4l3 -4 2 1 -3 4 -2 -1 0 0zm-2 5l2 -5 2 1 -2 5 -2 -1 0 0zm-1 5l1 -5 2 0 -1 5 -2 0 0 0zm0 5l0 -5 2 0 0 5 -2 0 0 0z"/>
  </g>
  <g>
   <path class="fil1" d="M239 454l0 -2 1 -1 0 3 0 1 -1 -1zm1 0c0,0 0,1 0,1 0,0 -1,0 -1,-1l1 0zm1 2l-1 -1 0 -1 2 1 -1 1 0 0zm1 -1c0,0 0,0 0,0 0,1 -1,1 -1,1l1 -1zm1 1l-2 0 0 -1 2 0 0 1 0 0zm0 -1c0,0 0,0 0,0 0,0 0,1 0,1l0 -1zm2 0l-2 1 0 -1 2 -1 0 0 0 1zm0 -1c0,0 0,0 0,0 0,0 0,1 0,1l0 -1zm1 -1l-1 1 -1 0 1 -2 1 1 0 0zm-1 -1c0,0 0,0 0,0 1,0 1,0 1,1l-1 -1zm2 -3l-1 4 -1 -1 1 -3 1 0 0 0zm-1 0c0,-1 0,-1 0,-1 1,0 1,1 1,1l-1 0zm1 -3l0 3 -1 0 0 -3 1 0 0 0zm-1 0c0,0 1,0 1,0 0,0 0,0 0,0l-1 0zm3 -1l-2 1 0 0 1 -2 0 0 1 1zm-1 -1c0,0 1,0 1,0 0,0 0,1 0,1l-1 -1zm2 0l-1 1 -1 -1 2 -1 0 0 0 1zm0 -1c0,0 1,0 1,0 0,1 0,1 -1,1l0 -1zm2 1l-2 0 0 -1 2 0 1 0 -1 1zm0 -1c1,0 1,0 1,1 0,0 0,0 -1,0l0 -1zm2 2l-2 -1 1 -1 1 1 0 0 0 1zm0 -1c0,0 0,1 0,1 0,0 0,0 0,0l0 -1zm0 2l0 -1 0 -1 1 1 0 0 -1 1zm1 -1c0,0 0,1 0,1 0,0 0,0 -1,0l1 -1zm0 3l-1 -2 1 -1 1 3 0 0 -1 0zm1 0c0,0 0,0 0,0 0,0 -1,0 -1,0l1 0zm-1 4l0 -4 1 0 0 4 0 0 -1 0zm1 0c0,0 0,0 0,0 -1,0 -1,0 -1,0l1 0zm-2 2l1 -3 1 1 -1 2 0 1 -1 -1zm1 0c0,1 0,1 0,1 -1,0 -1,-1 -1,-1l1 0zm-1 1l0 -1 1 1 -1 0 0 1 0 -1zm0 0c0,1 0,1 0,0 -1,0 -1,0 0,0l0 0zm-2 1l2 -1 0 1 -1 0 -1 1 0 -1zm1 0c-1,1 -1,1 -1,0 0,0 0,0 0,0l1 0zm-3 0l2 0 0 1 -2 0 0 -1 0 0zm0 1c0,0 0,-1 0,-1 0,0 0,0 0,0l0 1zm-1 -2l1 1 0 0 -2 0 0 -1 1 0zm-1 1c0,-1 0,-1 0,-1 0,0 0,0 1,0l-1 1zm-1 -3l2 2 -1 0 -1 -1 -1 -1 1 0zm0 1c-1,-1 -1,-1 0,-1 0,0 0,0 0,0l0 1zm0 -4l0 3 -1 0 0 -2 1 -1 0 0zm-1 1c0,-1 0,-1 0,-1 0,0 1,0 1,0l-1 1zm0 -4l1 3 -1 1 -1 -4 1 0 0 0zm-1 0c0,0 0,0 0,-1 0,0 1,1 1,1l-1 0zm0 -2l1 2 -1 0 -1 -1 1 -1 0 0zm-1 1c0,-1 0,-1 1,-1 0,0 0,0 0,0l-1 1zm-1 -2l2 1 0 1 -2 -1 0 -1 0 0zm0 1c-1,0 -1,0 -1,-1 1,0 1,0 1,0l0 1zm-2 -1l2 0 0 1 -2 0 0 -1 0 0zm0 1c0,0 0,0 0,-1 0,0 0,0 0,0l0 1zm-1 0l1 -1 1 1 -2 1 -1 -1 1 0zm0 1c0,0 0,0 -1,0 0,-1 0,-1 1,-1l0 1zm-1 2l0 -3 1 1 0 2 -1 0 0 0zm1 0c0,0 -1,0 -1,0 0,0 0,0 0,0l1 0zm-1 4l0 -4 1 0 0 4 -1 0 0 0zm1 0c0,0 -1,0 -1,0 0,0 0,0 0,0l1 0z"/>
  </g>
  <g>
   <path class="fil1" d="M187 532l-1 -3 2 -1 0 4 -1 0 0 0zm1 4l-1 -4 1 0 2 3 -2 1 0 0zm2 3l-2 -3 1 -1 2 3 -1 1 0 0zm2 2l-2 -2 1 -1 3 2 -2 1 0 0zm3 3l-3 -3 1 -1 4 2 -1 2 -1 0zm4 1l-3 -1 0 -2 4 1 -1 2 0 0zm4 1l-4 -1 1 -2 3 1 0 2 0 0zm3 -1l-3 1 0 -2 3 -1 1 2 -1 0zm4 -1l-3 1 -1 -2 3 0 1 1 0 0zm3 -1l-3 1 -1 -1 3 -2 1 2 0 0zm3 -3l-3 3 -1 -2 3 -2 1 1 0 0zm2 -3l-2 3 -1 -1 2 -3 1 1 0 0zm2 -3l-2 3 -1 -1 1 -3 2 1 0 0zm1 -3l-1 3 -2 -1 1 -3 2 0 0 1zm0 -4l0 3 -2 0 0 -3 2 -1 0 1zm-1 -4l1 3 -2 1 -1 -3 2 -1 0 0zm-2 -3l2 3 -2 1 -1 -3 1 -1 0 0zm-2 -3l2 3 -1 1 -2 -3 1 -1 0 0zm-3 -3l3 3 -1 1 -3 -2 1 -2 0 0zm-3 -1l3 1 -1 2 -3 -2 1 -1 0 0zm-3 -1l3 1 -1 1 -3 0 0 -2 1 0zm-4 -1l3 1 0 2 -3 -1 0 -2 0 0zm-4 1l4 -1 0 2 -3 1 -1 -2 0 0zm-3 1l3 -1 1 2 -4 1 -1 -2 1 0zm-4 3l3 -3 2 2 -4 2 -1 -1 0 0zm-2 2l2 -2 2 1 -3 2 -1 -1 0 0zm-2 3l2 -3 1 1 -2 3 -1 0 0 -1zm-1 4l1 -3 2 0 -2 3 -1 0 0 0zm-1 3l1 -3 1 0 0 4 -2 0 0 -1z"/>
  </g>
  <g>
   <path class="fil1" d="M173 533l0 -4 2 -1 0 5 -2 1 0 -1zm1 5l-1 -4 2 -1 1 5 -2 0 0 0zm2 5l-2 -5 2 0 2 4 -2 1 0 0zm3 4l-3 -4 2 -1 3 4 -2 1 0 0zm3 4l-3 -4 2 -1 3 4 -2 1 0 0zm4 3l-4 -3 2 -2 3 3 -1 2 0 0zm4 2l-4 -2 1 -2 4 3 0 2 -1 -1zm5 2l-4 -1 0 -2 5 1 -1 2 0 0zm5 1l-5 -1 1 -2 4 1 0 2 0 0zm5 0l-5 0 0 -2 5 0 0 2 0 0zm5 0l-5 0 0 -2 5 0 0 2 0 0zm5 -2l-5 2 -1 -2 5 -1 1 1 0 0zm4 -2l-4 2 -1 -1 4 -2 1 1 0 0zm4 -3l-4 3 -1 -1 4 -3 1 1 0 0zm3 -3l-3 3 -1 -1 3 -3 2 1 -1 0zm4 -4l-3 4 -2 -1 3 -4 2 1 0 0zm2 -4l-2 4 -2 -1 2 -4 2 0 0 1zm1 -5l-1 4 -2 0 2 -5 1 1 0 0zm1 -5l-1 5 -1 -1 1 -4 1 0 0 0zm0 -5l0 5 -1 0 0 -5 1 0 0 0zm-1 -5l1 5 -1 0 -1 -4 1 -1 0 0zm-1 -4l1 4 -1 1 -2 -5 2 0 0 0zm-2 -5l2 5 -2 0 -2 -4 2 -1 0 0zm-3 -4l3 4 -2 1 -3 -4 1 -1 1 0zm-4 -3l3 3 -1 1 -3 -3 1 -1 0 0zm-4 -3l4 3 -1 1 -4 -3 1 -1 0 0zm-4 -2l4 2 -1 1 -4 -2 1 -1 0 0zm-5 -2l5 2 -1 1 -5 -1 1 -2 0 0zm-5 0l5 0 0 2 -5 0 0 -2 0 0zm-5 0l5 0 0 2 -5 0 0 -2 0 0zm-5 1l5 -1 0 2 -4 1 -1 -2 0 0zm-4 2l4 -2 1 2 -5 1 -1 -1 1 0zm-5 2l4 -2 1 1 -4 3 -1 -2 0 0zm-4 3l4 -3 1 2 -3 3 -2 -2 0 0zm-3 4l3 -4 2 2 -3 3 -2 -1 0 0zm-3 4l3 -4 2 1 -3 4 -2 -1 0 0zm-2 5l2 -5 2 1 -2 4 -2 0 0 0zm-1 4l1 -4 2 0 -1 5 -2 0 0 -1zm0 5l0 -4 2 0 0 5 -2 0 0 -1z"/>
  </g>
  <g>
   <path class="fil1" d="M245 523c-1,0 -1,-1 -1,-1 0,0 1,0 1,0l0 1zm2 1l-2 -1 0 -1 2 1 0 0 0 1zm0 -1c0,0 0,0 0,1 0,0 0,0 0,0l0 -1zm1 2l-1 -1 0 -1 2 2 0 0 -1 0zm1 0c0,0 0,0 0,1 -1,0 -1,0 -1,-1l1 0zm0 3l-1 -3 1 0 1 3 0 0 -1 0zm1 0c0,0 0,1 -1,1 0,0 0,0 0,-1l1 0zm-1 1l0 -1 1 0 0 1 0 0 -1 0zm1 0c0,0 0,1 -1,1 0,0 0,-1 0,-1l1 0zm-2 3l1 -3 1 0 -1 3 0 0 -1 0zm1 0c0,0 -1,0 -1,0 0,0 0,0 0,0l1 0zm-3 2l2 -2 1 0 -2 2 0 0 -1 0zm1 0c0,0 0,1 0,0 -1,0 -1,0 -1,0l1 0zm-2 1l2 -1 0 0 -2 1 0 0 0 0zm0 0c0,0 -1,0 -1,0 0,0 0,0 1,0l0 0zm-1 -1l1 0 0 1 -1 0 0 0 0 -1zm0 1c0,0 -1,0 -1,0 0,0 1,-1 1,-1l0 1zm-2 -1l2 0 0 1 -3 -1 0 0 1 0zm-1 0c0,0 0,0 0,0 0,0 0,-1 1,0l-1 0zm-1 -2l2 2 -1 0 -2 -2 0 0 1 0zm-1 0c0,0 0,0 1,0 0,-1 0,-1 0,0l-1 0zm1 -3l0 3 -1 0 0 -3 0 0 1 0zm-1 0c0,0 0,0 0,0 0,0 1,0 1,0l-1 0zm1 -1l0 1 -1 0 0 -1 0 0 1 0zm-1 0c0,0 0,0 0,0 0,0 1,0 1,0l-1 0zm1 -3l0 3 -1 0 0 -3 1 0 0 0zm-1 0c0,0 1,0 1,0 0,0 0,0 0,0l-1 0zm3 -1l-2 1 0 0 1 -2 0 0 1 1zm-1 -1c0,0 0,0 1,0 0,0 0,0 0,1l-1 -1zm4 0l-3 1 -1 -1 4 -1 0 0 0 1zm0 -1c0,0 0,0 0,0 0,1 0,1 0,1l0 -1zm3 1l-3 0 0 -1 3 0 0 0 0 1zm0 -1c1,0 1,0 1,0 0,1 0,1 -1,1l0 -1zm4 2l-4 -1 0 -1 4 1 1 0 -1 1zm0 -1c1,0 1,0 1,0 0,1 -1,1 -1,1l0 -1zm3 3l-3 -2 1 -1 2 2 0 0 0 1zm0 -1c0,0 0,0 0,0 0,1 0,1 0,1l0 -1zm0 3l-1 -3 1 0 1 3 0 0 -1 0zm1 0c0,0 0,1 0,1 0,0 -1,0 -1,-1l1 0zm-1 2l0 -2 1 0 0 2 0 0 -1 0zm1 0c0,0 0,1 0,1 -1,0 -1,-1 -1,-1l1 0zm-2 3l1 -3 1 0 -1 3 0 0 -1 0zm1 0c0,0 0,0 0,0 -1,0 -1,0 -1,0l1 0zm-2 1l1 -2 1 1 -1 1 -1 0zm1 0c-1,1 -1,0 -1,0 0,0 0,0 0,0l1 0z"/>
  </g>
  <g>
   <path class="fil1" d="M187 295l-1 -3 2 0 0 3 -1 1 0 -1zm1 4l-1 -3 1 -1 2 3 -2 1 0 0zm2 3l-2 -3 1 -1 2 3 -1 1 0 0zm2 3l-2 -3 1 -1 3 2 -2 2 0 0zm3 2l-3 -2 1 -2 4 3 -1 1 -1 0zm4 1l-3 -1 0 -2 4 2 -1 1 0 0zm4 1l-4 -1 1 -1 3 0 0 2 0 0zm3 0l-3 0 0 -2 3 0 1 2 -1 0zm4 -1l-3 1 -1 -2 3 -1 1 2 0 0zm3 -2l-3 2 -1 -2 3 -1 1 1 0 0zm3 -2l-3 2 -1 -1 3 -3 1 1 0 1zm2 -3l-2 2 -1 -1 2 -2 1 1 0 0zm2 -3l-2 3 -1 -1 1 -3 2 0 0 1zm1 -4l-1 3 -2 0 1 -3 2 0 0 0zm0 -4l0 4 -2 0 0 -4 2 0 0 0zm-1 -3l1 3 -2 0 -1 -3 2 -1 0 1zm-2 -4l2 3 -2 1 -1 -3 1 -1 0 0zm-2 -3l2 3 -1 1 -2 -2 1 -2 0 0zm-3 -2l3 2 -1 2 -3 -3 1 -1 0 0zm-3 -2l3 2 -1 1 -3 -1 1 -2 0 0zm-3 -1l3 1 -1 2 -3 -1 0 -2 1 0zm-4 0l3 0 0 2 -3 0 0 -2 0 0zm-4 1l4 -1 0 2 -3 0 -1 -1 0 0zm-3 1l3 -1 1 1 -4 2 -1 -2 1 0zm-4 2l3 -2 2 1 -4 3 -1 -2 0 0zm-2 3l2 -3 2 1 -3 3 -1 -1 0 0zm-2 3l2 -3 1 1 -2 3 -1 -1 0 0zm-1 3l1 -3 2 1 -2 3 -1 0 0 -1zm-1 4l1 -3 1 0 0 3 -2 0 0 0z"/>
  </g>
  <g>
   <path class="fil1" d="M173 297l0 -5 2 0 0 5 -2 0 0 0zm1 5l-1 -5 2 0 1 4 -2 1 0 0zm2 4l-2 -4 2 -1 2 5 -2 0 0 0zm3 4l-3 -4 2 -1 3 4 -2 2 0 -1zm3 4l-3 -3 2 -2 3 4 -2 1 0 0zm4 3l-4 -3 2 -1 3 3 -1 1 0 0zm4 3l-4 -3 1 -1 4 2 0 2 -1 0zm5 1l-4 -1 0 -2 5 2 -1 1 0 0zm5 1l-5 -1 1 -1 4 1 0 1 0 0zm5 1l-5 -1 0 -1 5 0 0 2 0 0zm5 -1l-5 1 0 -2 5 -1 0 2 0 0zm5 -1l-5 1 -1 -2 5 -1 1 2 0 0zm4 -2l-4 2 -1 -2 4 -2 1 2 0 0zm4 -3l-4 3 -1 -2 4 -3 1 2 0 0zm3 -4l-3 4 -1 -2 3 -3 2 1 -1 0zm4 -4l-3 4 -2 -1 3 -4 2 1 0 0zm2 -4l-2 4 -2 -1 2 -4 2 1 0 0zm1 -5l-1 5 -2 -1 2 -4 1 0 0 0zm1 -4l-1 4 -1 0 1 -5 1 0 0 1zm0 -5l0 4 -1 0 0 -4 1 -1 0 1zm-1 -5l1 4 -1 1 -1 -5 1 0 0 0zm-1 -5l1 5 -1 0 -2 -4 2 -1 0 0zm-2 -4l2 4 -2 1 -2 -4 2 -1 0 0zm-3 -4l3 4 -2 1 -3 -4 1 -1 1 0zm-4 -4l3 4 -1 1 -3 -4 1 -1 0 0zm-4 -3l4 3 -1 2 -4 -3 1 -2 0 0zm-4 -2l4 2 -1 2 -4 -2 1 -2 0 0zm-5 -1l5 1 -1 2 -5 -1 1 -2 0 0zm-5 -1l5 1 0 2 -5 -1 0 -2 0 0zm-5 1l5 -1 0 2 -5 0 0 -1 0 0zm-5 0l5 0 0 1 -4 1 -1 -2 0 0zm-4 2l4 -2 1 2 -5 2 -1 -2 1 0zm-5 3l4 -3 1 2 -4 2 -1 -1 0 0zm-4 3l4 -3 1 1 -3 3 -2 -1 0 0zm-3 3l3 -3 2 1 -3 4 -2 -2 0 0zm-3 4l3 -4 2 2 -3 3 -2 0 0 -1zm-2 5l2 -4 2 0 -2 5 -2 -1 0 0zm-1 5l1 -5 2 1 -1 4 -2 0 0 0zm0 5l0 -5 2 0 0 5 -2 0 0 0z"/>
  </g>
  <g>
   <path class="fil1" d="M241 286c0,0 1,0 1,0 0,0 0,1 0,1l-1 -1zm-1 1l1 -1 1 1 -2 1 -1 0 1 -1zm0 1c0,0 0,0 0,0 -1,0 -1,0 0,-1l0 1zm-1 2l0 -2 1 0 0 3 -1 -1 0 0zm1 1c0,0 -1,0 -1,0 0,0 0,0 0,-1l1 1zm-1 1l0 -2 1 0 0 2 -1 0 0 0zm1 0c0,1 -1,1 -1,1 0,0 0,0 0,-1l1 0zm-1 3l0 -3 1 0 0 3 0 1 -1 -1zm1 0c0,0 0,1 0,1 0,0 -1,0 -1,-1l1 0zm2 3l-2 -2 0 -1 3 2 -1 1 0 0zm1 -1c0,0 0,0 0,0 0,1 -1,1 -1,1l1 -1zm3 1l-4 0 0 -1 4 1 0 1 0 -1zm0 0c1,0 1,0 1,0 0,0 -1,1 -1,0l0 0zm4 1l-4 0 0 -1 4 0 0 0 0 1zm0 -1c0,0 1,0 1,0 0,0 -1,1 -1,1l0 -1zm3 0l-3 0 0 0 3 -1 1 0 -1 1zm0 -1c0,0 1,0 1,0 0,0 0,1 -1,1l0 -1zm2 -1l-1 1 -1 0 1 -2 1 0 0 1zm-1 -1c1,0 1,0 1,0 0,0 0,0 0,1l-1 -1zm2 -3l-1 3 -1 0 1 -3 1 0 0 0zm-1 0c0,0 1,0 1,0 0,0 0,0 0,0l-1 0zm1 -1l0 1 -1 0 0 -1 1 0 0 0zm-1 0c0,0 0,0 1,0 0,0 0,0 0,0l-1 0zm0 -3l1 3 -1 0 -1 -2 1 -1 0 0zm-1 1c0,0 0,-1 1,-1 0,0 0,0 0,0l-1 1zm0 -3l1 2 -1 1 -1 -2 0 -1 1 0zm-1 1c0,0 0,-1 0,-1 0,0 0,0 1,0l-1 1zm-2 -2l2 1 0 1 -2 -1 0 -1 0 0zm0 1c-1,0 -1,0 -1,-1 0,0 1,0 1,0l0 1zm-1 -1l1 0 0 1 -1 0 0 -1 0 0zm0 1c0,0 0,0 0,0 0,-1 0,-1 0,-1l0 1zm-2 0l2 -1 0 1 -2 1 -1 -1 1 0zm0 1c0,0 -1,0 -1,0 0,-1 0,-1 1,-1l0 1zm-2 1l1 -2 1 1 -1 2 -1 -1 0 0zm1 1c-1,0 -1,0 -1,0 0,0 0,0 0,-1l1 1zm-2 2l1 -3 1 1 -1 2 -1 0 0 0zm1 0c0,1 -1,1 -1,1 0,0 0,-1 0,-1l1 0zm-1 1l0 -1 1 0 0 1 -1 0 0 0zm1 0c0,1 0,1 -1,1 0,0 0,0 0,-1l1 0zm0 3l-1 -3 1 0 1 3 -1 1 0 -1zm1 0c0,0 0,1 -1,1 0,0 0,0 0,-1l1 0zm0 2l-1 -1 1 -1 1 2 0 1 -1 -1zm1 0c0,0 0,0 0,0 0,1 0,1 -1,0l1 0zm2 1l-2 0 0 -1 2 1 0 0zm0 0c1,0 1,0 1,0 0,0 -1,1 -1,0l0 0z"/>
  </g>
  <g>
   <path class="fil1" d="M105 414l-1 -4 2 0 1 3 -2 1 0 0zm1 3l-1 -3 1 -1 2 3 -2 1 0 0zm2 3l-2 -3 2 -1 1 3 -1 1 0 0zm2 3l-2 -3 1 -1 3 3 -1 1 -1 0zm4 2l-3 -2 1 -1 3 2 -1 1 0 0zm3 1l-3 -1 0 -1 4 1 -1 2 0 -1zm4 1l-4 0 1 -2 3 0 0 2 0 0zm4 0l-4 0 0 -2 3 0 1 2 0 0zm3 -1l-3 1 -1 -2 4 -1 0 2 0 0zm3 -2l-3 2 -1 -2 3 -1 1 1 0 0zm3 -2l-3 2 -1 -1 3 -3 1 2 0 0zm2 -3l-2 3 -1 -2 2 -2 2 1 -1 0zm2 -3l-1 3 -2 -1 1 -3 2 1 0 0zm1 -4l-1 4 -2 -1 1 -3 2 0 0 0zm0 -4l0 4 -2 0 0 -4 2 0 0 0zm-1 -3l1 3 -2 1 -1 -4 2 0 0 0zm-1 -4l1 4 -2 0 -1 -3 1 -1 1 0zm-3 -2l2 2 -1 1 -2 -2 1 -2 0 1zm-3 -3l3 2 -1 2 -3 -3 1 -1 0 0zm-3 -2l3 2 -1 2 -3 -2 1 -2 0 0zm-3 -1l3 1 0 2 -4 -1 1 -2 0 0zm-4 0l4 0 -1 2 -3 0 0 -2 0 0zm-4 1l4 -1 0 2 -3 0 -1 -1 0 0zm-3 1l3 -1 1 1 -4 2 0 -2 0 0zm-3 2l3 -2 1 2 -3 2 -2 -2 1 0zm-3 3l2 -3 2 2 -3 2 -1 -1 0 0zm-2 3l2 -3 1 1 -1 3 -2 -1 0 0zm-1 3l1 -3 2 1 -2 3 -1 0 0 -1zm-1 4l1 -3 2 0 -1 3 -2 0 0 0z"/>
  </g>
  <g>
   <path class="fil1" d="M91 415l0 -5 2 0 0 5 -2 0 0 0zm2 5l-2 -5 2 0 1 4 -1 1 0 0zm1 4l-1 -4 1 -1 2 5 -2 1 0 -1zm3 5l-3 -4 2 -1 3 4 -2 1 0 0zm3 3l-3 -3 2 -2 3 4 -2 1 0 0zm4 3l-4 -3 2 -1 3 3 -1 2 0 -1zm4 3l-4 -2 1 -2 4 2 0 2 -1 0zm5 2l-4 -2 0 -2 5 2 -1 2 0 0zm5 1l-5 -1 1 -2 4 1 0 2 0 0zm5 0l-5 0 0 -2 5 0 0 2 0 0zm5 -1l-5 1 0 -2 5 -1 0 2 0 0zm5 -1l-5 1 0 -2 4 -1 1 2 0 0zm4 -2l-4 2 -1 -2 4 -2 1 2 0 0zm4 -3l-4 3 -1 -2 4 -3 1 2 0 0zm4 -3l-4 3 -1 -1 3 -4 2 1 0 1zm3 -5l-3 4 -2 -1 3 -4 2 1 0 0zm2 -4l-2 4 -2 0 2 -5 2 1 0 0zm2 -5l-2 5 -2 -1 2 -4 2 0 0 0zm0 -4l0 4 -2 0 1 -5 1 1 0 0zm0 -5l0 5 -1 0 0 -5 1 -1 0 1zm0 -5l0 4 -1 1 -1 -5 2 0 0 0zm-2 -5l2 5 -2 0 -2 -4 2 -1 0 0zm-2 -4l2 4 -2 1 -2 -4 2 -1 0 0zm-3 -4l3 4 -2 1 -3 -4 2 -1 0 0zm-4 -4l4 4 -2 1 -3 -3 1 -2 0 0zm-4 -3l4 3 -1 2 -4 -3 1 -2 0 0zm-4 -2l4 2 -1 2 -4 -2 1 -2 0 0zm-5 -1l5 1 -1 2 -4 -1 0 -2 0 0zm-5 -1l5 1 0 2 -5 -1 0 -2 0 0zm-5 1l5 -1 0 2 -5 0 0 -1 0 0zm-5 1l5 -1 0 1 -4 1 -1 -1 0 0zm-4 1l4 -1 1 1 -5 2 -1 -2 1 0zm-5 3l4 -3 1 2 -4 2 -1 -1 0 0zm-4 3l4 -3 1 1 -3 3 -2 -1 0 0zm-3 4l3 -4 2 1 -3 4 -2 -1 0 0zm-3 4l3 -4 2 1 -3 4 -2 -1 0 0zm-1 4l1 -4 2 0 -2 5 -1 -1 0 0zm-2 5l2 -5 1 1 -1 4 -2 0 0 0zm0 5l0 -5 2 0 0 5 -2 0 0 0z"/>
  </g>
  <g>
   <path class="fil1" d="M70 415c0,0 0,0 0,0 -1,0 -1,0 -1,0l1 0zm0 -10l0 10 -1 0 0 -10 1 0 0 0zm-1 0c0,0 0,-1 1,-1 0,0 0,1 0,1l-1 0zm6 6l-6 -6 1 0 6 5 0 0 -1 1zm1 -1c0,0 0,1 0,1 0,0 0,0 -1,0l1 -1zm0 -2l0 2 -1 0 0 -2 0 -1 1 1zm-1 0c0,-1 1,-1 1,-1 0,0 0,0 0,1l-1 0zm2 -2l-1 2 -1 -1 1 -1 0 0 1 0zm-1 0c0,-1 1,-1 1,-1 0,1 0,1 0,1l-1 0zm2 -1l-1 1 -1 0 1 -1 0 0 1 0zm-1 0c0,-1 1,-1 1,0 0,0 0,0 0,0l-1 0zm3 -1l-2 1 -1 0 3 -1 0 0 0 0zm0 0c0,-1 0,0 0,0 0,0 0,0 0,0l0 0zm1 0l-1 0 0 0 1 0 0 0 0 0zm0 0c0,0 1,0 1,0 0,0 -1,0 -1,0l0 0zm3 1l-3 -1 0 0 3 0 0 1 0 0zm0 -1c0,1 0,1 0,1 0,0 0,0 0,0l0 -1zm1 3l-2 -2 1 0 2 1 0 1 -1 0zm1 -1c0,1 0,1 -1,1 0,0 0,0 0,0l1 -1zm0 4l-1 -3 1 0 1 2 0 0 -1 1zm1 -1c0,1 -1,1 -1,1 0,0 0,0 0,0l1 -1zm-1 3l0 -3 1 0 0 3 0 0 -1 0zm1 0c0,0 -1,0 -1,0 0,0 0,0 0,0l1 0zm-2 3l1 -3 1 0 -1 3 0 0 -1 0zm1 0c0,0 -1,0 -1,0 0,0 0,0 0,0l1 0zm-2 0l1 -1 1 1 -1 1 0 0 -1 -1zm1 1c0,0 0,0 -1,0 0,0 0,0 0,-1l1 1zm-2 0l1 -1 1 1 -2 1 0 -1zm0 1c0,0 0,0 0,0 0,0 0,-1 0,-1l0 1z"/>
  </g>
  <g>
   <path class="fil1" d="M48 249c0,-1 1,-1 1,-1 1,0 1,0 1,1l-2 0zm0 323l0 -323 2 0 0 323 -2 0zm2 0c0,0 0,1 -1,1 0,0 -1,-1 -1,-1l2 0z"/>
  </g>
  <g>
   <path class="fil1" d="M135 645c0,0 -1,-1 -1,-1 0,-1 0,-1 1,-1l0 2zm81 -14l-81 14 0 -2 80 -14 1 2zm-1 -2c1,0 1,0 1,0 0,1 0,1 0,2l-1 -2z"/>
  </g>
  <g>
   <path class="fil1" d="M216 630c-1,0 -1,0 -1,-1 0,0 0,0 0,-1l1 2zm7 -1l-7 1 -1 -2 8 -1 0 2 0 0zm8 -3l-8 3 0 -2 7 -3 1 2 0 0zm7 -3l-7 3 -1 -2 7 -3 1 1 0 1zm7 -4l-7 3 -1 -1 7 -4 1 1 0 1zm6 -5l-6 4 -1 -1 6 -5 1 2 0 0zm6 -6l-6 6 -1 -2 5 -5 2 1 0 0zm5 -6l-5 6 -2 -1 5 -6 2 1 0 0zm4 -7l-4 7 -2 -1 5 -7 1 1 0 0zm4 -6l-4 6 -1 -1 3 -6 2 1 0 0zm3 -8l-3 8 -2 -1 3 -7 2 0 0 0zm2 -8l-2 8 -2 0 2 -8 2 0 0 0zm1 -7l-1 7 -2 0 2 -8 1 1 0 0zm1 -8l-1 8 -1 0 0 -8 2 0zm-2 0c0,-1 0,-1 1,-1 0,0 1,0 1,1l-2 0z"/>
  </g>
  <g>
   <path class="fil1" d="M277 558c0,0 -1,1 -1,1 -1,0 -1,-1 -1,-1l2 0zm0 -295l0 295 -2 0 0 -295 2 0 0 0zm-2 0c0,0 0,-1 1,-1 0,0 1,1 1,1l-2 0zm1 -13l1 13 -2 0 -1 -13 2 0 0 0zm-2 0c0,0 0,-1 1,-1 0,0 1,1 1,1l-2 0zm-2 -12l4 12 -2 0 -3 -12 1 0 0 0zm-1 0c0,0 0,-1 0,-1 1,0 1,0 1,1l-1 0zm-4 -12l5 12 -1 0 -6 -11 2 -1 0 0zm-2 1c0,-1 0,-1 1,-1 0,-1 1,0 1,0l-2 1zm-6 -12l8 11 -2 1 -7 -11 1 -1 0 0zm-1 1c0,0 0,-1 0,-1 1,0 1,0 1,0l-1 1zm-7 -10l8 9 -1 1 -9 -8 1 -2 1 0zm-2 2c0,-1 0,-1 0,-2 1,0 1,0 2,0l-2 2zm-9 -9l10 7 -1 2 -10 -8 1 -1 0 0zm-1 1c-1,0 -1,0 -1,-1 1,0 1,0 2,0l-1 1zm-11 -7l12 6 -1 2 -12 -6 1 -2 0 0zm-1 2c0,0 0,-1 0,-1 0,-1 1,-1 1,-1l-1 2zm-11 -5l12 3 -1 2 -12 -3 1 -2 0 0zm-1 2c0,0 -1,-1 0,-1 0,-1 0,-1 1,-1l-1 2zm-80 -16l81 14 -1 2 -80 -14 0 -2zm0 2c-1,0 -1,-1 -1,-1 0,-1 1,-1 1,-1l0 2z"/>
  </g>
  <g>
   <path class="fil1" d="M135 176c1,0 1,0 1,1 0,0 0,1 -1,1l0 -2zm-7 -1l7 1 0 2 -8 -1 1 -2 0 0zm-8 0l8 0 -1 2 -7 0 0 -2 0 0zm-7 0l7 0 0 2 -7 0 -1 -2 1 0zm-8 2l7 -2 1 2 -8 2 0 -2 0 0zm-7 2l7 -2 1 2 -8 2 0 -2 0 0zm-7 3l7 -3 0 2 -7 3 0 -2 0 0zm-7 4l7 -4 0 1 -6 4 -1 -1 0 0zm-6 3l6 -3 1 1 -6 4 -1 -1 0 -1zm-6 5l6 -4 1 1 -6 5 -1 -2 0 0zm-5 6l5 -6 1 2 -5 5 -1 -1 0 0zm-5 6l5 -6 1 1 -5 6 -1 -1 0 0zm-4 6l4 -6 1 1 -4 6 -1 -1 0 0zm-3 7l3 -7 2 1 -4 7 -1 -1 0 0zm-3 7l3 -7 1 1 -3 7 -1 -1 0 0zm-2 8l2 -8 2 1 -2 7 -2 0 0 0zm-1 7l1 -7 2 0 -2 7 -1 0 0 0zm-1 8l1 -8 1 0 0 8 -2 0zm2 0c0,0 0,1 -1,1 0,0 -1,-1 -1,-1l2 0z"/>
  </g>
  <g>
   <path class="fil1" d="M62 248c0,0 1,0 1,0 1,0 1,0 1,0l-2 0zm0 324l0 -324 2 0 0 324 -2 0zm2 0c0,0 0,1 -1,1 0,0 -1,-1 -1,-1l2 0z"/>
  </g>
  <g>
   <path class="fil1" d="M62 572c0,-1 1,-1 1,-1 1,0 1,0 1,1l-2 0zm1 7l-1 -7 2 0 0 6 -1 1 0 0zm1 7l-1 -7 1 -1 2 7 -2 1 0 0zm2 6l-2 -6 2 -1 2 7 -2 0 0 0zm3 7l-3 -7 2 0 3 6 -2 1 0 0zm3 5l-3 -5 1 -1 4 6 -2 1 0 -1zm4 6l-4 -5 2 -1 4 5 -2 1 0 0zm5 5l-5 -5 2 -1 4 5 -1 1 0 0zm5 5l-5 -5 1 -1 6 4 -1 2 -1 0zm6 4l-5 -4 1 -2 5 4 -1 2 0 0zm6 3l-6 -3 1 -2 6 3 0 2 -1 0zm7 2l-6 -2 0 -2 7 3 -1 1 0 0zm7 2l-7 -2 0 -1 7 1 0 2 0 0zm7 1l-7 -1 0 -2 7 1 0 2 0 0zm7 0l-7 0 0 -2 7 0 0 2 0 0zm7 -1l-7 1 0 -2 6 -1 1 2zm-1 -2c1,0 1,0 1,1 0,0 0,1 0,1l-1 -2z"/>
  </g>
  <g>
   <path class="fil1" d="M133 631c-1,0 -1,0 -1,-1 0,0 0,-1 1,-1l0 2zm80 -14l-80 14 0 -2 80 -14 0 2 0 0zm0 -2c0,0 1,0 1,1 0,0 0,1 -1,1l0 -2zm10 -1l-10 3 0 -2 10 -3 0 2 0 0zm0 -2c0,0 1,0 1,1 0,0 0,1 -1,1l0 -2zm10 -2l-10 4 0 -2 9 -4 1 2 0 0zm-1 -2c1,0 1,0 1,1 1,0 0,1 0,1l-1 -2zm9 -4l-8 6 -1 -2 8 -6 1 1 0 1zm-1 -2c1,0 1,0 2,0 0,1 0,1 -1,2l-1 -2zm9 -6l-8 7 -1 -1 7 -7 2 1 0 0zm-2 -1c1,0 1,0 2,0 0,1 0,1 0,1l-2 -1zm8 -7l-6 8 -2 -1 6 -8 2 1 0 0zm-2 -1c1,-1 1,-1 2,0 0,0 0,0 0,1l-2 -1zm6 -9l-4 10 -2 -1 5 -10 1 1 0 0zm-1 -1c0,0 0,0 1,0 0,0 0,1 0,1l-1 -1zm4 -9l-3 10 -1 0 2 -10 2 0 0 0zm-2 0c0,-1 1,-1 1,-1 1,0 1,1 1,1l-2 0zm3 -10l-1 10 -2 0 1 -10 2 0 0 0zm-2 0c0,-1 1,-1 1,-1 1,0 1,0 1,1l-2 0zm2 -295l0 295 -2 0 0 -295 2 0 0 0zm-2 0c0,0 1,-1 1,-1 1,0 1,1 1,1l-2 0zm1 -10l1 10 -2 0 -1 -10 2 -1 0 1zm-2 0c0,-1 1,-1 1,-1 1,0 1,0 1,1l-2 0zm-1 -11l3 10 -2 1 -2 -10 1 -1 0 0zm-1 1c-1,-1 0,-1 0,-1 1,0 1,0 1,0l-1 1zm-3 -10l4 9 -1 1 -5 -9 2 -1 0 0zm-2 1c0,-1 0,-1 1,-1 0,-1 1,0 1,0l-2 1zm-4 -10l6 9 -2 1 -5 -9 1 -1 0 0zm-1 1c-1,0 -1,0 0,-1 0,0 1,0 1,0l-1 1zm-6 -8l7 7 -1 2 -8 -8 2 -1 0 0zm-2 1c0,0 0,-1 0,-1 1,0 1,0 2,0l-2 1zm-7 -7l9 6 -1 1 -9 -6 1 -1 0 0zm-1 1c0,0 0,-1 0,-1 0,0 1,0 1,0l-1 1zm-9 -6l10 5 -1 1 -9 -4 0 -2 0 0zm0 2c-1,0 -1,-1 -1,-1 0,-1 1,-1 1,-1l0 2zm-9 -4l9 2 0 2 -10 -3 1 -1 0 0zm-1 1c0,0 -1,0 -1,-1 1,0 1,0 2,0l-1 1zm-80 -16l81 15 -1 1 -80 -14 0 -2zm0 2c-1,0 -1,0 -1,-1 0,0 0,-1 1,-1l0 2z"/>
  </g>
  <g>
   <path class="fil1" d="M133 190c0,0 0,0 0,1 0,0 0,1 -1,0l1 -1zm-7 -1l7 1 -1 1 -6 0 0 -2 0 0zm-7 0l7 0 0 2 -7 0 0 -2 0 0zm-7 1l7 -1 0 2 -7 0 0 -1 0 0zm-7 1l7 -1 0 1 -7 2 0 -2 0 0zm-6 3l6 -3 1 2 -7 2 -1 -1 1 0zm-7 3l6 -3 1 1 -6 3 -1 -1 0 0zm-5 3l5 -3 1 1 -5 4 -2 -1 1 -1zm-6 5l5 -4 2 1 -6 4 -1 -1 0 0zm-4 5l4 -5 2 1 -5 5 -1 -1 0 0zm-5 6l5 -6 1 1 -4 6 -2 -1 0 0zm-3 5l3 -5 2 1 -4 5 -1 0 0 -1zm-3 7l3 -6 2 0 -3 7 -2 -1 0 0zm-2 6l2 -6 2 1 -2 6 -2 0 0 -1zm-1 7l1 -6 2 0 -2 7 -1 -1 0 0zm-1 7l1 -7 1 0 0 7 -2 0zm2 0c0,1 0,1 -1,1 0,0 -1,0 -1,-1l2 0z"/>
  </g>
  <polyline class="fil0 str1" points="43,1 38,1 32,2 27,4 22,6 18,10 13,13 10,17 7,22 4,27 3,32 1,37 1,43 "/>
  <line class="fil0 str0" x1="1" y1="43" x2="1" y2= "787" />
  <polyline class="fil0 str1" points="1,787 1,793 3,798 4,804 7,808 10,813 13,817 18,820 22,824 27,826 32,828 38,829 43,829 "/>
  <line class="fil0 str0" x1="43" y1="829" x2="295" y2= "829" />
  <polyline class="fil0 str1" points="295,829 300,829 306,828 311,826 316,824 321,820 325,817 328,813 331,808 334,804 335,798 337,793 337,787 "/>
  <polygon class="fil0 str0" points="162,789 176,789 176,775 183,763 195,756 210,756 210,741 195,741 183,734 176,722 176,708 162,708 162,722 155,734 143,741 128,741 128,756 143,756 155,763 162,775 "/>
  <polygon class="fil0 str1" points="97,749 98,756 99,763 100,770 103,777 106,783 110,789 114,795 119,800 124,805 130,809 136,813 143,815 150,818 157,819 164,820 171,820 178,820 185,819 192,817 198,814 205,811 211,807 217,802 222,798 226,792 230,786 234,780 237,773 239,767 240,759 241,752 241,745 240,738 239,731 237,724 234,718 230,711 226,705 222,700 217,695 211,690 205,687 198,683 192,681 185,679 178,677 171,677 164,677 157,678 150,679 143,682 136,685 130,689 124,692 119,697 114,703 110,708 106,715 103,721 100,728 99,735 98,742 "/>
 </g>
</svg>
