<?xml version="1.0" encoding="UTF-8"?>
<!DOCTYPE svg PUBLIC "-//W3C//DTD SVG 1.1//EN" "http://www.w3.org/Graphics/SVG/1.1/DTD/svg11.dtd">
<!-- Creator: CorelDRAW X8 -->
<svg xmlns="http://www.w3.org/2000/svg" xml:space="preserve" width="9.3965mm" height="31.35mm" version="1.1" style="shape-rendering:geometricPrecision; text-rendering:geometricPrecision; image-rendering:optimizeQuality; fill-rule:evenodd; clip-rule:evenodd"
viewBox="0 0 4779 15944"
 xmlns:xlink="http://www.w3.org/1999/xlink">
 <defs>
  <style type="text/css">
   <![CDATA[
    .fil0 {fill:black;fill-rule:nonzero}
   ]]>
  </style>
 </defs>
 <g id="图层_x0020_1">
  <metadata id="CorelCorpID_0Corel-Layer"/>
  <g>
   <path class="fil0" d="M3142 10704c9,0 16,8 16,16 0,9 -7,16 -16,16l0 -32zm-190 223l-32 0 0 0 0 -12 1 -11 1 -11 2 -11 3 -11 3 -10 3 -11 4 -10 5 -10 5 -9 5 -10 6 -9 6 -8 7 -9 7 -8 7 -8 8 -7 8 -7 8 -7 9 -6 9 -5 9 -6 10 -5 10 -4 10 -4 10 -4 11 -3 10 -2 11 -2 11 -2 12 0 11 -1 0 32 -10 1 -9 0 -10 2 -9 1 -9 2 -9 3 -9 3 -9 3 -8 4 -8 4 -8 5 -8 5 -8 5 -7 6 -7 6 -6 6 -7 7 -6 7 -5 7 -6 7 -4 8 -5 8 -4 8 -4 9 -3 8 -3 9 -3 9 -2 9 -2 10 -1 9 -1 10 0 10 0 0zm0 0c0,9 -7,16 -16,16 -9,0 -16,-7 -16,-16l32 0zm190 190l0 32 0 0 -11 0 -12 -1 -11 -2 -11 -1 -10 -3 -11 -3 -10 -3 -10 -4 -10 -5 -10 -5 -9 -5 -9 -6 -9 -6 -8 -7 -8 -7 -8 -7 -7 -8 -7 -8 -7 -8 -6 -9 -6 -9 -5 -9 -5 -10 -5 -10 -4 -10 -3 -10 -3 -11 -3 -11 -2 -11 -1 -11 -1 -11 0 -11 32 0 0 9 1 10 1 10 2 9 2 9 3 9 3 9 3 9 4 8 4 8 5 8 4 8 6 7 5 8 6 7 7 6 6 6 7 6 7 6 8 5 8 5 8 5 8 4 8 4 9 3 9 3 9 3 9 2 9 2 10 1 9 1 10 0 0 0zm0 0c9,0 16,7 16,16 0,9 -7,16 -16,16l0 -32zm190 -190l33 0 0 0 -1 11 -1 11 -1 11 -2 11 -3 11 -2 11 -4 10 -4 10 -4 10 -5 10 -6 9 -5 9 -7 9 -6 8 -7 8 -8 8 -7 7 -8 7 -9 7 -9 6 -9 6 -9 5 -9 5 -10 5 -10 4 -11 3 -10 3 -11 3 -11 1 -11 2 -11 1 -12 0 0 -32 10 0 10 -1 9 -1 9 -2 10 -2 9 -3 9 -3 8 -3 9 -4 8 -4 8 -5 7 -5 8 -5 7 -6 7 -6 7 -6 6 -6 6 -7 6 -8 5 -7 5 -8 4 -8 5 -8 3 -8 4 -9 3 -9 2 -9 2 -9 2 -9 1 -10 1 -10 0 -9 0 0zm0 0c0,-9 8,-16 16,-16 9,0 17,7 17,16l-33 0zm-190 -191l0 -32 12 1 11 0 11 2 11 2 11 2 10 3 11 4 10 4 10 4 9 5 9 6 9 5 9 7 9 6 8 7 7 7 8 8 7 8 6 9 7 8 5 9 6 10 5 9 4 10 4 10 4 11 2 10 3 11 2 11 1 11 1 11 1 12 -33 0 0 -10 -1 -10 -1 -9 -2 -10 -2 -9 -2 -9 -3 -9 -4 -8 -3 -9 -5 -8 -4 -8 -5 -8 -5 -7 -6 -7 -6 -7 -6 -7 -7 -6 -7 -6 -7 -6 -8 -5 -7 -5 -8 -5 -8 -4 -9 -4 -8 -3 -9 -3 -9 -3 -10 -2 -9 -1 -9 -2 -10 0 -10 -1zm0 0c-9,0 -16,-7 -16,-16 0,-8 7,-16 16,-16l0 32z"/>
  </g>
  <g>
   <path class="fil0" d="M2392 14240c6,0 11,5 11,11 0,6 -5,11 -11,11l0 -22zm-603 624l-21 0 0 0 1 -32 2 -31 4 -32 6 -30 7 -31 8 -29 10 -29 11 -29 13 -27 13 -27 15 -26 17 -26 17 -24 19 -24 19 -22 21 -22 21 -21 23 -19 24 -19 24 -17 25 -16 27 -15 27 -14 27 -13 29 -11 29 -10 29 -8 30 -7 31 -6 31 -4 32 -2 32 -1 0 22 -31 0 -31 3 -30 4 -29 5 -30 7 -28 8 -28 9 -28 11 -26 12 -26 13 -25 15 -25 16 -23 16 -23 18 -22 19 -21 20 -20 21 -19 22 -18 23 -17 23 -15 25 -15 25 -13 26 -12 27 -11 27 -10 28 -8 29 -6 29 -6 30 -3 30 -3 30 -1 31 0 0zm0 0c0,6 -4,11 -10,11 -6,0 -11,-5 -11,-11l21 0zm603 603l0 22 0 0 -32 -1 -32 -3 -31 -4 -31 -5 -30 -7 -29 -8 -29 -10 -29 -11 -27 -13 -27 -14 -27 -15 -25 -16 -24 -17 -24 -19 -23 -20 -21 -20 -21 -22 -19 -23 -19 -23 -17 -25 -17 -25 -15 -26 -13 -27 -13 -28 -11 -28 -10 -29 -8 -30 -7 -30 -6 -31 -4 -31 -2 -31 -1 -33 21 0 1 31 3 31 3 30 6 30 6 29 8 29 10 28 11 27 12 27 13 26 15 25 15 24 17 24 18 23 19 22 20 21 21 20 22 19 23 17 23 17 25 16 25 14 26 14 26 12 28 11 28 9 28 8 30 7 29 5 30 4 31 2 31 1 0 0zm0 0c6,0 11,5 11,11 0,6 -5,11 -11,11l0 -22zm603 -603l21 0 0 0 -1 33 -2 31 -4 31 -5 31 -7 30 -9 30 -10 29 -11 28 -12 28 -14 27 -15 26 -16 25 -18 25 -18 23 -20 23 -21 22 -21 20 -23 20 -23 19 -25 17 -25 16 -26 15 -27 14 -28 13 -28 11 -29 10 -30 8 -30 7 -31 5 -31 4 -32 3 -32 1 0 -22 31 -1 31 -2 30 -4 30 -5 29 -7 28 -8 28 -9 28 -11 26 -12 26 -14 26 -14 24 -16 24 -17 23 -17 21 -19 21 -20 20 -21 19 -22 18 -23 17 -24 16 -24 14 -25 13 -26 12 -27 11 -27 10 -28 8 -29 7 -29 5 -30 4 -30 2 -31 1 -31 0 0zm0 0c0,-5 5,-10 11,-10 5,0 10,5 10,10l-21 0zm-603 -602l0 -22 32 1 32 2 31 4 31 6 30 7 30 8 29 10 28 11 28 13 27 14 26 15 25 16 25 17 23 19 23 19 21 21 21 22 20 22 18 24 18 24 16 26 15 26 14 27 12 27 11 29 10 29 9 29 7 31 5 30 4 32 2 31 1 32 -21 0 -1 -31 -2 -30 -4 -30 -5 -30 -7 -29 -8 -29 -10 -28 -11 -27 -12 -27 -13 -26 -14 -25 -16 -25 -17 -23 -18 -23 -19 -22 -20 -21 -21 -20 -21 -19 -23 -18 -24 -16 -24 -16 -26 -15 -26 -13 -26 -12 -28 -11 -28 -9 -28 -8 -29 -7 -30 -5 -30 -4 -31 -3 -31 0zm0 0c-6,0 -11,-5 -11,-11 0,-6 5,-11 11,-11l0 22z"/>
  </g>
  <g>
   <path class="fil0" d="M3161 11229c0,9 -7,16 -16,16 -9,0 -16,-7 -16,-16l32 0zm0 -605l0 605 -32 0 0 -605 32 0zm-32 0c0,-9 7,-16 16,-16 9,0 16,7 16,16l-32 0z"/>
  </g>
  <g>
   <path class="fil0" d="M3445 10908c9,0 16,7 16,16 0,9 -7,16 -16,16l0 -32zm-606 0l606 0 0 32 -606 0 0 -32zm0 32c-8,0 -16,-7 -16,-16 0,-9 8,-16 16,-16l0 32z"/>
  </g>
  <g>
   <path class="fil0" d="M2391 10174c8,-2 17,3 19,12 3,9 -3,17 -11,20l-8 -32zm-86 22l86 -22 8 32 -86 21 -13 -29 5 -2zm8 31c-9,2 -17,-3 -20,-12 -2,-8 4,-17 12,-19l8 31zm-77 14l64 -43 18 27 -64 43 -23 -23 5 -4zm18 27c-8,5 -18,3 -23,-5 -4,-7 -3,-17 5,-22l18 27zm-65 42l42 -65 27 18 -43 64 -29 -13 3 -4zm26 17c-5,8 -15,10 -22,5 -7,-5 -9,-15 -4,-22l26 17zm-50 68l21 -81 31 9 -21 80 -31 0 0 -8zm31 8c-2,9 -11,14 -20,11 -8,-2 -13,-11 -11,-19l31 8zm-10 75l-21 -75 31 -8 21 74 -29 13 -2 -4zm31 -9c3,9 -2,18 -11,20 -8,3 -17,-2 -20,-11l31 -9zm14 88l-43 -75 28 -16 43 75 -23 21 -5 -5zm28 -16c4,8 1,18 -6,22 -8,4 -18,2 -22,-6l28 -16zm41 64l-64 -43 18 -26 64 42 -11 30 -7 -3zm18 -27c7,5 9,15 4,23 -4,7 -14,9 -22,4l18 -27zm75 41l-86 -11 4 -32 86 11 0 31 -4 1zm4 -32c9,1 15,9 14,18 -1,8 -9,15 -18,14l4 -32zm75 21l-75 10 -4 -31 75 -11 11 29 -7 3zm-4 -32c8,-1 17,5 18,14 1,8 -5,17 -14,18l-4 -32zm75 -14l-64 43 -18 -27 64 -42 22 22 -4 4zm-18 -26c8,-5 18,-3 22,4 5,7 3,17 -4,22l-18 -26zm76 -53l-54 75 -26 -18 54 -75 29 10 -3 8zm-26 -18c5,-8 15,-9 22,-4 7,5 9,15 4,22l-26 -18zm34 -65l-5 75 -32 -2 5 -75 32 0 0 2zm-32 -2c1,-9 8,-16 17,-15 9,1 16,8 15,17l-32 -2zm27 -81l5 81 -32 2 -5 -80 28 -12 4 9zm-32 3c-1,-9 6,-17 15,-17 8,-1 16,6 17,14l-32 3zm-26 -76l54 64 -25 21 -53 -64 21 -24 3 3zm-24 21c-6,-7 -5,-17 2,-23 7,-6 17,-5 22,2l-24 21zm-43 -67l64 43 -18 27 -64 -43 13 -29 5 2zm-18 27c-7,-5 -9,-15 -5,-23 5,-7 15,-9 23,-4l-18 27zm-62 -50l75 21 -9 31 -75 -22 9 -30zm-9 30c-8,-2 -13,-11 -11,-19 3,-9 12,-14 20,-11l-9 30z"/>
  </g>
  <g>
   <path class="fil0" d="M2411 10699c0,9 -7,16 -16,16 -9,0 -16,-7 -16,-16l32 0zm0 -605l0 605 -32 0 0 -605 32 0zm-32 0c0,-9 7,-17 16,-17 9,0 16,8 16,17l-32 0z"/>
  </g>
  <g>
   <path class="fil0" d="M2689 10383c9,0 17,7 17,16 0,9 -8,16 -17,16l0 -32zm-605 0l605 0 0 32 -605 0 0 -32zm0 32c-9,0 -16,-7 -16,-16 0,-9 7,-16 16,-16l0 32z"/>
  </g>
  <g>
   <path class="fil0" d="M3445 11958c9,0 16,7 16,16 0,9 -7,16 -16,16l0 -32zm-606 0l606 0 0 32 -606 0 0 -32zm0 32c-8,0 -16,-7 -16,-16 0,-9 8,-16 16,-16l0 32z"/>
  </g>
  <g>
   <path class="fil0" d="M2411 11749c0,9 -7,16 -16,16 -9,0 -16,-7 -16,-16l32 0zm0 -16l0 16 -32 0 0 -16 32 0zm-32 0c0,-9 7,-16 16,-16 9,0 16,7 16,16l-32 0z"/>
  </g>
  <g>
   <path class="fil0" d="M2689 12472c9,0 17,8 17,16 0,9 -8,16 -17,16l0 -32zm-605 0l605 0 0 32 -605 0 0 -32zm0 32c-9,0 -16,-7 -16,-16 0,-8 7,-16 16,-16l0 32z"/>
  </g>
  <g>
   <path class="fil0" d="M2411 12794c0,9 -7,16 -16,16 -9,0 -16,-7 -16,-16l32 0zm0 -606l0 606 -32 0 0 -606 32 0zm-32 0c0,-9 7,-16 16,-16 9,0 16,7 16,16l-32 0z"/>
  </g>
  <g>
   <path class="fil0" d="M2689 11433c9,0 17,7 17,16 0,9 -8,16 -17,16l0 -32zm-605 0l605 0 0 32 -605 0 0 -32zm0 32c-9,0 -16,-7 -16,-16 0,-9 7,-16 16,-16l0 32z"/>
  </g>
  <g>
   <path class="fil0" d="M2411 11744c0,9 -7,16 -16,16 -9,0 -16,-7 -16,-16l32 0zm0 -606l0 606 -32 0 0 -606 32 0zm-32 0c0,-9 7,-16 16,-16 9,0 16,7 16,16l-32 0z"/>
  </g>
  <g>
   <path class="fil0" d="M3161 12274c0,9 -7,16 -16,16 -9,0 -16,-7 -16,-16l32 0zm0 -616l0 616 -32 0 0 -616 32 0zm-32 0c0,-9 7,-16 16,-16 9,0 16,7 16,16l-32 0z"/>
  </g>
  <g>
   <path class="fil0" d="M3445 10903c9,0 16,7 16,16 0,8 -7,16 -16,16l0 -32zm-606 0l606 0 0 32 -606 0 0 -32zm0 32c-8,0 -16,-8 -16,-16 0,-9 8,-16 16,-16l0 32z"/>
  </g>
  <g>
   <path class="fil0" d="M3161 11224c0,9 -7,16 -16,16 -9,0 -16,-7 -16,-16l32 0zm0 -605l0 605 -32 0 0 -605 32 0zm-32 0c0,-9 7,-16 16,-16 9,0 16,7 16,16l-32 0z"/>
  </g>
  <g>
   <path class="fil0" d="M2411 12901c0,9 -7,16 -16,16 -9,0 -16,-7 -16,-16l32 0zm0 -75l0 75 -32 0 0 -75 32 0zm-32 0c0,-9 7,-16 16,-16 9,0 16,7 16,16l-32 0z"/>
  </g>
  <g>
   <path class="fil0" d="M2411 12751c0,9 -7,16 -16,16 -9,0 -16,-7 -16,-16l32 0zm0 -445l0 445 -32 0 0 -445 32 0zm-32 0c0,-9 7,-16 16,-16 9,0 16,7 16,16l-32 0z"/>
  </g>
  <g>
   <path class="fil0" d="M2411 12231c0,9 -7,16 -16,16 -9,0 -16,-7 -16,-16l32 0zm0 -75l0 75 -32 0 0 -75 32 0zm-32 0c0,-9 7,-16 16,-16 9,0 16,7 16,16l-32 0z"/>
  </g>
  <g>
   <path class="fil0" d="M2411 11551c0,9 -7,16 -16,16 -9,0 -16,-7 -16,-16l32 0zm0 -70l0 70 -32 0 0 -70 32 0zm-32 0c0,-9 7,-16 16,-16 9,0 16,7 16,16l-32 0z"/>
  </g>
  <g>
   <path class="fil0" d="M2411 11363c0,9 -7,16 -16,16 -9,0 -16,-7 -16,-16l32 0zm0 -48l0 48 -32 0 0 -48 32 0zm-32 0c0,-9 7,-16 16,-16 9,0 16,7 16,16l-32 0z"/>
  </g>
  <g>
   <path class="fil0" d="M2411 10720c0,9 -7,16 -16,16 -9,0 -16,-7 -16,-16l32 0zm0 -75l0 75 -32 0 0 -75 32 0zm-32 0c0,-8 7,-16 16,-16 9,0 16,8 16,16l-32 0z"/>
  </g>
  <g>
   <path class="fil0" d="M2411 9360c0,8 -7,16 -16,16 -9,0 -16,-8 -16,-16l32 0zm0 -75l0 75 -32 0 0 -75 32 0zm-32 0c0,-9 7,-17 16,-17 9,0 16,8 16,17l-32 0z"/>
  </g>
  <g>
   <path class="fil0" d="M2411 7334c0,9 -7,16 -16,16 -9,0 -16,-7 -16,-16l32 0zm0 -75l0 75 -32 0 0 -75 32 0zm-32 0c0,-8 7,-16 16,-16 9,0 16,8 16,16l-32 0z"/>
  </g>
  <g>
   <path class="fil0" d="M2411 6504c0,9 -7,16 -16,16 -9,0 -16,-7 -16,-16l32 0zm0 -563l0 563 -32 0 0 -563 32 0zm-32 0c0,-8 7,-16 16,-16 9,0 16,8 16,16l-32 0z"/>
  </g>
  <g>
   <path class="fil0" d="M2411 4254c0,9 -7,16 -16,16 -9,0 -16,-7 -16,-16l32 0zm0 -75l0 75 -32 0 0 -75 32 0zm-32 0c0,-9 7,-16 16,-16 9,0 16,7 16,16l-32 0z"/>
  </g>
  <g>
   <path class="fil0" d="M2391 11219c8,-2 17,3 19,12 3,8 -3,17 -11,19l-8 -31zm-86 22l86 -22 8 31 -86 22 -13 -29 5 -2zm8 31c-9,2 -17,-3 -20,-12 -2,-9 4,-17 12,-19l8 31zm-77 14l64 -43 18 26 -64 43 -23 -22 5 -4zm18 26c-8,5 -18,3 -23,-4 -4,-7 -3,-18 5,-22l18 26zm-65 42l42 -64 27 18 -43 64 -29 -13 3 -5zm26 18c-5,8 -15,10 -22,5 -7,-5 -9,-15 -4,-23l26 18zm-50 73l21 -86 32 8 -22 86 -31 0 0 -8zm31 8c-2,9 -11,14 -19,12 -9,-3 -14,-11 -12,-20l31 8zm-10 75l-21 -75 31 -8 21 75 -28 13 -3 -5zm31 -8c3,8 -2,17 -11,19 -8,3 -17,-2 -20,-11l31 -8zm15 72l-43 -59 26 -18 43 58 -24 22 -2 -3zm26 -19c5,8 3,18 -4,23 -7,5 -17,4 -22,-4l26 -19zm41 76l-65 -54 21 -24 64 53 -12 29 -8 -4zm20 -25c7,6 8,16 2,23 -5,7 -15,8 -22,2l20 -25zm74 39l-86 -10 4 -32 86 10 0 32 -4 0zm4 -32c9,1 15,9 14,18 -1,9 -9,15 -18,14l4 -32zm75 21l-75 11 -4 -32 75 -10 12 28 -8 3zm-4 -31c8,-2 17,4 18,13 1,9 -5,17 -14,18l-4 -31zm76 -26l-64 54 -20 -25 64 -53 22 23 -2 1zm-20 -24c7,-6 17,-5 22,2 6,6 5,17 -2,22l-20 -24zm76 -36l-54 59 -24 -22 54 -59 28 12 -4 10zm-24 -22c6,-6 16,-7 22,-1 7,6 7,16 2,23l-24 -22zm33 -63l-5 75 -32 -2 5 -75 32 0 0 2zm-32 -2c1,-9 8,-16 17,-15 9,1 16,8 15,17l-32 -2zm27 -86l5 86 -32 2 -5 -86 28 -11 4 9zm-32 2c-1,-9 6,-16 15,-17 8,0 16,6 17,15l-32 2zm-26 -75l54 64 -25 21 -53 -65 21 -23 3 3zm-24 20c-6,-7 -5,-17 2,-22 7,-6 17,-5 22,2l-24 20zm-43 -66l64 43 -18 26 -64 -43 13 -28 5 2zm-18 26c-7,-4 -9,-14 -5,-22 5,-7 15,-9 23,-4l-18 26zm-62 -50l75 22 -9 31 -75 -22 9 -31zm-9 31c-8,-2 -13,-11 -11,-20 3,-8 12,-13 20,-11l-9 31z"/>
  </g>
  <g>
   <path class="fil0" d="M3143 11749c9,-1 17,5 18,14 1,9 -5,17 -14,18l-4 -32zm-86 11l86 -11 4 32 -86 11 -11 -30 7 -2zm4 32c-9,1 -17,-5 -18,-14 -1,-9 5,-17 14,-18l4 32zm-75 13l64 -43 18 27 -64 43 -23 -21 5 -6zm18 27c-8,5 -18,3 -23,-4 -4,-8 -2,-18 5,-23l18 27zm-66 54l43 -75 28 16 -43 75 -29 -13 1 -3zm28 16c-4,7 -14,10 -22,6 -8,-5 -10,-15 -6,-22l28 16zm-51 62l22 -75 30 9 -21 75 -31 0 0 -9zm31 9c-2,9 -11,14 -20,11 -8,-2 -13,-11 -11,-20l31 9zm-9 75l-22 -75 31 -9 21 75 -29 13 -1 -4zm30 -9c3,9 -2,18 -11,20 -8,3 -17,-2 -19,-11l30 -9zm14 88l-43 -75 28 -16 43 75 -22 22 -6 -6zm28 -16c4,7 1,17 -6,22 -8,4 -18,1 -22,-6l28 -16zm42 59l-64 -37 16 -28 64 37 -10 30 -6 -2zm16 -28c8,5 10,15 6,22 -4,8 -14,11 -22,6l16 -28zm76 41l-86 -11 4 -32 86 11 0 32 -4 0zm4 -32c9,1 15,9 14,18 -1,9 -9,15 -18,14l4 -32zm75 21l-75 11 -4 -32 75 -11 9 31 -5 1zm-4 -32c8,-1 17,5 18,14 1,9 -5,17 -14,18l-4 -32zm84 -7l-75 38 -14 -29 75 -38 21 23 -7 6zm-14 -29c8,-4 17,0 21,8 4,7 1,17 -7,21l-14 -29zm64 -52l-43 75 -28 -16 43 -75 30 10 -2 6zm-28 -16c4,-8 14,-11 22,-6 7,4 10,14 6,22l-28 -16zm40 -65l-10 75 -32 -5 11 -75 31 0 0 5zm-31 -5c1,-8 9,-14 18,-13 8,1 15,9 13,18l-31 -5zm21 -75l10 75 -31 5 -11 -75 30 -10 2 5zm-32 5c-1,-9 5,-17 13,-18 9,-1 17,5 19,13l-32 5zm-13 -85l43 75 -28 16 -43 -75 22 -22 6 6zm-28 16c-4,-8 -2,-18 6,-22 8,-5 17,-2 22,6l-28 16zm-53 -65l75 43 -16 28 -75 -43 10 -30 6 2zm-16 28c-8,-5 -10,-14 -6,-22 4,-8 14,-10 22,-6l-16 28zm-65 -41l75 11 -4 32 -75 -11 4 -32zm-4 32c-9,-1 -15,-9 -14,-18 1,-9 9,-15 18,-14l-4 32z"/>
  </g>
  <g>
   <path class="fil0" d="M2393 12269c9,-1 17,5 18,14 1,9 -5,17 -14,18l-4 -32zm-86 11l86 -11 4 32 -86 10 -12 -28 8 -3zm4 31c-9,2 -17,-5 -18,-14 -1,-8 5,-16 14,-17l4 31zm-77 26l65 -54 20 25 -64 53 -24 -21 3 -3zm21 24c-7,6 -17,5 -23,-2 -5,-6 -4,-17 2,-22l21 24zm-66 43l42 -64 27 18 -43 64 -29 -13 3 -5zm26 18c-5,8 -15,10 -22,5 -7,-5 -9,-15 -4,-23l26 18zm-50 62l21 -75 31 9 -21 75 -31 -1 0 -8zm31 9c-3,8 -11,13 -20,11 -8,-3 -13,-12 -11,-20l31 9zm-10 85l-21 -86 31 -8 22 86 -29 13 -3 -5zm32 -8c2,9 -4,18 -12,20 -9,2 -18,-3 -20,-12l32 -8zm13 77l-42 -64 26 -18 43 64 -22 23 -5 -5zm27 -18c5,8 3,18 -4,23 -8,5 -18,3 -23,-5l27 -18zm42 66l-64 -43 18 -27 64 43 -13 29 -5 -2zm18 -27c7,5 9,15 4,22 -4,8 -14,10 -22,5l18 -27zm73 50l-86 -21 8 -31 86 21 0 31 -8 0zm8 -31c8,2 14,11 11,20 -2,8 -11,13 -19,11l8 -31zm75 10l-75 21 -9 -31 75 -21 14 29 -5 2zm-9 -31c9,-3 18,2 20,11 3,8 -2,17 -11,20l-9 -31zm78 -14l-64 43 -18 -27 64 -43 21 24 -3 3zm-18 -27c8,-5 18,-3 22,4 5,8 3,18 -4,23l-18 -27zm75 -41l-54 65 -24 -21 53 -64 29 11 -4 9zm-25 -20c6,-7 16,-8 23,-2 7,5 8,16 2,22l-25 -20zm34 -75l-5 86 -32 -2 5 -86 32 0 0 2zm-32 -2c1,-8 8,-15 17,-15 9,1 16,9 15,17l-32 -2zm27 -75l5 75 -32 3 -5 -75 28 -12 4 9zm-32 3c-1,-9 6,-17 14,-18 9,0 17,6 18,15l-32 3zm-26 -76l54 64 -25 21 -53 -65 22 -22 2 2zm-24 20c-6,-6 -5,-17 2,-22 7,-6 17,-5 22,2l-24 20zm-42 -76l64 54 -20 24 -64 -53 12 -28 8 3zm-20 25c-7,-6 -8,-16 -3,-23 6,-7 16,-8 23,-2l-20 25zm-63 -39l75 11 -4 31 -75 -10 4 -32zm-4 32c-9,-2 -15,-10 -14,-19 1,-8 9,-14 18,-13l-4 32z"/>
  </g>
  <g>
   <path class="fil0" d="M2689 9333c9,0 17,7 17,16 0,9 -8,16 -17,16l0 -32zm-605 0l605 0 0 32 -605 0 0 -32zm0 32c-9,0 -16,-7 -16,-16 0,-9 7,-16 16,-16l0 32z"/>
  </g>
  <g>
   <path class="fil0" d="M2393 9135c9,-1 17,5 18,14 1,8 -5,17 -14,18l-4 -32zm-86 10l86 -10 4 32 -86 10 -10 -30 6 -2zm4 32c-9,1 -17,-5 -18,-14 -1,-8 5,-17 14,-18l4 32zm-74 8l64 -38 16 28 -64 38 -22 -22 6 -6zm16 28c-8,4 -18,2 -22,-6 -5,-8 -2,-18 6,-22l16 28zm-65 53l43 -75 28 16 -43 75 -30 -13 2 -3zm28 16c-4,8 -14,10 -22,6 -8,-5 -10,-14 -6,-22l28 16zm-51 62l21 -75 31 9 -21 75 -31 0 0 -9zm31 9c-3,9 -11,14 -20,11 -8,-2 -13,-11 -11,-20l31 9zm-10 75l-21 -75 31 -9 21 75 -29 13 -2 -4zm31 -9c3,9 -2,18 -11,20 -8,3 -17,-2 -20,-11l31 -9zm14 88l-43 -75 28 -16 43 75 -23 21 -5 -5zm28 -16c4,8 1,17 -6,22 -8,4 -18,2 -22,-6l28 -16zm41 64l-64 -43 18 -26 64 42 -11 30 -7 -3zm18 -27c7,5 9,15 4,23 -4,7 -14,9 -22,4l18 -27zm75 40l-86 -10 4 -32 86 10 0 32 -4 0zm4 -32c9,2 15,10 14,18 -1,9 -9,15 -18,14l4 -32zm75 22l-75 10 -4 -31 75 -11 11 29 -7 3zm-4 -32c8,-1 17,5 18,13 1,9 -5,17 -14,19l-4 -32zm75 -14l-64 43 -18 -27 64 -42 22 22 -4 4zm-18 -26c8,-5 18,-3 22,4 5,7 3,17 -4,22l-18 -26zm76 -53l-54 75 -26 -18 54 -75 29 10 -3 8zm-26 -18c5,-8 15,-9 22,-4 7,5 9,15 4,22l-26 -18zm34 -65l-5 75 -32 -2 5 -75 32 0 0 2zm-32 -2c1,-9 8,-16 17,-15 9,0 16,8 15,17l-32 -2zm27 -75l5 75 -32 2 -5 -75 29 -10 3 8zm-32 2c-1,-9 6,-17 14,-17 9,-1 17,6 18,15l-32 2zm-25 -85l54 75 -26 18 -54 -75 21 -23 5 5zm-26 18c-5,-7 -3,-17 4,-22 7,-5 17,-4 22,4l-26 18zm-43 -61l64 38 -16 28 -64 -38 10 -30 6 2zm-16 28c-8,-4 -10,-14 -6,-22 4,-7 14,-10 22,-6l-16 28zm-65 -40l75 10 -4 32 -75 -10 4 -32zm-4 32c-9,-2 -15,-10 -14,-19 1,-8 9,-14 18,-13l-4 32z"/>
  </g>
  <g>
   <path class="fil0" d="M3445 9852c9,0 16,8 16,17 0,8 -7,16 -16,16l0 -33zm-606 0l606 0 0 33 -606 0 0 -33zm0 33c-8,0 -16,-8 -16,-16 0,-9 8,-17 16,-17l0 33z"/>
  </g>
  <g>
   <path class="fil0" d="M3161 10179c0,9 -7,16 -16,16 -9,0 -16,-7 -16,-16l32 0zm0 -605l0 605 -32 0 0 -605 32 0zm-32 0c0,-9 7,-16 16,-16 9,0 16,7 16,16l-32 0z"/>
  </g>
  <g>
   <path class="fil0" d="M3143 9654c9,-1 17,6 18,14 1,9 -5,17 -14,18l-4 -32zm-86 11l86 -11 4 32 -86 11 -12 -28 8 -4zm4 32c-9,1 -17,-5 -18,-14 -1,-9 5,-17 14,-18l4 32zm-76 25l64 -53 20 24 -64 54 -23 -22 3 -3zm20 25c-7,6 -17,5 -23,-2 -5,-7 -4,-17 3,-23l20 25zm-66 37l43 -59 26 19 -43 59 -28 -14 2 -5zm26 19c-5,7 -15,9 -22,4 -8,-6 -9,-16 -4,-23l26 19zm-50 61l22 -75 30 9 -21 75 -31 -1 0 -8zm31 9c-2,8 -11,13 -20,11 -8,-2 -13,-11 -11,-20l31 9zm-10 85l-21 -86 31 -7 22 85 -29 13 -3 -5zm32 -8c2,9 -3,18 -12,20 -9,2 -17,-3 -20,-12l32 -8zm13 77l-42 -64 26 -18 43 65 -22 22 -5 -5zm27 -17c5,7 3,17 -4,22 -8,5 -18,3 -23,-5l27 -17zm42 65l-64 -43 18 -27 64 43 -13 29 -5 -2zm18 -27c7,5 9,15 4,22 -4,8 -14,10 -22,5l18 -27zm73 50l-86 -21 8 -31 86 21 0 31 -8 0zm8 -31c8,2 14,11 11,20 -2,8 -10,14 -19,11l8 -31zm75 10l-75 21 -9 -31 75 -21 13 29 -4 2zm-9 -31c9,-2 18,2 20,11 3,8 -2,17 -11,20l-9 -31zm88 -14l-75 43 -16 -28 75 -42 21 22 -5 5zm-16 -27c8,-5 17,-2 22,6 4,7 2,17 -6,21l-16 -27zm64 -42l-43 64 -26 -17 42 -65 30 11 -3 7zm-27 -18c5,-7 15,-9 23,-4 7,5 9,15 4,22l-27 -18zm40 -74l-10 85 -32 -4 10 -85 32 -1 0 5zm-32 -4c2,-9 10,-15 18,-14 9,1 15,9 14,18l-32 -4zm22 -76l10 75 -31 5 -11 -75 29 -12 3 7zm-32 5c-1,-9 5,-17 13,-18 9,-2 17,5 19,13l-32 5zm-14 -71l43 59 -26 19 -43 -59 22 -22 4 3zm-26 19c-5,-7 -4,-17 3,-22 8,-6 18,-4 23,3l-26 19zm-53 -76l75 54 -18 26 -75 -54 11 -29 7 3zm-18 26c-8,-5 -9,-15 -4,-22 5,-8 15,-9 22,-4l-18 26zm-64 -40l75 11 -4 32 -75 -11 4 -32zm-4 32c-9,-1 -15,-9 -14,-18 1,-9 9,-15 18,-14l-4 32z"/>
  </g>
  <g>
   <path class="fil0" d="M2411 9660c0,8 -7,16 -16,16 -9,0 -16,-8 -16,-16l32 0zm0 -617l0 617 -32 0 0 -617 32 0zm-32 0c0,-8 7,-16 16,-16 9,0 16,8 16,16l-32 0z"/>
  </g>
  <g>
   <path class="fil0" d="M3445 8813c9,0 16,7 16,16 0,9 -7,16 -16,16l0 -32zm-606 0l606 0 0 32 -606 0 0 -32zm0 32c-8,0 -16,-7 -16,-16 0,-9 8,-16 16,-16l0 32z"/>
  </g>
  <g>
   <path class="fil0" d="M3161 9129c0,9 -7,16 -16,16 -9,0 -16,-7 -16,-16l32 0zm0 -605l0 605 -32 0 0 -605 32 0zm-32 0c0,-9 7,-16 16,-16 9,0 16,7 16,16l-32 0z"/>
  </g>
  <g>
   <path class="fil0" d="M3141 8599c9,-2 17,3 19,12 3,9 -3,17 -11,19l-8 -31zm-86 22l86 -22 8 31 -86 22 -13 -29 5 -2zm8 31c-9,2 -17,-3 -20,-12 -2,-8 4,-17 12,-19l8 31zm-77 14l64 -43 18 27 -64 43 -23 -23 5 -4zm18 27c-8,4 -18,2 -23,-5 -4,-7 -2,-17 5,-22l18 27zm-65 42l42 -65 27 18 -43 64 -29 -12 3 -5zm26 17c-5,8 -15,10 -22,5 -7,-5 -9,-15 -4,-22l26 17zm-50 73l21 -85 32 7 -22 86 -31 1 0 -9zm31 8c-2,9 -11,14 -19,12 -9,-2 -14,-11 -12,-20l31 8zm-9 76l-22 -75 31 -9 21 75 -28 13 -2 -4zm30 -9c3,8 -2,17 -11,20 -8,2 -17,-3 -19,-11l30 -9zm14 77l-42 -64 26 -18 43 65 -23 21 -4 -4zm27 -17c5,7 3,17 -4,22 -8,5 -18,3 -23,-5l27 -17zm41 74l-64 -53 20 -25 64 54 -12 28 -8 -4zm20 -24c7,5 8,15 2,22 -5,7 -15,8 -22,2l20 -24zm74 39l-86 -11 4 -32 86 11 0 32 -4 0zm4 -32c9,1 15,9 14,18 -1,9 -9,15 -18,14l4 -32zm75 21l-75 11 -4 -32 75 -11 11 29 -7 3zm-4 -32c8,-1 17,5 18,14 1,8 -5,17 -14,18l-4 -32zm86 -24l-75 53 -18 -26 75 -54 22 22 -4 5zm-18 -27c7,-5 17,-3 22,4 5,7 3,17 -4,23l-18 -27zm65 -42l-43 64 -26 -17 42 -65 30 11 -3 7zm-27 -18c5,-7 15,-9 23,-4 7,5 9,15 4,22l-27 -18zm40 -64l-10 75 -32 -4 11 -75 31 0 0 4zm-31 -4c1,-9 9,-15 18,-14 8,1 15,10 13,18l-31 -4zm21 -85l10 85 -32 4 -10 -86 29 -10 3 7zm-32 3c-1,-8 5,-16 14,-17 9,-2 17,5 18,14l-32 3zm-14 -75l43 65 -27 17 -42 -64 21 -23 5 5zm-26 18c-5,-7 -3,-17 4,-22 7,-5 17,-3 22,4l-26 18zm-54 -66l75 43 -16 28 -75 -43 12 -29 4 1zm-16 28c-8,-4 -10,-14 -6,-22 4,-7 14,-10 22,-6l-16 28zm-63 -51l75 22 -9 31 -75 -22 9 -31zm-9 31c-8,-2 -13,-11 -11,-20 3,-8 12,-13 20,-11l-9 31z"/>
  </g>
  <g>
   <path class="fil0" d="M2689 7233c9,0 17,7 17,16 0,9 -8,16 -17,16l0 -32zm-605 0l605 0 0 32 -605 0 0 -32zm0 32c-9,0 -16,-7 -16,-16 0,-9 7,-16 16,-16l0 32z"/>
  </g>
  <g>
   <path class="fil0" d="M2393 7029c9,-1 17,5 18,14 1,9 -5,17 -14,18l-4 -32zm-86 11l86 -11 4 32 -86 11 -12 -28 8 -4zm4 32c-9,1 -17,-5 -18,-14 -1,-9 5,-17 14,-18l4 32zm-77 25l65 -53 20 24 -64 54 -24 -21 3 -4zm21 25c-7,5 -17,5 -23,-2 -5,-7 -4,-17 2,-23l21 25zm-66 43l42 -64 27 17 -43 65 -29 -14 3 -4zm26 18c-5,7 -15,9 -22,4 -7,-5 -9,-15 -4,-22l26 18zm-50 61l21 -75 31 9 -21 75 -31 0 0 -9zm31 9c-3,9 -11,14 -20,11 -8,-2 -13,-11 -11,-20l31 9zm-10 85l-21 -85 31 -8 22 86 -29 12 -3 -5zm32 -7c2,8 -4,17 -12,19 -9,2 -18,-3 -20,-12l32 -7zm13 77l-42 -65 26 -17 43 64 -21 23 -6 -5zm27 -18c5,7 3,17 -4,22 -8,5 -18,3 -23,-4l27 -18zm43 60l-64 -37 16 -28 64 37 -12 30 -4 -2zm16 -28c8,5 10,15 6,22 -4,8 -14,11 -22,6l16 -28zm74 51l-86 -21 8 -31 86 21 0 31 -8 0zm8 -31c8,2 14,11 11,20 -2,8 -11,13 -19,11l8 -31zm75 10l-75 21 -9 -31 75 -21 13 29 -4 2zm-9 -31c9,-3 18,2 20,11 3,8 -2,17 -11,20l-9 -31zm77 -8l-64 37 -16 -28 64 -37 20 24 -4 4zm-16 -28c8,-5 18,-2 22,6 4,7 2,17 -6,22l-16 -28zm74 -40l-54 64 -24 -21 53 -64 29 11 -4 10zm-25 -21c6,-7 16,-8 23,-2 7,6 8,16 2,23l-25 -21zm34 -74l-5 85 -32 -2 5 -85 32 0 0 2zm-32 -2c1,-9 8,-16 17,-15 9,0 16,8 15,17l-32 -2zm27 -75l5 75 -32 2 -5 -75 28 -12 4 10zm-32 2c-1,-9 6,-17 14,-17 9,-1 17,6 18,15l-32 2zm-26 -76l54 64 -25 21 -53 -64 22 -23 2 2zm-24 21c-6,-7 -5,-17 2,-23 7,-6 17,-5 22,2l-24 21zm-42 -76l64 53 -20 25 -64 -54 12 -28 8 4zm-20 24c-7,-5 -8,-16 -3,-22 6,-7 16,-8 23,-2l-20 24zm-63 -39l75 11 -4 32 -75 -11 4 -32zm-4 32c-9,-1 -15,-9 -14,-18 1,-9 9,-15 18,-14l-4 32z"/>
  </g>
  <g>
   <path class="fil0" d="M3445 7763c9,0 16,7 16,16 0,9 -7,16 -16,16l0 -32zm-606 0l606 0 0 32 -606 0 0 -32zm0 32c-8,0 -16,-7 -16,-16 0,-9 8,-16 16,-16l0 32z"/>
  </g>
  <g>
   <path class="fil0" d="M3161 8074c0,9 -7,16 -16,16 -9,0 -16,-7 -16,-16l32 0zm0 -606l0 606 -32 0 0 -606 32 0zm-32 0c0,-8 7,-16 16,-16 9,0 16,8 16,16l-32 0z"/>
  </g>
  <g>
   <path class="fil0" d="M3141 7549c9,-2 17,3 19,12 3,8 -3,17 -11,19l-8 -31zm-86 22l86 -22 8 31 -86 22 -13 -29 5 -2zm8 31c-9,2 -17,-3 -20,-12 -2,-8 4,-17 12,-19l8 31zm-77 14l64 -43 18 27 -64 42 -23 -22 5 -4zm18 26c-8,5 -18,3 -23,-4 -4,-7 -2,-17 5,-22l18 26zm-65 42l42 -64 27 18 -43 64 -29 -13 3 -5zm26 18c-5,8 -15,10 -22,5 -7,-5 -9,-15 -4,-23l26 18zm-50 73l21 -86 32 8 -22 86 -31 1 0 -9zm31 8c-2,9 -11,14 -19,12 -9,-2 -14,-11 -12,-20l31 8zm-9 76l-22 -75 31 -9 21 75 -29 12 -1 -3zm30 -9c3,8 -2,17 -11,20 -8,2 -17,-3 -19,-11l30 -9zm14 87l-43 -75 28 -16 43 75 -23 21 -5 -5zm28 -16c4,8 1,18 -6,22 -8,4 -18,2 -22,-6l28 -16zm41 64l-64 -43 18 -26 64 43 -11 29 -7 -3zm18 -26c7,4 9,14 4,22 -4,7 -14,9 -22,4l18 -26zm75 40l-86 -11 4 -32 86 11 0 32 -4 0zm4 -32c9,1 15,9 14,18 -1,8 -9,15 -18,14l4 -32zm75 21l-75 11 -4 -32 75 -11 10 30 -6 2zm-4 -32c8,-1 17,5 18,14 1,8 -5,17 -14,18l-4 -32zm85 -13l-75 43 -16 -28 75 -43 22 22 -6 6zm-16 -28c8,-4 17,-2 22,6 4,8 2,18 -6,22l-16 -28zm65 -53l-43 75 -28 -16 43 -75 30 10 -2 6zm-28 -16c4,-8 14,-10 22,-6 7,5 10,14 6,22l-28 -16zm40 -65l-10 75 -32 -4 11 -75 31 0 0 4zm-31 -4c1,-9 9,-15 18,-14 8,1 15,10 13,18l-31 -4zm21 -86l10 86 -32 4 -10 -86 29 -11 3 7zm-32 4c-1,-8 5,-17 14,-18 9,-1 17,6 18,14l-32 4zm-14 -75l43 64 -27 18 -42 -64 21 -23 5 5zm-26 18c-5,-7 -3,-17 4,-22 7,-5 17,-3 22,4l-26 18zm-54 -66l75 43 -16 28 -75 -43 12 -29 4 1zm-16 28c-8,-4 -10,-14 -6,-22 4,-7 14,-10 22,-6l-16 28zm-63 -51l75 22 -9 31 -75 -22 9 -31zm-9 31c-8,-2 -13,-11 -11,-20 3,-8 12,-13 20,-11l-9 31z"/>
  </g>
  <g>
   <path class="fil0" d="M2411 7554c0,9 -7,16 -16,16 -9,0 -16,-7 -16,-16l32 0zm0 -605l0 605 -32 0 0 -605 32 0zm-32 0c0,-9 7,-16 16,-16 9,0 16,7 16,16l-32 0z"/>
  </g>
  <g>
   <path class="fil0" d="M2689 6193c9,0 17,7 17,16 0,9 -8,16 -17,16l0 -32zm-605 0l605 0 0 32 -605 0 0 -32zm0 32c-9,0 -16,-7 -16,-16 0,-9 7,-16 16,-16l0 32z"/>
  </g>
  <g>
   <path class="fil0" d="M2391 5979c8,-2 17,4 19,12 3,9 -3,18 -11,20l-8 -32zm-86 22l86 -22 8 32 -86 21 -13 -29 5 -2zm8 31c-9,2 -17,-3 -20,-12 -2,-8 4,-17 12,-19l8 31zm-77 14l64 -43 18 27 -64 43 -23 -23 5 -4zm18 27c-8,5 -18,3 -23,-5 -4,-7 -3,-17 5,-22l18 27zm-65 42l42 -65 27 18 -43 65 -29 -13 3 -5zm26 18c-5,7 -15,9 -22,4 -7,-5 -9,-15 -4,-22l26 18zm-50 72l21 -85 32 8 -22 85 -31 1 0 -9zm31 8c-2,9 -11,14 -19,12 -9,-2 -14,-11 -12,-20l31 8zm-9 71l-22 -70 31 -9 21 69 -28 14 -2 -4zm30 -10c3,9 -2,18 -10,20 -9,3 -18,-2 -20,-10l30 -10zm14 78l-42 -64 26 -18 43 64 -24 22 -3 -4zm27 -18c5,8 3,18 -4,23 -8,5 -18,3 -23,-5l27 -18zm41 75l-65 -53 21 -25 64 53 -12 29 -8 -4zm20 -25c7,6 8,16 2,23 -5,7 -15,8 -22,2l20 -25zm74 40l-86 -11 4 -32 86 11 0 32 -4 0zm4 -32c9,1 15,9 14,18 -1,8 -9,15 -18,14l4 -32zm75 21l-75 11 -4 -32 75 -11 12 28 -8 4zm-4 -32c8,-1 17,5 18,14 1,8 -5,17 -14,18l-4 -32zm76 -25l-64 53 -20 -25 64 -53 22 23 -2 2zm-20 -25c7,-6 17,-5 22,2 6,7 5,17 -2,23l-20 -25zm76 -42l-54 65 -24 -21 53 -64 29 11 -4 9zm-25 -20c6,-7 16,-8 23,-2 7,5 8,15 2,22l-25 -20zm34 -58l-5 69 -32 -2 5 -70 32 0 0 3zm-32 -3c1,-9 8,-15 17,-15 9,1 16,9 15,18l-32 -3zm27 -85l5 85 -32 2 -5 -85 28 -12 4 10zm-32 2c-1,-9 6,-17 15,-17 8,-1 16,6 17,15l-32 2zm-26 -76l54 64 -25 21 -53 -64 21 -24 3 3zm-24 21c-6,-7 -5,-17 2,-23 7,-6 17,-5 22,2l-24 21zm-43 -67l64 43 -18 27 -64 -43 13 -29 5 2zm-18 27c-7,-5 -9,-15 -5,-22 5,-8 15,-10 23,-5l-18 27zm-62 -50l75 21 -9 31 -75 -21 9 -31zm-9 31c-8,-3 -13,-12 -11,-20 3,-9 12,-14 20,-11l-9 31z"/>
  </g>
  <g>
   <path class="fil0" d="M3445 6713c9,0 16,7 16,16 0,9 -7,16 -16,16l0 -32zm-606 0l606 0 0 32 -606 0 0 -32zm0 32c-8,0 -16,-7 -16,-16 0,-9 8,-16 16,-16l0 32z"/>
  </g>
  <g>
   <path class="fil0" d="M3161 7034c0,9 -7,16 -16,16 -9,0 -16,-7 -16,-16l32 0zm0 -616l0 616 -32 0 0 -616 32 0zm-32 0c0,-9 7,-16 16,-16 9,0 16,7 16,16l-32 0z"/>
  </g>
  <g>
   <path class="fil0" d="M3143 6510c9,-2 17,5 18,13 1,9 -5,17 -14,18l-4 -31zm-86 10l86 -10 4 31 -86 11 -11 -29 7 -3zm4 32c-9,1 -17,-5 -18,-14 -1,-9 5,-17 14,-18l4 32zm-75 14l64 -43 18 27 -64 42 -23 -21 5 -5zm18 26c-8,5 -18,3 -23,-4 -4,-7 -2,-17 5,-22l18 26zm-66 54l43 -75 28 16 -43 75 -29 -12 1 -4zm28 16c-4,8 -14,10 -22,6 -8,-4 -10,-14 -6,-22l28 16zm-51 63l22 -75 30 8 -21 75 -31 0 0 -8zm31 8c-2,9 -11,14 -20,12 -8,-3 -13,-12 -11,-20l31 8zm-9 75l-22 -75 31 -8 21 75 -29 12 -1 -4zm30 -8c3,8 -2,17 -11,19 -8,3 -17,-2 -19,-11l30 -8zm14 82l-43 -70 28 -16 42 69 -22 22 -5 -5zm27 -17c5,8 3,18 -5,22 -7,5 -17,3 -22,-5l27 -17zm42 65l-64 -43 18 -27 64 43 -11 30 -7 -3zm18 -27c7,5 9,15 4,22 -4,8 -14,10 -22,5l18 -27zm75 40l-86 -10 4 -32 86 10 0 32 -4 0zm4 -32c9,1 15,9 14,18 -1,9 -9,15 -18,14l4 -32zm75 21l-75 11 -4 -32 75 -10 10 30 -6 1zm-4 -31c8,-2 17,5 18,13 1,9 -5,17 -14,18l-4 -31zm85 -13l-75 43 -16 -28 75 -43 22 22 -6 6zm-16 -28c8,-5 17,-2 22,6 4,7 2,17 -6,22l-16 -28zm64 -48l-42 70 -28 -17 43 -69 30 10 -3 6zm-27 -16c5,-8 15,-10 22,-6 8,5 10,15 5,22l-27 -16zm40 -65l-10 75 -32 -4 11 -75 31 0 0 4zm-31 -4c1,-9 9,-15 18,-14 8,1 15,10 13,18l-31 -4zm21 -75l10 75 -31 4 -11 -75 30 -10 2 6zm-32 4c-1,-8 5,-17 13,-18 9,-1 17,5 19,14l-32 4zm-13 -85l43 75 -28 16 -43 -75 22 -22 6 6zm-28 16c-4,-8 -2,-18 6,-22 8,-4 17,-2 22,6l-28 16zm-53 -65l75 43 -16 28 -75 -43 10 -30 6 2zm-16 28c-8,-4 -10,-14 -6,-22 4,-8 14,-10 22,-6l-16 28zm-65 -40l75 10 -4 32 -75 -11 4 -31zm-4 31c-9,-1 -15,-9 -14,-18 1,-9 9,-15 18,-13l-4 31z"/>
  </g>
  <g>
   <path class="fil0" d="M2689 4088c9,0 17,7 17,16 0,9 -8,16 -17,16l0 -32zm-605 0l605 0 0 32 -605 0 0 -32zm0 32c-9,0 -16,-7 -16,-16 0,-9 7,-16 16,-16l0 32z"/>
  </g>
  <g>
   <path class="fil0" d="M2391 3879c8,-2 17,3 19,12 3,9 -3,17 -11,20l-8 -32zm-86 22l86 -22 8 32 -86 21 -12 -30 4 -1zm8 31c-9,2 -17,-3 -20,-12 -2,-8 4,-17 12,-19l8 31zm-76 8l64 -38 16 28 -64 38 -22 -23 6 -5zm16 28c-8,4 -18,2 -22,-6 -5,-8 -2,-18 6,-22l16 28zm-64 41l42 -64 27 18 -43 64 -29 -13 3 -5zm26 18c-5,7 -15,9 -22,5 -7,-5 -9,-15 -4,-23l26 18zm-50 73l21 -86 32 8 -22 86 -31 0 0 -8zm31 8c-2,8 -11,14 -19,11 -9,-2 -14,-10 -12,-19l31 8zm-10 75l-21 -75 31 -9 21 75 -29 13 -2 -4zm31 -9c3,9 -2,18 -11,20 -8,3 -17,-2 -20,-11l31 -9zm14 88l-43 -75 28 -16 43 75 -23 21 -5 -5zm28 -16c4,8 1,17 -6,22 -8,4 -18,2 -22,-6l28 -16zm41 64l-64 -43 18 -27 64 43 -11 30 -7 -3zm18 -27c7,5 9,15 4,23 -4,7 -14,9 -22,4l18 -27zm75 40l-86 -10 4 -32 86 10 0 32 -4 0zm4 -32c9,2 15,10 14,18 -1,9 -9,15 -18,14l4 -32zm75 22l-75 10 -4 -31 75 -11 11 29 -7 3zm-4 -32c8,-1 17,5 18,13 1,9 -5,17 -14,19l-4 -32zm75 -14l-64 43 -18 -27 64 -43 22 23 -4 4zm-18 -27c8,-4 18,-2 22,5 5,7 3,17 -4,22l-18 -27zm76 -52l-54 75 -26 -19 54 -75 29 11 -3 8zm-26 -19c5,-7 15,-8 22,-3 7,5 9,15 4,22l-26 -19zm34 -64l-5 75 -32 -2 5 -75 32 0 0 2zm-32 -2c1,-9 8,-16 17,-15 9,0 16,8 15,17l-32 -2zm27 -86l5 86 -32 2 -5 -86 28 -11 4 9zm-32 2c-1,-9 6,-16 15,-17 8,0 16,6 17,15l-32 2zm-26 -75l54 64 -25 20 -53 -64 20 -24 4 4zm-24 20c-6,-7 -5,-17 2,-23 7,-5 17,-4 22,3l-24 20zm-44 -62l64 38 -16 28 -64 -38 12 -29 4 1zm-16 28c-8,-4 -10,-14 -6,-22 4,-7 14,-10 22,-6l-16 28zm-63 -51l75 22 -9 31 -75 -22 9 -31zm-9 31c-8,-2 -13,-11 -11,-20 3,-8 12,-13 20,-11l-9 31z"/>
  </g>
  <g>
   <path class="fil0" d="M3445 4607c9,0 16,8 16,17 0,8 -7,16 -16,16l0 -33zm-606 0l606 0 0 33 -606 0 0 -33zm0 33c-8,0 -16,-8 -16,-16 0,-9 8,-17 16,-17l0 33z"/>
  </g>
  <g>
   <path class="fil0" d="M3161 4934c0,9 -7,16 -16,16 -9,0 -16,-7 -16,-16l32 0zm0 -605l0 605 -32 0 0 -605 32 0zm-32 0c0,-9 7,-16 16,-16 9,0 16,7 16,16l-32 0z"/>
  </g>
  <g>
   <path class="fil0" d="M3143 4409c9,-1 17,6 18,14 1,9 -5,17 -14,18l-4 -32zm-86 11l86 -11 4 32 -86 11 -11 -29 7 -3zm4 32c-9,1 -17,-5 -18,-14 -1,-9 5,-17 14,-18l4 32zm-75 14l64 -43 18 26 -64 43 -23 -22 5 -4zm18 26c-8,5 -18,3 -23,-4 -4,-8 -2,-18 5,-22l18 26zm-66 48l43 -70 27 17 -42 70 -29 -13 1 -4zm28 17c-5,7 -15,10 -22,5 -8,-4 -10,-14 -6,-22l28 17zm-51 62l22 -75 30 9 -21 75 -31 -1 0 -8zm31 9c-2,8 -11,13 -20,11 -8,-2 -13,-11 -11,-20l31 9zm-10 85l-21 -86 31 -7 22 85 -29 13 -3 -5zm32 -8c2,9 -3,18 -12,20 -9,2 -17,-3 -20,-12l32 -8zm13 77l-42 -64 26 -18 43 65 -22 22 -5 -5zm27 -17c5,7 3,17 -4,22 -8,5 -18,3 -23,-5l27 -17zm42 65l-64 -43 18 -27 64 43 -13 29 -5 -2zm18 -27c7,5 9,15 4,22 -4,8 -14,10 -22,5l18 -27zm73 50l-86 -21 8 -31 86 21 0 31 -8 0zm8 -31c8,2 14,11 11,20 -2,8 -10,14 -19,11l8 -31zm75 10l-75 21 -9 -31 75 -21 13 29 -4 2zm-9 -31c9,-3 18,2 20,11 3,8 -2,17 -11,20l-9 -31zm88 -14l-75 43 -16 -28 75 -42 21 22 -5 5zm-16 -27c8,-5 17,-2 22,6 4,7 2,17 -6,21l-16 -27zm64 -42l-43 64 -26 -17 42 -65 30 11 -3 7zm-27 -18c5,-7 15,-9 23,-4 7,5 9,15 4,22l-27 -18zm40 -74l-10 85 -32 -4 10 -85 32 -1 0 5zm-32 -4c2,-9 10,-15 18,-14 9,1 15,9 14,18l-32 -4zm22 -76l10 75 -31 5 -11 -75 29 -11 3 6zm-32 5c-1,-9 5,-17 13,-18 9,-2 17,4 19,13l-32 5zm-13 -81l42 70 -27 17 -43 -70 22 -22 6 5zm-28 17c-4,-7 -2,-17 5,-22 8,-4 18,-2 23,5l-28 17zm-53 -65l75 43 -16 28 -75 -43 10 -30 6 2zm-16 28c-8,-4 -10,-14 -6,-22 4,-8 14,-10 22,-6l-16 28zm-65 -41l75 11 -4 32 -75 -11 4 -32zm-4 32c-9,-1 -15,-9 -14,-18 1,-9 9,-15 18,-14l-4 32z"/>
  </g>
  <g>
   <path class="fil0" d="M2411 4404c0,9 -7,16 -16,16 -9,0 -16,-7 -16,-16l32 0zm0 -606l0 606 -32 0 0 -606 32 0zm-32 0c0,-8 7,-16 16,-16 9,0 16,8 16,16l-32 0z"/>
  </g>
  <g>
   <path class="fil0" d="M4152 11401c0,9 -7,16 -16,16 -9,0 -16,-7 -16,-16l32 0zm0 -7699l0 7699 -32 0 0 -7699 32 0zm-32 0c0,-9 7,-16 16,-16 9,0 16,7 16,16l-32 0z"/>
  </g>
  <g>
   <path class="fil0" d="M670 12574c0,9 -8,16 -16,16 -9,0 -16,-7 -16,-16l32 0zm0 -9199l0 9199 -32 0 0 -9199 32 0zm-32 0c0,-9 7,-16 16,-16 8,0 16,7 16,16l-32 0z"/>
  </g>
  <g>
   <path class="fil0" d="M32 15548c0,8 -7,16 -16,16 -9,0 -16,-8 -16,-16l32 0zm0 -15146l0 15146 -32 0 0 -15146 32 0zm-32 0c0,-9 7,-16 16,-16 9,0 16,7 16,16l-32 0z"/>
  </g>
  <g>
   <path class="fil0" d="M3981 12253c0,8 -8,16 -16,16 -9,0 -17,-8 -17,-16l33 0zm0 -8551l0 8551 -33 0 0 -8551 33 0zm-33 0c0,-9 8,-16 17,-16 8,0 16,7 16,16l-33 0z"/>
  </g>
  <g>
   <path class="fil0" d="M638 12575c-1,-9 6,-16 15,-17 8,0 16,6 17,15l-32 2zm10 182l-10 -182 32 -2 10 182 -31 7 -1 -5zm32 -2c1,9 -6,17 -15,17 -9,1 -16,-6 -17,-15l32 -2zm34 173l-65 -166 30 -12 65 167 -29 13 -1 -2zm30 -11c3,8 -1,17 -10,20 -8,3 -17,-1 -20,-9l30 -11zm62 174l-91 -161 28 -16 91 161 -26 19 -2 -3zm28 -16c4,8 1,18 -6,22 -8,4 -18,2 -22,-6l28 -16zm102 158l-128 -139 23 -22 129 139 -21 25 -3 -3zm24 -22c6,7 6,17 -1,23 -6,6 -17,6 -23,-1l24 -22zm140 132l-161 -107 18 -27 161 107 -14 29 -4 -2zm18 -27c7,5 9,15 4,22 -5,8 -15,10 -22,5l18 -27zm157 88l-171 -59 10 -31 172 59 -8 31 -3 0zm11 -31c8,3 13,12 10,21 -3,8 -12,12 -21,10l11 -31zm168 63l-176 -32 5 -31 177 32 -2 32 -4 -1zm6 -31c9,1 15,10 13,18 -2,9 -10,15 -19,13l6 -31zm191 21l-193 11 -2 -32 193 -11 2 32zm-2 -32c9,-1 17,6 17,15 1,9 -6,16 -15,17l-2 -32z"/>
  </g>
  <g>
   <path class="fil0" d="M804 12575c-1,-8 6,-16 14,-17 9,-1 17,6 18,15l-32 2zm10 140l-10 -140 32 -2 10 139 -31 7 -1 -4zm32 -3c1,9 -6,17 -14,17 -9,1 -17,-6 -18,-14l32 -3zm23 152l-54 -145 30 -11 54 144 -29 14 -1 -2zm30 -12c3,9 -1,18 -9,21 -9,3 -18,-1 -21,-9l30 -12zm46 143l-75 -129 28 -16 75 129 -25 19 -3 -3zm28 -16c4,7 2,17 -6,21 -8,5 -17,2 -22,-5l28 -16zm82 126l-107 -107 22 -23 107 107 -20 25 -2 -2zm22 -23c7,7 7,17 0,23 -6,6 -16,6 -22,0l22 -23zm98 100l-118 -75 18 -27 118 75 -16 28 -2 -1zm18 -27c7,5 9,15 5,22 -5,8 -15,10 -23,5l18 -27zm124 93l-140 -65 14 -29 139 64 -9 31 -4 -1zm13 -30c8,4 12,14 8,22 -4,8 -13,11 -21,8l13 -30zm136 52l-145 -21 5 -32 144 22 -1 31 -3 0zm4 -31c9,1 15,9 14,18 -1,9 -10,15 -18,13l4 -31zm149 21l-150 10 -2 -32 150 -10 2 32zm-2 -32c9,-1 16,6 17,15 1,8 -6,16 -15,17l-2 -32z"/>
  </g>
  <g>
   <path class="fil0" d="M0 15550c-1,-8 5,-17 13,-18 9,-2 17,4 19,13l-32 5zm22 118l-22 -118 32 -5 21 118 -30 10 -1 -5zm31 -5c2,8 -4,17 -13,18 -8,2 -17,-4 -18,-13l31 -5zm24 112l-54 -102 29 -15 53 102 -25 19 -3 -4zm28 -15c4,8 1,17 -6,21 -8,5 -18,1 -22,-6l28 -15zm60 104l-85 -85 22 -23 86 86 -19 25 -4 -3zm23 -22c6,6 6,16 0,22 -6,6 -16,6 -23,0l23 -22zm72 78l-91 -53 16 -28 91 54 -11 29 -5 -2zm16 -27c8,4 10,14 6,22 -5,7 -15,10 -22,5l16 -27zm107 51l-118 -22 6 -31 118 21 -6 32zm6 -32c8,2 14,10 13,19 -2,8 -10,14 -19,13l6 -32z"/>
  </g>
  <g>
   <path class="fil0" d="M804 10704c0,-9 7,-16 16,-16 9,0 16,7 16,16l-32 0zm0 841l0 -841 32 0 0 841 -16 17 -16 -17zm32 0c0,9 -7,17 -16,17 -9,0 -16,-8 -16,-17l32 0zm48 17l-64 0 0 -33 64 0 16 16 -16 17zm0 -33c9,0 16,8 16,16 0,9 -7,17 -16,17l0 -33zm16 -825l0 841 -32 0 0 -841 16 -16 16 16zm-32 0c0,-9 7,-16 16,-16 9,0 16,7 16,16l-32 0zm-48 -16l64 0 0 32 -64 0 0 -32zm0 32c-9,0 -16,-7 -16,-16 0,-9 7,-16 16,-16l0 32z"/>
  </g>
  <g>
   <path class="fil0" d="M4391 15944c-9,1 -18,-5 -19,-13 -2,-9 4,-17 13,-19l6 32zm117 -22l-117 22 -6 -32 118 -21 10 30 -5 1zm-5 -31c8,-2 17,4 18,13 2,8 -4,17 -13,18l-5 -31zm117 -24l-107 54 -15 -29 108 -54 18 26 -4 3zm-14 -29c8,-3 17,0 21,8 4,8 1,17 -7,21l-14 -29zm104 -59l-86 85 -23 -22 86 -86 1 -1 22 24zm-23 -23c6,-6 17,-6 23,0 6,6 6,16 0,23l-23 -23zm76 -25l-54 48 -21 -24 53 -48 27 13 -5 11zm-22 -24c7,-6 17,-5 23,1 6,7 5,17 -1,23l-22 -24zm38 -104l-11 117 -32 -3 11 -117 32 3zm-32 -3c1,-9 8,-16 17,-15 9,1 16,9 15,18l-32 -3z"/>
  </g>
  <g>
   <path class="fil0" d="M3429 13098c-9,3 -18,-1 -21,-10 -3,-8 2,-17 10,-20l11 30zm192 -64l-192 64 -11 -30 193 -65 13 30 -3 1zm-10 -31c9,-2 18,2 21,11 2,8 -2,17 -11,20l-10 -31zm179 -67l-166 97 -16 -28 166 -97 19 26 -3 2zm-16 -28c8,-4 18,-1 22,6 5,8 2,18 -6,22l-16 -28zm169 -108l-150 134 -21 -24 150 -134 24 21 -3 3zm-21 -24c6,-5 17,-5 22,2 6,6 6,17 -1,22l-21 -24zm131 -139l-107 160 -27 -17 107 -161 29 15 -2 3zm-27 -18c5,-8 15,-10 22,-5 8,5 10,15 5,23l-27 -18zm104 -178l-75 193 -30 -12 75 -193 31 8 -1 4zm-30 -12c3,-8 12,-12 20,-9 9,3 13,12 10,21l-30 -12zm52 -185l-21 193 -32 -4 21 -193 32 4zm-32 -4c1,-9 9,-15 18,-14 9,1 15,9 14,18l-32 -4z"/>
  </g>
  <g>
   <path class="fil0" d="M1621 13260c-9,1 -17,-5 -19,-13 -2,-9 4,-17 13,-19l6 32zm1784 -333l-1784 333 -6 -32 1784 -332 7 31 -1 0zm-6 -31c9,-2 17,4 19,13 1,8 -4,17 -13,18l-6 -31zm157 -12l-150 43 -8 -31 150 -43 12 30 -4 1zm-8 -31c8,-2 17,3 19,11 3,9 -2,18 -11,20l-8 -31zm151 -51l-139 81 -16 -28 139 -81 19 26 -3 2zm-16 -28c8,-4 18,-1 22,6 5,8 2,18 -6,22l-16 -28zm132 -81l-113 107 -22 -23 113 -107 24 20 -2 3zm-22 -23c6,-6 16,-6 22,0 7,7 6,17 0,23l-22 -23zm110 -108l-86 128 -27 -18 86 -128 29 14 -2 4zm-27 -18c5,-8 15,-10 22,-5 8,5 10,15 5,23l-27 -18zm82 -136l-53 150 -31 -11 54 -150 31 8 -1 3zm-30 -11c3,-8 12,-12 21,-9 8,2 12,12 9,20l-30 -11zm52 -153l-21 161 -32 -4 22 -161 31 4zm-31 -4c1,-9 9,-15 18,-14 8,1 15,9 13,18l-31 -4z"/>
  </g>
  <g>
   <path class="fil0" d="M1653 13426c-9,1 -17,-5 -19,-13 -1,-9 4,-17 13,-19l6 32zm1773 -327l-1773 327 -6 -32 1774 -327 5 32zm-5 -32c8,-1 17,4 18,13 2,9 -4,17 -13,19l-5 -32z"/>
  </g>
  <g>
   <path class="fil0" d="M3948 10704c0,-9 8,-16 17,-16 8,0 16,7 16,16l-33 0zm0 841l0 -841 33 0 0 841 -16 17 -17 -17zm33 0c0,9 -8,17 -16,17 -9,0 -17,-8 -17,-17l33 0zm-91 -16l75 0 0 33 -75 0 -17 -17 17 -16zm0 33c-9,0 -17,-8 -17,-17 0,-8 8,-16 17,-16l0 33zm16 -858l0 841 -33 0 0 -841 17 -16 16 16zm-33 0c0,-9 8,-16 17,-16 8,0 16,7 16,16l-33 0zm92 16l-75 0 0 -32 75 0 0 32zm0 -32c8,0 16,7 16,16 0,9 -8,16 -16,16l0 -32z"/>
  </g>
  <g>
   <path class="fil0" d="M1619 2690c9,0 16,8 15,17 -1,8 -8,15 -17,15l2 -32zm-150 -11l150 11 -2 32 -150 -11 -1 -32 3 0zm-2 32c-9,-1 -16,-8 -15,-17 1,-9 8,-16 17,-15l-2 32zm-146 -11l145 -21 4 32 -144 21 -8 -31 3 -1zm5 32c-9,1 -17,-5 -19,-13 -1,-9 5,-17 14,-19l5 32zm-148 23l140 -54 11 30 -139 54 -15 -28 3 -2zm12 30c-8,3 -18,-1 -21,-9 -3,-9 1,-18 9,-21l12 30zm-133 52l118 -80 18 26 -118 80 -20 -24 2 -2zm18 26c-7,5 -17,4 -22,-4 -5,-7 -3,-17 4,-22l18 26zm-127 83l107 -107 22 23 -107 107 -25 -20 3 -3zm22 23c-6,6 -16,6 -22,0 -7,-7 -7,-17 0,-23l22 23zm-100 109l75 -129 28 16 -75 129 -29 -14 1 -2zm28 16c-5,8 -14,10 -22,6 -8,-5 -10,-15 -6,-22l28 16zm-83 125l54 -139 30 12 -54 139 -31 -7 1 -5zm30 12c-3,8 -12,12 -20,9 -9,-3 -13,-12 -10,-21l30 12zm-41 143l10 -150 32 2 -10 150 -32 -2zm32 2c-1,9 -9,16 -17,15 -9,0 -16,-8 -15,-17l32 2z"/>
  </g>
  <g>
   <path class="fil0" d="M1651 2518c9,0 16,8 15,17 0,9 -8,16 -17,15l2 -32zm-193 -11l193 11 -2 32 -193 -11 -2 -31 4 -1zm-2 32c-9,0 -15,-8 -15,-17 1,-8 8,-15 17,-15l-2 32zm-178 1l176 -32 6 31 -177 32 -8 -30 3 -1zm5 31c-8,2 -17,-4 -18,-13 -2,-8 4,-17 13,-18l5 31zm-180 34l172 -64 11 30 -171 64 -15 -29 3 -1zm12 30c-9,3 -18,-1 -21,-10 -3,-8 1,-17 9,-20l12 30zm-176 79l161 -108 18 27 -161 107 -20 -25 2 -1zm18 26c-7,5 -17,3 -22,-4 -5,-7 -3,-17 4,-22l18 26zm-148 99l128 -124 22 24 -128 123 -25 -20 3 -3zm22 23c-7,6 -17,6 -23,-1 -6,-6 -6,-16 1,-22l22 23zm-116 141l91 -161 28 16 -91 161 -30 -13 2 -3zm28 16c-5,8 -15,10 -22,6 -8,-4 -11,-14 -6,-22l28 16zm-94 169l64 -182 31 10 -65 182 -31 -6 1 -4zm30 10c-2,9 -12,13 -20,10 -8,-3 -13,-12 -10,-20l30 10zm-41 176l10 -182 32 2 -10 182 -32 -2zm32 2c-1,9 -8,16 -17,15 -9,0 -16,-8 -15,-17l32 2z"/>
  </g>
  <g>
   <path class="fil0" d="M383 0c9,-1 17,5 19,13 1,9 -5,17 -13,19l-6 -32zm-118 22l118 -22 6 32 -118 21 -11 -29 5 -2zm6 31c-9,2 -17,-4 -19,-13 -1,-8 4,-17 13,-18l6 31zm-102 24l91 -53 16 27 -91 54 -20 -25 4 -3zm16 28c-8,4 -18,2 -22,-6 -5,-7 -2,-17 6,-22l16 28zm-105 60l85 -85 23 22 -86 86 -25 -19 3 -4zm22 23c-6,6 -16,6 -22,0 -7,-6 -7,-16 0,-23l22 23zm-79 77l54 -96 28 16 -53 96 -30 -10 1 -6zm29 16c-5,8 -15,11 -22,6 -8,-4 -11,-14 -7,-22l29 16zm-52 118l22 -128 31 5 -21 128 -32 -5zm32 5c-1,9 -10,15 -19,14 -8,-2 -14,-10 -13,-19l32 5z"/>
  </g>
  <g>
   <path class="fil0" d="M3980 3700c2,9 -5,17 -13,18 -9,1 -17,-5 -18,-14l31 -4zm-21 -161l21 161 -31 4 -22 -161 31 -7 1 3zm-32 4c-1,-8 5,-16 14,-18 9,-1 17,5 18,14l-32 4zm-22 -152l53 145 -30 11 -53 -145 28 -14 2 3zm-30 11c-4,-8 1,-17 9,-20 8,-3 18,1 21,9l-30 11zm-58 -143l86 129 -27 18 -86 -129 25 -21 2 3zm-27 18c-4,-7 -2,-17 5,-22 7,-5 17,-3 22,4l-27 18zm-88 -128l113 107 -22 24 -113 -107 20 -26 2 2zm-22 24c-6,-7 -6,-17 0,-23 6,-7 16,-7 22,-1l-22 24zm-120 -111l140 85 -17 28 -139 -86 12 -29 4 2zm-16 27c-8,-5 -10,-15 -6,-22 5,-8 15,-10 22,-5l-16 27zm-138 -72l150 43 -8 31 -150 -43 8 -31zm-8 31c-9,-3 -14,-12 -11,-20 2,-9 11,-14 19,-11l-8 31z"/>
  </g>
  <g>
   <path class="fil0" d="M4152 3700c1,9 -5,17 -14,18 -9,1 -17,-5 -18,-14l32 -4zm-21 -193l21 193 -32 4 -21 -193 30 -8 2 4zm-32 4c-1,-9 5,-17 14,-18 9,-1 17,6 18,14l-32 4zm-45 -195l75 187 -29 12 -75 -187 28 -15 1 3zm-29 12c-4,-9 0,-18 9,-21 8,-3 17,1 20,9l-29 12zm-79 -176l107 161 -27 18 -107 -161 24 -21 3 3zm-27 18c-5,-8 -3,-18 4,-22 8,-5 18,-3 23,4l-27 18zm-126 -160l150 139 -22 24 -150 -140 20 -25 2 2zm-22 23c-6,-6 -6,-16 0,-22 6,-7 16,-7 22,-1l-22 23zm-146 -132l166 107 -17 27 -166 -107 13 -29 4 2zm-17 27c-8,-5 -10,-15 -5,-22 5,-8 15,-10 22,-5l-17 27zm-180 -83l193 54 -9 31 -193 -54 9 -31zm-9 31c-8,-2 -13,-11 -11,-19 2,-9 11,-14 20,-12l-9 31z"/>
  </g>
  <g>
   <path class="fil0" d="M1615 2721c-9,-1 -14,-10 -13,-18 2,-9 10,-15 19,-13l-6 31zm1784 327l-1784 -327 6 -31 1784 327 -6 31zm6 -31c9,1 14,10 13,18 -2,9 -10,15 -19,13l6 -31z"/>
  </g>
  <g>
   <path class="fil0" d="M1647 2550c-9,-2 -14,-10 -13,-19 2,-9 10,-14 19,-13l-6 32zm1774 327l-1774 -327 6 -32 1773 327 -5 32zm5 -32c9,2 15,10 13,19 -1,9 -10,14 -18,13l5 -32z"/>
  </g>
  <g>
   <path class="fil0" d="M4779 400c1,9 -6,17 -15,18 -9,1 -16,-6 -17,-15l32 -3zm-11 -118l11 118 -32 3 -11 -118 31 -8 1 5zm-32 3c-1,-8 6,-16 15,-17 8,-1 16,6 17,14l-32 3zm-23 -115l54 107 -29 14 -54 -107 26 -19 3 5zm-29 14c-4,-8 -1,-18 7,-22 8,-4 18,0 22,8l-29 14zm-60 -104l86 85 -23 23 -86 -86 19 -25 4 3zm-23 22c-6,-6 -6,-16 0,-22 7,-7 17,-7 23,0l-23 22zm-88 -79l107 54 -14 28 -108 -53 10 -30 5 1zm-15 29c-7,-4 -11,-14 -7,-22 4,-8 14,-11 22,-7l-15 29zm-107 -52l117 22 -5 31 -118 -21 6 -32zm-6 32c-9,-2 -15,-10 -13,-19 1,-8 10,-14 19,-13l-6 32z"/>
  </g>
  <g>
   <path class="fil0" d="M3965 6745c8,0 16,7 16,16 0,9 -8,16 -16,16l0 -32zm0 16l0 0 0 0 0 0 0 16 0 -16zm-75 -16l75 0 0 32 -75 0 -17 -16 17 -16zm0 32c-9,0 -17,-7 -17,-16 0,-9 8,-16 17,-16l0 32zm0 -16l0 0 0 0 0 0 16 0 -16 0zm0 16c-9,0 -17,-7 -17,-16 0,-9 8,-16 17,-16l0 32zm-17 831l0 -847 33 0 0 847 -16 16 -17 -16zm33 0c0,9 -8,16 -16,16 -9,0 -17,-7 -17,-16l33 0zm-16 0l0 0 0 0 0 0 0 -16 0 16zm16 0c0,9 -8,16 -16,16 -9,0 -17,-7 -17,-16l33 0zm59 16l-75 0 0 -32 75 0 0 32zm0 -32c8,0 16,7 16,16 0,9 -8,16 -16,16l0 -32zm0 16l0 0 0 0 0 0zm0 -16c8,0 16,7 16,16 0,9 -8,16 -16,16l0 -32z"/>
  </g>
  <g>
   <path class="fil0" d="M3981 6295c0,9 -8,16 -16,16 -9,0 -17,-7 -17,-16l33 0zm0 -841l0 841 -33 0 0 -841 17 -16 16 16zm-33 0c0,-9 8,-16 17,-16 8,0 16,7 16,16l-33 0zm-58 -16l75 0 0 32 -75 0 -17 -16 17 -16zm0 32c-9,0 -17,-7 -17,-16 0,-9 8,-16 17,-16l0 32zm-17 825l0 -841 33 0 0 841 -16 16 -17 -16zm33 0c0,9 -8,16 -16,16 -9,0 -17,-7 -17,-16l33 0zm59 16l-75 0 0 -32 75 0 0 32zm0 -32c8,0 16,7 16,16 0,9 -8,16 -16,16l0 -32z"/>
  </g>
  <g>
   <path class="fil0" d="M3890 8931c-9,0 -17,-7 -17,-16 0,-9 8,-16 17,-16l0 32zm0 -16l0 0 0 0 0 0 0 -16 0 16zm75 16l-75 0 0 -32 75 0 0 32zm0 -32c8,0 16,7 16,16 0,9 -8,16 -16,16l0 -32zm0 16l0 0 0 0 0 0zm0 -16c8,0 16,7 16,16 0,9 -8,16 -16,16l0 -32z"/>
  </g>
  <g>
   <path class="fil0" d="M3981 10233c0,9 -8,16 -16,16 -9,0 -17,-7 -17,-16l33 0zm0 -841l0 841 -33 0 0 -841 17 -16 16 16zm-33 0c0,-9 8,-16 17,-16 8,0 16,7 16,16l-33 0zm-58 -16l75 0 0 32 -75 0 -17 -16 17 -16zm0 32c-9,0 -17,-7 -17,-16 0,-9 8,-16 17,-16l0 32zm-17 825l0 -841 33 0 0 841 -16 16 -17 -16zm33 0c0,9 -8,16 -16,16 -9,0 -17,-7 -17,-16l33 0zm59 16l-75 0 0 -32 75 0 0 32zm0 -32c8,0 16,7 16,16 0,9 -8,16 -16,16l0 -32z"/>
  </g>
  <g>
   <path class="fil0" d="M804 6761c0,-9 7,-16 16,-16 9,0 16,7 16,16l-32 0zm0 847l0 -847 32 0 0 847 -16 16 -16 -16zm32 0c0,9 -7,16 -16,16 -9,0 -16,-7 -16,-16l32 0zm48 16l-64 0 0 -32 64 0 16 16 -16 16zm0 -32c9,0 16,7 16,16 0,9 -7,16 -16,16l0 -32zm16 -831l0 847 -32 0 0 -847 16 -16 16 16zm-32 0c0,-9 7,-16 16,-16 9,0 16,7 16,16l-32 0zm-48 -16l64 0 0 32 -64 0 0 -32zm0 32c-9,0 -16,-7 -16,-16 0,-9 7,-16 16,-16l0 32z"/>
  </g>
  <g>
   <path class="fil0" d="M836 6295c0,9 -7,16 -16,16 -9,0 -16,-7 -16,-16l32 0zm0 -841l0 841 -32 0 0 -841 16 -16 16 16zm-32 0c0,-9 7,-16 16,-16 9,0 16,7 16,16l-32 0zm80 16l-64 0 0 -32 64 0 16 16 -16 16zm0 -32c9,0 16,7 16,16 0,9 -7,16 -16,16l0 -32zm-16 857l0 -841 32 0 0 841 -16 16 -16 -16zm32 0c0,9 -7,16 -16,16 -9,0 -16,-7 -16,-16l32 0zm-80 -16l64 0 0 32 -64 0 0 -32zm0 32c-9,0 -16,-7 -16,-16 0,-9 7,-16 16,-16l0 32z"/>
  </g>
  <g>
   <path class="fil0" d="M836 10233c0,9 -7,16 -16,16 -9,0 -16,-7 -16,-16l32 0zm0 -841l0 841 -32 0 0 -841 16 -16 16 16zm-32 0c0,-9 7,-16 16,-16 9,0 16,7 16,16l-32 0zm80 16l-64 0 0 -32 64 0 16 16 -16 16zm0 -32c9,0 16,7 16,16 0,9 -7,16 -16,16l0 -32zm-16 857l0 -841 32 0 0 841 -16 16 -16 -16zm32 0c0,9 -7,16 -16,16 -9,0 -16,-7 -16,-16l32 0zm-80 -16l64 0 0 32 -64 0 0 -32zm0 32c-9,0 -16,-7 -16,-16 0,-9 7,-16 16,-16l0 32z"/>
  </g>
  <g>
   <path class="fil0" d="M670 12113c0,9 -8,16 -16,16 -9,0 -16,-7 -16,-16l32 0zm0 -332l0 332 -32 0 0 -332 32 0zm-32 0c0,-9 7,-16 16,-16 8,0 16,7 16,16l-32 0z"/>
  </g>
  <g>
   <path class="fil0" d="M4152 12242c0,9 -7,16 -16,16 -9,0 -16,-7 -16,-16l32 0zm0 -841l0 841 -32 0 0 -841 32 0zm-32 0c0,-9 7,-16 16,-16 9,0 16,7 16,16l-32 0z"/>
  </g>
  <g>
   <path class="fil0" d="M4779 12526c0,9 -7,16 -16,16 -9,0 -16,-7 -16,-16l32 0zm0 -1050l0 1050 -32 0 0 -1050 32 0zm-32 0c0,-9 7,-16 16,-16 9,0 16,7 16,16l-32 0z"/>
  </g>
  <g>
   <path class="fil0" d="M2411 12563c0,9 -7,16 -16,16 -9,0 -16,-7 -16,-16l32 0zm0 -75l0 75 -32 0 0 -75 32 0zm-32 0c0,-8 7,-16 16,-16 9,0 16,8 16,16l-32 0z"/>
  </g>
  <g>
   <path class="fil0" d="M2392 14353c9,-1 17,4 19,13 1,9 -5,17 -14,19l-5 -32zm-128 21l128 -21 5 32 -128 21 -9 -31 4 -1zm5 32c-9,2 -17,-4 -19,-13 -1,-9 5,-17 14,-19l5 32zm-138 23l129 -54 12 30 -128 54 -16 -28 3 -2zm13 30c-8,3 -18,-1 -21,-9 -4,-8 0,-18 8,-21l13 30zm-113 47l97 -75 19 26 -96 75 -22 -23 2 -3zm20 26c-7,5 -17,4 -22,-3 -6,-7 -5,-17 2,-23l20 26zm-103 79l81 -102 25 20 -81 102 -27 -16 2 -4zm25 20c-5,7 -15,8 -22,2 -7,-5 -8,-15 -3,-22l25 20zm-70 102l43 -118 30 11 -43 118 -31 -8 1 -3zm30 11c-3,8 -12,13 -21,10 -8,-3 -12,-13 -9,-21l30 11zm-52 120l21 -128 32 5 -22 129 -31 0 0 -6zm31 6c-1,8 -9,14 -18,13 -9,-1 -15,-10 -13,-19l31 6zm-10 128l-21 -128 31 -6 22 129 -31 8 -1 -3zm32 -5c1,9 -5,17 -13,19 -9,1 -17,-5 -19,-14l32 -5zm12 126l-43 -118 30 -11 43 118 -28 16 -2 -5zm30 -11c3,8 -1,18 -10,21 -8,3 -17,-2 -20,-10l30 -11zm53 117l-81 -101 25 -20 81 101 -23 23 -2 -3zm25 -20c5,7 4,17 -3,23 -7,5 -17,4 -22,-3l25 -20zm74 98l-97 -75 20 -25 96 75 -16 27 -3 -2zm19 -25c7,5 9,15 3,22 -5,7 -15,8 -22,3l19 -25zm113 81l-129 -54 13 -30 128 54 -7 31 -5 -1zm12 -30c9,3 12,13 9,21 -3,8 -13,12 -21,9l12 -30zm121 42l-128 -11 3 -32 128 11 0 32 -3 0zm3 -32c9,0 16,8 15,17 -1,9 -9,15 -18,15l3 -32zm129 21l-129 11 -3 -32 129 -11 8 30 -5 2zm-3 -32c9,-1 17,6 17,15 1,8 -6,16 -14,17l-3 -32zm121 -23l-113 53 -14 -29 113 -53 16 27 -2 2zm-14 -29c8,-4 18,-1 21,7 4,8 1,18 -7,22l-14 -29zm123 -47l-107 74 -18 -26 107 -75 22 23 -4 4zm-18 -27c7,-5 17,-3 22,4 5,7 3,17 -4,23l-18 -27zm97 -79l-75 102 -26 -19 75 -102 28 16 -2 3zm-26 -19c5,-7 15,-9 23,-3 7,5 8,15 3,22l-26 -19zm81 -102l-53 118 -30 -13 54 -118 31 8 -2 5zm-29 -13c4,-8 13,-12 21,-8 8,4 12,13 8,21l-29 -13zm41 -121l-10 129 -32 -3 10 -128 32 0 0 2zm-32 -2c1,-9 9,-16 18,-15 8,1 15,9 14,17l-32 -2zm22 -129l10 129 -32 2 -10 -128 30 -8 2 5zm-32 3c-1,-9 6,-17 14,-18 9,0 17,6 18,15l-32 3zm-23 -126l53 118 -29 13 -54 -118 28 -16 2 3zm-30 13c-3,-8 0,-17 8,-21 8,-4 18,0 22,8l-30 13zm-47 -118l75 102 -26 19 -75 -102 22 -22 4 3zm-26 19c-5,-7 -4,-17 4,-22 7,-5 17,-4 22,3l-26 19zm-85 -97l107 75 -18 26 -107 -75 16 -28 2 2zm-18 26c-8,-5 -9,-15 -4,-22 5,-8 15,-9 22,-4l-18 26zm-97 -81l113 53 -14 29 -113 -53 10 -31 4 2zm-14 29c-8,-4 -11,-14 -7,-22 4,-8 13,-11 21,-7l-14 29zm-119 -52l129 21 -5 32 -129 -21 5 -32zm-5 32c-9,-2 -14,-10 -13,-19 1,-9 10,-14 18,-13l-5 32z"/>
  </g>
  <g>
   <path class="fil0" d="M3027 14865c1,9 -5,17 -14,18 -9,1 -17,-5 -18,-14l32 -4zm-22 -161l22 161 -32 4 -21 -160 30 -9 1 4zm-31 5c-2,-9 5,-17 13,-19 9,-1 17,5 18,14l-31 5zm-34 -159l64 150 -29 13 -65 -150 28 -17 2 4zm-30 13c-3,-8 1,-18 9,-21 8,-4 17,0 21,8l-30 13zm-69 -140l97 123 -25 20 -97 -123 22 -23 3 3zm-25 20c-5,-7 -4,-17 3,-23 7,-5 17,-4 22,3l-25 20zm-106 -119l128 96 -19 26 -129 -96 17 -28 3 2zm-20 26c-7,-6 -8,-16 -3,-23 6,-7 16,-8 23,-3l-20 26zm-128 -92l145 64 -13 29 -145 -64 9 -31 4 2zm-13 29c-8,-3 -12,-13 -8,-21 3,-8 13,-12 21,-8l-13 29zm-152 -52l161 21 -5 32 -160 -21 0 -32 4 0zm-4 32c-9,-1 -15,-9 -14,-18 1,-9 9,-15 18,-14l-4 32zm-161 -11l161 -21 4 32 -161 21 -8 -30 4 -2zm4 32c-9,1 -17,-5 -18,-13 -1,-9 5,-17 14,-19l4 32zm-158 34l150 -64 12 29 -150 64 -16 -27 4 -2zm12 29c-8,4 -17,0 -21,-8 -3,-8 1,-18 9,-21l12 29zm-139 69l123 -96 20 25 -123 97 -22 -23 2 -3zm20 26c-7,5 -17,4 -23,-3 -5,-7 -4,-17 3,-23l20 26zm-129 100l107 -123 24 21 -107 123 -27 -16 3 -5zm24 21c-6,7 -16,7 -23,1 -7,-5 -7,-15 -1,-22l24 21zm-81 134l54 -150 30 11 -54 150 -31 -8 1 -3zm30 11c-3,8 -12,12 -20,10 -9,-3 -13,-13 -10,-21l30 11zm-52 153l21 -161 32 5 -21 160 -32 0 0 -4zm32 4c-2,9 -10,15 -18,14 -9,-1 -15,-9 -14,-18l32 4zm-11 161l-21 -161 32 -4 21 161 -31 7 -1 -3zm32 -4c1,8 -5,17 -14,18 -8,1 -17,-5 -18,-14l32 -4zm23 152l-54 -145 30 -11 54 145 -28 16 -2 -5zm30 -11c3,8 -1,17 -10,21 -8,3 -17,-2 -20,-10l30 -11zm79 144l-107 -128 25 -21 107 129 -22 23 -3 -3zm25 -20c6,7 5,17 -2,22 -7,6 -17,5 -23,-2l25 -20zm101 119l-123 -96 20 -26 123 97 -16 27 -4 -2zm20 -25c7,5 8,15 3,22 -6,7 -16,9 -23,3l20 -25zm134 92l-150 -65 12 -29 150 64 -8 31 -4 -1zm12 -30c9,4 12,13 9,21 -4,8 -13,12 -21,9l12 -30zm153 52l-161 -21 4 -32 161 21 -4 32zm4 -32c9,1 15,10 14,18 -1,9 -10,15 -18,14l4 -32z"/>
  </g>
  <g>
   <path class="fil0" d="M2393 13946c9,-1 17,5 18,14 1,9 -6,17 -15,18l-3 -32zm-203 21l203 -21 3 32 -203 21 -8 -31 5 -1zm3 32c-9,1 -17,-5 -18,-14 -1,-9 6,-17 15,-18l3 32zm-201 44l193 -75 12 30 -193 75 -14 -28 2 -2zm12 30c-8,3 -17,-1 -21,-9 -3,-8 1,-18 9,-21l12 30zm-180 79l166 -107 17 27 -166 107 -20 -26 3 -1zm17 27c-7,5 -17,2 -22,-5 -5,-7 -3,-18 5,-22l17 27zm-170 114l150 -140 22 24 -150 139 -24 -20 2 -3zm22 23c-6,6 -17,6 -23,-1 -6,-6 -5,-16 1,-22l22 23zm-132 152l108 -172 27 17 -107 172 -29 -14 1 -3zm28 17c-5,7 -15,9 -22,5 -8,-5 -10,-15 -6,-22l28 17zm-93 173l64 -187 30 10 -64 188 -31 -7 1 -4zm30 11c-3,8 -12,13 -20,10 -9,-3 -13,-12 -10,-21l30 11zm-53 196l22 -203 32 3 -22 204 -32 0 0 -4zm32 4c-1,9 -9,15 -17,14 -9,-1 -16,-9 -15,-18l32 4zm-10 203l-22 -203 32 -4 22 204 -31 7 -1 -4zm32 -3c1,9 -6,17 -15,18 -8,1 -16,-6 -17,-15l32 -3zm33 194l-64 -187 30 -11 64 188 -29 14 -1 -4zm30 -10c3,8 -1,18 -10,20 -8,3 -17,-1 -20,-10l30 -10zm79 185l-108 -171 28 -17 107 171 -25 20 -2 -3zm27 -17c5,8 2,18 -5,22 -8,5 -18,3 -22,-5l27 -17zm125 160l-150 -140 22 -23 150 139 -19 25 -3 -1zm22 -24c7,6 7,16 1,23 -6,6 -16,7 -23,1l22 -24zm147 133l-166 -108 17 -27 166 108 -13 28 -4 -1zm17 -27c7,4 10,14 5,22 -5,7 -15,9 -22,5l17 -27zm180 87l-193 -59 9 -30 193 59 -7 31 -2 -1zm9 -30c8,2 13,11 11,20 -3,8 -12,13 -20,10l9 -30zm196 63l-203 -32 5 -32 203 32 0 32 -5 0zm5 -32c9,2 15,10 14,19 -2,8 -10,14 -19,13l5 -32zm199 0l-199 32 -5 -32 198 -32 8 31 -2 1zm-6 -32c9,-1 17,5 19,13 1,9 -5,17 -13,19l-6 -32zm190 -28l-182 59 -10 -30 182 -59 14 29 -4 1zm-10 -30c9,-3 18,2 20,10 3,9 -1,18 -10,20l-10 -30zm185 -78l-171 107 -17 -28 171 -107 20 26 -3 2zm-17 -28c8,-4 18,-2 22,5 5,8 3,18 -5,23l-17 -28zm170 -114l-150 140 -22 -24 150 -139 24 20 -2 3zm-22 -23c6,-6 16,-6 22,1 6,6 6,16 0,22l-22 -23zm126 -152l-102 172 -27 -17 102 -171 29 13 -2 3zm-27 -16c4,-8 14,-10 22,-6 7,5 10,15 5,22l-27 -16zm93 -174l-64 187 -31 -10 64 -188 32 7 -1 4zm-31 -11c3,-8 13,-12 21,-9 8,2 13,12 10,20l-31 -11zm53 -196l-21 203 -32 -3 21 -204 32 0 0 4zm-32 -4c1,-8 9,-15 18,-14 9,1 15,9 14,18l-32 -4zm11 -203l21 203 -32 4 -21 -204 31 -7 1 4zm-32 3c-1,-9 5,-17 14,-17 9,-1 17,5 18,14l-32 3zm-33 -194l64 187 -31 11 -64 -188 29 -13 2 3zm-31 10c-3,-8 2,-17 10,-20 9,-3 18,1 21,10l-31 10zm-73 -185l102 172 -27 16 -102 -171 25 -20 2 3zm-27 17c-5,-8 -2,-18 5,-22 8,-5 18,-2 22,5l-27 17zm-125 -160l150 140 -22 23 -150 -139 19 -25 3 1zm-22 24c-7,-6 -7,-16 -1,-23 6,-6 16,-7 23,-1l-22 24zm-152 -132l171 107 -17 27 -171 -107 14 -29 3 2zm-17 27c-8,-5 -10,-15 -5,-22 4,-8 14,-10 22,-5l-17 27zm-168 -104l182 75 -12 30 -182 -75 8 -31 4 1zm-12 30c-8,-3 -12,-13 -9,-21 4,-8 13,-12 21,-9l-12 30zm-190 -52l198 21 -4 32 -198 -21 4 -32zm-4 32c-9,-1 -15,-9 -14,-18 1,-9 9,-15 18,-14l-4 32z"/>
  </g>
  <g>
   <path class="fil0" d="M2392 627c9,-1 17,5 19,13 1,9 -5,17 -14,19l-5 -32zm-128 21l128 -21 5 32 -128 21 -9 -31 4 -1zm5 32c-9,2 -17,-4 -19,-13 -1,-9 5,-17 14,-19l5 32zm-138 23l129 -54 12 30 -128 54 -16 -28 3 -2zm13 30c-8,3 -18,-1 -21,-9 -4,-8 0,-18 8,-21l13 30zm-113 47l97 -75 19 26 -96 75 -23 -23 3 -3zm20 26c-7,5 -17,4 -22,-3 -6,-7 -5,-17 2,-23l20 26zm-103 84l80 -107 26 20 -80 107 -28 -15 2 -5zm26 20c-6,7 -16,8 -23,3 -7,-5 -8,-16 -3,-23l26 20zm-71 102l43 -117 30 11 -43 117 -31 -8 1 -3zm30 11c-3,9 -12,13 -21,10 -8,-3 -12,-12 -9,-21l30 11zm-52 115l21 -123 32 6 -22 123 -31 0 0 -6zm31 6c-1,9 -10,14 -18,13 -9,-2 -15,-10 -13,-19l31 6zm-10 128l-21 -128 31 -5 22 128 -31 8 -1 -3zm32 -5c1,9 -5,17 -13,19 -9,1 -17,-5 -19,-14l32 -5zm12 126l-43 -118 30 -11 43 118 -28 15 -2 -4zm30 -11c3,8 -1,18 -10,21 -8,3 -17,-2 -20,-10l30 -11zm52 122l-80 -107 26 -19 80 107 -23 22 -3 -3zm26 -19c5,7 4,17 -3,23 -7,5 -17,3 -23,-4l26 -19zm74 97l-97 -75 20 -25 96 75 -16 28 -3 -3zm19 -25c7,6 9,16 3,23 -5,7 -15,8 -22,2l19 -25zm113 81l-129 -53 13 -30 128 53 -7 31 -5 -1zm12 -30c9,4 12,13 9,21 -3,9 -13,13 -21,9l12 -30zm121 42l-128 -11 3 -32 128 11 0 32 -3 0zm3 -32c9,1 16,9 15,17 -1,9 -9,16 -18,15l3 -32zm129 21l-129 11 -3 -32 129 -11 8 31 -5 1zm-3 -32c9,0 17,6 17,15 1,9 -6,17 -14,17l-3 -32zm121 -23l-113 54 -14 -29 113 -54 16 28 -2 1zm-14 -29c8,-4 18,0 21,8 4,8 1,17 -7,21l-14 -29zm123 -47l-107 75 -18 -26 107 -75 22 22 -4 4zm-18 -26c7,-5 17,-4 22,4 5,7 3,17 -4,22l-18 -26zm97 -85l-75 107 -26 -18 75 -108 28 16 -2 3zm-26 -19c5,-7 15,-9 22,-4 8,5 9,16 4,23l-26 -19zm81 -102l-53 118 -30 -13 54 -118 31 8 -2 5zm-29 -13c4,-8 13,-12 21,-8 8,4 12,13 8,21l-29 -13zm41 -121l-10 129 -32 -3 10 -128 32 0 0 2zm-32 -2c1,-9 9,-16 18,-15 8,1 15,9 14,17l-32 -2zm22 -123l10 123 -32 3 -10 -124 30 -8 2 6zm-32 2c-1,-9 5,-16 14,-17 9,-1 17,6 18,15l-32 2zm-23 -126l53 118 -29 14 -54 -118 28 -16 2 2zm-30 14c-3,-8 0,-18 8,-22 8,-3 18,0 22,8l-30 14zm-47 -123l75 107 -26 18 -75 -107 22 -22 4 4zm-26 18c-5,-7 -3,-17 4,-22 7,-5 17,-4 22,4l-26 18zm-85 -97l107 75 -18 26 -107 -75 16 -28 2 2zm-18 26c-8,-5 -9,-15 -4,-22 5,-8 15,-9 22,-4l-18 26zm-97 -81l113 53 -14 29 -113 -53 10 -31 4 2zm-14 29c-8,-4 -11,-14 -7,-22 4,-8 13,-11 21,-7l-14 29zm-119 -52l129 21 -5 32 -129 -21 5 -32zm-5 32c-9,-2 -14,-10 -13,-19 1,-8 10,-14 18,-13l-5 32z"/>
  </g>
  <g>
   <path class="fil0" d="M3027 1139c1,9 -5,17 -14,18 -9,1 -17,-5 -18,-14l32 -4zm-22 -155l22 155 -32 4 -21 -155 30 -9 1 5zm-31 4c-2,-9 5,-17 13,-18 9,-1 17,5 18,14l-31 4zm-34 -159l64 150 -29 13 -65 -150 28 -16 2 3zm-30 13c-3,-8 1,-18 9,-21 8,-3 17,0 21,8l-30 13zm-68 -144l96 128 -26 19 -96 -128 22 -23 4 4zm-26 19c-5,-7 -4,-17 3,-23 7,-5 17,-4 23,4l-26 19zm-106 -119l128 96 -19 26 -129 -96 17 -28 3 2zm-20 26c-7,-6 -8,-16 -3,-23 6,-7 16,-8 23,-3l-20 26zm-128 -92l145 64 -13 29 -145 -64 9 -30 4 1zm-13 29c-8,-3 -12,-13 -8,-21 3,-8 13,-12 21,-8l-13 29zm-152 -52l161 22 -5 31 -160 -21 0 -32 4 0zm-4 32c-9,-1 -15,-9 -14,-18 1,-9 9,-15 18,-14l-4 32zm-161 -10l161 -22 4 32 -161 21 -8 -30 4 -1zm4 31c-9,2 -17,-5 -18,-13 -1,-9 5,-17 14,-18l4 31zm-158 34l150 -64 12 29 -150 65 -16 -28 4 -2zm12 30c-8,3 -17,-1 -21,-9 -3,-8 1,-18 9,-21l12 30zm-139 69l123 -97 20 25 -123 97 -23 -23 3 -2zm20 25c-7,5 -17,4 -23,-3 -5,-7 -4,-17 3,-22l20 25zm-130 105l107 -128 25 20 -107 129 -27 -16 2 -5zm25 21c-6,7 -16,8 -23,2 -6,-6 -7,-16 -2,-23l25 21zm-81 134l54 -150 30 11 -54 150 -31 -7 1 -4zm30 11c-3,9 -12,13 -20,10 -9,-3 -13,-12 -10,-21l30 11zm-52 148l21 -155 32 4 -21 155 -32 0 0 -4zm32 4c-2,9 -10,15 -18,14 -9,-1 -15,-9 -14,-18l32 4zm-11 161l-21 -161 32 -4 21 161 -31 7 -1 -3zm32 -4c1,8 -5,17 -14,18 -8,1 -17,-5 -18,-14l32 -4zm23 157l-54 -150 30 -11 54 150 -28 16 -2 -5zm30 -11c3,9 -2,18 -10,21 -8,3 -18,-1 -20,-10l30 -11zm79 145l-107 -129 25 -20 107 128 -22 23 -3 -2zm25 -21c6,7 5,17 -2,23 -7,5 -17,5 -23,-2l25 -21zm101 114l-123 -91 19 -25 124 91 -16 27 -4 -2zm20 -25c7,5 8,15 3,22 -5,7 -15,9 -23,3l20 -25zm134 92l-150 -65 12 -29 150 64 -8 31 -4 -1zm12 -30c9,4 12,13 9,21 -4,8 -13,12 -21,9l12 -30zm153 52l-161 -21 4 -32 161 21 -4 32zm4 -32c9,1 15,10 14,18 -1,9 -10,15 -18,14l4 -32z"/>
  </g>
  <g>
   <path class="fil0" d="M2393 225c9,-1 17,6 18,14 1,9 -6,17 -15,18l-3 -32zm-203 22l203 -22 3 32 -203 21 -8 -30 5 -1zm3 31c-9,1 -17,-5 -18,-14 -1,-9 6,-17 15,-17l3 31zm-201 45l193 -75 12 30 -193 75 -14 -29 2 -1zm12 30c-8,3 -17,-1 -21,-10 -3,-8 1,-17 9,-20l12 30zm-180 78l166 -107 17 27 -166 107 -19 -25 2 -2zm17 27c-7,5 -17,3 -22,-5 -5,-7 -3,-17 5,-22l17 27zm-169 109l150 -134 21 24 -150 134 -24 -21 3 -3zm21 24c-7,5 -17,5 -23,-2 -6,-6 -5,-17 2,-22l21 24zm-132 151l108 -172 27 17 -107 172 -29 -14 1 -3zm28 17c-5,7 -15,9 -22,5 -8,-5 -10,-15 -6,-22l28 17zm-93 179l64 -193 30 10 -64 193 -31 -7 1 -3zm30 10c-3,8 -12,13 -20,10 -9,-3 -13,-12 -10,-20l30 10zm-53 191l22 -198 32 4 -22 198 -32 0 0 -4zm32 4c-1,9 -9,15 -17,14 -9,-1 -16,-9 -15,-18l32 4zm-10 203l-22 -203 32 -4 22 204 -31 7 -1 -4zm32 -3c1,9 -6,17 -15,18 -8,1 -16,-6 -17,-15l32 -3zm33 200l-64 -193 30 -10 64 193 -28 13 -2 -3zm30 -10c3,8 -1,17 -10,20 -8,3 -17,-2 -20,-10l30 -10zm79 179l-107 -166 27 -17 107 166 -25 20 -2 -3zm27 -17c5,7 2,17 -5,22 -8,5 -18,3 -22,-5l27 -17zm125 160l-150 -140 22 -23 150 139 -19 26 -3 -2zm22 -24c7,6 7,16 1,23 -6,6 -16,7 -23,1l22 -24zm147 133l-166 -107 17 -28 166 108 -14 28 -3 -1zm17 -27c7,4 10,14 5,22 -5,7 -15,9 -22,5l17 -27zm179 93l-193 -65 10 -30 193 64 -7 31 -3 0zm10 -31c9,3 13,12 10,21 -2,8 -11,12 -20,10l10 -31zm196 63l-203 -32 5 -31 203 32 0 31 -5 0zm5 -31c9,1 15,9 14,18 -2,9 -10,15 -19,13l5 -31zm199 -1l-199 32 -5 -31 198 -32 8 31 -2 0zm-6 -31c9,-2 17,4 19,13 1,9 -5,17 -13,18l-6 -31zm191 -34l-183 65 -10 -31 182 -64 14 29 -3 1zm-11 -30c8,-3 17,1 20,10 3,8 -1,17 -9,20l-11 -30zm185 -78l-171 107 -17 -27 171 -108 20 26 -3 2zm-17 -28c8,-4 18,-2 22,5 5,8 3,18 -5,23l-17 -28zm170 -114l-150 140 -22 -24 150 -139 24 20 -2 3zm-22 -23c6,-6 16,-6 22,1 6,6 6,16 0,22l-22 -23zm126 -146l-102 166 -27 -17 102 -166 29 14 -2 3zm-27 -17c4,-7 14,-10 22,-5 7,5 10,14 5,22l-27 -17zm93 -179l-64 193 -31 -10 64 -193 32 6 -1 4zm-31 -10c3,-9 12,-13 21,-11 8,3 13,12 10,21l-31 -10zm53 -197l-21 203 -32 -3 21 -204 32 0 0 4zm-32 -4c1,-8 9,-15 18,-14 9,1 15,9 14,18l-32 -4zm11 -198l21 198 -32 4 -21 -198 31 -7 1 3zm-32 4c-1,-9 5,-17 14,-18 9,-1 17,5 18,14l-32 4zm-33 -200l64 193 -31 10 -64 -193 29 -13 2 3zm-31 10c-3,-8 2,-17 10,-20 9,-3 18,2 21,10l-31 10zm-73 -185l102 172 -27 16 -102 -171 24 -20 3 3zm-27 17c-5,-8 -2,-18 5,-22 8,-5 18,-2 22,5l-27 17zm-126 -154l150 134 -21 24 -150 -134 19 -26 2 2zm-21 24c-7,-6 -7,-16 -1,-23 5,-7 16,-7 22,-1l-21 24zm-152 -133l171 107 -17 27 -171 -107 14 -28 3 1zm-17 27c-8,-5 -10,-14 -5,-22 4,-7 14,-10 22,-5l-17 27zm-168 -103l182 75 -12 29 -182 -75 8 -30 4 1zm-12 29c-8,-3 -12,-12 -9,-21 4,-8 13,-12 21,-8l-12 29zm-190 -52l198 22 -4 31 -198 -21 4 -32zm-4 32c-9,-1 -15,-9 -14,-18 1,-8 9,-15 18,-14l-4 32z"/>
  </g>
  <g>
   <path class="fil0" d="M1643 5491c-9,-1 -15,-9 -14,-18 1,-9 9,-15 18,-14l-4 32zm80 11l-80 -11 4 -32 80 11 7 3 -11 29zm4 -32c9,1 15,9 14,18 -1,9 -9,15 -18,14l4 -32zm53 72l-64 -43 18 -26 64 43 5 5 -23 21zm18 -26c8,4 10,14 5,22 -5,7 -15,9 -23,4l18 -26zm20 96l-43 -75 28 -16 43 75 2 3 -30 13zm28 -16c5,8 2,18 -6,22 -7,4 -17,2 -22,-6l28 -16zm-8 82l-21 -69 31 -10 21 70 0 9 -31 0zm31 -9c3,8 -2,17 -11,20 -8,3 -17,-2 -20,-11l31 -9zm-52 86l21 -85 31 8 -21 85 -2 5 -29 -13zm31 8c-2,9 -11,14 -20,12 -8,-2 -13,-11 -11,-20l31 8zm-72 52l43 -65 27 18 -43 65 -5 4 -22 -22zm27 18c-5,7 -15,9 -23,4 -7,-5 -9,-15 -4,-22l27 18zm-87 20l64 -43 18 27 -64 43 -5 2 -13 -29zm18 27c-7,5 -17,3 -22,-5 -5,-7 -3,-17 4,-22l18 27zm-93 -8l80 -21 8 31 -80 21 -9 0 1 -31zm8 31c-9,3 -17,-2 -20,-11 -2,-8 3,-17 12,-20l8 31zm-75 -52l75 21 -9 31 -75 -21 -3 -2 12 -29zm-9 31c-8,-3 -13,-11 -11,-20 3,-8 12,-13 20,-11l-9 31zm-62 -72l75 43 -16 27 -75 -42 -6 -5 22 -23zm-16 28c-8,-5 -11,-15 -6,-22 4,-8 14,-11 22,-6l-16 28zm-22 -88l43 65 -27 18 -43 -65 -2 -7 29 -11zm-27 18c-4,-7 -2,-17 5,-22 7,-5 17,-3 22,4l-27 18zm19 -96l11 85 -32 4 -11 -85 0 -5 32 1zm-32 4c-1,-9 5,-17 14,-18 9,-1 17,5 18,14l-32 4zm43 -70l-11 70 -32 -5 11 -69 2 -6 30 10zm-32 -4c1,-9 10,-15 18,-14 9,1 15,10 14,18l-32 -4zm73 -65l-43 75 -28 -16 43 -75 6 -6 22 22zm-28 -16c4,-8 14,-10 22,-6 7,4 10,14 6,22l-28 -16zm97 -21l-75 43 -16 -28 75 -43 5 -2 11 30zm-16 -28c7,-4 17,-2 22,6 4,8 1,18 -6,22l-16 -28zm85 19l-75 11 -5 -32 75 -11 5 32zm-5 -32c9,-1 17,5 19,14 1,9 -5,17 -14,18l-5 -32z"/>
  </g>
  <g>
   <path class="fil0" d="M1661 5984c0,9 -7,16 -16,16 -9,0 -16,-7 -16,-16l32 0zm0 -605l0 605 -32 0 0 -605 32 0zm-32 0c0,-9 7,-16 16,-16 9,0 16,7 16,16l-32 0z"/>
  </g>
  <g>
   <path class="fil0" d="M1345 5690c-9,0 -16,-8 -16,-16 0,-9 7,-16 16,-16l0 32zm605 0l-605 0 0 -32 605 0 0 32zm0 -32c9,0 16,7 16,16 0,8 -7,16 -16,16l0 -32z"/>
  </g>
  <g>
   <path class="fil0" d="M1643 6541c-9,-1 -15,-9 -14,-18 1,-8 9,-15 18,-13l-4 31zm80 11l-80 -11 4 -31 80 10 7 3 -11 29zm4 -32c9,1 15,10 14,18 -1,9 -9,15 -18,14l4 -32zm53 72l-64 -42 18 -27 64 43 5 5 -23 21zm18 -26c8,5 10,15 5,22 -5,7 -15,9 -23,4l18 -26zm20 96l-43 -75 28 -16 43 75 2 4 -30 12zm28 -16c5,8 2,18 -6,22 -7,4 -17,2 -22,-6l28 -16zm-8 87l-21 -75 31 -8 21 75 0 8 -31 0zm31 -8c3,8 -2,17 -11,20 -8,2 -17,-3 -20,-12l31 -8zm-52 75l21 -75 31 8 -21 75 -2 4 -29 -12zm31 8c-3,9 -12,14 -20,11 -9,-2 -14,-11 -11,-19l31 8zm-72 57l43 -69 27 16 -43 70 -5 5 -22 -22zm27 17c-5,8 -15,10 -22,5 -8,-4 -10,-14 -5,-22l27 17zm-87 21l64 -43 18 27 -64 43 -7 2 -11 -29zm18 27c-7,5 -17,3 -22,-5 -5,-7 -3,-17 4,-22l18 27zm-91 -19l80 -10 4 31 -80 11 -5 0 1 -32zm4 32c-9,1 -17,-5 -18,-14 -1,-8 5,-17 14,-18l4 32zm-75 -42l75 10 -5 32 -75 -11 -5 -1 10 -30zm-5 31c-8,-1 -14,-9 -13,-18 1,-8 9,-15 18,-13l-5 31zm-64 -72l75 43 -16 28 -75 -43 -6 -6 22 -22zm-16 28c-8,-5 -11,-15 -6,-22 4,-8 14,-11 22,-6l-16 28zm-21 -92l42 69 -27 17 -43 -70 -2 -6 30 -10zm-28 16c-4,-7 -2,-17 5,-22 8,-4 18,-2 23,6l-28 16zm19 -85l11 75 -32 4 -11 -75 0 -4 32 0zm-32 4c-1,-8 5,-17 14,-18 9,-1 17,5 18,14l-32 4zm43 -75l-11 75 -32 -4 11 -75 2 -6 30 10zm-32 -4c1,-9 9,-15 18,-14 9,1 15,10 14,18l-32 -4zm73 -65l-43 75 -28 -16 43 -75 6 -6 22 22zm-28 -16c4,-8 14,-10 22,-6 7,4 10,14 6,22l-28 -16zm97 -21l-75 43 -16 -28 75 -43 5 -2 11 30zm-16 -28c7,-4 17,-2 22,6 4,8 1,18 -6,22l-16 -28zm85 19l-75 11 -5 -32 75 -10 5 31zm-5 -31c9,-2 17,4 19,13 1,9 -5,17 -14,18l-5 -31z"/>
  </g>
  <g>
   <path class="fil0" d="M1661 7034c0,9 -7,16 -16,16 -9,0 -16,-7 -16,-16l32 0zm0 -616l0 616 -32 0 0 -616 32 0zm-32 0c0,-9 7,-16 16,-16 9,0 16,7 16,16l-32 0z"/>
  </g>
  <g>
   <path class="fil0" d="M1345 6745c-9,0 -16,-7 -16,-16 0,-9 7,-16 16,-16l0 32zm605 0l-605 0 0 -32 605 0 0 32zm0 -32c9,0 16,7 16,16 0,9 -7,16 -16,16l0 -32z"/>
  </g>
  <g>
   <path class="fil0" d="M1641 7580c-9,-2 -14,-11 -12,-19 2,-9 11,-14 20,-12l-8 31zm80 22l-80 -22 8 -31 80 22 5 2 -13 29zm8 -31c9,2 14,11 12,19 -3,9 -11,14 -20,12l8 -31zm51 71l-64 -42 18 -27 64 43 5 4 -23 22zm18 -26c8,5 10,15 5,22 -5,7 -15,9 -23,4l18 -26zm21 86l-43 -64 27 -18 43 64 2 5 -29 13zm27 -18c5,8 3,18 -5,23 -7,5 -17,3 -22,-5l27 -18zm-8 99l-21 -86 31 -8 21 86 0 9 -31 -1zm31 -8c2,9 -3,18 -11,20 -9,2 -18,-3 -20,-12l31 -8zm-52 75l21 -75 31 9 -21 75 -2 3 -29 -12zm31 9c-3,8 -12,13 -20,11 -9,-3 -14,-12 -11,-20l31 9zm-73 62l43 -75 28 16 -43 75 -5 5 -23 -21zm28 16c-4,8 -14,10 -22,6 -7,-4 -10,-14 -6,-22l28 16zm-87 22l64 -43 18 26 -64 43 -7 3 -11 -29zm18 26c-7,5 -17,3 -22,-4 -5,-8 -3,-18 4,-22l18 26zm-91 -18l80 -11 4 32 -80 11 -5 0 1 -32zm4 32c-9,1 -17,-5 -18,-14 -1,-9 5,-17 14,-18l4 32zm-75 -43l75 11 -5 32 -75 -11 -5 -2 10 -30zm-5 32c-8,-1 -14,-10 -13,-18 1,-9 9,-15 18,-14l-5 32zm-64 -73l75 43 -16 28 -75 -43 -6 -6 22 -22zm-16 28c-8,-4 -11,-14 -6,-22 4,-8 14,-10 22,-6l-16 28zm-21 -97l43 75 -28 16 -43 -75 -2 -6 30 -10zm-28 16c-4,-8 -2,-17 6,-22 8,-4 17,-2 22,6l-28 16zm19 -85l11 75 -32 4 -11 -75 0 -4 32 0zm-32 4c-1,-8 5,-17 14,-18 9,-1 17,5 18,14l-32 4zm43 -86l-11 86 -32 -4 11 -86 2 -7 30 11zm-32 -4c1,-8 9,-15 18,-14 9,1 15,10 14,18l-32 -4zm72 -53l-43 64 -27 -18 43 -64 6 -5 21 23zm-27 -18c5,-7 15,-9 23,-4 7,5 9,15 4,22l-27 -18zm97 -20l-75 43 -16 -28 75 -43 3 -1 13 29zm-16 -28c7,-4 17,-1 22,6 4,8 1,18 -6,22l-16 -28zm87 8l-75 22 -9 -31 75 -22 9 31zm-9 -31c9,-2 18,3 20,11 3,9 -2,18 -11,20l-9 -31z"/>
  </g>
  <g>
   <path class="fil0" d="M1661 8074c0,9 -7,16 -16,16 -9,0 -16,-7 -16,-16l32 0zm0 -606l0 606 -32 0 0 -606 32 0zm-32 0c0,-8 7,-16 16,-16 9,0 16,8 16,16l-32 0z"/>
  </g>
  <g>
   <path class="fil0" d="M1345 7795c-9,0 -16,-7 -16,-16 0,-9 7,-16 16,-16l0 32zm605 0l-605 0 0 -32 605 0 0 32zm0 -32c9,0 16,7 16,16 0,9 -7,16 -16,16l0 -32z"/>
  </g>
  <g>
   <path class="fil0" d="M1643 9686c-9,-1 -15,-9 -14,-18 1,-9 9,-15 18,-14l-4 32zm80 11l-80 -11 4 -32 80 11 8 4 -12 28zm4 -32c9,1 15,9 14,18 -1,9 -9,15 -18,14l4 -32zm52 82l-64 -54 20 -24 65 53 2 3 -23 22zm21 -25c6,6 7,16 2,23 -6,7 -16,8 -23,2l21 -25zm19 81l-43 -59 26 -19 43 59 3 5 -29 14zm26 -19c5,7 4,17 -3,23 -7,5 -18,3 -23,-4l26 -19zm-7 89l-21 -75 31 -9 21 75 0 8 -31 1zm31 -9c3,9 -2,18 -11,20 -8,2 -17,-3 -20,-11l31 -9zm-52 86l21 -85 31 7 -21 86 -2 5 -29 -13zm31 8c-2,9 -11,14 -20,12 -8,-2 -13,-11 -11,-20l31 8zm-72 52l43 -65 27 18 -43 64 -5 5 -22 -22zm27 17c-5,8 -15,10 -23,5 -7,-5 -9,-15 -4,-22l27 17zm-87 21l64 -43 18 27 -64 43 -5 2 -13 -29zm18 27c-7,5 -17,3 -22,-5 -5,-7 -3,-17 4,-22l18 27zm-93 -8l80 -21 8 31 -80 21 -9 0 1 -31zm8 31c-9,3 -18,-3 -20,-11 -2,-9 3,-17 12,-20l8 31zm-75 -52l75 21 -9 31 -75 -21 -3 -2 12 -29zm-9 31c-8,-3 -13,-12 -11,-20 3,-9 12,-13 20,-11l-9 31zm-62 -72l75 42 -16 28 -75 -43 -6 -5 22 -22zm-16 27c-8,-4 -11,-14 -6,-21 4,-8 14,-11 22,-6l-16 27zm-22 -87l43 65 -27 17 -43 -64 -2 -7 29 -11zm-27 18c-4,-7 -2,-17 5,-22 7,-5 17,-3 22,4l-27 18zm19 -96l11 85 -32 4 -11 -85 0 -5 32 1zm-32 4c-1,-9 5,-17 14,-18 9,-1 17,5 18,14l-32 4zm43 -75l-11 75 -32 -5 11 -75 3 -7 29 12zm-32 -5c1,-8 9,-15 18,-13 9,1 15,9 14,18l-32 -5zm72 -47l-43 59 -26 -19 43 -59 3 -3 23 22zm-26 -19c5,-7 15,-9 22,-3 7,5 9,15 4,22l-26 -19zm97 -31l-75 54 -19 -26 75 -54 7 -3 12 29zm-19 -26c8,-5 18,-4 23,4 5,7 3,17 -4,22l-19 -26zm87 18l-75 11 -5 -32 75 -11 5 32zm-5 -32c9,-1 17,5 19,14 1,9 -5,17 -14,18l-5 -32z"/>
  </g>
  <g>
   <path class="fil0" d="M1661 10179c0,9 -7,16 -16,16 -9,0 -16,-7 -16,-16l32 0zm0 -605l0 605 -32 0 0 -605 32 0zm-32 0c0,-9 7,-16 16,-16 9,0 16,7 16,16l-32 0z"/>
  </g>
  <g>
   <path class="fil0" d="M1345 9885c-9,0 -16,-8 -16,-16 0,-9 7,-17 16,-17l0 33zm605 0l-605 0 0 -33 605 0 0 33zm0 -33c9,0 16,8 16,17 0,8 -7,16 -16,16l0 -33z"/>
  </g>
  <g>
   <path class="fil0" d="M1643 11781c-9,-1 -15,-9 -14,-18 1,-9 9,-15 18,-14l-4 32zm80 11l-80 -11 4 -32 80 11 7 2 -11 30zm4 -32c9,1 15,9 14,18 -1,9 -9,15 -18,14l4 -32zm53 72l-64 -43 18 -27 64 43 5 6 -23 21zm18 -27c8,5 10,15 5,23 -5,7 -15,9 -23,4l18 -27zm20 97l-43 -75 28 -16 43 75 2 3 -30 13zm28 -16c5,7 2,17 -6,22 -7,4 -17,1 -22,-6l28 -16zm-8 87l-21 -75 31 -9 21 75 0 9 -31 0zm31 -9c3,9 -2,18 -11,20 -8,3 -17,-2 -20,-11l31 -9zm-52 75l21 -75 31 9 -21 75 -2 4 -29 -13zm31 9c-3,9 -12,14 -20,11 -9,-2 -14,-11 -11,-20l31 9zm-73 63l43 -75 28 16 -43 75 -6 6 -22 -22zm28 16c-4,7 -14,10 -22,6 -7,-5 -10,-15 -6,-22l28 16zm-86 15l64 -37 16 28 -64 37 -6 2 -10 -30zm16 28c-7,5 -17,2 -22,-6 -4,-7 -2,-17 6,-22l16 28zm-90 -19l80 -11 4 32 -80 11 -5 0 1 -32zm4 32c-9,1 -17,-5 -18,-14 -1,-9 5,-17 14,-18l4 32zm-75 -43l75 11 -5 32 -75 -11 -4 -1 9 -31zm-5 32c-8,-1 -14,-9 -13,-18 1,-9 9,-15 18,-14l-5 32zm-65 -68l75 38 -14 29 -75 -38 -7 -6 21 -23zm-14 29c-8,-4 -12,-14 -8,-21 4,-8 14,-12 22,-8l-14 29zm-22 -97l43 75 -28 16 -43 -75 -2 -6 30 -10zm-28 16c-4,-8 -2,-18 6,-22 8,-5 17,-2 22,6l-28 16zm19 -86l11 75 -32 5 -11 -75 0 -5 32 0zm-32 5c-1,-9 5,-17 14,-18 9,-1 17,5 18,13l-32 5zm43 -75l-11 75 -32 -5 11 -75 2 -5 30 10zm-32 -5c1,-8 9,-14 18,-13 9,1 15,9 14,18l-32 -5zm73 -64l-43 75 -28 -16 43 -75 6 -6 22 22zm-28 -16c4,-8 14,-11 22,-6 7,4 10,14 6,22l-28 -16zm97 -21l-75 43 -16 -28 75 -43 5 -2 11 30zm-16 -28c7,-4 17,-2 22,6 4,8 1,17 -6,22l-16 -28zm85 19l-75 11 -5 -32 75 -11 5 32zm-5 -32c9,-1 17,5 19,14 1,9 -5,17 -14,18l-5 -32z"/>
  </g>
  <g>
   <path class="fil0" d="M1661 11224c0,9 -7,16 -16,16 -9,0 -16,-7 -16,-16l32 0zm0 -605l0 605 -32 0 0 -605 32 0zm-32 0c0,-9 7,-16 16,-16 9,0 16,7 16,16l-32 0z"/>
  </g>
  <g>
   <path class="fil0" d="M1661 12274c0,9 -7,16 -16,16 -9,0 -16,-7 -16,-16l32 0zm0 -616l0 616 -32 0 0 -616 32 0zm-32 0c0,-9 7,-16 16,-16 9,0 16,7 16,16l-32 0z"/>
  </g>
  <g>
   <path class="fil0" d="M1345 11985c-9,0 -16,-7 -16,-16 0,-9 7,-16 16,-16l0 32zm605 0l-605 0 0 -32 605 0 0 32zm0 -32c9,0 16,7 16,16 0,9 -7,16 -16,16l0 -32z"/>
  </g>
  <g>
   <path class="fil0" d="M1345 10940c-9,0 -16,-7 -16,-16 0,-9 7,-16 16,-16l0 32zm605 0l-605 0 0 -32 605 0 0 32zm0 -32c9,0 16,7 16,16 0,9 -7,16 -16,16l0 -32z"/>
  </g>
  <g>
   <path class="fil0" d="M1661 11229c0,9 -7,16 -16,16 -9,0 -16,-7 -16,-16l32 0zm0 -605l0 605 -32 0 0 -605 32 0zm-32 0c0,-9 7,-16 16,-16 9,0 16,7 16,16l-32 0z"/>
  </g>
  <g>
   <path class="fil0" d="M1642 10704c9,0 16,8 16,16 0,9 -7,16 -16,16l0 -32zm-190 223l-32 0 0 0 0 -12 1 -11 1 -11 2 -11 3 -11 3 -10 3 -11 4 -10 5 -10 5 -9 5 -10 6 -9 6 -8 7 -9 7 -8 7 -8 8 -7 8 -7 8 -6 9 -7 9 -5 9 -6 10 -5 10 -4 10 -4 10 -4 11 -3 10 -2 11 -2 11 -2 12 0 11 -1 0 32 -10 1 -9 0 -10 2 -9 1 -9 2 -10 3 -8 3 -9 3 -8 4 -9 4 -8 5 -7 5 -8 5 -7 6 -7 6 -6 6 -7 7 -6 7 -5 7 -6 7 -5 8 -4 8 -4 8 -4 9 -4 8 -3 9 -2 9 -2 9 -2 10 -1 9 -1 10 0 10 0 0zm0 0c0,9 -7,16 -16,16 -9,0 -16,-7 -16,-16l32 0zm190 190l0 32 0 0 -11 0 -12 -1 -11 -2 -11 -1 -10 -3 -11 -3 -10 -3 -10 -4 -10 -5 -10 -5 -9 -5 -9 -6 -9 -6 -8 -7 -8 -7 -8 -7 -7 -8 -7 -8 -7 -8 -6 -9 -6 -9 -5 -9 -5 -10 -5 -10 -4 -10 -3 -10 -3 -11 -3 -11 -2 -11 -1 -11 -1 -11 0 -11 32 0 0 9 1 10 1 10 2 9 2 9 2 9 3 9 4 9 4 8 4 8 4 8 5 8 6 7 5 8 6 7 7 6 6 6 7 6 7 6 8 5 7 5 8 5 9 4 8 4 9 3 8 3 10 3 9 2 9 2 10 1 9 1 10 0 0 0zm0 0c9,0 16,7 16,16 0,9 -7,16 -16,16l0 -32zm190 -190l32 0 0 0 0 11 -1 11 -1 11 -2 11 -3 11 -3 11 -3 10 -4 10 -5 10 -4 10 -6 9 -6 9 -6 9 -6 8 -7 8 -8 8 -7 7 -9 7 -8 7 -9 6 -9 6 -9 5 -10 5 -9 5 -10 4 -11 3 -10 3 -11 3 -11 1 -11 2 -12 1 -11 0 0 -32 10 0 10 -1 9 -1 9 -2 10 -2 9 -3 8 -3 9 -3 8 -4 9 -4 8 -5 7 -5 8 -5 7 -6 7 -6 7 -6 6 -6 6 -7 5 -8 6 -7 5 -8 4 -8 4 -8 4 -8 4 -9 3 -9 2 -9 2 -9 2 -9 1 -10 1 -10 0 -9 0 0zm0 0c0,-9 7,-16 16,-16 9,0 16,7 16,16l-32 0zm-190 -191l0 -32 11 1 12 0 11 2 11 2 11 2 10 3 11 4 10 4 9 4 10 5 9 6 9 5 9 7 8 6 9 7 7 7 8 8 7 8 6 9 6 8 6 9 6 10 4 9 5 10 4 10 3 11 3 10 3 11 2 11 1 11 1 11 0 12 -32 0 0 -10 -1 -10 -1 -9 -2 -10 -2 -9 -2 -9 -3 -9 -4 -8 -4 -9 -4 -8 -4 -8 -5 -8 -6 -7 -5 -7 -6 -7 -6 -7 -7 -6 -7 -6 -7 -6 -8 -5 -7 -5 -8 -5 -9 -4 -8 -4 -9 -3 -8 -3 -9 -3 -10 -2 -9 -1 -9 -2 -10 0 -10 -1zm0 0c-9,0 -16,-7 -16,-16 0,-8 7,-16 16,-16l0 32z"/>
  </g>
  <g>
   <path class="fil0" d="M1345 3590c-9,0 -16,-8 -16,-17 0,-8 7,-16 16,-16l0 33zm605 0l-605 0 0 -33 605 0 0 33zm0 -33c9,0 16,8 16,16 0,9 -7,17 -16,17l0 -33z"/>
  </g>
  <g>
   <path class="fil0" d="M1661 3884c0,9 -7,16 -16,16 -9,0 -16,-7 -16,-16l32 0zm0 -605l0 605 -32 0 0 -605 32 0zm-32 0c0,-9 7,-16 16,-16 9,0 16,7 16,16l-32 0z"/>
  </g>
  <g>
   <path class="fil0" d="M1643 3386c-9,-1 -15,-9 -14,-18 1,-9 9,-15 18,-14l-4 32zm80 10l-80 -10 4 -32 80 11 7 2 -11 29zm4 -31c9,1 15,9 14,18 -1,8 -9,15 -18,13l4 -31zm53 72l-64 -43 18 -27 64 43 5 5 -23 22zm18 -27c8,5 10,15 5,22 -5,8 -15,10 -23,5l18 -27zm20 96l-43 -75 28 -16 43 75 2 4 -30 12zm28 -16c5,8 2,18 -6,22 -7,5 -17,2 -22,-6l28 -16zm-8 88l-21 -75 31 -9 21 75 0 8 -31 1zm31 -9c3,9 -2,17 -11,20 -8,2 -17,-3 -20,-11l31 -9zm-52 86l21 -85 31 7 -21 86 -2 5 -29 -13zm31 8c-2,9 -11,14 -20,12 -8,-2 -13,-11 -11,-20l31 8zm-72 52l43 -65 27 18 -43 64 -5 5 -22 -22zm27 17c-5,8 -15,10 -23,5 -7,-5 -9,-15 -4,-22l27 17zm-87 21l64 -43 18 27 -64 43 -5 2 -13 -29zm18 27c-7,5 -17,3 -22,-5 -5,-7 -3,-17 4,-22l18 27zm-93 -8l80 -21 8 31 -80 21 -9 0 1 -31zm8 31c-9,2 -18,-3 -20,-11 -2,-9 3,-18 12,-20l8 31zm-75 -52l75 21 -9 31 -75 -21 -3 -2 12 -29zm-9 31c-8,-3 -13,-12 -11,-20 3,-9 12,-14 20,-11l-9 31zm-62 -72l75 42 -16 28 -75 -43 -6 -5 22 -22zm-16 27c-8,-4 -11,-14 -6,-22 4,-7 14,-10 22,-5l-16 27zm-22 -87l43 65 -27 17 -43 -64 -2 -7 29 -11zm-27 18c-4,-7 -2,-17 5,-22 7,-5 17,-3 22,4l-27 18zm19 -97l11 86 -32 4 -11 -86 0 -4 32 0zm-32 4c-1,-8 5,-16 14,-17 9,-2 17,5 18,13l-32 4zm43 -74l-11 75 -32 -5 11 -75 2 -6 30 11zm-32 -5c1,-9 9,-15 18,-13 9,1 15,9 14,18l-32 -5zm73 -65l-43 75 -28 -16 43 -75 6 -5 22 21zm-28 -16c4,-7 14,-10 22,-5 7,4 10,14 6,21l-28 -16zm97 -20l-75 42 -16 -27 75 -43 5 -2 11 30zm-16 -28c7,-5 17,-2 22,6 4,7 1,17 -6,22l-16 -28zm85 19l-75 10 -5 -31 75 -11 5 32zm-5 -32c9,-1 17,5 19,14 1,8 -5,17 -14,18l-5 -32z"/>
  </g>
  <g>
   <path class="fil0" d="M2411 11363c0,9 -7,16 -16,16 -9,0 -16,-7 -16,-16l32 0zm0 -219l0 219 -32 0 0 -219 32 0zm-32 0c0,-9 7,-16 16,-16 9,0 16,7 16,16l-32 0z"/>
  </g>
  <g>
   <path class="fil0" d="M836 12574c0,9 -7,16 -16,16 -9,0 -16,-7 -16,-16l32 0zm0 -9199l0 9199 -32 0 0 -9199 32 0zm-32 0c0,-9 7,-16 16,-16 9,0 16,7 16,16l-32 0z"/>
  </g>
  <g>
   <path class="fil0" d="M386 15944c-9,0 -16,-7 -16,-16 0,-9 7,-16 16,-16l0 32zm4002 0l-4002 0 0 -32 4002 0 0 32zm0 -32c9,0 16,7 16,16 0,9 -7,16 -16,16l0 -32z"/>
  </g>
  <g>
   <path class="fil0" d="M4779 15601c0,9 -7,16 -16,16 -9,0 -16,-7 -16,-16l32 0zm0 -7458l0 7458 -32 0 0 -7458 32 0zm-32 0c0,-8 7,-16 16,-16 9,0 16,8 16,16l-32 0z"/>
  </g>
  <g>
   <path class="fil0" d="M4779 8374c0,9 -7,16 -16,16 -9,0 -16,-7 -16,-16l32 0zm0 -7972l0 7972 -32 0 0 -7972 32 0zm-32 0c0,-9 7,-16 16,-16 9,0 16,7 16,16l-32 0z"/>
  </g>
  <g>
   <path class="fil0" d="M4388 0c9,0 16,7 16,16 0,9 -7,16 -16,16l0 -32zm-4002 0l4002 0 0 32 -4002 0 0 -32zm0 32c-9,0 -16,-7 -16,-16 0,-9 7,-16 16,-16l0 32z"/>
  </g>
  <g>
   <path class="fil0" d="M2416 8310c0,8 -7,16 -16,16 -9,0 -16,-8 -16,-16l32 0zm0 -76l0 76 -32 0 0 -76 32 0zm-32 0c0,-8 7,-16 16,-16 9,0 16,8 16,16l-32 0z"/>
  </g>
  <g>
   <path class="fil0" d="M2416 5454c0,9 -7,16 -16,16 -9,0 -16,-7 -16,-16l32 0zm0 -568l0 568 -32 0 0 -568 32 0zm-32 0c0,-9 7,-16 16,-16 9,0 16,7 16,16l-32 0z"/>
  </g>
  <g>
   <path class="fil0" d="M2695 8283c9,0 16,7 16,16 0,9 -7,16 -16,16l0 -32zm-606 0l606 0 0 32 -606 0 0 -32zm0 32c-8,0 -16,-7 -16,-16 0,-9 8,-16 16,-16l0 32z"/>
  </g>
  <g>
   <path class="fil0" d="M2398 8079c9,-1 17,5 18,14 1,9 -5,17 -14,18l-4 -32zm-86 11l86 -11 4 32 -86 11 -10 -29 6 -3zm4 32c-8,1 -16,-5 -18,-14 -1,-9 6,-17 14,-18l4 32zm-75 13l65 -42 17 26 -64 43 -23 -21 5 -6zm18 27c-7,5 -17,3 -22,-4 -5,-8 -3,-18 4,-23l18 27zm-66 54l43 -75 28 16 -43 75 -29 -13 1 -3zm28 16c-4,7 -14,10 -22,6 -7,-5 -10,-15 -6,-22l28 16zm-51 62l22 -75 31 9 -22 75 -31 0 0 -9zm31 9c-2,9 -11,14 -20,11 -8,-2 -13,-11 -11,-20l31 9zm-9 75l-22 -75 31 -9 22 75 -30 13 -1 -4zm31 -9c2,9 -3,18 -11,20 -9,3 -18,-2 -20,-11l31 -9zm13 88l-43 -75 28 -16 43 75 -23 21 -5 -5zm28 -16c4,8 2,17 -6,22 -8,4 -17,1 -22,-6l28 -16zm42 64l-65 -43 18 -27 64 43 -11 30 -6 -3zm17 -27c8,5 10,15 5,23 -5,7 -15,9 -22,4l17 -27zm75 40l-86 -10 4 -32 86 10 0 32 -4 0zm4 -32c9,1 15,10 14,18 -1,9 -9,15 -18,14l4 -32zm75 22l-75 10 -4 -32 75 -10 11 29 -7 3zm-4 -32c9,-2 17,5 18,13 1,9 -5,17 -14,19l-4 -32zm75 -14l-64 43 -18 -27 65 -43 22 23 -5 4zm-17 -27c7,-4 17,-2 22,5 5,7 3,17 -5,22l-17 -27zm75 -52l-53 75 -27 -19 54 -75 29 11 -3 8zm-26 -19c5,-7 15,-8 22,-3 8,5 9,15 4,22l-26 -19zm34 -64l-5 75 -32 -2 5 -75 32 0 0 2zm-32 -2c1,-9 9,-16 17,-15 9,0 16,8 15,17l-32 -2zm27 -75l5 75 -32 2 -5 -75 29 -11 3 9zm-32 2c-1,-9 6,-17 15,-17 9,-1 16,6 17,15l-32 2zm-24 -86l53 75 -26 19 -54 -75 22 -23 5 4zm-27 19c-5,-7 -3,-17 4,-22 7,-5 17,-4 23,3l-27 19zm-42 -65l64 42 -17 27 -65 -43 11 -29 7 3zm-18 26c-7,-5 -9,-15 -4,-22 5,-7 15,-9 22,-4l-18 26zm-64 -40l75 11 -4 32 -75 -11 4 -32zm-4 32c-9,-1 -15,-9 -14,-18 1,-9 10,-15 18,-14l-4 32z"/>
  </g>
  <g>
   <path class="fil0" d="M2416 8604c0,9 -7,16 -16,16 -9,0 -16,-7 -16,-16l32 0zm0 -611l0 611 -32 0 0 -611 32 0zm-32 0c0,-8 7,-16 16,-16 9,0 16,8 16,16l-32 0z"/>
  </g>
  <g>
   <path class="fil0" d="M2695 5138c9,0 16,7 16,16 0,9 -7,16 -16,16l0 -32zm-606 0l606 0 0 32 -606 0 0 -32zm0 32c-8,0 -16,-7 -16,-16 0,-9 8,-16 16,-16l0 32z"/>
  </g>
  <g>
   <path class="fil0" d="M2396 4929c9,-2 18,4 20,12 2,9 -3,17 -12,20l-8 -32zm-85 22l85 -22 8 32 -86 21 -12 -29 5 -2zm7 31c-8,2 -17,-3 -19,-12 -2,-8 3,-17 12,-19l7 31zm-77 14l65 -43 17 27 -64 43 -22 -23 4 -4zm18 27c-7,5 -17,3 -22,-5 -5,-7 -3,-17 4,-22l18 27zm-65 42l43 -65 27 18 -43 64 -29 -13 2 -4zm27 17c-5,8 -15,10 -23,5 -7,-5 -9,-15 -4,-22l27 17zm-51 68l22 -81 31 9 -22 80 -31 0 0 -8zm31 8c-2,9 -11,14 -19,11 -9,-2 -14,-11 -12,-19l31 8zm-9 75l-22 -75 31 -8 22 75 -29 13 -2 -5zm31 -8c2,8 -3,17 -11,19 -9,3 -18,-2 -20,-11l31 -8zm14 77l-43 -64 27 -18 43 64 -24 22 -3 -4zm27 -18c4,8 2,18 -5,23 -7,4 -17,3 -22,-5l27 -18zm40 75l-64 -53 20 -25 65 53 -13 29 -8 -4zm21 -25c7,6 7,16 2,23 -6,7 -16,8 -23,2l21 -25zm73 39l-86 -10 4 -32 86 11 0 31 -4 0zm4 -31c9,1 15,9 14,18 -1,8 -9,15 -18,13l4 -31zm75 21l-75 10 -4 -31 75 -11 12 28 -8 4zm-4 -32c9,-1 17,5 18,14 1,8 -5,16 -14,18l-4 -32zm77 -25l-65 53 -20 -25 64 -53 23 23 -2 2zm-21 -25c7,-6 17,-5 23,2 5,7 5,17 -2,23l-21 -25zm76 -42l-53 65 -25 -21 54 -64 28 11 -4 9zm-24 -20c5,-7 15,-8 22,-2 7,5 8,15 2,22l-24 -20zm33 -64l-5 75 -32 -2 5 -75 32 0 0 2zm-32 -2c1,-9 9,-16 17,-15 9,1 16,8 15,17l-32 -2zm27 -80l5 80 -32 2 -5 -80 28 -12 4 10zm-32 2c-1,-9 6,-17 15,-17 9,-1 17,6 17,15l-32 2zm-25 -76l53 64 -24 21 -54 -64 21 -24 4 3zm-25 21c-6,-7 -5,-17 2,-23 7,-6 17,-5 23,2l-25 21zm-43 -67l64 43 -17 27 -65 -43 14 -29 4 2zm-18 27c-7,-5 -9,-15 -4,-22 5,-8 15,-10 22,-5l-18 27zm-61 -50l75 21 -9 31 -75 -22 9 -30zm-9 30c-9,-2 -14,-11 -11,-19 2,-9 11,-14 20,-11l-9 30z"/>
  </g>
  <g>
   <path class="fil0" d="M3450 5658c9,0 16,7 16,16 0,8 -7,16 -16,16l0 -32zm-605 0l605 0 0 32 -605 0 0 -32zm0 32c-9,0 -16,-8 -16,-16 0,-9 7,-16 16,-16l0 32z"/>
  </g>
  <g>
   <path class="fil0" d="M3166 5984c0,9 -7,16 -16,16 -9,0 -16,-7 -16,-16l32 0zm0 -616l0 616 -32 0 0 -616 32 0zm-32 0c0,-9 7,-16 16,-16 9,0 16,7 16,16l-32 0z"/>
  </g>
  <g>
   <path class="fil0" d="M3148 5459c9,-1 17,6 18,14 1,9 -5,17 -14,18l-4 -32zm-85 11l85 -11 4 32 -86 11 -10 -29 7 -3zm3 32c-8,1 -16,-5 -17,-14 -2,-9 5,-17 14,-18l3 32zm-75 14l65 -43 17 26 -64 43 -23 -21 5 -5zm18 26c-7,5 -17,3 -22,-4 -5,-8 -3,-18 4,-22l18 26zm-66 54l43 -75 28 16 -43 75 -29 -13 1 -3zm28 16c-4,8 -14,10 -22,6 -7,-4 -10,-14 -6,-22l28 16zm-50 57l21 -70 31 10 -22 69 -31 0 1 -9zm30 9c-2,9 -11,14 -20,11 -8,-3 -13,-12 -10,-20l30 9zm-9 75l-22 -75 31 -9 22 75 -30 13 -1 -4zm31 -9c2,9 -3,18 -11,20 -9,3 -18,-2 -20,-11l31 -9zm13 88l-43 -75 28 -16 43 75 -23 21 -5 -5zm28 -16c5,7 2,17 -6,22 -7,4 -17,1 -22,-6l28 -16zm42 64l-65 -43 18 -27 64 43 -10 29 -7 -2zm17 -27c8,5 10,15 5,22 -5,8 -15,10 -22,5l17 -27zm75 40l-85 -11 3 -32 86 11 0 32 -4 0zm4 -32c9,1 15,9 14,18 -1,9 -9,15 -18,14l4 -32zm75 21l-75 11 -4 -32 75 -10 10 29 -6 2zm-4 -31c9,-2 17,4 18,13 1,9 -5,17 -14,18l-4 -31zm85 -13l-75 42 -16 -27 75 -43 22 22 -6 6zm-16 -28c8,-5 18,-2 22,6 5,7 2,17 -6,22l-16 -28zm65 -53l-43 75 -28 -16 43 -75 30 10 -2 6zm-28 -16c5,-8 14,-11 22,-6 8,4 10,14 6,22l-28 -16zm41 -65l-11 75 -32 -5 11 -75 32 0 0 5zm-32 -5c1,-8 9,-15 18,-13 9,1 15,9 14,18l-32 -5zm21 -69l11 69 -32 5 -11 -70 30 -10 2 6zm-32 4c-1,-8 5,-17 14,-18 8,-1 17,5 18,14l-32 4zm-13 -85l43 75 -28 16 -43 -75 22 -22 6 6zm-28 16c-4,-8 -1,-18 6,-22 8,-4 18,-2 22,6l-28 16zm-53 -65l75 43 -16 28 -75 -43 10 -30 6 2zm-16 28c-7,-4 -10,-14 -6,-22 5,-8 15,-10 22,-6l-16 28zm-65 -41l75 11 -4 32 -75 -11 4 -32zm-4 32c-9,-1 -15,-9 -14,-18 1,-9 10,-15 18,-14l-4 32z"/>
  </g>
  <g>
   <path class="fil0" d="M1648 4441c-9,-1 -15,-9 -14,-18 1,-9 9,-15 18,-14l-4 32zm80 11l-80 -11 4 -32 81 11 6 3 -11 29zm5 -32c8,1 15,9 13,18 -1,9 -9,15 -18,14l5 -32zm53 72l-64 -43 17 -26 65 43 4 4 -22 22zm18 -26c7,4 9,14 4,22 -5,7 -15,9 -22,4l18 -26zm20 91l-43 -70 27 -17 43 70 2 4 -29 13zm27 -17c5,8 3,18 -5,22 -7,5 -17,2 -22,-5l27 -17zm-7 88l-22 -75 31 -9 22 75 0 8 -31 1zm31 -9c2,9 -3,18 -12,20 -8,2 -17,-3 -19,-11l31 -9zm-53 86l21 -85 32 7 -22 86 -2 5 -29 -13zm31 8c-2,9 -11,14 -19,12 -9,-2 -14,-11 -12,-20l31 8zm-72 52l43 -65 27 18 -43 64 -4 5 -23 -22zm27 17c-5,8 -15,10 -22,5 -8,-5 -9,-15 -5,-22l27 17zm-86 21l64 -43 18 27 -65 43 -4 2 -13 -29zm17 27c-7,5 -17,3 -22,-5 -5,-7 -3,-17 5,-22l17 27zm-93 -8l80 -21 9 31 -81 21 -8 0 0 -31zm8 31c-8,3 -17,-2 -19,-11 -3,-9 2,-17 11,-20l8 31zm-75 -52l76 21 -9 31 -75 -21 -4 -2 12 -29zm-8 31c-9,-3 -14,-12 -11,-20 2,-9 11,-14 19,-11l-8 31zm-63 -72l75 42 -16 28 -75 -43 -5 -5 21 -22zm-16 27c-8,-4 -10,-14 -6,-21 5,-8 14,-11 22,-6l-16 27zm-21 -87l42 65 -26 17 -43 -64 -3 -7 30 -11zm-27 18c-5,-7 -3,-17 4,-22 8,-5 18,-3 23,4l-27 18zm18 -96l11 85 -32 4 -10 -85 0 -5 31 1zm-31 4c-2,-9 5,-17 14,-18 8,-1 16,5 17,14l-31 4zm42 -75l-11 75 -31 -5 10 -75 3 -6 29 11zm-32 -5c2,-9 10,-15 19,-13 8,1 14,9 13,18l-32 -5zm73 -59l-43 70 -27 -17 42 -70 6 -5 22 22zm-28 -17c5,-7 15,-9 23,-5 7,5 9,15 5,22l-28 -17zm97 -20l-75 43 -16 -28 75 -43 6 -2 10 30zm-16 -28c8,-4 18,-2 22,6 4,8 2,18 -6,22l-16 -28zm85 19l-75 11 -4 -32 75 -11 4 32zm-4 -32c9,-1 17,5 18,14 1,9 -5,17 -14,18l-4 -32z"/>
  </g>
  <g>
   <path class="fil0" d="M1666 4934c0,9 -7,16 -16,16 -9,0 -16,-7 -16,-16l32 0zm0 -605l0 605 -32 0 0 -605 32 0zm-32 0c0,-9 7,-16 16,-16 9,0 16,7 16,16l-32 0z"/>
  </g>
  <g>
   <path class="fil0" d="M1350 4640c-9,0 -16,-8 -16,-16 0,-9 7,-17 16,-17l0 33zm605 0l-605 0 0 -33 605 0 0 33zm0 -33c9,0 17,8 17,17 0,8 -8,16 -17,16l0 -33z"/>
  </g>
  <g>
   <path class="fil0" d="M1648 8631c-9,-1 -15,-10 -14,-18 1,-9 9,-15 18,-14l-4 32zm80 11l-80 -11 4 -32 81 11 8 3 -13 29zm5 -32c8,1 15,9 13,18 -1,8 -9,15 -18,14l5 -32zm52 82l-65 -54 21 -25 64 54 3 3 -23 22zm20 -25c7,5 8,16 2,22 -6,7 -16,8 -22,3l20 -25zm19 85l-43 -64 27 -18 43 65 2 4 -29 13zm27 -17c5,7 3,17 -5,22 -7,5 -17,3 -22,-5l27 -17zm-7 88l-22 -75 31 -9 22 75 0 8 -31 1zm31 -9c2,9 -3,17 -12,20 -8,2 -17,-3 -19,-11l31 -9zm-53 86l21 -85 32 7 -22 86 -2 5 -29 -13zm31 8c-2,9 -11,14 -19,12 -9,-2 -14,-11 -12,-20l31 8zm-72 52l43 -65 27 18 -43 64 -4 5 -23 -22zm27 17c-5,8 -15,10 -22,5 -8,-5 -9,-15 -5,-22l27 17zm-86 21l64 -43 18 27 -65 43 -4 2 -13 -29zm17 27c-7,5 -17,3 -22,-5 -5,-7 -3,-17 5,-22l17 27zm-93 -8l80 -21 9 31 -81 21 -8 0 0 -31zm8 31c-8,3 -17,-3 -19,-11 -3,-9 2,-18 11,-20l8 31zm-75 -52l76 21 -9 31 -75 -21 -4 -2 12 -29zm-8 31c-9,-3 -14,-12 -11,-20 2,-9 11,-14 19,-11l-8 31zm-63 -72l75 42 -16 28 -75 -43 -5 -5 21 -22zm-16 27c-8,-4 -10,-14 -6,-22 5,-7 14,-10 22,-5l-16 27zm-21 -87l42 65 -26 17 -43 -64 -3 -7 30 -11zm-27 18c-5,-7 -3,-17 4,-22 8,-5 18,-3 23,4l-27 18zm18 -97l11 86 -32 4 -10 -86 0 -4 31 0zm-31 4c-2,-8 5,-16 14,-18 8,-1 16,6 17,14l-31 4zm42 -74l-11 75 -31 -5 10 -75 3 -6 29 11zm-32 -5c2,-9 10,-15 19,-13 8,1 14,9 13,18l-32 -5zm72 -53l-42 64 -27 -17 43 -65 4 -4 22 22zm-26 -18c5,-7 15,-9 22,-4 7,5 9,15 4,22l-26 -18zm97 -31l-75 53 -18 -26 75 -53 7 -3 11 29zm-18 -26c7,-6 17,-4 22,3 5,7 4,18 -4,23l-18 -26zm86 18l-75 11 -4 -32 75 -11 4 32zm-4 -32c9,-1 17,5 18,14 1,8 -5,17 -14,18l-4 -32z"/>
  </g>
  <g>
   <path class="fil0" d="M1666 9129c0,9 -7,16 -16,16 -9,0 -16,-7 -16,-16l32 0zm0 -605l0 605 -32 0 0 -605 32 0zm-32 0c0,-9 7,-16 16,-16 9,0 16,7 16,16l-32 0z"/>
  </g>
  <g>
   <path class="fil0" d="M1350 8835c-9,0 -16,-8 -16,-17 0,-8 7,-16 16,-16l0 33zm605 0l-605 0 0 -33 605 0 0 33zm0 -33c9,0 17,8 17,16 0,9 -8,17 -17,17l0 -33z"/>
  </g>
  <g>
   <path class="fil0" d="M3981 4982c0,9 -8,17 -16,17 -9,0 -17,-8 -17,-17l33 0zm0 -841l0 841 -33 0 0 -841 17 -16 16 16zm-33 0c0,-8 8,-16 17,-16 8,0 16,8 16,16l-33 0zm-58 -16l75 0 0 32 -75 0 -17 -16 17 -16zm0 32c-9,0 -17,-7 -17,-16 0,-8 8,-16 17,-16l0 32zm-17 825l0 -841 33 0 0 841 -16 17 -17 -17zm33 0c0,9 -8,17 -16,17 -9,0 -17,-8 -17,-17l33 0zm59 17l-75 0 0 -33 75 0 0 33zm0 -33c8,0 16,8 16,16 0,9 -8,17 -16,17l0 -33z"/>
  </g>
  <g>
   <path class="fil0" d="M3981 9392c0,9 -8,16 -16,16 -9,0 -17,-7 -17,-16l33 0zm0 -1308l0 1308 -33 0 0 -1308 17 -16 16 16zm-33 0c0,-8 8,-16 17,-16 8,0 16,8 16,16l-33 0zm-58 -16l75 0 0 33 -75 0 -17 -17 17 -16zm0 33c-9,0 -17,-8 -17,-17 0,-8 8,-16 17,-16l0 33zm-17 819l0 -836 33 0 0 836 -16 16 -17 -16zm33 0c0,9 -8,16 -16,16 -9,0 -17,-7 -17,-16l33 0zm59 16l-75 0 0 -32 75 0 0 32zm0 -32c8,0 16,7 16,16 0,9 -8,16 -16,16l0 -32z"/>
  </g>
  <g>
   <path class="fil0" d="M836 4982c0,9 -7,17 -16,17 -9,0 -16,-8 -16,-17l32 0zm0 -841l0 841 -32 0 0 -841 16 -16 16 16zm-32 0c0,-8 7,-16 16,-16 9,0 16,8 16,16l-32 0zm80 16l-64 0 0 -32 64 0 16 16 -16 16zm0 -32c9,0 16,8 16,16 0,9 -7,16 -16,16l0 -32zm-16 857l0 -841 32 0 0 841 -16 17 -16 -17zm32 0c0,9 -7,17 -16,17 -9,0 -16,-8 -16,-17l32 0zm-80 -16l64 0 0 33 -64 0 0 -33zm0 33c-9,0 -16,-8 -16,-17 0,-8 7,-16 16,-16l0 33z"/>
  </g>
  <g>
   <path class="fil0" d="M836 8920c0,9 -7,16 -16,16 -9,0 -16,-7 -16,-16l32 0zm0 -836l0 836 -32 0 0 -836 16 -16 16 16zm-32 0c0,-8 7,-16 16,-16 9,0 16,8 16,16l-32 0zm80 17l-64 0 0 -33 64 0 16 16 -16 17zm0 -33c9,0 16,8 16,16 0,9 -7,17 -16,17l0 -33zm-16 852l0 -836 32 0 0 836 -16 16 -16 -16zm32 0c0,9 -7,16 -16,16 -9,0 -16,-7 -16,-16l32 0zm-80 -16l64 0 0 32 -64 0 0 -32zm0 32c-9,0 -16,-7 -16,-16 0,-9 7,-16 16,-16l0 32z"/>
  </g>
  <g>
   <path class="fil0" d="M1148 3316c-5,-2 -8,-9 -6,-14 2,-6 8,-8 14,-6l-8 20zm43 16l-43 -16 8 -20 42 16 5 3 -12 17zm7 -20c6,2 9,8 7,13 -2,6 -9,9 -14,7l7 -20zm15 49l-27 -32 17 -14 27 32 2 3 -19 11zm17 -14c4,4 3,11 -2,15 -4,4 -11,3 -15,-1l17 -14zm-2 53l-17 -42 21 -8 16 43 0 4 -20 3zm20 -7c2,5 -1,12 -7,14 -5,2 -11,-1 -13,-7l20 -7zm-21 14l0 -10 21 0 0 10 0 4 -21 -4zm21 0c0,6 -5,11 -10,11 -6,0 -11,-5 -11,-11l21 0zm-37 39l17 -42 20 7 -16 43 -2 3 -19 -11zm21 8c-3,6 -9,8 -14,6 -6,-2 -9,-8 -7,-14l21 8zm-46 22l27 -33 17 14 -27 32 -5 3 -12 -16zm17 13c-4,5 -11,5 -15,2 -5,-4 -5,-11 -2,-15l17 13zm-55 -1l43 -16 7 20 -42 16 -4 1 -4 -21zm8 20c-6,3 -12,0 -14,-6 -2,-5 1,-12 6,-14l8 20zm-20 -20l16 0 0 21 -16 0 -4 -1 4 -20zm0 21c-6,0 -11,-5 -11,-11 0,-5 5,-10 11,-10l0 21zm-39 -37l43 16 -8 20 -43 -16 -4 -3 12 -17zm-8 20c-5,-2 -8,-8 -6,-13 2,-6 8,-9 14,-7l-8 20zm-15 -49l27 33 -16 13 -27 -32 -2 -3 18 -11zm-16 14c-4,-4 -3,-11 1,-15 5,-4 12,-3 15,1l-16 14zm2 -53l16 42 -20 8 -16 -43 -1 -4 21 -3zm-20 7c-2,-5 1,-12 6,-14 6,-2 12,1 14,7l-20 7zm21 -14l0 10 -22 0 0 -10 1 -4 21 4zm-22 0c0,-6 5,-11 11,-11 6,0 11,5 11,11l-22 0zm37 -39l-16 42 -20 -7 16 -43 2 -3 18 11zm-20 -8c2,-5 8,-8 14,-6 5,2 8,8 6,14l-20 -8zm45 -21l-27 32 -16 -14 27 -32 5 -4 11 18zm-16 -14c3,-5 10,-5 15,-2 4,4 5,11 1,16l-16 -14zm70 1l-59 16 -6 -21 59 -16 3 0 3 21zm-6 -21c6,-1 12,2 13,8 2,6 -2,11 -7,13l-6 -21zm73 21l-70 0 0 -21 70 0 2 0 -2 21zm0 -21c5,0 10,5 10,11 0,6 -5,10 -10,10l0 -21zm72 37l-75 -16 5 -21 75 16 4 2 -9 19zm5 -21c6,1 9,7 8,13 -1,6 -7,9 -13,8l5 -21zm34 51l-43 -32 13 -17 43 32 3 5 -16 12zm13 -17c4,4 5,11 2,15 -4,5 -10,6 -15,2l13 -17zm-1 55l-16 -42 20 -8 16 43 1 4 -21 3zm20 -7c2,5 0,12 -6,14 -5,2 -12,-1 -14,-7l20 -7zm-20 30l0 -26 21 0 0 26 -1 4 -20 -4zm21 0c0,6 -5,11 -11,11 -5,0 -10,-5 -10,-11l21 0zm-37 40l16 -43 20 7 -16 43 -5 6 -15 -13zm20 7c-2,6 -8,8 -13,6 -6,-2 -9,-8 -7,-13l20 7zm-47 3l33 -16 9 19 -32 16 -10 -19zm10 19c-5,3 -12,0 -14,-5 -3,-5 -1,-12 4,-14l10 19z"/>
  </g>
  <g>
   <path class="fil0" d="M1188 12370c3,5 1,12 -4,15 -5,3 -12,1 -15,-4l19 -11zm-16 -26l16 26 -19 11 -16 -26 18 -13 1 2zm-19 11c-3,-5 -1,-12 4,-15 5,-3 12,-1 15,4l-19 11zm-25 -61l43 48 -16 14 -43 -48 8 -18 8 4zm-16 14c-4,-4 -4,-11 1,-15 4,-4 11,-4 15,1l-16 14zm313 4l-305 0 0 -22 305 0 0 22zm0 -22c6,0 11,5 11,11 0,6 -5,11 -11,11l0 -22z"/>
  </g>
  <g>
   <path class="fil0" d="M2195 3691c3,5 1,12 -4,15 -5,3 -11,1 -14,-4l18 -11zm-16 -27l16 27 -18 11 -16 -27 17 -12 1 1zm-18 11c-3,-5 -2,-11 3,-14 5,-3 12,-2 15,3l-18 11zm-26 -60l43 48 -16 14 -43 -48 8 -18 8 4zm-16 14c-4,-5 -4,-11 1,-15 4,-4 11,-4 15,1l-16 14zm313 3l-305 0 0 -21 305 0 0 21zm0 -21c6,0 11,5 11,11 0,6 -5,10 -11,10l0 -21z"/>
  </g>
  <g>
   <path class="fil0" d="M2117 3384c-2,-5 1,-11 6,-13 6,-2 12,0 14,6l-20 7zm16 43l-16 -43 20 -7 16 43 -14 13 -6 -6zm20 -7c2,5 -1,11 -6,13 -6,2 -12,0 -14,-6l20 -7zm13 24l-27 -11 8 -20 27 11 -4 21 -4 -1zm8 -20c5,2 8,9 6,14 -2,6 -9,8 -14,6l8 -20zm23 21l-27 0 0 -22 27 0 3 21 -3 1zm0 -22c5,0 10,5 10,11 0,6 -5,11 -10,11l0 -22zm35 11l-32 10 -7 -20 32 -11 14 14 -7 7zm-7 -21c6,-2 12,1 14,7 2,6 -1,12 -7,14l-7 -21zm25 -18l-11 32 -20 -7 10 -32 21 6 0 1zm-21 -7c2,-6 8,-9 14,-7 5,2 8,8 7,14l-21 -7zm37 -53l-16 59 -21 -5 16 -59 0 -1 21 6zm-21 -5c2,-6 8,-9 13,-8 6,2 9,7 8,13l-21 -5zm37 -37l-16 43 -21 -7 17 -43 2 -4 18 11zm-20 -7c2,-6 8,-9 13,-6 6,2 9,8 7,13l-20 -7zm44 -16l-27 27 -15 -15 27 -27 3 -2 12 17zm-15 -15c4,-4 11,-4 15,0 4,4 4,11 0,15l-15 -15zm44 1l-32 16 -9 -19 32 -16 5 -1 4 20zm-9 -19c5,-2 11,0 14,5 3,5 1,12 -5,14l-9 -19zm47 20l-42 0 0 -21 42 0 6 1 -6 20zm0 -21c6,0 11,5 11,11 0,6 -5,10 -11,10l0 -21zm22 36l-27 -16 11 -19 27 17 2 1 -13 17zm11 -18c5,3 6,9 3,14 -3,5 -9,7 -14,4l11 -18zm3 32l-16 -16 15 -15 16 16 2 4 -17 11zm15 -15c4,4 4,11 0,15 -4,5 -11,5 -15,0l15 -15zm-2 54l-16 -42 20 -8 16 43 1 4 -21 3zm20 -7c2,5 0,12 -6,14 -5,2 -12,-1 -14,-7l20 -7zm-20 63l0 -59 21 0 0 59 -1 3 -20 -3zm21 0c0,5 -5,10 -11,10 -6,0 -10,-5 -10,-10l21 0zm-37 39l16 -43 20 7 -16 43 -4 5 -16 -12zm20 7c-2,6 -8,8 -14,6 -5,-2 -8,-8 -6,-13l20 7zm-32 -2l16 -10 12 17 -16 11 0 0 -12 -18zm12 18c-5,3 -12,2 -15,-3 -3,-5 -2,-11 3,-15l12 18zm-38 -2l27 -16 11 18 -27 16 -6 2 -5 -20zm11 18c-5,3 -12,2 -15,-3 -3,-5 -1,-12 4,-15l11 18zm-48 -19l42 0 0 21 -42 0 -5 -1 5 -20zm0 21c-6,0 -11,-5 -11,-11 0,-6 5,-10 11,-10l0 21zm-28 -36l32 16 -9 19 -32 -16 -3 -2 12 -17zm-9 19c-6,-3 -8,-9 -5,-15 2,-5 9,-7 14,-4l-9 19zm-15 -44l27 27 -15 15 -27 -27 -2 -4 17 -11zm-15 15c-4,-4 -4,-11 0,-15 4,-4 11,-4 15,0l-15 15zm2 -54l16 43 -20 7 -17 -43 0 -1 21 -6zm-21 7c-2,-5 1,-11 7,-14 5,-2 11,1 14,7l-21 7zm5 -65l16 59 -21 5 -16 -59 20 -6 1 1zm-21 5c-1,-5 2,-11 8,-13 5,-1 11,2 13,8l-21 5zm10 -33l10 27 -20 8 -10 -27 14 -14 6 6zm-20 8c-2,-6 0,-12 6,-14 5,-2 11,0 14,6l-20 8zm-18 -30l32 16 -9 19 -32 -16 5 -20 4 1zm-9 19c-5,-2 -8,-9 -5,-14 3,-5 9,-7 14,-5l-9 19zm-22 -20l27 0 0 21 -27 0 -6 -19 6 -2zm0 21c-6,0 -11,-4 -11,-10 0,-6 5,-11 11,-11l0 21zm-32 -3l26 -16 11 18 -27 16 -15 -13 5 -5zm10 18c-5,3 -11,1 -14,-4 -3,-5 -2,-11 4,-14l10 18zm-31 30l16 -43 20 8 -16 42 -21 -3 1 -4zm20 7c-2,6 -8,9 -14,7 -5,-2 -8,-9 -6,-14l20 7zm-21 56l0 -59 22 0 0 59 -22 0zm22 0c0,5 -5,10 -11,10 -6,0 -11,-5 -11,-10l22 0z"/>
  </g>
  <g>
   <path class="fil0" d="M1934 13101c1,6 -2,12 -7,14 -6,2 -12,-2 -14,-7l21 -7zm-11 -32l11 32 -21 7 -11 -32 18 -11 3 4zm-21 7c-1,-6 2,-12 7,-14 6,-2 12,1 14,7l-21 7zm-25 -54l43 43 -15 15 -43 -43 8 -18 7 3zm-15 15c-4,-4 -4,-11 0,-15 4,-4 11,-4 15,0l-15 15zm308 3l-300 0 0 -21 300 0 0 21zm0 -21c6,0 11,5 11,10 0,6 -5,11 -11,11l0 -21z"/>
  </g>
  <g>
   <path class="fil0" d="M1859 12775c-1,-6 2,-12 8,-13 6,-1 12,2 13,8l-21 5zm11 43l-11 -43 21 -5 11 43 -16 11 -5 -6zm21 -5c1,5 -2,11 -8,13 -6,1 -11,-3 -13,-8l21 -5zm27 38l-43 -27 11 -18 43 27 -8 19 -3 -1zm11 -18c5,3 7,10 3,15 -3,5 -9,6 -14,3l11 -18zm67 36l-75 -17 5 -21 75 17 -3 21 -2 0zm5 -21c5,1 9,7 8,12 -1,6 -7,10 -13,9l5 -21zm40 21l-43 0 0 -22 43 0 3 21 -3 1zm0 -22c6,0 11,5 11,11 0,6 -5,11 -11,11l0 -22zm72 5l-69 16 -5 -20 69 -16 8 19 -3 1zm-5 -20c6,-2 12,2 13,8 2,5 -2,11 -8,12l-5 -20zm56 -7l-48 26 -10 -18 48 -27 15 12 -5 7zm-10 -19c5,-3 12,-1 14,4 3,5 1,12 -4,15l-10 -19zm26 -31l-11 43 -20 -5 10 -43 22 2 -1 3zm-21 -5c2,-6 8,-9 13,-8 6,1 10,7 8,13l-21 -5zm22 -30l0 32 -22 0 0 -32 21 -2 1 2zm-22 0c0,-6 5,-11 11,-11 6,0 11,5 11,11l-22 0zm10 -45l11 43 -21 5 -10 -43 15 -12 5 7zm-20 5c-2,-6 2,-12 7,-13 6,-1 12,2 13,8l-20 5zm-33 -39l48 27 -10 19 -48 -27 7 -20 3 1zm-10 19c-5,-3 -7,-10 -5,-15 3,-5 10,-7 15,-4l-10 19zm-62 -36l69 16 -5 21 -69 -16 2 -21 3 0zm-5 21c-6,-1 -10,-7 -8,-13 1,-6 7,-9 13,-8l-5 21zm-41 -21l43 0 0 21 -43 0 -2 -21 2 0zm0 21c-6,0 -10,-5 -10,-11 0,-5 4,-10 10,-10l0 21zm-77 -5l75 -16 5 21 -75 16 -8 -20 3 -1zm5 21c-6,1 -12,-2 -13,-8 -1,-6 2,-12 8,-13l5 21zm-51 7l43 -27 11 19 -43 26 -16 -11 5 -7zm11 18c-5,4 -12,2 -15,-3 -3,-5 -1,-12 4,-15l11 18zm-27 32l11 -43 21 5 -11 43 -21 -3 0 -2zm21 5c-1,5 -7,9 -13,8 -6,-2 -9,-8 -8,-13l21 5zm-21 29l0 -32 21 0 0 32 -21 0zm21 0c0,6 -4,11 -10,11 -6,0 -11,-5 -11,-11l21 0z"/>
  </g>
  <g>
   <path class="fil0" d="M3327 4297c6,0 11,5 11,10 0,6 -5,11 -11,11l0 -21zm-16 0l16 0 0 21 -16 0 -6 -1 6 -20zm0 21c-6,0 -11,-5 -11,-11 0,-5 5,-10 11,-10l0 21zm-21 -36l26 16 -11 19 -26 -16 -2 -2 13 -17zm-11 19c-5,-3 -7,-10 -4,-15 3,-5 10,-7 15,-4l-11 19zm-3 -33l16 16 -15 15 -17 -16 -1 -2 17 -13zm-16 15c-4,-4 -4,-11 0,-15 5,-4 11,-4 16,0l-16 15zm1 -40l16 27 -18 11 -16 -27 -2 -5 20 -6zm-18 11c-3,-5 -2,-12 4,-15 5,-3 11,-1 14,4l-18 11zm20 -64l0 59 -22 0 0 -59 2 -6 20 6zm-22 0c0,-6 5,-11 11,-11 6,0 11,5 11,11l-22 0zm36 -22l-16 27 -18 -11 16 -27 1 -2 17 13zm-18 -11c3,-5 10,-6 15,-3 5,3 6,9 3,14l-18 -11zm33 -3l-16 16 -16 -15 17 -16 2 -2 13 17zm-15 -15c4,-4 11,-4 15,0 4,4 4,11 0,15l-15 -15zm39 1l-26 16 -11 -19 26 -16 6 -1 5 20zm-11 -19c5,-3 12,-1 15,4 3,5 1,12 -4,15l-11 -19zm33 20l-27 0 0 -21 27 0 4 1 -4 20zm0 -21c6,0 10,5 10,11 0,6 -4,10 -10,10l0 -21zm27 36l-32 -16 9 -19 33 16 1 1 -11 18zm10 -19c5,3 7,9 4,14 -2,6 -9,8 -14,5l10 -19zm32 46l-43 -27 12 -18 42 26 2 2 -13 17zm11 -19c5,3 7,10 4,15 -3,5 -10,7 -15,4l11 -19zm132 162l-145 -145 15 -15 145 145 3 7 -18 8zm15 -15c4,4 4,11 0,15 -4,4 -11,4 -15,0l15 -15zm3 -191l0 198 -21 0 0 -198 21 0zm-21 0c0,-6 4,-11 10,-11 6,0 11,5 11,11l-21 0z"/>
  </g>
  <g>
   <path class="fil0" d="M3289 3832c5,-3 12,-1 15,4 3,5 1,12 -4,15l-11 -19zm-26 16l26 -16 11 19 -26 16 -16 -13 5 -6zm11 19c-5,3 -12,1 -15,-4 -3,-5 -1,-12 4,-15l11 19zm-32 30l16 -43 20 7 -16 43 -21 -4 1 -3zm20 7c-2,6 -8,8 -14,6 -5,-2 -8,-8 -6,-13l20 7zm-21 23l0 -27 22 0 0 27 -21 3 -1 -3zm22 0c0,6 -5,11 -11,11 -6,0 -11,-5 -11,-11l22 0zm-5 52l-16 -49 20 -6 16 48 -16 12 -4 -5zm20 -7c2,5 -1,12 -7,13 -5,2 -11,-1 -13,-6l20 -7zm27 39l-43 -27 12 -18 43 27 -8 20 -4 -2zm12 -18c5,3 6,10 3,15 -3,5 -10,6 -15,3l12 -18zm67 36l-75 -16 4 -21 75 16 -2 21 -2 0zm4 -21c6,1 10,7 8,12 -1,6 -7,10 -12,9l4 -21zm68 21l-70 0 0 -22 70 0 2 21 -2 1zm0 -22c5,0 10,5 10,11 0,6 -5,11 -10,11l0 -22zm61 5l-59 16 -5 -20 59 -16 10 18 -5 2zm-5 -20c5,-2 11,2 13,7 1,6 -2,12 -8,13l-5 -20zm37 -9l-27 27 -15 -16 27 -26 17 11 -2 4zm-15 -15c4,-4 11,-4 15,0 4,4 4,11 0,15l-15 -15zm34 -38l-17 49 -20 -7 16 -48 21 3 0 3zm-21 -6c2,-6 8,-9 14,-7 5,2 8,8 7,13l-21 -6zm21 -8l0 11 -21 0 0 -11 20 -3 1 3zm-21 0c0,-6 4,-10 10,-10 6,0 11,4 11,10l-21 0zm4 -46l16 43 -20 7 -16 -43 19 -10 1 3zm-20 7c-2,-5 1,-11 7,-14 5,-2 11,1 13,7l-20 7zm-8 -43l27 33 -17 13 -27 -32 11 -17 6 3zm-17 14c-3,-4 -3,-11 2,-15 4,-4 11,-3 15,1l-17 14zm-32 -28l43 11 -5 21 -43 -11 3 -21 2 0zm-5 21c-6,-1 -9,-7 -8,-13 2,-6 8,-9 13,-8l-5 21zm-13 -21l16 0 0 21 -16 0 -3 -21 3 0zm0 21c-6,0 -11,-4 -11,-10 0,-6 5,-11 11,-11l0 21zm-46 -10l43 -11 5 21 -43 11 -11 -18 6 -3zm5 21c-5,1 -11,-2 -13,-8 -1,-6 2,-12 8,-13l5 21zm-37 15l26 -33 17 14 -27 32 -18 -10 2 -3zm16 13c-4,5 -10,5 -15,2 -4,-4 -5,-11 -1,-15l16 13zm-34 33l16 -43 20 7 -16 43 -21 -4 1 -3zm20 7c-2,6 -8,8 -14,6 -5,-2 -8,-8 -6,-13l20 7zm-21 7l0 -11 22 0 0 11 -21 3 -1 -3zm22 0c0,6 -5,11 -11,11 -6,0 -11,-5 -11,-11l22 0zm-5 52l-16 -49 20 -6 16 48 -18 11 -2 -4zm20 -7c2,5 -1,12 -7,13 -5,2 -11,-1 -13,-6l20 -7zm9 38l-27 -27 15 -15 27 26 -11 18 -4 -2zm15 -16c4,5 4,11 0,16 -4,4 -11,4 -15,0l15 -16zm32 34l-43 -16 7 -20 43 16 -7 20zm7 -20c6,2 9,8 7,14 -2,5 -9,8 -14,6l7 -20z"/>
  </g>
  <g>
   <path class="fil0" d="M3423 12689c2,5 -1,11 -7,13 -5,2 -12,-1 -13,-7l20 -6zm-11 -33l11 33 -20 6 -11 -32 17 -11 3 4zm-20 7c-2,-5 1,-11 7,-13 5,-2 11,1 13,6l-20 7zm-31 -54l48 43 -14 16 -48 -43 7 -19 7 3zm-14 16c-5,-4 -5,-11 -1,-15 4,-5 11,-5 15,-1l-14 16zm312 3l-305 0 0 -22 305 0 0 22zm0 -22c6,0 11,5 11,11 0,6 -5,11 -11,11l0 -22z"/>
  </g>
  <g>
   <path class="fil0" d="M3453 12268c-6,-1 -9,-7 -8,-13 2,-5 7,-9 13,-7l-5 20zm43 11l-43 -11 5 -20 43 10 5 3 -10 18zm5 -21c6,2 9,8 8,13 -2,6 -7,9 -13,8l5 -21zm22 50l-32 -32 15 -15 32 32 3 4 -18 11zm15 -15c4,4 4,11 0,15 -4,5 -11,5 -15,0l15 -15zm-1 54l-16 -42 20 -8 16 43 0 4 -20 3zm20 -7c2,5 -1,12 -7,14 -5,2 -11,-1 -13,-7l20 -7zm-21 20l0 -16 21 0 0 16 0 4 -21 -4zm21 0c0,6 -4,11 -10,11 -6,0 -11,-5 -11,-11l21 0zm-36 39l16 -43 20 8 -16 42 -4 5 -16 -12zm20 7c-2,6 -9,9 -14,7 -6,-2 -8,-9 -6,-14l20 7zm-49 15l32 -27 13 17 -32 27 -3 1 -10 -18zm13 17c-4,3 -11,3 -15,-2 -4,-4 -3,-11 2,-15l13 17zm-53 -3l43 -16 7 20 -43 16 -3 1 -4 -21zm7 20c-5,3 -11,0 -13,-6 -2,-5 0,-12 6,-14l7 20zm-14 -20l11 0 0 21 -11 0 -4 -1 4 -20zm0 21c-6,0 -11,-5 -11,-11 0,-5 5,-10 11,-10l0 21zm-39 -37l43 16 -8 20 -43 -16 -3 -1 11 -19zm-8 20c-5,-2 -8,-8 -6,-13 2,-6 8,-9 14,-7l-8 20zm-21 -45l32 27 -14 17 -32 -27 -3 -5 17 -12zm-14 17c-5,-4 -5,-11 -1,-15 3,-5 10,-5 15,-2l-14 17zm1 -55l16 43 -20 7 -16 -42 -1 -4 21 -4zm-20 8c-2,-6 1,-12 6,-14 6,-2 12,1 14,6l-20 8zm21 -20l0 16 -22 0 0 -16 1 -4 21 4zm-22 0c0,-6 5,-11 11,-11 6,0 11,5 11,11l-22 0zm37 -39l-16 42 -20 -7 16 -43 2 -4 18 12zm-20 -8c2,-5 8,-8 14,-6 5,2 8,8 6,14l-20 -8zm50 -21l-33 32 -15 -15 32 -32 6 -3 10 18zm-16 -15c5,-4 11,-4 16,0 4,4 4,11 0,15l-16 -15zm64 8l-54 10 -4 -21 54 -11 2 0 2 22zm-4 -22c5,-1 11,3 12,9 1,6 -3,11 -8,13l-4 -22zm77 22l-75 0 0 -22 75 0 1 0 -1 22zm0 -22c6,0 10,5 10,11 0,6 -4,11 -10,11l0 -22zm68 32l-70 -10 3 -22 70 11 5 2 -8 19zm3 -21c6,1 10,7 9,12 -1,6 -7,10 -12,9l3 -21zm35 51l-43 -32 13 -17 43 32 3 5 -16 12zm13 -17c4,4 5,11 2,15 -4,5 -11,6 -15,2l13 -17zm-1 55l-16 -42 20 -8 16 43 1 4 -21 3zm20 -7c2,5 -1,12 -6,14 -6,2 -12,-1 -14,-7l20 -7zm-21 31l0 -27 22 0 0 27 -1 3 -21 -3zm22 0c0,5 -5,10 -11,10 -6,0 -11,-5 -11,-10l22 0zm-37 39l16 -43 20 7 -16 43 -4 6 -16 -13zm20 7c-2,6 -8,8 -14,6 -5,-2 -8,-8 -6,-13l20 7zm-42 3l27 -16 11 19 -27 16 -11 -19zm11 19c-5,3 -12,1 -15,-4 -3,-5 -1,-12 4,-15l11 19z"/>
  </g>
  <g>
   <path class="fil0" d="M2391 523c6,0 11,4 11,10 0,6 -5,11 -11,11l0 -21zm-603 624l-21 0 0 0 1 -32 2 -32 4 -31 5 -31 7 -30 9 -30 10 -29 11 -28 12 -28 14 -27 15 -26 16 -25 18 -25 18 -23 20 -23 21 -22 21 -20 23 -20 23 -18 25 -18 25 -16 26 -15 27 -14 28 -12 28 -12 29 -9 30 -9 30 -7 31 -5 31 -4 32 -3 32 0 0 21 -31 1 -31 2 -30 4 -30 5 -29 7 -28 8 -28 10 -28 10 -26 12 -26 14 -26 14 -24 16 -24 17 -22 18 -22 19 -21 20 -20 20 -19 22 -18 23 -17 24 -16 24 -14 25 -13 26 -12 27 -11 27 -10 28 -8 29 -7 29 -5 30 -4 30 -2 31 -1 31 0 0zm0 0c0,6 -5,10 -11,10 -5,0 -10,-4 -10,-10l21 0zm603 602l0 22 0 0 -32 -1 -32 -2 -31 -4 -31 -6 -30 -7 -30 -8 -29 -10 -28 -11 -28 -13 -27 -14 -26 -15 -25 -16 -25 -17 -23 -19 -23 -19 -21 -21 -21 -22 -20 -22 -18 -24 -18 -24 -16 -26 -15 -26 -14 -27 -12 -27 -11 -29 -10 -29 -9 -29 -7 -31 -5 -30 -4 -32 -2 -31 -1 -32 21 0 1 31 2 30 4 30 5 30 7 29 8 29 10 28 11 27 12 27 13 26 14 25 16 25 17 23 18 23 19 22 20 21 21 20 22 19 22 18 24 16 24 16 26 15 26 13 26 12 28 11 28 9 28 8 29 7 30 5 30 4 31 3 31 0 0 0zm0 0c6,0 11,5 11,11 0,6 -5,11 -11,11l0 -22zm603 -602l21 0 0 0 -1 32 -2 31 -4 32 -6 30 -7 31 -8 29 -10 29 -11 29 -12 27 -14 27 -15 26 -17 26 -17 24 -18 24 -20 22 -21 22 -21 21 -23 19 -24 19 -24 17 -25 16 -27 15 -27 14 -27 13 -29 11 -28 10 -30 8 -30 7 -31 6 -31 4 -32 2 -32 1 0 -22 31 0 31 -3 30 -4 29 -5 30 -7 28 -8 28 -9 27 -11 27 -12 26 -13 25 -15 25 -16 24 -16 22 -18 22 -19 21 -20 20 -21 19 -22 18 -23 17 -23 15 -25 15 -25 13 -26 12 -27 11 -27 10 -28 8 -29 6 -29 6 -30 3 -30 3 -30 1 -31 0 0zm0 0c0,-6 4,-11 10,-11 6,0 11,5 11,11l-21 0zm-603 -603l0 -21 32 0 32 3 31 4 31 5 30 7 30 9 28 9 29 12 27 12 27 14 27 15 25 16 24 18 24 18 23 20 21 20 21 22 20 23 18 23 17 25 17 25 15 26 14 27 12 28 11 28 10 29 8 30 7 30 6 31 4 31 2 32 1 32 -21 0 -1 -31 -3 -31 -3 -30 -6 -30 -6 -29 -8 -29 -10 -28 -11 -27 -12 -27 -13 -26 -15 -25 -15 -24 -17 -24 -18 -23 -19 -22 -20 -20 -21 -20 -22 -19 -22 -18 -24 -17 -25 -16 -25 -14 -26 -14 -27 -12 -27 -10 -28 -10 -28 -8 -30 -7 -29 -5 -30 -4 -31 -2 -31 -1zm0 0c-6,0 -11,-5 -11,-11 0,-6 5,-10 11,-10l0 21z"/>
  </g>
 </g>
</svg>
