<?xml version="1.0" encoding="UTF-8" standalone="no"?>
<svg
   width="100"
   height="100"
   preserveAspectRatio="xMidYMid"
   version="1.0"
   id="svg1"
   sodipodi:docname="silverstar-logo.svg"
   inkscape:version="1.4 (86a8ad7, 2024-10-11)"
   inkscape:export-filename="logo-square.svg"
   inkscape:export-xdpi="96"
   inkscape:export-ydpi="96"
   xmlns:inkscape="http://www.inkscape.org/namespaces/inkscape"
   xmlns:sodipodi="http://sodipodi.sourceforge.net/DTD/sodipodi-0.dtd"
   xmlns="http://www.w3.org/2000/svg"
   xmlns:svg="http://www.w3.org/2000/svg">
  <defs
     id="defs1">
    <linearGradient
       id="swatch6">
      <stop
         style="stop-color:#616161;stop-opacity:1;"
         offset="0"
         id="stop6" />
      <stop
         style="stop-color:#e6e7e8;stop-opacity:1;"
         offset="1"
         id="stop7" />
    </linearGradient>
  </defs>
  <sodipodi:namedview
     id="namedview1"
     pagecolor="#ffffff"
     bordercolor="#000000"
     borderopacity="0.25"
     inkscape:showpageshadow="2"
     inkscape:pageopacity="0.0"
     inkscape:pagecheckerboard="false"
     inkscape:deskcolor="#d1d1d1"
     showgrid="false"
     inkscape:zoom="3.9466667"
     inkscape:cx="16.596284"
     inkscape:cy="42.06081"
     inkscape:window-width="1440"
     inkscape:window-height="830"
     inkscape:window-x="-6"
     inkscape:window-y="-6"
     inkscape:window-maximized="1"
     inkscape:current-layer="svg1"
     labelstyle="default" />
  <path
     d="M 46.37593,0.12303945 C 37.00934,0.77336945 27.5427,4.3126274 20.06443,9.9529374 4.1199722,21.946417 -3.1707178,41.918867 1.2937322,61.328527 c 0.52523,2.26363 1.76327,6.07804 2.62615,8.11655 5.15225,12.05601 14.5688578,21.4732 26.6491378,26.63828 2.01338,0.86292 5.84006,2.10104 8.11605,2.6263 8.99143,2.076043 18.32051,1.638323 27.0118,-1.25063 7.64084,-2.53876 13.9561,-6.4407 19.64609,-12.11854 5.68999,-5.70283 9.57918,-12.00598 12.1178,-19.64728 3.76414,-11.30563 3.32645,-23.66179 -1.20054,-34.74231 -0.87537,-2.11355 -2.73869,-5.71535 -4.00174,-7.69133 C 86.78109,14.630267 78.92766,7.9769474 69.43601,3.9124274 67.42263,3.0494974 63.59596,1.8113774 61.31996,1.2861174 56.50536,0.17306945 51.3281,-0.22713055 46.37593,0.12303945 Z m 7.21565,3.36417795 c 6.20271,0.50025 12.1178,2.17608 17.67023,5.0025 4.46445,2.2636196 6.30275,4.0269996 5.87756,5.6277896 -0.33764,1.25062 -1.90083,2.17609 -5.0397,2.989 -4.42693,1.15056 -9.76677,1.6258 -19.47101,1.72585 l -6.94053,0.0625 2.50109,0.42521 c 8.6788,1.45072 14.80647,3.18908 18.12042,5.14006 1.21303,0.70034 2.66367,2.05103 3.05134,2.8014 0.15006,0.30014 0.33764,0.85042 0.41268,1.2006 0.43769,1.87593 -0.95042,4.51474 -3.83918,7.27862 -5.16476,4.95247 -14.50634,10.96797 -38.71692,24.89991 -1.00044,0.57528 -1.81329,1.06302 -1.80079,1.08804 0.025,0.0125 1.27556,-0.42522 2.77622,-0.988 7.67835,-2.83891 13.00568,-4.72735 18.87074,-6.65331 21.38435,-7.05352 33.91482,-8.60429 38.2167,-4.73986 0.40018,0.36268 0.76283,0.86292 1.06297,1.46322 0.40017,0.81291 0.4627,1.07554 0.52523,2.10106 0.15006,2.96397 -1.42563,7.00349 -4.68955,12.03099 l -0.81286,1.25063 3.60158,-3.56429 c 5.62745,-5.56527 8.16606,-7.50373 9.81679,-7.50373 0.7128,0 1.163,0.42521 1.35058,1.27564 0.35015,1.56328 -1.50065,8.37917 -3.48902,12.81887 -2.33852,5.24011 -5.47739,9.77988 -9.6167,13.93195 -7.62834,7.61629 -17.20752,12.20609 -28.08728,13.4442 -2.23847,0.25011 -7.04057,0.28765 -9.19151,0.0625 -7.12812,-0.72536 -13.76852,-2.90145 -19.75864,-6.47823 -6.54035,-3.90194 -12.1428,-9.50474 -16.0194978,-16.00798 -3.60157,-6.06552 -5.74,-12.51873 -6.50284,-19.67229 -0.2251,-2.12607 -0.20008,-7.05351 0.0625,-9.31715 1.8383,-16.10802 11.3174478,-29.75232 25.6612078,-36.9308896 5.08973,-2.55127 11.22991,-4.26463 16.99493,-4.76488 1.8258,-0.15008 5.56493,-0.16258 7.40323,0 z"
     id="svg_2"
     style="mix-blend-mode:color;fill:#a2aaad;fill-opacity:1;fill-rule:nonzero;stroke:none;stroke-width:0.4076;stroke-dasharray:none"
     inkscape:export-filename="favicon-32x32.png"
     inkscape:export-xdpi="30.719999"
     inkscape:export-ydpi="30.719999" />
</svg>
