<?xml version="1.0" encoding="UTF-8" standalone="no"?>
<svg
   width="80.517151mm"
   height="29.515726mm"
   viewBox="566.3281 1648.3672 1141.1885 418.33354"
   version="1.0"
   id="svg27"
   xml:space="preserve"
   sodipodi:docname="DB26-female.svg"
   inkscape:version="1.4 (86a8ad7, 2024-10-11)"
   xmlns:inkscape="http://www.inkscape.org/namespaces/inkscape"
   xmlns:sodipodi="http://sodipodi.sourceforge.net/DTD/sodipodi-0.dtd"
   xmlns="http://www.w3.org/2000/svg"
   xmlns:svg="http://www.w3.org/2000/svg"><sodipodi:namedview
     id="namedview1"
     pagecolor="#ffffff"
     bordercolor="#000000"
     borderopacity="0.25"
     inkscape:showpageshadow="2"
     inkscape:pageopacity="0.0"
     inkscape:pagecheckerboard="0"
     inkscape:deskcolor="#d1d1d1"
     inkscape:document-units="mm"
     inkscape:zoom="2.1425042"
     inkscape:cx="142.35678"
     inkscape:cy="37.339483"
     inkscape:window-width="1440"
     inkscape:window-height="830"
     inkscape:window-x="-6"
     inkscape:window-y="-6"
     inkscape:window-maximized="1"
     inkscape:current-layer="g27" /><defs
     id="defs27"><rect
       x="538.0542"
       y="309.02002"
       width="18.322737"
       height="16.208574"
       id="rect30" /></defs><desc
     id="desc1">
  Exported by the ArtWorks SVGExport module.
  Source document: SCSI::Develop.$.Develop.Web.!WebXpress.^.Input.cm.Pages.ref.conn.dsub.artwork.DE9_M
</desc><g
     transform="matrix(1,0,0,-1,-2351.376,3173.7222)"
     stroke-miterlimit="16"
     fill-rule="evenodd"
     clip-rule="evenodd"
     stroke-linejoin="bevel"
     stroke-linecap="butt"
     id="g27"><ellipse
       cx="3744.0459"
       cy="1316.1884"
       stroke="#000000"
       stroke-width="11.2465"
       stroke-linejoin="miter"
       fill="#ffff00"
       id="circle10-7-0-9-1-0-8-4-2-20"
       style="fill:#e8590c;fill-opacity:1;stroke:#e8590c;stroke-width:7.50001;stroke-dasharray:none;stroke-opacity:1"
       rx="41.941048"
       ry="41.94104" /><text
       xml:space="preserve"
       style="font-style:normal;font-variant:normal;font-weight:bold;font-stretch:normal;font-size:49.3397px;line-height:0px;font-family:Consolas;-inkscape-font-specification:'Consolas, Bold';font-variant-ligatures:normal;font-variant-caps:normal;font-variant-numeric:normal;font-variant-east-asian:normal;text-align:start;writing-mode:lr-tb;direction:ltr;text-anchor:start;fill:#000000;fill-opacity:1;fill-rule:evenodd;stroke:#e580ff;stroke-width:9.86797;stroke-linecap:square;stroke-dashoffset:1.2;stroke-opacity:1;paint-order:markers stroke fill"
       x="3716.8584"
       y="-1300.1794"
       id="text28-03-4-6-6-9-1-6-0"
       transform="scale(1,-1)"><tspan
         style="font-style:normal;font-variant:normal;font-weight:bold;font-stretch:normal;font-size:49.3397px;font-family:Consolas;-inkscape-font-specification:'Consolas, Bold';font-variant-ligatures:normal;font-variant-caps:normal;font-variant-numeric:normal;font-variant-east-asian:normal;fill:#000000;fill-opacity:1;stroke:none;stroke-width:9.86797"
         x="3716.8584"
         y="-1300.1794"
         id="tspan31-1-8-4-5-3">12</tspan></text><ellipse
       cx="3630.3372"
       cy="1316.1884"
       stroke="#000000"
       stroke-width="11.2465"
       stroke-linejoin="miter"
       fill="#ffff00"
       id="circle10-7-0-9-1-0-8-4-2-20-5"
       style="fill:#e8590c;fill-opacity:1;stroke:#e8590c;stroke-width:7.50001;stroke-dasharray:none;stroke-opacity:1"
       rx="41.941048"
       ry="41.94104" /><text
       xml:space="preserve"
       style="font-style:normal;font-variant:normal;font-weight:bold;font-stretch:normal;font-size:49.3397px;line-height:0px;font-family:Consolas;-inkscape-font-specification:'Consolas, Bold';font-variant-ligatures:normal;font-variant-caps:normal;font-variant-numeric:normal;font-variant-east-asian:normal;text-align:start;writing-mode:lr-tb;direction:ltr;text-anchor:start;fill:#000000;fill-opacity:1;fill-rule:evenodd;stroke:#e580ff;stroke-width:9.86797;stroke-linecap:square;stroke-dashoffset:1.2;stroke-opacity:1;paint-order:markers stroke fill"
       x="3603.1497"
       y="-1300.1794"
       id="text28-03-4-6-6-9-1-6-0-2"
       transform="scale(1,-1)"><tspan
         style="font-style:normal;font-variant:normal;font-weight:bold;font-stretch:normal;font-size:49.3397px;font-family:Consolas;-inkscape-font-specification:'Consolas, Bold';font-variant-ligatures:normal;font-variant-caps:normal;font-variant-numeric:normal;font-variant-east-asian:normal;fill:#000000;fill-opacity:1;stroke:none;stroke-width:9.86797"
         x="3603.1497"
         y="-1300.1794"
         id="tspan31-1-8-4-5-3-5">13</tspan></text><ellipse
       cx="3516.6282"
       cy="1316.1884"
       stroke="#000000"
       stroke-width="11.2465"
       stroke-linejoin="miter"
       fill="#ffff00"
       id="circle10-7-0-9-1-0-8-4-2-20-8"
       style="fill:#e8590c;fill-opacity:1;stroke:#e8590c;stroke-width:7.50001;stroke-dasharray:none;stroke-opacity:1"
       rx="41.941048"
       ry="41.94104" /><text
       xml:space="preserve"
       style="font-style:normal;font-variant:normal;font-weight:bold;font-stretch:normal;font-size:49.3397px;line-height:0px;font-family:Consolas;-inkscape-font-specification:'Consolas, Bold';font-variant-ligatures:normal;font-variant-caps:normal;font-variant-numeric:normal;font-variant-east-asian:normal;text-align:start;writing-mode:lr-tb;direction:ltr;text-anchor:start;fill:#000000;fill-opacity:1;fill-rule:evenodd;stroke:#e580ff;stroke-width:9.86797;stroke-linecap:square;stroke-dashoffset:1.2;stroke-opacity:1;paint-order:markers stroke fill"
       x="3489.4407"
       y="-1300.1794"
       id="text28-03-4-6-6-9-1-6-0-6"
       transform="scale(1,-1)"><tspan
         style="font-style:normal;font-variant:normal;font-weight:bold;font-stretch:normal;font-size:49.3397px;font-family:Consolas;-inkscape-font-specification:'Consolas, Bold';font-variant-ligatures:normal;font-variant-caps:normal;font-variant-numeric:normal;font-variant-east-asian:normal;fill:#000000;fill-opacity:1;stroke:none;stroke-width:9.86797"
         x="3489.4407"
         y="-1300.1794"
         id="tspan31-1-8-4-5-3-7">14</tspan></text><ellipse
       cx="3402.9194"
       cy="1316.1884"
       stroke="#000000"
       stroke-width="11.2465"
       stroke-linejoin="miter"
       fill="#ffff00"
       id="circle10-7-0-9-1-0-8-4-2-20-7"
       style="fill:#e8590c;fill-opacity:1;stroke:#e8590c;stroke-width:7.50001;stroke-dasharray:none;stroke-opacity:1"
       rx="41.941048"
       ry="41.94104" /><text
       xml:space="preserve"
       style="font-style:normal;font-variant:normal;font-weight:bold;font-stretch:normal;font-size:49.3397px;line-height:0px;font-family:Consolas;-inkscape-font-specification:'Consolas, Bold';font-variant-ligatures:normal;font-variant-caps:normal;font-variant-numeric:normal;font-variant-east-asian:normal;text-align:start;writing-mode:lr-tb;direction:ltr;text-anchor:start;fill:#000000;fill-opacity:1;fill-rule:evenodd;stroke:#e580ff;stroke-width:9.86797;stroke-linecap:square;stroke-dashoffset:1.2;stroke-opacity:1;paint-order:markers stroke fill"
       x="3375.7319"
       y="-1300.1794"
       id="text28-03-4-6-6-9-1-6-0-22"
       transform="scale(1,-1)"><tspan
         style="font-style:normal;font-variant:normal;font-weight:bold;font-stretch:normal;font-size:49.3397px;font-family:Consolas;-inkscape-font-specification:'Consolas, Bold';font-variant-ligatures:normal;font-variant-caps:normal;font-variant-numeric:normal;font-variant-east-asian:normal;fill:#000000;fill-opacity:1;stroke:none;stroke-width:9.86797"
         x="3375.7319"
         y="-1300.1794"
         id="tspan31-1-8-4-5-3-9">15</tspan></text><ellipse
       cx="3289.2104"
       cy="1316.1884"
       stroke="#000000"
       stroke-width="11.2465"
       stroke-linejoin="miter"
       fill="#ffff00"
       id="circle10-7-0-9-1-0-8-4-2-20-4"
       style="fill:#e8590c;fill-opacity:1;stroke:#e8590c;stroke-width:7.50001;stroke-dasharray:none;stroke-opacity:1"
       rx="41.941048"
       ry="41.94104" /><text
       xml:space="preserve"
       style="fill:#000000;font-style:normal;font-variant:normal;font-weight:bold;font-stretch:normal;font-size:49.3397px;line-height:0px;font-family:Consolas;-inkscape-font-specification:'Consolas, Bold';font-variant-ligatures:normal;font-variant-caps:normal;font-variant-numeric:normal;font-variant-east-asian:normal;text-align:start;writing-mode:lr-tb;direction:ltr;text-anchor:start;fill-opacity:1;fill-rule:evenodd;stroke:#e580ff;stroke-width:9.86797;stroke-linecap:square;stroke-dashoffset:1.2;stroke-opacity:1;paint-order:markers stroke fill"
       x="2881.7085"
       y="-1184.4479"
       id="text28-03-4-6-6-9-1-6-0-1"
       transform="matrix(0.99999999,0,0,-0.99999999,380.31453,115.7315)"><tspan
         style="font-style:normal;font-variant:normal;font-weight:bold;font-stretch:normal;font-size:49.3397px;font-family:Consolas;-inkscape-font-specification:'Consolas, Bold';font-variant-ligatures:normal;font-variant-caps:normal;font-variant-numeric:normal;font-variant-east-asian:normal;fill:#000000;fill-opacity:1;stroke:none;stroke-width:9.86797"
         x="2881.7085"
         y="-1184.4479"
         id="tspan31-1-8-4-5-3-96">16</tspan></text><ellipse
       cx="3175.5017"
       cy="1316.1884"
       stroke="#000000"
       stroke-width="11.2465"
       stroke-linejoin="miter"
       fill="#ffff00"
       id="circle10-7-0-9-1-0-8-4-2-20-9"
       style="fill:#e8590c;fill-opacity:1;stroke:#e8590c;stroke-width:7.50001;stroke-dasharray:none;stroke-opacity:1"
       rx="41.941048"
       ry="41.94104" /><text
       xml:space="preserve"
       style="font-style:normal;font-variant:normal;font-weight:bold;font-stretch:normal;font-size:49.3397px;line-height:0px;font-family:Consolas;-inkscape-font-specification:'Consolas, Bold';font-variant-ligatures:normal;font-variant-caps:normal;font-variant-numeric:normal;font-variant-east-asian:normal;text-align:start;writing-mode:lr-tb;direction:ltr;text-anchor:start;fill:#000000;fill-opacity:1;fill-rule:evenodd;stroke:#e580ff;stroke-width:9.86797;stroke-linecap:square;stroke-dashoffset:1.2;stroke-opacity:1;paint-order:markers stroke fill"
       x="3148.3142"
       y="-1300.1794"
       id="text28-03-4-6-6-9-1-6-0-8"
       transform="scale(1,-1)"><tspan
         style="font-style:normal;font-variant:normal;font-weight:bold;font-stretch:normal;font-size:49.3397px;font-family:Consolas;-inkscape-font-specification:'Consolas, Bold';font-variant-ligatures:normal;font-variant-caps:normal;font-variant-numeric:normal;font-variant-east-asian:normal;fill:#000000;fill-opacity:1;stroke:none;stroke-width:9.86797"
         x="3148.3142"
         y="-1300.1794"
         id="tspan31-1-8-4-5-3-2">17</tspan></text><ellipse
       cx="3061.7927"
       cy="1316.1884"
       stroke="#000000"
       stroke-width="11.2465"
       stroke-linejoin="miter"
       fill="#ffff00"
       id="circle10-7-0-9-1-0-8-4-2-20-55"
       style="fill:#e8590c;fill-opacity:1;stroke:#e8590c;stroke-width:7.50001;stroke-dasharray:none;stroke-opacity:1"
       rx="41.941048"
       ry="41.94104" /><text
       xml:space="preserve"
       style="font-style:normal;font-variant:normal;font-weight:bold;font-stretch:normal;font-size:49.3397px;line-height:0px;font-family:Consolas;-inkscape-font-specification:'Consolas, Bold';font-variant-ligatures:normal;font-variant-caps:normal;font-variant-numeric:normal;font-variant-east-asian:normal;text-align:start;writing-mode:lr-tb;direction:ltr;text-anchor:start;fill:#000000;fill-opacity:1;fill-rule:evenodd;stroke:#e580ff;stroke-width:9.86797;stroke-linecap:square;stroke-dashoffset:1.2;stroke-opacity:1;paint-order:markers stroke fill"
       x="3034.6052"
       y="-1300.1794"
       id="text28-03-4-6-6-9-1-6-0-4"
       transform="scale(1,-1)"><tspan
         style="font-style:normal;font-variant:normal;font-weight:bold;font-stretch:normal;font-size:49.3397px;font-family:Consolas;-inkscape-font-specification:'Consolas, Bold';font-variant-ligatures:normal;font-variant-caps:normal;font-variant-numeric:normal;font-variant-east-asian:normal;fill:#000000;fill-opacity:1;stroke:none;stroke-width:9.86797"
         x="3034.6052"
         y="-1300.1794"
         id="tspan31-1-8-4-5-3-91">18</tspan></text><ellipse
       cx="3857.7549"
       cy="1316.1882"
       stroke="#000000"
       stroke-width="11.2465"
       stroke-linejoin="miter"
       fill="#ffff00"
       id="circle10-7-0-9-1-0-8-4-2-91"
       style="fill:#e8590c;fill-opacity:1;stroke:#e8590c;stroke-width:7.50001;stroke-dasharray:none;stroke-opacity:1"
       rx="41.941048"
       ry="41.94104" /><text
       xml:space="preserve"
       style="font-style:normal;font-variant:normal;font-weight:bold;font-stretch:normal;font-size:49.3397px;line-height:0px;font-family:Consolas;-inkscape-font-specification:'Consolas, Bold';font-variant-ligatures:normal;font-variant-caps:normal;font-variant-numeric:normal;font-variant-east-asian:normal;text-align:start;writing-mode:lr-tb;direction:ltr;text-anchor:start;fill:#000000;fill-opacity:1;fill-rule:evenodd;stroke:#e580ff;stroke-width:9.86797;stroke-linecap:square;stroke-dashoffset:1.2;stroke-opacity:1;paint-order:markers stroke fill"
       x="3830.4951"
       y="-1300.348"
       id="text28-03-4-6-6-9-1-6-8"
       transform="scale(1,-1)"><tspan
         style="font-style:normal;font-variant:normal;font-weight:bold;font-stretch:normal;font-size:49.3397px;font-family:Consolas;-inkscape-font-specification:'Consolas, Bold';font-variant-ligatures:normal;font-variant-caps:normal;font-variant-numeric:normal;font-variant-east-asian:normal;fill:#000000;fill-opacity:1;stroke:none;stroke-width:9.86797"
         x="3830.4951"
         y="-1300.348"
         id="tspan31-1-8-4-5-19">11</tspan></text><ellipse
       cx="3971.4636"
       cy="1316.1884"
       stroke="#000000"
       stroke-width="11.2465"
       stroke-linejoin="miter"
       fill="#ffff00"
       id="circle10-7-0-9-1-0-8-4-2-5"
       style="fill:#e8590c;fill-opacity:1;stroke:#e8590c;stroke-width:7.50001;stroke-dasharray:none;stroke-opacity:1"
       rx="41.941048"
       ry="41.94104" /><text
       xml:space="preserve"
       style="font-style:normal;font-variant:normal;font-weight:bold;font-stretch:normal;font-size:49.3397px;line-height:0px;font-family:Consolas;-inkscape-font-specification:'Consolas, Bold';font-variant-ligatures:normal;font-variant-caps:normal;font-variant-numeric:normal;font-variant-east-asian:normal;text-align:start;writing-mode:lr-tb;direction:ltr;text-anchor:start;fill:#000000;fill-opacity:1;fill-rule:evenodd;stroke:#e580ff;stroke-width:9.86797;stroke-linecap:square;stroke-dashoffset:1.2;stroke-opacity:1;paint-order:markers stroke fill"
       x="3943.5896"
       y="-1300.4565"
       id="text28-03-4-6-6-9-1-6-3"
       transform="scale(1,-1)"><tspan
         style="font-style:normal;font-variant:normal;font-weight:bold;font-stretch:normal;font-size:49.3397px;font-family:Consolas;-inkscape-font-specification:'Consolas, Bold';font-variant-ligatures:normal;font-variant-caps:normal;font-variant-numeric:normal;font-variant-east-asian:normal;fill:#000000;fill-opacity:1;stroke:none;stroke-width:9.86797"
         x="3943.5896"
         y="-1300.4565"
         id="tspan31-1-8-4-5-2">10</tspan></text><ellipse
       cx="3005.1318"
       cy="1446.1763"
       stroke="#000000"
       stroke-width="11.2465"
       stroke-linejoin="miter"
       fill="#ffff00"
       id="circle10-7-0-81"
       style="fill:#e8590c;fill-opacity:1;stroke:#e8590c;stroke-width:7.50001;stroke-dasharray:none;stroke-opacity:1"
       rx="41.941048"
       ry="41.94104" /><text
       xml:space="preserve"
       style="font-style:normal;font-variant:normal;font-weight:bold;font-stretch:normal;font-size:49.3397px;line-height:0px;font-family:Consolas;-inkscape-font-specification:'Consolas, Bold';font-variant-ligatures:normal;font-variant-caps:normal;font-variant-numeric:normal;font-variant-east-asian:normal;text-align:start;writing-mode:lr-tb;direction:ltr;text-anchor:start;fill:#000000;fill-opacity:1;fill-rule:evenodd;stroke:#e580ff;stroke-width:9.86797;stroke-linecap:square;stroke-dashoffset:1.2;stroke-opacity:1;paint-order:markers stroke fill"
       x="2991.4355"
       y="-1430.3359"
       id="text28-03-9"
       transform="scale(1,-1)"><tspan
         id="tspan28-80-8"
         style="font-style:normal;font-variant:normal;font-weight:bold;font-stretch:normal;font-size:49.3397px;font-family:Consolas;-inkscape-font-specification:'Consolas, Bold';font-variant-ligatures:normal;font-variant-caps:normal;font-variant-numeric:normal;font-variant-east-asian:normal;fill:#000000;fill-opacity:1;stroke:none;stroke-width:9.86797"
         x="2991.4355"
         y="-1430.3359">9</tspan></text><ellipse
       cx="3232.5496"
       cy="1446.1763"
       stroke="#000000"
       stroke-width="11.2465"
       stroke-linejoin="miter"
       fill="#ffff00"
       id="circle10-7-0-8-9"
       style="fill:#e8590c;fill-opacity:1;stroke:#e8590c;stroke-width:7.50001;stroke-dasharray:none;stroke-opacity:1"
       rx="41.941048"
       ry="41.94104" /><text
       xml:space="preserve"
       style="font-style:normal;font-variant:normal;font-weight:bold;font-stretch:normal;font-size:49.3397px;line-height:0px;font-family:Consolas;-inkscape-font-specification:'Consolas, Bold';font-variant-ligatures:normal;font-variant-caps:normal;font-variant-numeric:normal;font-variant-east-asian:normal;text-align:start;writing-mode:lr-tb;direction:ltr;text-anchor:start;fill:#000000;fill-opacity:1;fill-rule:evenodd;stroke:#e580ff;stroke-width:9.86797;stroke-linecap:square;stroke-dashoffset:1.2;stroke-opacity:1;paint-order:markers stroke fill"
       x="3218.3235"
       y="-1430.4805"
       id="text28-03-3-7"
       transform="scale(1,-1)"><tspan
         id="tspan28-80-5-2"
         style="font-style:normal;font-variant:normal;font-weight:bold;font-stretch:normal;font-size:49.3397px;font-family:Consolas;-inkscape-font-specification:'Consolas, Bold';font-variant-ligatures:normal;font-variant-caps:normal;font-variant-numeric:normal;font-variant-east-asian:normal;fill:#000000;fill-opacity:1;stroke:none;stroke-width:9.86797"
         x="3218.3235"
         y="-1430.4805">7</tspan></text><ellipse
       cx="3346.2585"
       cy="1446.1763"
       stroke="#000000"
       stroke-width="11.2465"
       stroke-linejoin="miter"
       fill="#ffff00"
       id="circle10-7-0-8-1-2"
       style="fill:#e8590c;fill-opacity:1;stroke:#e8590c;stroke-width:7.50001;stroke-dasharray:none;stroke-opacity:1"
       rx="41.941048"
       ry="41.94104" /><text
       xml:space="preserve"
       style="font-style:normal;font-variant:normal;font-weight:bold;font-stretch:normal;font-size:49.3397px;line-height:0px;font-family:Consolas;-inkscape-font-specification:'Consolas, Bold';font-variant-ligatures:normal;font-variant-caps:normal;font-variant-numeric:normal;font-variant-east-asian:normal;text-align:start;writing-mode:lr-tb;direction:ltr;text-anchor:start;fill:#000000;fill-opacity:1;fill-rule:evenodd;stroke:#e580ff;stroke-width:9.86797;stroke-linecap:square;stroke-dashoffset:1.2;stroke-opacity:1;paint-order:markers stroke fill"
       x="3332.9238"
       y="-1430.5287"
       id="text28-03-3-2-8"
       transform="scale(1,-1)"><tspan
         id="tspan28-80-5-0-2"
         style="font-style:normal;font-variant:normal;font-weight:bold;font-stretch:normal;font-size:49.3397px;font-family:Consolas;-inkscape-font-specification:'Consolas, Bold';font-variant-ligatures:normal;font-variant-caps:normal;font-variant-numeric:normal;font-variant-east-asian:normal;fill:#000000;fill-opacity:1;stroke:none;stroke-width:9.86797"
         x="3332.9238"
         y="-1430.5287">6</tspan></text><ellipse
       cx="3118.8408"
       cy="1446.1763"
       stroke="#000000"
       stroke-width="11.2465"
       stroke-linejoin="miter"
       fill="#ffff00"
       id="circle10-7-0-9-8"
       style="fill:#e8590c;fill-opacity:1;stroke:#e8590c;stroke-width:7.50001;stroke-dasharray:none;stroke-opacity:1"
       rx="41.941048"
       ry="41.94104" /><text
       xml:space="preserve"
       style="font-style:normal;font-variant:normal;font-weight:bold;font-stretch:normal;font-size:49.3397px;line-height:0px;font-family:Consolas;-inkscape-font-specification:'Consolas, Bold';font-variant-ligatures:normal;font-variant-caps:normal;font-variant-numeric:normal;font-variant-east-asian:normal;text-align:start;writing-mode:lr-tb;direction:ltr;text-anchor:start;fill:#000000;fill-opacity:1;fill-rule:evenodd;stroke:#e580ff;stroke-width:9.86797;stroke-linecap:square;stroke-dashoffset:1.2;stroke-opacity:1;paint-order:markers stroke fill"
       x="3105.0967"
       y="-1429.9987"
       id="text28-03-4-9"
       transform="scale(1,-1)"><tspan
         id="tspan28-80-7-0"
         style="font-style:normal;font-variant:normal;font-weight:bold;font-stretch:normal;font-size:49.3397px;font-family:Consolas;-inkscape-font-specification:'Consolas, Bold';font-variant-ligatures:normal;font-variant-caps:normal;font-variant-numeric:normal;font-variant-east-asian:normal;fill:#000000;fill-opacity:1;stroke:none;stroke-width:9.86797"
         x="3105.0967"
         y="-1429.9987">8</tspan></text><ellipse
       cx="3459.9673"
       cy="1446.1763"
       stroke="#000000"
       stroke-width="11.2465"
       stroke-linejoin="miter"
       fill="#ffff00"
       id="circle10-7-0-9-1-7"
       style="fill:#e8590c;fill-opacity:1;stroke:#e8590c;stroke-width:7.50001;stroke-dasharray:none;stroke-opacity:1"
       rx="41.941048"
       ry="41.94104" /><text
       xml:space="preserve"
       style="font-style:normal;font-variant:normal;font-weight:bold;font-stretch:normal;font-size:49.3397px;line-height:0px;font-family:Consolas;-inkscape-font-specification:'Consolas, Bold';font-variant-ligatures:normal;font-variant-caps:normal;font-variant-numeric:normal;font-variant-east-asian:normal;text-align:start;writing-mode:lr-tb;direction:ltr;text-anchor:start;fill:#000000;fill-opacity:1;fill-rule:evenodd;stroke:#e580ff;stroke-width:9.86797;stroke-linecap:square;stroke-dashoffset:1.2;stroke-opacity:1;paint-order:markers stroke fill"
       x="3445.6687"
       y="-1431.0105"
       id="text28-03-4-6-8"
       transform="scale(1,-1)"><tspan
         style="font-style:normal;font-variant:normal;font-weight:bold;font-stretch:normal;font-size:49.3397px;font-family:Consolas;-inkscape-font-specification:'Consolas, Bold';font-variant-ligatures:normal;font-variant-caps:normal;font-variant-numeric:normal;font-variant-east-asian:normal;fill:#000000;fill-opacity:1;stroke:none;stroke-width:9.86797"
         x="3445.6687"
         y="-1431.0105"
         id="tspan31-15">5</tspan></text><ellipse
       cx="3573.6763"
       cy="1446.1763"
       stroke="#000000"
       stroke-width="11.2465"
       stroke-linejoin="miter"
       fill="#ffff00"
       id="circle10-7-0-9-1-0-86"
       style="fill:#e8590c;fill-opacity:1;stroke:#e8590c;stroke-width:7.50001;stroke-dasharray:none;stroke-opacity:1"
       rx="41.941048"
       ry="41.94104" /><text
       xml:space="preserve"
       style="font-style:normal;font-variant:normal;font-weight:bold;font-stretch:normal;font-size:49.3397px;line-height:0px;font-family:Consolas;-inkscape-font-specification:'Consolas, Bold';font-variant-ligatures:normal;font-variant-caps:normal;font-variant-numeric:normal;font-variant-east-asian:normal;text-align:start;writing-mode:lr-tb;direction:ltr;text-anchor:start;fill:#000000;fill-opacity:1;fill-rule:evenodd;stroke:#e580ff;stroke-width:9.86797;stroke-linecap:square;stroke-dashoffset:1.2;stroke-opacity:1;paint-order:markers stroke fill"
       x="3559.7393"
       y="-1431.0826"
       id="text28-03-4-6-6-1"
       transform="scale(1,-1)"><tspan
         style="font-style:normal;font-variant:normal;font-weight:bold;font-stretch:normal;font-size:49.3397px;font-family:Consolas;-inkscape-font-specification:'Consolas, Bold';font-variant-ligatures:normal;font-variant-caps:normal;font-variant-numeric:normal;font-variant-east-asian:normal;fill:#000000;fill-opacity:1;stroke:none;stroke-width:9.86797"
         x="3559.7393"
         y="-1431.0826"
         id="tspan31-1-2">4</tspan></text><ellipse
       cx="3687.385"
       cy="1446.1763"
       stroke="#000000"
       stroke-width="11.2465"
       stroke-linejoin="miter"
       fill="#ffff00"
       id="circle10-7-0-9-1-0-8-42"
       style="fill:#e8590c;fill-opacity:1;stroke:#e8590c;stroke-width:7.50001;stroke-dasharray:none;stroke-opacity:1"
       rx="41.941048"
       ry="41.94104" /><text
       xml:space="preserve"
       style="font-style:normal;font-variant:normal;font-weight:bold;font-stretch:normal;font-size:49.3397px;line-height:0px;font-family:Consolas;-inkscape-font-specification:'Consolas, Bold';font-variant-ligatures:normal;font-variant-caps:normal;font-variant-numeric:normal;font-variant-east-asian:normal;text-align:start;writing-mode:lr-tb;direction:ltr;text-anchor:start;fill:#000000;fill-opacity:1;fill-rule:evenodd;stroke:#e580ff;stroke-width:9.86797;stroke-linecap:square;stroke-dashoffset:1.2;stroke-opacity:1;paint-order:markers stroke fill"
       x="3674.0986"
       y="-1430.5286"
       id="text28-03-4-6-6-9-5"
       transform="scale(1,-1)"><tspan
         style="font-style:normal;font-variant:normal;font-weight:bold;font-stretch:normal;font-size:49.3397px;font-family:Consolas;-inkscape-font-specification:'Consolas, Bold';font-variant-ligatures:normal;font-variant-caps:normal;font-variant-numeric:normal;font-variant-east-asian:normal;fill:#000000;fill-opacity:1;stroke:none;stroke-width:9.86797"
         x="3674.0986"
         y="-1430.5286"
         id="tspan31-1-8-86">3</tspan></text><ellipse
       cx="3914.8027"
       cy="1446.1763"
       stroke="#000000"
       stroke-width="11.2465"
       stroke-linejoin="miter"
       fill="#ffff00"
       id="circle10-7-0-9-1-0-8-4-2"
       style="fill:#e8590c;fill-opacity:1;stroke:#e8590c;stroke-width:7.50001;stroke-dasharray:none;stroke-opacity:1"
       rx="41.941048"
       ry="41.94104" /><text
       xml:space="preserve"
       style="font-style:normal;font-variant:normal;font-weight:bold;font-stretch:normal;font-size:49.3397px;line-height:0px;font-family:Consolas;-inkscape-font-specification:'Consolas, Bold';font-variant-ligatures:normal;font-variant-caps:normal;font-variant-numeric:normal;font-variant-east-asian:normal;text-align:start;writing-mode:lr-tb;direction:ltr;text-anchor:start;fill:#000000;fill-opacity:1;fill-rule:evenodd;stroke:#e580ff;stroke-width:9.86797;stroke-linecap:square;stroke-dashoffset:1.2;stroke-opacity:1;paint-order:markers stroke fill"
       x="3902.1426"
       y="-1429.9985"
       id="text28-03-4-6-6-9-1-6"
       transform="scale(1,-1)"><tspan
         style="font-style:normal;font-variant:normal;font-weight:bold;font-stretch:normal;font-size:49.3397px;font-family:Consolas;-inkscape-font-specification:'Consolas, Bold';font-variant-ligatures:normal;font-variant-caps:normal;font-variant-numeric:normal;font-variant-east-asian:normal;fill:#000000;fill-opacity:1;stroke:none;stroke-width:9.86797"
         x="3902.1426"
         y="-1429.9985"
         id="tspan31-1-8-4-5">1</tspan></text><ellipse
       cx="3801.094"
       cy="1446.1763"
       stroke="#000000"
       stroke-width="11.2465"
       stroke-linejoin="miter"
       fill="#ffff00"
       id="circle10-7-0-9-1-0-8-3-3"
       style="fill:#e8590c;fill-opacity:1;stroke:#e8590c;stroke-width:7.50001;stroke-dasharray:none;stroke-opacity:1"
       rx="41.941048"
       ry="41.94104" /><text
       xml:space="preserve"
       style="font-style:normal;font-variant:normal;font-weight:bold;font-stretch:normal;font-size:49.3397px;line-height:0px;font-family:Consolas;-inkscape-font-specification:'Consolas, Bold';font-variant-ligatures:normal;font-variant-caps:normal;font-variant-numeric:normal;font-variant-east-asian:normal;text-align:start;writing-mode:lr-tb;direction:ltr;text-anchor:start;fill:#000000;fill-opacity:1;fill-rule:evenodd;stroke:#e580ff;stroke-width:9.86797;stroke-linecap:square;stroke-dashoffset:1.2;stroke-opacity:1;paint-order:markers stroke fill"
       x="3787.6628"
       y="-1430.5526"
       id="text28-03-4-6-6-9-9-9"
       transform="scale(1,-1)"><tspan
         style="font-style:normal;font-variant:normal;font-weight:bold;font-stretch:normal;font-size:49.3397px;font-family:Consolas;-inkscape-font-specification:'Consolas, Bold';font-variant-ligatures:normal;font-variant-caps:normal;font-variant-numeric:normal;font-variant-east-asian:normal;fill:#000000;fill-opacity:1;stroke:none;stroke-width:9.86797"
         x="3787.6628"
         y="-1430.5526"
         id="tspan31-1-8-8-2">2</tspan></text><ellipse
       cx="3914.8027"
       cy="1186.2003"
       stroke="#000000"
       stroke-width="11.2465"
       stroke-linejoin="miter"
       fill="#ffff00"
       id="circle10-7-0-9-1-0-8-4-2-20-2"
       style="fill:#e8590c;fill-opacity:1;stroke:#e8590c;stroke-width:7.50001;stroke-dasharray:none;stroke-opacity:1"
       rx="41.941048"
       ry="41.94104" /><text
       xml:space="preserve"
       style="font-style:normal;font-variant:normal;font-weight:bold;font-stretch:normal;font-size:49.3397px;line-height:0px;font-family:Consolas;-inkscape-font-specification:'Consolas, Bold';font-variant-ligatures:normal;font-variant-caps:normal;font-variant-numeric:normal;font-variant-east-asian:normal;text-align:start;writing-mode:lr-tb;direction:ltr;text-anchor:start;fill:#000000;fill-opacity:1;fill-rule:evenodd;stroke:#e580ff;stroke-width:9.86797;stroke-linecap:square;stroke-dashoffset:1.2;stroke-opacity:1;paint-order:markers stroke fill"
       x="3887.6152"
       y="-1170.1914"
       id="text28-03-4-6-6-9-1-6-0-5"
       transform="scale(1,-1)"><tspan
         style="font-style:normal;font-variant:normal;font-weight:bold;font-stretch:normal;font-size:49.3397px;font-family:Consolas;-inkscape-font-specification:'Consolas, Bold';font-variant-ligatures:normal;font-variant-caps:normal;font-variant-numeric:normal;font-variant-east-asian:normal;fill:#000000;fill-opacity:1;stroke:none;stroke-width:9.86797"
         x="3887.6152"
         y="-1170.1914"
         id="tspan31-1-8-4-5-3-0">19</tspan></text><ellipse
       cx="3801.094"
       cy="1186.2003"
       stroke="#000000"
       stroke-width="11.2465"
       stroke-linejoin="miter"
       fill="#ffff00"
       id="circle10-7-0-9-1-0-8-4-2-20-2-3"
       style="fill:#e8590c;fill-opacity:1;stroke:#e8590c;stroke-width:7.50001;stroke-dasharray:none;stroke-opacity:1"
       rx="41.941048"
       ry="41.94104" /><text
       xml:space="preserve"
       style="font-style:normal;font-variant:normal;font-weight:bold;font-stretch:normal;font-size:49.3397px;line-height:0px;font-family:Consolas;-inkscape-font-specification:'Consolas, Bold';font-variant-ligatures:normal;font-variant-caps:normal;font-variant-numeric:normal;font-variant-east-asian:normal;text-align:start;writing-mode:lr-tb;direction:ltr;text-anchor:start;fill:#000000;fill-opacity:1;fill-rule:evenodd;stroke:#e580ff;stroke-width:9.86797;stroke-linecap:square;stroke-dashoffset:1.2;stroke-opacity:1;paint-order:markers stroke fill"
       x="3773.9065"
       y="-1170.1914"
       id="text28-03-4-6-6-9-1-6-0-5-9"
       transform="scale(1,-1)"><tspan
         style="font-style:normal;font-variant:normal;font-weight:bold;font-stretch:normal;font-size:49.3397px;font-family:Consolas;-inkscape-font-specification:'Consolas, Bold';font-variant-ligatures:normal;font-variant-caps:normal;font-variant-numeric:normal;font-variant-east-asian:normal;fill:#000000;fill-opacity:1;stroke:none;stroke-width:9.86797"
         x="3773.9065"
         y="-1170.1914"
         id="tspan31-1-8-4-5-3-0-3">20</tspan></text><ellipse
       cx="3687.385"
       cy="1186.2003"
       stroke="#000000"
       stroke-width="11.2465"
       stroke-linejoin="miter"
       fill="#ffff00"
       id="circle10-7-0-9-1-0-8-4-2-20-2-6"
       style="fill:#e8590c;fill-opacity:1;stroke:#e8590c;stroke-width:7.50001;stroke-dasharray:none;stroke-opacity:1"
       rx="41.941048"
       ry="41.94104" /><text
       xml:space="preserve"
       style="font-style:normal;font-variant:normal;font-weight:bold;font-stretch:normal;font-size:49.3397px;line-height:0px;font-family:Consolas;-inkscape-font-specification:'Consolas, Bold';font-variant-ligatures:normal;font-variant-caps:normal;font-variant-numeric:normal;font-variant-east-asian:normal;text-align:start;writing-mode:lr-tb;direction:ltr;text-anchor:start;fill:#000000;fill-opacity:1;fill-rule:evenodd;stroke:#e580ff;stroke-width:9.86797;stroke-linecap:square;stroke-dashoffset:1.2;stroke-opacity:1;paint-order:markers stroke fill"
       x="3660.1975"
       y="-1170.1914"
       id="text28-03-4-6-6-9-1-6-0-5-7"
       transform="scale(1,-1)"><tspan
         style="font-style:normal;font-variant:normal;font-weight:bold;font-stretch:normal;font-size:49.3397px;font-family:Consolas;-inkscape-font-specification:'Consolas, Bold';font-variant-ligatures:normal;font-variant-caps:normal;font-variant-numeric:normal;font-variant-east-asian:normal;fill:#000000;fill-opacity:1;stroke:none;stroke-width:9.86797"
         x="3660.1975"
         y="-1170.1914"
         id="tspan31-1-8-4-5-3-0-9">21</tspan></text><ellipse
       cx="3573.6763"
       cy="1186.2003"
       stroke="#000000"
       stroke-width="11.2465"
       stroke-linejoin="miter"
       fill="#ffff00"
       id="circle10-7-0-9-1-0-8-4-2-20-2-7"
       style="fill:#e8590c;fill-opacity:1;stroke:#e8590c;stroke-width:7.50001;stroke-dasharray:none;stroke-opacity:1"
       rx="41.941048"
       ry="41.94104" /><text
       xml:space="preserve"
       style="font-style:normal;font-variant:normal;font-weight:bold;font-stretch:normal;font-size:49.3397px;line-height:0px;font-family:Consolas;-inkscape-font-specification:'Consolas, Bold';font-variant-ligatures:normal;font-variant-caps:normal;font-variant-numeric:normal;font-variant-east-asian:normal;text-align:start;writing-mode:lr-tb;direction:ltr;text-anchor:start;fill:#000000;fill-opacity:1;fill-rule:evenodd;stroke:#e580ff;stroke-width:9.86797;stroke-linecap:square;stroke-dashoffset:1.2;stroke-opacity:1;paint-order:markers stroke fill"
       x="3546.4888"
       y="-1170.1914"
       id="text28-03-4-6-6-9-1-6-0-5-6"
       transform="scale(1,-1)"><tspan
         style="font-style:normal;font-variant:normal;font-weight:bold;font-stretch:normal;font-size:49.3397px;font-family:Consolas;-inkscape-font-specification:'Consolas, Bold';font-variant-ligatures:normal;font-variant-caps:normal;font-variant-numeric:normal;font-variant-east-asian:normal;fill:#000000;fill-opacity:1;stroke:none;stroke-width:9.86797"
         x="3546.4888"
         y="-1170.1914"
         id="tspan31-1-8-4-5-3-0-93">22</tspan></text><ellipse
       cx="3459.9673"
       cy="1186.2003"
       stroke="#000000"
       stroke-width="11.2465"
       stroke-linejoin="miter"
       fill="#ffff00"
       id="circle10-7-0-9-1-0-8-4-2-20-2-76"
       style="fill:#e8590c;fill-opacity:1;stroke:#e8590c;stroke-width:7.50001;stroke-dasharray:none;stroke-opacity:1"
       rx="41.941048"
       ry="41.94104" /><text
       xml:space="preserve"
       style="font-style:normal;font-variant:normal;font-weight:bold;font-stretch:normal;font-size:49.3397px;line-height:0px;font-family:Consolas;-inkscape-font-specification:'Consolas, Bold';font-variant-ligatures:normal;font-variant-caps:normal;font-variant-numeric:normal;font-variant-east-asian:normal;text-align:start;writing-mode:lr-tb;direction:ltr;text-anchor:start;fill:#000000;fill-opacity:1;fill-rule:evenodd;stroke:#e580ff;stroke-width:9.86797;stroke-linecap:square;stroke-dashoffset:1.2;stroke-opacity:1;paint-order:markers stroke fill"
       x="3432.7798"
       y="-1170.1914"
       id="text28-03-4-6-6-9-1-6-0-5-65"
       transform="scale(1,-1)"><tspan
         style="font-style:normal;font-variant:normal;font-weight:bold;font-stretch:normal;font-size:49.3397px;font-family:Consolas;-inkscape-font-specification:'Consolas, Bold';font-variant-ligatures:normal;font-variant-caps:normal;font-variant-numeric:normal;font-variant-east-asian:normal;fill:#000000;fill-opacity:1;stroke:none;stroke-width:9.86797"
         x="3432.7798"
         y="-1170.1914"
         id="tspan31-1-8-4-5-3-0-8">23</tspan></text><ellipse
       cx="3346.2585"
       cy="1186.2003"
       stroke="#000000"
       stroke-width="11.2465"
       stroke-linejoin="miter"
       fill="#ffff00"
       id="circle10-7-0-9-1-0-8-4-2-20-2-5"
       style="fill:#e8590c;fill-opacity:1;stroke:#e8590c;stroke-width:7.50001;stroke-dasharray:none;stroke-opacity:1"
       rx="41.941048"
       ry="41.94104" /><text
       xml:space="preserve"
       style="fill:#000000;font-style:normal;font-variant:normal;font-weight:bold;font-stretch:normal;font-size:49.3397px;line-height:0px;font-family:Consolas;-inkscape-font-specification:'Consolas, Bold';font-variant-ligatures:normal;font-variant-caps:normal;font-variant-numeric:normal;font-variant-east-asian:normal;text-align:start;writing-mode:lr-tb;direction:ltr;text-anchor:start;fill-opacity:1;fill-rule:evenodd;stroke:#e580ff;stroke-width:9.86797;stroke-linecap:square;stroke-dashoffset:1.2;stroke-opacity:1;paint-order:markers stroke fill"
       x="2990.4585"
       y="-1045.6978"
       id="text28-03-4-6-6-9-1-6-0-5-4"
       transform="matrix(0.99999999,0,0,-0.99999999,328.61246,124.4936)"><tspan
         style="font-style:normal;font-variant:normal;font-weight:bold;font-stretch:normal;font-size:49.3397px;font-family:Consolas;-inkscape-font-specification:'Consolas, Bold';font-variant-ligatures:normal;font-variant-caps:normal;font-variant-numeric:normal;font-variant-east-asian:normal;fill:#000000;fill-opacity:1;stroke:none;stroke-width:9.86797"
         x="2990.4585"
         y="-1045.6978"
         id="tspan31-1-8-4-5-3-0-4">24</tspan></text><ellipse
       cx="3232.5496"
       cy="1186.2003"
       stroke="#000000"
       stroke-width="11.2465"
       stroke-linejoin="miter"
       fill="#ffff00"
       id="circle10-7-0-9-1-0-8-4-2-20-2-61"
       style="fill:#e8590c;fill-opacity:1;stroke:#e8590c;stroke-width:7.50001;stroke-dasharray:none;stroke-opacity:1"
       rx="41.941048"
       ry="41.94104" /><text
       xml:space="preserve"
       style="font-style:normal;font-variant:normal;font-weight:bold;font-stretch:normal;font-size:49.3397px;line-height:0px;font-family:Consolas;-inkscape-font-specification:'Consolas, Bold';font-variant-ligatures:normal;font-variant-caps:normal;font-variant-numeric:normal;font-variant-east-asian:normal;text-align:start;writing-mode:lr-tb;direction:ltr;text-anchor:start;fill:#000000;fill-opacity:1;fill-rule:evenodd;stroke:#e580ff;stroke-width:9.86797;stroke-linecap:square;stroke-dashoffset:1.2;stroke-opacity:1;paint-order:markers stroke fill"
       x="3205.3621"
       y="-1170.1914"
       id="text28-03-4-6-6-9-1-6-0-5-63"
       transform="scale(1,-1)"><tspan
         style="font-style:normal;font-variant:normal;font-weight:bold;font-stretch:normal;font-size:49.3397px;font-family:Consolas;-inkscape-font-specification:'Consolas, Bold';font-variant-ligatures:normal;font-variant-caps:normal;font-variant-numeric:normal;font-variant-east-asian:normal;fill:#000000;fill-opacity:1;stroke:none;stroke-width:9.86797"
         x="3205.3621"
         y="-1170.1914"
         id="tspan31-1-8-4-5-3-0-35">25</tspan></text><ellipse
       cx="3118.8408"
       cy="1186.2003"
       stroke="#000000"
       stroke-width="11.2465"
       stroke-linejoin="miter"
       fill="#ffff00"
       id="circle10-7-0-9-1-0-8-4-2-20-2-32"
       style="fill:#e8590c;fill-opacity:1;stroke:#e8590c;stroke-width:7.50001;stroke-dasharray:none;stroke-opacity:1"
       rx="41.941048"
       ry="41.94104" /><text
       xml:space="preserve"
       style="font-style:normal;font-variant:normal;font-weight:bold;font-stretch:normal;font-size:49.3397px;line-height:0px;font-family:Consolas;-inkscape-font-specification:'Consolas, Bold';font-variant-ligatures:normal;font-variant-caps:normal;font-variant-numeric:normal;font-variant-east-asian:normal;text-align:start;writing-mode:lr-tb;direction:ltr;text-anchor:start;fill:#000000;fill-opacity:1;fill-rule:evenodd;stroke:#e580ff;stroke-width:9.86797;stroke-linecap:square;stroke-dashoffset:1.2;stroke-opacity:1;paint-order:markers stroke fill"
       x="3091.6533"
       y="-1170.1914"
       id="text28-03-4-6-6-9-1-6-0-5-8"
       transform="scale(1,-1)"><tspan
         style="font-style:normal;font-variant:normal;font-weight:bold;font-stretch:normal;font-size:49.3397px;font-family:Consolas;-inkscape-font-specification:'Consolas, Bold';font-variant-ligatures:normal;font-variant-caps:normal;font-variant-numeric:normal;font-variant-east-asian:normal;fill:#000000;fill-opacity:1;stroke:none;stroke-width:9.86797"
         x="3091.6533"
         y="-1170.1914"
         id="tspan31-1-8-4-5-3-0-2">26</tspan></text><path
       d="M 4009.0075,1519.73 H 2968.1961 c -38.7235,0 -49.1392,-72.3255 -43.3678,-119.7301 l 24.7815,-203.5431 c 4.6858,-38.4679 22.9376,-83.8102 43.3678,-83.8102 h 991.2484 c 20.437,0 38.9334,45.2391 43.3664,83.8102 l 24.7814,215.5164 c 5.1096,44.4069 -12.3907,107.7568 -43.3663,107.7568 z"
       stroke="#000000"
       stroke-width="4.99997"
       stroke-linejoin="miter"
       fill="#e6e6e6"
       id="path1-1-4-4"
       style="clip-rule:evenodd;fill:none;fill-rule:evenodd;stroke:#2f9e44;stroke-width:11.25;stroke-linecap:butt;stroke-miterlimit:16;stroke-dasharray:none;stroke-opacity:1" /><path
       style="fill:#f17634;fill-rule:evenodd;stroke:#f17634;stroke-width:0.495212;stroke-linecap:square;stroke-linejoin:round;stroke-dashoffset:1.2;paint-order:markers stroke fill"
       d="m 20.631593,32.92039 c -1.380096,-0.311374 -3.440519,-1.310412 -4.758303,-2.307159 -1.889135,-1.428905 -3.38964,-3.649487 -4.183053,-6.190454 -0.555134,-1.77786 -0.55497,-4.826445 3.54e-4,-6.594935 1.695313,-5.3989 6.165202,-8.757398 11.644706,-8.7493709 2.10674,0.00309 3.406408,0.3084288 5.372717,1.2622599 1.3316,0.645943 1.783592,0.98029 3.059457,2.263143 2.470279,2.483806 3.597878,5.153572 3.597878,8.518528 0,3.321283 -1.136865,6.046196 -3.51231,8.418532 -2.472736,2.4695 -4.765117,3.469432 -8.172847,3.564978 -1.327404,0.03722 -2.332436,-0.02394 -3.048599,-0.185522 z m 3.571884,-7.974865 c 0.878541,-0.448198 1.627617,-1.363255 1.854912,-2.265926 0.246944,-0.980702 0.21286,-3.321019 -0.05949,-4.084657 -0.448556,-1.257711 -1.318721,-1.820442 -2.813766,-1.819648 -1.955669,0.001 -3.085851,1.046569 -3.085851,2.854721 0,1.110864 0.320571,1.793717 1.042192,2.219989 0.623335,0.368213 1.897953,0.506055 2.68077,0.289909 l 0.631798,-0.174448 -0.110376,0.444817 c -0.250358,1.00894 -1.200952,1.514767 -2.849975,1.516518 l -0.866349,9.21e-4 v 0.765473 0.765473 l 1.44685,-0.08249 c 1.018437,-0.05807 1.648918,-0.185584 2.129282,-0.430647 z"
       id="path1"
       transform="matrix(3.7500026,0,0,-3.7500026,2917.7041,1525.355)" /><path
       style="fill:#f17634;fill-rule:evenodd;stroke:#f17634;stroke-width:0.495212;stroke-linecap:square;stroke-linejoin:round;stroke-dashoffset:1.2;paint-order:markers stroke fill"
       d="m 50.743269,32.854074 c -4.181194,-1.141296 -7.186372,-3.940036 -8.610217,-8.01875 -0.423597,-1.213427 -0.460552,-1.513587 -0.457124,-3.712922 0.0034,-2.153331 0.0481,-2.524878 0.447099,-3.712923 0.63928,-1.903485 1.506438,-3.282325 3.009631,-4.785517 1.503192,-1.503193 2.882032,-2.370351 4.785518,-3.0096316 1.19121,-0.400065 1.553853,-0.4433691 3.712922,-0.4433691 2.159068,0 2.521712,0.043304 3.712922,0.4433691 1.903485,0.6392806 3.282325,1.5064386 4.785518,3.0096316 1.503192,1.503192 2.370351,2.882032 3.009632,4.785517 0.400064,1.191211 0.443369,1.553854 0.443369,3.712923 0,2.159068 -0.04331,2.521711 -0.443369,3.712922 -0.62423,1.858667 -1.492924,3.257789 -2.927097,4.714391 -1.417595,1.439764 -2.961369,2.41005 -4.868053,3.059648 -1.790822,0.610122 -4.846961,0.723424 -6.600751,0.244711 z m 4.419552,-7.502427 c 0.823098,-0.350717 1.300663,-0.97435 1.39637,-1.823464 0.104707,-0.928959 -0.169657,-1.629067 -0.846397,-2.159792 -0.513358,-0.402595 -0.513569,-0.403428 -0.164238,-0.648878 0.894755,-0.62868 1.151675,-2.228602 0.485087,-3.020796 -0.929588,-1.104753 -3.572915,-1.155808 -4.748719,-0.09172 -0.162535,0.147093 -0.373627,0.557515 -0.469094,0.912051 -0.220647,0.819419 0.0048,1.553445 0.673905,2.194525 l 0.491308,0.470703 -0.573615,0.472822 c -1.25128,1.03141 -1.105844,2.879046 0.285028,3.621043 0.666561,0.355595 2.706908,0.398811 3.470365,0.07351 z"
       id="path2"
       transform="matrix(3.7500026,0,0,-3.7500026,2917.7041,1525.355)" /><path
       style="fill:#f17634;fill-rule:evenodd;stroke:#f17634;stroke-width:0.495212;stroke-linecap:square;stroke-linejoin:round;stroke-dashoffset:1.2;paint-order:markers stroke fill"
       d="m 35.497511,67.485256 c -3.477208,-0.910633 -6.294104,-3.179991 -7.844236,-6.319502 -0.946716,-1.917399 -1.245395,-3.209925 -1.245395,-5.389412 0,-2.19113 0.298124,-3.469305 1.270146,-5.44562 0.641452,-1.304199 1.008184,-1.803422 2.182035,-2.970337 2.44961,-2.43514 4.741597,-3.450185 8.105725,-3.589758 1.580426,-0.06557 2.146181,-0.01928 3.285473,0.268824 3.544393,0.896302 6.36258,3.15754 7.998972,6.418164 0.800877,1.5958 1.09967,2.799456 1.197417,4.82367 0.332025,6.875807 -5.150325,12.570078 -12.065928,12.53234 -1.089573,-0.0059 -2.086413,-0.119437 -2.884209,-0.328369 z m 8.187797,-7.577475 c 1.614148,-0.732738 1.845088,-2.845234 0.432513,-3.956366 l -0.443838,-0.349123 0.546377,-0.563719 c 0.425337,-0.438836 0.563422,-0.741093 0.623312,-1.364386 0.06606,-0.687466 0.01533,-0.873877 -0.358764,-1.318466 -0.571775,-0.679517 -1.355725,-0.919785 -2.744954,-0.841287 -1.316171,0.07437 -1.886894,0.401174 -2.358743,1.35065 -0.403434,0.811805 -0.251737,1.60276 0.455378,2.374356 l 0.542176,0.591616 -0.542075,0.475948 c -1.334985,1.172132 -1.030209,3.094581 0.592907,3.739903 0.716282,0.284781 2.488738,0.209039 3.255711,-0.139126 z M 37.789297,59.324245 V 58.581661 H 36.881693 35.97409 v -3.547904 -3.547903 h -0.663738 c -0.634057,0 -3.132691,1.086274 -3.365648,1.463206 -0.09659,0.156281 0.335634,1.342113 0.489183,1.342113 0.04718,0 0.454604,-0.186897 0.905389,-0.415327 l 0.819608,-0.415327 v 2.560571 2.560571 H 33.086262 32.01364 v 0.742584 0.742584 h 2.887828 2.887829 z"
       id="path3"
       transform="matrix(3.7500026,0,0,-3.7500026,2917.7041,1525.355)" /><path
       style="fill:#f17634;fill-rule:evenodd;stroke:#f17634;stroke-width:0.495212;stroke-linecap:square;stroke-linejoin:round;stroke-dashoffset:1.2;paint-order:markers stroke fill"
       d="m 66.027509,67.568094 c -1.81796,-0.394431 -3.927362,-1.546186 -5.442857,-2.971856 -5.225795,-4.916053 -5.242819,-12.707725 -0.03846,-17.603611 2.240473,-2.107677 4.530574,-3.074004 7.624726,-3.217318 2.335672,-0.108183 3.80525,0.174049 5.699103,1.094511 3.32508,1.616077 5.686357,4.450108 6.61232,7.936184 0.386372,1.45462 0.386372,4.486055 0,5.940675 -1.131717,4.260704 -4.565744,7.667737 -8.826954,8.757572 -1.483069,0.379304 -4.04019,0.408313 -5.627877,0.06384 z m 2.12524,-8.243849 v -0.742584 h -0.907603 -0.907604 v -3.547904 -3.547903 h -0.69542 c -0.49192,0 -1.083465,0.200056 -2.02148,0.68365 -0.729332,0.376008 -1.356631,0.709802 -1.393997,0.741765 -0.132583,0.113411 0.371231,1.379871 0.548152,1.377916 0.09892,-0.0011 0.503039,-0.186739 0.898035,-0.412547 0.394995,-0.225807 0.747723,-0.410559 0.783839,-0.410559 0.03612,0 0.06566,1.151006 0.06566,2.557791 v 2.557791 h -1.072622 -1.072622 v 0.742584 0.742584 h 2.887828 2.887829 z m 5.449588,-2.664856 c 1.390456,-2.878047 1.646219,-3.531815 1.646219,-4.207978 V 51.650873 H 72.278218 69.30788 v 0.820014 0.820015 l 1.956367,0.04633 1.956367,0.04633 -1.614337,3.34163 -1.614337,3.341629 h 0.982089 0.982088 z"
       id="path4"
       transform="matrix(3.7500026,0,0,-3.7500026,2917.7041,1525.355)" /><path
       style="fill:#f17634;fill-rule:evenodd;stroke:#f17634;stroke-width:0.495212;stroke-linecap:square;stroke-linejoin:round;stroke-dashoffset:1.2;paint-order:markers stroke fill"
       d="m 81.042689,32.841829 c -2.451952,-0.663276 -4.279753,-1.767261 -5.997258,-3.622325 -3.431814,-3.706676 -4.123884,-9.15366 -1.747659,-13.755054 0.533998,-1.03405 1.054803,-1.712173 2.196952,-2.860576 1.284773,-1.291808 1.718562,-1.611441 3.059458,-2.254325 2.012073,-0.9646766 3.317567,-1.2735171 5.383259,-1.2735171 4.820803,0 8.847672,2.5760231 10.963265,7.0132971 3.101457,6.505037 -0.39707,14.311165 -7.440762,16.602285 -1.600027,0.520445 -4.773963,0.59474 -6.417255,0.150215 z M 85.072865,21.84153 c 1.382114,-2.858144 1.727004,-3.714972 1.727004,-4.290488 v -0.719128 h -3.052847 -3.052847 v 0.825094 0.825093 H 82.6744 c 1.089124,0 1.980225,0.0354 1.980225,0.07866 0,0.04326 -0.705455,1.539828 -1.567678,3.325704 -0.862223,1.785876 -1.567678,3.309908 -1.567678,3.386738 0,0.07683 0.410983,0.13969 0.913296,0.13969 h 0.913296 z"
       id="path5"
       transform="matrix(3.7500026,0,0,-3.7500026,2917.7041,1525.355)" /><path
       style="fill:#f17634;fill-rule:evenodd;stroke:#f17634;stroke-width:0.495212;stroke-linecap:square;stroke-linejoin:round;stroke-dashoffset:1.2;paint-order:markers stroke fill"
       d="m 111.41724,32.847777 c -0.66443,-0.163184 -1.85048,-0.615032 -2.63566,-1.004105 -1.16358,-0.576574 -1.70315,-0.984876 -2.91745,-2.20769 -1.63001,-1.641425 -2.37723,-2.770497 -2.97932,-4.501783 -1.99813,-5.745621 0.46952,-11.922216 5.88969,-14.742102 5.05001,-2.6273031 11.42272,-1.2630477 14.93595,3.197457 1.80212,2.288033 2.59095,4.581434 2.59095,7.532848 0,2.169934 -0.26704,3.385702 -1.14904,5.231353 -2.41782,5.059479 -8.28369,7.832885 -13.73512,6.494022 z m 4.58878,-7.682708 c 0.98005,-0.510154 1.48756,-1.393568 1.48672,-2.587905 -6.8e-4,-0.972331 -0.3754,-1.75609 -1.05134,-2.198985 -0.52918,-0.346732 -2.0762,-0.503229 -2.7281,-0.275975 -0.60402,0.210562 -0.67088,-0.0061 -0.25194,-0.816204 0.33361,-0.645124 1.12779,-0.968917 2.37651,-0.968917 h 0.99541 v -0.763279 -0.763277 l -1.38688,0.07279 c -2.58376,0.135613 -3.70543,1.135806 -4.07399,3.632789 -0.49022,3.321219 0.88031,5.280428 3.47847,4.972569 0.40723,-0.04825 0.92704,-0.184876 1.15514,-0.303608 z"
       id="path6"
       transform="matrix(3.7500026,0,0,-3.7500026,2917.7041,1525.355)" /><path
       style="fill:#f17634;fill-rule:evenodd;stroke:#f17634;stroke-width:0.495212;stroke-linecap:square;stroke-linejoin:round;stroke-dashoffset:1.2;paint-order:markers stroke fill"
       d="m 96.103721,67.50688 c -4.182252,-1.133431 -7.363077,-4.227144 -8.667539,-8.430163 -0.550931,-1.775117 -0.550931,-4.825634 0,-6.600751 1.061835,-3.421267 3.188506,-5.944213 6.35452,-7.538592 4.377567,-2.204507 9.829038,-1.386072 13.448728,2.019071 6.8145,6.410589 4.34685,17.345352 -4.59776,20.373832 -1.56486,0.529834 -4.901946,0.619976 -6.537949,0.176603 z m 7.971119,-7.451043 c 1.09297,-0.414114 1.74877,-1.451493 1.73712,-2.747872 -0.01,-1.075932 -0.41407,-1.834593 -1.19568,-2.243103 -0.4501,-0.235247 -0.84441,-0.285006 -1.85085,-0.233563 -0.70339,0.03595 -1.27889,0.03814 -1.27889,0.0048 0,-0.03329 0.10554,-0.313108 0.23453,-0.621826 0.31888,-0.763204 0.99536,-1.078282 2.31506,-1.078282 h 1.08082 v -0.762769 -0.762769 l -1.44391,0.07314 c -3.03235,0.153592 -4.129741,1.570344 -3.974032,5.13052 0.07803,1.784054 0.438052,2.559375 1.432382,3.084697 0.6792,0.358836 2.19705,0.439787 2.94345,0.156981 z M 98.516201,59.324245 V 58.581661 H 97.61188 96.707558 l -0.04454,-3.506649 -0.04454,-3.506649 -0.686674,-0.05003 c -0.557857,-0.04064 -0.949589,0.09213 -2.088188,0.707759 l -1.401515,0.757786 0.256759,0.653646 c 0.141218,0.359505 0.338318,0.653265 0.438001,0.6528 0.09968,-4.65e-4 0.478276,-0.183793 0.841317,-0.407396 0.363041,-0.223604 0.715769,-0.408869 0.783839,-0.411702 0.06807,-0.0028 0.123764,1.145856 0.123764,2.552641 v 2.557791 h -1.072622 -1.072622 v 0.742584 0.742584 h 2.887829 2.887828 z"
       id="path7"
       transform="matrix(3.7500026,0,0,-3.7500026,2917.7041,1525.355)" /><path
       style="fill:#f17634;fill-rule:evenodd;stroke:#f17634;stroke-width:0.495212;stroke-linecap:square;stroke-linejoin:round;stroke-dashoffset:1.2;paint-order:markers stroke fill"
       d="m 81.106722,102.21068 c -0.544562,-0.13116 -1.693205,-0.58007 -2.55254,-0.99756 -1.330355,-0.64633 -1.784785,-0.98266 -3.059458,-2.264311 -2.479651,-2.49323 -3.574058,-5.101675 -3.574058,-8.518527 0,-3.37681 1.105337,-6.04468 3.486852,-8.415957 1.590942,-1.584103 2.949749,-2.44601 4.87411,-3.091705 1.176521,-0.394767 1.5715,-0.44364 3.630413,-0.449208 2.529778,-0.0068 3.398289,0.1724 5.279257,1.089524 5.920292,2.886622 8.495169,10.057526 5.709408,15.900418 -1.646082,3.452514 -4.415392,5.761786 -8.013045,6.681906 -1.554322,0.39753 -4.274282,0.42831 -5.780939,0.0654 z m 7.359143,-7.577998 c 1.303054,-0.459744 1.964819,-1.358738 1.9638,-2.667782 -0.0012,-1.531252 -0.894364,-2.337096 -2.755991,-2.48653 L 86.63485,89.39498 v -0.802501 -0.802502 h 1.732697 1.732697 v -0.742584 -0.742584 h -2.557791 -2.55779 v 2.310262 2.310263 h 1.312385 c 1.489024,0 2.117777,0.214715 2.257363,0.770875 0.304466,1.213084 -0.525527,1.779747 -2.444121,1.668681 l -1.290646,-0.07471 v 0.701543 c 0,0.406831 0.08665,0.736509 0.206273,0.784777 0.473518,0.191068 2.761952,0.09539 3.439948,-0.143818 z m -5.13139,-0.654497 v -0.742584 h -1.697053 -1.697053 l 1.206927,-1.230633 c 0.66381,-0.676848 1.351595,-1.549385 1.52841,-1.938971 0.675013,-1.487287 0.25937,-3.007093 -0.994708,-3.637164 -1.086958,-0.546107 -2.897747,-0.286712 -4.025091,0.576593 -0.306767,0.234917 -0.302883,0.25806 0.140966,0.839977 l 0.456425,0.598403 0.698625,-0.409421 c 0.879591,-0.515475 1.320111,-0.516527 1.832262,-0.0044 0.806411,0.806411 0.46644,1.544612 -1.75938,3.820264 -1.46136,1.494076 -1.631006,1.730083 -1.631006,2.269008 v 0.601488 h 2.970338 2.970338 z"
       id="path8"
       transform="matrix(3.7500026,0,0,-3.7500026,2917.7041,1525.355)" /><path
       style="fill:#f17634;fill-rule:evenodd;stroke:#f17634;stroke-width:0.495212;stroke-linecap:square;stroke-linejoin:round;stroke-dashoffset:1.2;paint-order:markers stroke fill"
       d="m 50.679237,102.14859 c -4.102899,-1.1061 -7.217924,-4.020582 -8.55621,-8.005386 -0.399002,-1.188045 -0.443743,-1.559592 -0.447099,-3.712922 -0.0034,-2.199336 0.03353,-2.499496 0.457124,-3.712922 1.301051,-3.72696 4.058164,-6.484073 7.785124,-7.785124 1.210494,-0.422573 1.518901,-0.460853 3.712922,-0.460853 2.194021,0 2.502428,0.03828 3.712922,0.460853 1.924365,0.67178 3.45945,1.640101 4.868053,3.070733 1.434173,1.456601 2.302867,2.855723 2.927097,4.714391 0.400064,1.19121 0.443369,1.553853 0.443369,3.712922 0,2.159068 -0.04331,2.521712 -0.443369,3.712922 -0.639281,1.903485 -1.50644,3.282325 -3.009632,4.785518 -2.407802,2.407798 -4.709526,3.391158 -8.168403,3.489738 -1.675141,0.0478 -2.291818,-0.003 -3.281898,-0.26987 z m 8.22909,-7.634094 c 1.007449,-0.514781 1.370182,-1.074449 1.45483,-2.24468 0.09098,-1.257858 -0.243693,-1.986471 -1.145192,-2.493141 -0.581756,-0.326965 -0.837129,-0.36702 -1.903599,-0.298578 l -1.231707,0.07905 0.104485,-0.429779 c 0.05747,-0.236379 0.28677,-0.614929 0.509563,-0.841223 0.351309,-0.356829 0.579963,-0.419386 1.722582,-0.471275 l 1.317503,-0.05983 v -0.725111 -0.725111 h -1.213017 c -2.080067,0 -3.170349,0.59905 -3.872257,2.127592 -0.365785,0.796571 -0.425169,1.154761 -0.426975,2.575442 -0.0022,1.733263 0.258137,2.57837 1.001321,3.250433 0.803537,0.72664 2.527129,0.846562 3.682463,0.256216 z M 52.971023,93.978185 V 93.235601 H 51.29894 49.626857 l 1.221427,-1.278896 c 1.407304,-1.473517 1.792701,-2.174167 1.792701,-3.25912 0,-1.118066 -0.413954,-1.876645 -1.225122,-2.245063 -1.19712,-0.54371 -3.056311,-0.325038 -3.925675,0.461726 -0.38254,0.346194 -0.365419,0.527378 0.104083,1.10142 l 0.387037,0.473215 0.478832,-0.354016 c 0.263358,-0.194709 0.746488,-0.397451 1.073622,-0.450537 1.158228,-0.187955 1.682369,1.031043 0.955766,2.222832 -0.18426,0.302227 -1.000825,1.237741 -1.81459,2.07892 -1.313452,1.357701 -1.479572,1.597079 -1.479572,2.132053 v 0.602634 h 2.887828 2.887829 z"
       id="path9"
       transform="matrix(3.7500026,0,0,-3.7500026,2917.7041,1525.355)" /><path
       style="fill:#f17634;fill-rule:evenodd;stroke:#f17634;stroke-width:0.495212;stroke-linecap:square;stroke-linejoin:round;stroke-dashoffset:1.2;paint-order:markers stroke fill"
       d="m 111.26052,102.14412 c -6.83248,-1.79021 -10.69801,-9.047854 -8.37571,-15.725636 0.60284,-1.733444 1.34971,-2.860771 2.98857,-4.510928 1.28566,-1.294527 1.72031,-1.61559 3.05289,-2.255088 1.87526,-0.899933 3.44221,-1.268944 5.3818,-1.2674 5.46943,0.0044 10.24982,3.711298 11.70276,9.074876 0.39527,1.45913 0.39585,4.477835 0.001,5.940675 -0.93552,3.467249 -3.20473,6.24268 -6.43343,7.868631 -2.41175,1.21454 -5.70123,1.56052 -8.31804,0.87487 z m 2.43741,-8.165935 v -0.742584 h -1.74727 -1.74727 l 1.23686,-1.244904 c 0.68027,-0.684697 1.37347,-1.520105 1.54045,-1.856461 0.42412,-0.854331 0.40246,-2.351456 -0.0428,-2.958623 -0.95799,-1.306328 -3.32992,-1.385751 -4.92572,-0.164936 -0.31651,0.242133 -0.31395,0.258227 0.13476,0.846509 l 0.4574,0.599684 0.47017,-0.334792 c 1.39709,-0.994814 2.7101,-0.278293 2.28844,1.248821 -0.12253,0.443782 -0.65681,1.117193 -1.88829,2.380019 -1.54667,1.586037 -1.71741,1.821211 -1.71741,2.365488 v 0.604363 h 2.97034 2.97034 z m 6.27071,-0.08251 v -0.825094 h 0.66008 0.66007 v -0.742585 -0.742584 h -0.66007 -0.66008 v -2.6403 -2.6403 h -1.14171 -1.14171 l -1.66361,2.725007 c -1.37425,2.251041 -1.66361,2.839434 -1.66361,3.382885 v 0.657877 h 1.98023 1.98022 v 0.825094 0.825093 h 0.8251 0.82509 z"
       id="path10"
       transform="matrix(3.7500026,0,0,-3.7500026,2917.7041,1525.355)" /><path
       style="fill:#f17634;fill-rule:evenodd;stroke:#f17634;stroke-width:0.495212;stroke-linecap:square;stroke-linejoin:round;stroke-dashoffset:1.2;paint-order:markers stroke fill"
       d="m 126.48688,67.508014 c -4.1824,-1.141623 -7.19454,-3.947709 -8.60758,-8.01875 -0.41919,-1.207684 -0.45822,-1.523996 -0.45822,-3.712922 0,-2.188927 0.039,-2.505239 0.45822,-3.712923 1.29106,-3.719594 4.0541,-6.483575 7.78249,-7.785123 1.21342,-0.423597 1.51358,-0.460552 3.71292,-0.457124 2.15333,0.0034 2.52488,0.0481 3.71292,0.447098 4.00342,1.34454 7.05683,4.643341 8.06511,8.713296 0.16091,0.649511 0.26834,1.768421 0.26834,2.794776 0,1.026354 -0.10743,2.145264 -0.26834,2.794776 -1.00962,4.075356 -4.09179,7.401027 -8.06511,8.702269 -1.81256,0.593607 -4.88545,0.702833 -6.60075,0.234627 z m 7.37272,-7.53112 c 1.98171,-0.675236 2.69798,-2.843064 1.42022,-4.298352 -0.5408,-0.615945 -1.3036,-0.89001 -2.48097,-0.891393 l -0.78384,-9.2e-4 v -0.825094 -0.825094 h 1.7327 1.73269 v -0.742584 -0.742584 h -2.47528 -2.47528 v 2.310262 2.310263 h 1.36594 c 1.68982,0 2.09945,0.222217 2.09945,1.138913 0,1.018186 -0.40656,1.253859 -2.16308,1.253859 h -1.46745 l 6e-5,0.687578 c 4e-5,0.395606 0.0876,0.722921 0.20634,0.770812 0.4646,0.187471 2.58667,0.09347 3.2885,-0.145666 z m -5.14497,-0.652649 v -0.742584 h -0.9076 -0.9076 v -3.547904 -3.547903 h -0.66665 c -0.64611,0 -1.30046,0.263065 -2.75401,1.107186 l -0.69784,0.40526 0.24932,0.596705 c 0.13712,0.328188 0.28817,0.635563 0.33567,0.683055 0.0475,0.04749 0.44591,-0.115775 0.88539,-0.362816 0.43947,-0.247041 0.84379,-0.449165 0.89849,-0.449165 0.0547,0 0.0994,1.151006 0.0994,2.557791 v 2.557791 h -1.07262 -1.07262 v 0.742584 0.742584 h 2.80532 2.80531 z"
       id="path11"
       transform="matrix(3.7500026,0,0,-3.7500026,2917.7041,1525.355)" /><path
       style="fill:#f17634;fill-rule:evenodd;stroke:#f17634;stroke-width:0.495212;stroke-linecap:square;stroke-linejoin:round;stroke-dashoffset:1.2;paint-order:markers stroke fill"
       d="m 141.92038,32.92039 c -1.38009,-0.311374 -3.44052,-1.310412 -4.7583,-2.307159 -1.88913,-1.428905 -3.38964,-3.649487 -4.18305,-6.190454 -0.55514,-1.77786 -0.55497,-4.826445 3.5e-4,-6.594935 1.69531,-5.3989 6.1652,-8.757398 11.64471,-8.7493709 2.10674,0.00309 3.40641,0.3084288 5.37271,1.2622599 1.3316,0.645943 1.7836,0.98029 3.05946,2.263143 2.47028,2.483806 3.59788,5.153572 3.59788,8.518528 0,3.321283 -1.13687,6.046196 -3.51231,8.418532 -2.47274,2.4695 -4.76512,3.469432 -8.17285,3.564978 -1.3274,0.03722 -2.33243,-0.02394 -3.0486,-0.185522 z m 3.63502,-7.942842 c 1.72514,-0.690263 2.34812,-2.824843 1.21682,-4.169311 -0.45061,-0.535518 -1.01864,-0.760723 -2.33955,-0.927543 l -0.86635,-0.109413 v -0.727099 -0.727099 h 1.65019 1.65019 v -0.825094 -0.825094 h -2.47528 -2.47528 v 2.310263 2.310262 l 1.19638,0.0024 c 1.33317,0.0027 1.89787,0.212426 2.24702,0.834487 0.20297,0.361615 0.20339,0.486706 0.003,0.905216 -0.31971,0.667883 -1.10362,0.920644 -2.4976,0.805316 l -1.11387,-0.09216 v 0.742122 c 0,0.711729 0.022,0.74522 0.53631,0.817796 0.87035,0.122811 2.57149,-0.04641 3.26797,-0.325087 z"
       id="path12"
       transform="matrix(3.7500026,0,0,-3.7500026,2917.7041,1525.355)" /><path
       style="fill:#f17634;fill-rule:evenodd;stroke:#f17634;stroke-width:0.495212;stroke-linecap:square;stroke-linejoin:round;stroke-dashoffset:1.2;paint-order:markers stroke fill"
       d="m 141.59884,102.13774 c -4.16736,-1.09122 -7.27186,-4.121325 -8.61946,-8.412899 -0.55532,-1.76849 -0.55549,-4.817075 -3.5e-4,-6.594935 1.09775,-3.515639 3.2579,-6.029171 6.54433,-7.614949 1.83324,-0.884574 3.35768,-1.179486 5.61064,-1.085406 3.26867,0.136495 5.60339,1.180901 8.00783,3.582197 2.37544,2.372338 3.51231,5.097251 3.51231,8.418534 0,3.364955 -1.1276,6.034721 -3.59788,8.518527 -1.27586,1.282851 -1.72786,1.617201 -3.05946,2.263141 -0.85933,0.41685 -2.0451,0.87084 -2.63505,1.00887 -1.5231,0.35635 -4.23398,0.31727 -5.76291,-0.0831 z m 8.15569,-7.681146 c 0.88836,-0.460413 1.40266,-1.246985 1.40266,-2.145235 0,-0.948548 -0.25728,-1.459883 -0.91191,-1.812425 l -0.54305,-0.29245 0.39346,-0.309496 c 0.73147,-0.57537 0.86882,-1.971651 0.283,-2.876853 -0.5003,-0.773046 -2.67075,-1.135017 -4.22231,-0.704164 -0.61192,0.169924 -0.62654,0.191829 -0.57756,0.865428 0.0375,0.516278 0.11285,0.675686 0.29777,0.630188 0.13614,-0.0335 0.75034,-0.09928 1.36489,-0.146187 1.25058,-0.09545 1.77046,0.166693 1.77046,0.892742 0,0.642539 -0.53802,1.016849 -1.64095,1.14163 l -0.99935,0.113064 v 0.620139 0.620138 l 1.14301,0.06459 c 1.2973,0.0733 1.82733,0.400428 1.82733,1.127789 0,0.84121 -0.50227,1.072622 -2.32809,1.072622 h -1.63251 l 7e-5,0.673827 c 4e-5,0.370604 0.0558,0.730446 0.12384,0.79965 0.0681,0.0692 0.90348,0.09911 1.85646,0.06646 1.3481,-0.04618 1.87922,-0.135294 2.39278,-0.401458 z m -5.85817,-0.478409 v -0.742584 h -1.6788 -1.67881 l 1.24221,-1.278896 c 1.49235,-1.536422 1.81026,-2.106783 1.82068,-3.26646 0.01,-1.071375 -0.38291,-1.812596 -1.18787,-2.243006 -1.02215,-0.546538 -2.92781,-0.338008 -3.88484,0.425106 -0.47741,0.380672 -0.46082,0.518973 0.15679,1.307117 0.2333,0.297723 0.25571,0.296175 0.7438,-0.05138 1.7348,-1.235286 3.03018,0.155125 1.8457,1.981104 -0.26174,0.403501 -1.07859,1.325963 -1.81521,2.049916 -1.20656,1.185816 -1.33931,1.377997 -1.33931,1.938971 v 0.622691 h 2.88783 2.88783 z"
       id="path13"
       transform="matrix(3.7500026,0,0,-3.7500026,2917.7041,1525.355)" /><path
       style="fill:#f17634;fill-rule:evenodd;stroke:#f17634;stroke-width:0.495212;stroke-linecap:square;stroke-linejoin:round;stroke-dashoffset:1.2;paint-order:markers stroke fill"
       d="m 156.7863,67.485256 c -3.47721,-0.910633 -6.2941,-3.179991 -7.84424,-6.319502 -0.94671,-1.917399 -1.24539,-3.209925 -1.24539,-5.389412 0,-2.19113 0.29812,-3.469305 1.27015,-5.44562 0.64145,-1.304199 1.00818,-1.803422 2.18203,-2.970337 2.44961,-2.43514 4.7416,-3.450185 8.10573,-3.589758 1.58042,-0.06557 2.14618,-0.01928 3.28547,0.268824 4.30574,1.088831 7.70471,4.39467 8.87247,8.629375 0.39714,1.440149 0.39714,4.774882 0,6.215031 -1.15738,4.19707 -4.5538,7.526266 -8.78125,8.607465 -1.70841,0.436939 -4.16311,0.434392 -5.84497,-0.0061 z m 2.29179,-8.161011 v -0.742584 h -0.90761 -0.9076 v -3.547904 -3.547903 h -0.66374 c -0.63406,0 -3.13269,1.086274 -3.36565,1.463206 -0.0966,0.156281 0.33564,1.342113 0.48919,1.342113 0.0472,0 0.4546,-0.186897 0.90539,-0.415327 l 0.8196,-0.415327 v 2.560571 2.560571 h -1.07262 -1.07262 v 0.742584 0.742584 h 2.88783 2.88783 z m 6.43573,-0.08251 v -0.825094 h 0.57756 c 0.57451,0 0.57757,-0.0039 0.57757,-0.742585 0,-0.738655 -0.003,-0.742584 -0.57757,-0.742584 h -0.57756 v -2.6403 -2.6403 h -1.20056 -1.20055 l -1.60477,2.621505 c -1.41901,2.318069 -1.60476,2.709633 -1.60476,3.382884 v 0.76138 h 1.89772 1.89771 v 0.825094 0.825093 h 0.90761 0.9076 z"
       id="path14"
       transform="matrix(3.7500026,0,0,-3.7500026,2917.7041,1525.355)" /><path
       style="fill:#f17634;fill-rule:evenodd;stroke:#f17634;stroke-width:0.495212;stroke-linecap:square;stroke-linejoin:round;stroke-dashoffset:1.2;paint-order:markers stroke fill"
       d="m 171.96803,102.14859 c -4.1029,-1.1061 -7.21793,-4.020582 -8.55621,-8.005386 -0.39901,-1.188045 -0.44375,-1.559592 -0.4471,-3.712922 -0.003,-2.199336 0.0335,-2.499496 0.45712,-3.712922 1.30105,-3.72696 4.05817,-6.484073 7.78513,-7.785124 1.21049,-0.422573 1.5189,-0.460853 3.71292,-0.460853 2.19402,0 2.50243,0.03828 3.71292,0.460853 1.92436,0.67178 3.45945,1.640101 4.86805,3.070733 1.43418,1.456601 2.30287,2.855723 2.9271,4.714391 0.40006,1.19121 0.44337,1.553853 0.44337,3.712922 0,2.159068 -0.0433,2.521712 -0.44337,3.712922 -0.63928,1.903485 -1.50644,3.282325 -3.00963,4.785518 -2.4078,2.407798 -4.70953,3.391158 -8.1684,3.489738 -1.67515,0.0478 -2.29182,-0.003 -3.2819,-0.26987 z m 2.29178,-8.170405 v -0.742584 h -1.67208 -1.67208 l 1.22142,-1.278896 c 1.40731,-1.473517 1.79271,-2.174167 1.79271,-3.25912 0,-1.118066 -0.41396,-1.876645 -1.22513,-2.245063 -1.19712,-0.54371 -3.05631,-0.325038 -3.92567,0.461726 -0.38254,0.346194 -0.36542,0.527378 0.10408,1.10142 l 0.38704,0.473215 0.47883,-0.354016 c 0.26336,-0.194709 0.74649,-0.397451 1.07362,-0.450537 1.15823,-0.187955 1.68237,1.031043 0.95577,2.222832 -0.18426,0.302227 -1.00083,1.237741 -1.81459,2.07892 -1.31345,1.357701 -1.47957,1.597079 -1.47957,2.132053 v 0.602634 h 2.88782 2.88783 z m 7.26083,0 v -0.742584 h -1.67208 -1.67209 l 1.23565,-1.293339 c 1.44473,-1.512177 1.86285,-2.391103 1.74096,-3.65963 -0.13327,-1.386918 -1.12839,-2.14618 -2.80375,-2.139214 -0.85352,0.0035 -1.8362,0.353381 -2.51048,0.893724 -0.31263,0.250534 -0.31111,0.264008 0.08,0.710382 0.21929,0.250252 0.44534,0.515369 0.50233,0.589148 0.057,0.07378 0.38406,-0.05617 0.72683,-0.288783 0.75492,-0.512303 1.21757,-0.533186 1.79254,-0.08091 0.90756,0.713887 0.50188,1.656067 -1.7248,4.005759 -1.34716,1.421592 -1.63583,1.816361 -1.63583,2.237118 v 0.510915 h 2.97034 2.97034 z"
       id="path15"
       transform="matrix(3.7500026,0,0,-3.7500026,2917.7041,1525.355)" /><path
       style="fill:#f17634;fill-rule:evenodd;stroke:#f17634;stroke-width:0.495212;stroke-linecap:square;stroke-linejoin:round;stroke-dashoffset:1.2;paint-order:markers stroke fill"
       d="m 187.95637,67.709411 c -2.07048,-0.343056 -4.42713,-1.555513 -6.12139,-3.149355 -5.18568,-4.878314 -5.18568,-12.689115 0,-17.567429 2.24047,-2.107677 4.53058,-3.074004 7.62473,-3.217318 2.33567,-0.108183 3.80525,0.174049 5.6991,1.094511 3.32508,1.616077 5.68636,4.450108 6.61232,7.936184 0.38637,1.45462 0.38637,4.486055 0,5.940675 -1.42904,5.380067 -6.28678,9.127122 -11.73717,9.05356 -0.91577,-0.01236 -1.85069,-0.05323 -2.07759,-0.09083 z m 6.72029,-7.726871 c 1.58261,-0.469985 2.39552,-2.01971 1.75119,-3.338436 -0.16968,-0.347262 -0.52294,-0.726473 -0.80266,-0.861625 l -0.49961,-0.24139 0.47955,-0.428485 c 1.01935,-0.910785 0.65672,-2.849948 -0.63378,-3.389152 -0.58727,-0.245381 -2.62679,-0.300062 -3.38457,-0.09074 -0.35397,0.09778 -0.41963,0.223015 -0.46247,0.882122 l -0.0499,0.768166 0.5439,-0.155987 c 0.29914,-0.08579 0.92893,-0.155986 1.39954,-0.155986 0.9586,0 1.37428,0.278087 1.37428,0.91939 0,0.628677 -0.51238,1.004354 -1.54595,1.133489 l -0.92933,0.116113 v 0.648201 0.648201 h 0.9158 c 1.53342,0 2.2906,0.621503 1.87322,1.537562 -0.29214,0.641169 -0.95299,0.830816 -2.54829,0.731289 l -1.39586,-0.08708 v 0.710572 c 0,0.414053 0.0861,0.745304 0.20627,0.793805 0.46285,0.186765 2.92078,0.09397 3.7087,-0.14002 z m -5.23512,-0.658295 v -0.742584 h -0.9076 -0.90761 v -3.547904 -3.547903 h -0.69542 c -0.49192,0 -1.08346,0.200056 -2.02148,0.68365 -0.72933,0.376008 -1.35663,0.709802 -1.394,0.741765 -0.13258,0.113411 0.37124,1.379871 0.54816,1.377916 0.0989,-0.0011 0.50304,-0.186739 0.89803,-0.412547 0.395,-0.225807 0.74772,-0.410559 0.78384,-0.410559 0.0361,0 0.0657,1.151006 0.0657,2.557791 v 2.557791 h -1.07263 -1.07262 v 0.742584 0.742584 h 2.88783 2.88783 z"
       id="path16"
       transform="matrix(3.7500026,0,0,-3.7500026,2917.7041,1525.355)" /><path
       style="fill:#f17634;fill-rule:evenodd;stroke:#f17634;stroke-width:0.495212;stroke-linecap:square;stroke-linejoin:round;stroke-dashoffset:1.2;paint-order:markers stroke fill"
       d="m 202.39551,102.21068 c -0.54456,-0.13116 -1.6932,-0.58007 -2.55254,-0.99756 -1.33035,-0.64633 -1.78478,-0.98266 -3.05946,-2.264311 -2.48181,-2.495404 -3.5754,-5.104404 -3.57064,-8.518527 0.005,-3.391568 1.10355,-6.046299 3.48344,-8.415957 1.59094,-1.584103 2.94975,-2.44601 4.87411,-3.091705 1.17652,-0.394767 1.5715,-0.44364 3.63041,-0.449208 2.52978,-0.0068 3.39829,0.1724 5.27926,1.089524 5.92029,2.886622 8.49517,10.057526 5.70941,15.900418 -1.64609,3.452514 -4.4154,5.761786 -8.01305,6.681906 -1.55432,0.39753 -4.27428,0.42831 -5.78094,0.0654 z m 2.22776,-8.232495 v -0.742584 h -1.67117 -1.67117 l 1.19179,-1.254648 c 0.65549,-0.690056 1.33163,-1.562593 1.50253,-1.93897 0.66443,-1.463278 0.24035,-2.987234 -1.00546,-3.61315 -1.08696,-0.546107 -2.89775,-0.286712 -4.02509,0.576593 -0.30677,0.234917 -0.30289,0.25806 0.14096,0.839977 l 0.45643,0.598403 0.69862,-0.409421 c 0.87959,-0.515475 1.32011,-0.516527 1.83227,-0.0044 0.79656,0.796566 0.41741,1.622866 -1.81846,3.963008 -1.33199,1.394112 -1.57193,1.727863 -1.57193,2.186499 v 0.541253 h 2.97034 2.97034 z m 7.26082,0 v -0.742584 h -0.9076 -0.90761 v -3.547904 -3.547903 h -0.66373 c -0.44758,0 -1.10593,0.22122 -2.02148,0.679257 -0.74676,0.373592 -1.38832,0.707386 -1.42568,0.741765 -0.11458,0.105422 0.35878,1.384297 0.51238,1.384297 0.0793,0 0.51292,-0.186897 0.9637,-0.415327 l 0.81961,-0.415327 v 2.560571 2.560571 h -1.07262 -1.07263 v 0.742584 0.742584 h 2.88783 2.88783 z"
       id="path17"
       transform="matrix(3.7500026,0,0,-3.7500026,2917.7041,1525.355)" /><path
       style="fill:#f17634;fill-rule:evenodd;stroke:#f17634;stroke-width:0.495212;stroke-linecap:square;stroke-linejoin:round;stroke-dashoffset:1.2;paint-order:markers stroke fill"
       d="m 217.39251,67.50688 c -4.18225,-1.133431 -7.36308,-4.227144 -8.66754,-8.430163 -0.55093,-1.775117 -0.55093,-4.825634 0,-6.600751 1.06184,-3.421267 3.18851,-5.944213 6.35452,-7.538592 4.37757,-2.204507 9.82904,-1.386072 13.44873,2.019071 6.8145,6.410589 4.34685,17.345352 -4.59776,20.373832 -1.56486,0.529834 -4.90195,0.619976 -6.53795,0.176603 z m 2.41248,-8.182635 v -0.742584 h -0.90432 -0.90432 l -0.0445,-3.506649 -0.0445,-3.506649 -0.68668,-0.05003 c -0.55786,-0.04064 -0.94959,0.09213 -2.08819,0.707759 l -1.40151,0.757786 0.25676,0.653646 c 0.14122,0.359505 0.33832,0.653265 0.438,0.6528 0.0997,-4.65e-4 0.47827,-0.183793 0.84132,-0.407396 0.36304,-0.223604 0.71576,-0.408869 0.78383,-0.411702 0.0681,-0.0028 0.12377,1.145856 0.12377,2.552641 v 2.557791 h -1.07262 -1.07263 v 0.742584 0.742584 h 2.88783 2.88783 z m 7.09581,0 v -0.742584 h -1.67881 -1.6788 l 1.26714,-1.302105 c 1.42885,-1.468287 1.7607,-2.100817 1.75981,-3.354375 -7.5e-4,-1.067986 -0.39729,-1.782259 -1.20122,-2.163752 -1.5297,-0.725889 -4.67048,0.162546 -4.093,1.157791 0.52271,0.900846 0.58818,0.925403 1.25706,0.471486 1.68966,-1.14663 2.91024,0.307769 1.73601,2.068561 -0.26761,0.401292 -1.08446,1.321947 -1.81521,2.0459 -1.19422,1.183112 -1.32864,1.379276 -1.32864,1.938971 v 0.622691 h 2.88783 2.88783 z"
       id="path18"
       transform="matrix(3.7500026,0,0,-3.7500026,2917.7041,1525.355)" /><path
       style="fill:#f17634;fill-rule:evenodd;stroke:#f17634;stroke-width:0.495212;stroke-linecap:square;stroke-linejoin:round;stroke-dashoffset:1.2;paint-order:markers stroke fill"
       d="m 232.54931,102.14412 c -6.83248,-1.79021 -10.69801,-9.047854 -8.37571,-15.725636 0.60284,-1.733444 1.34971,-2.860771 2.98857,-4.510928 1.28566,-1.294527 1.72031,-1.61559 3.05289,-2.255088 1.87527,-0.899933 3.44221,-1.268944 5.3818,-1.2674 5.46943,0.0044 10.24982,3.711298 11.70276,9.074876 0.39527,1.45913 0.39585,4.477835 0.001,5.940675 -0.93552,3.467249 -3.20473,6.24268 -6.43343,7.868631 -2.41175,1.21454 -5.70123,1.56052 -8.31804,0.87487 z m 7.94192,-7.485359 c 0.72324,-0.302187 1.50657,-1.280578 1.78103,-2.224537 0.12255,-0.421466 0.21461,-1.405318 0.20458,-2.186339 -0.0318,-2.473728 -0.98706,-3.905769 -2.71639,-4.071936 -1.19749,-0.115063 -1.91771,0.08391 -2.62869,0.726245 -0.91685,0.82832 -1.23753,1.785719 -1.237,3.693106 2.4e-4,0.883683 0.0964,1.839506 0.22045,2.190691 0.28476,0.80632 0.95128,1.591157 1.58614,1.867683 0.66088,0.287864 2.10679,0.2905 2.78988,0.0051 z m -5.50451,-0.680576 v -0.742584 h -1.75665 -1.75666 l 1.24745,-1.247445 c 0.68609,-0.686095 1.38352,-1.521503 1.54984,-1.856461 0.42291,-0.851753 0.40061,-2.349786 -0.044,-2.956082 -0.95798,-1.306328 -3.32992,-1.385751 -4.92572,-0.164936 -0.31651,0.242133 -0.31395,0.258227 0.13476,0.846509 l 0.4574,0.599684 0.47017,-0.334792 c 1.39709,-0.994814 2.7101,-0.278293 2.28844,1.248821 -0.12253,0.443782 -0.65681,1.117193 -1.88829,2.380019 -1.54667,1.586037 -1.71741,1.821211 -1.71741,2.365488 v 0.604363 h 2.97034 2.97034 z"
       id="path19"
       transform="matrix(3.7500026,0,0,-3.7500026,2917.7041,1525.355)" /><path
       style="fill:#f17634;fill-rule:evenodd;stroke:#f17634;stroke-width:0.495212;stroke-linecap:square;stroke-linejoin:round;stroke-dashoffset:1.2;paint-order:markers stroke fill"
       d="m 247.77567,67.508014 c -4.17118,-1.138564 -7.19832,-3.95862 -8.60758,-8.01875 -0.41918,-1.207684 -0.45822,-1.523996 -0.45822,-3.712922 0,-2.188927 0.039,-2.505239 0.45822,-3.712923 1.28728,-3.708717 4.06501,-6.487381 7.78249,-7.785123 1.21342,-0.423597 1.51358,-0.460552 3.71292,-0.457124 2.15333,0.0034 2.52488,0.0481 3.71292,0.447098 4.00342,1.34454 7.05683,4.643341 8.06511,8.713296 0.16091,0.649511 0.26834,1.768421 0.26834,2.794776 0,1.026354 -0.10743,2.145264 -0.26834,2.794776 -1.00962,4.075356 -4.09179,7.401027 -8.06511,8.702269 -1.81256,0.593607 -4.88545,0.702833 -6.60075,0.234627 z m 2.22775,-8.183769 v -0.742584 h -0.9076 -0.9076 v -3.547904 -3.547903 h -0.72992 c -0.53982,0 -1.06626,0.179093 -2.02148,0.687704 -0.71036,0.378237 -1.31323,0.703132 -1.33972,0.721987 -0.0848,0.06037 0.49237,1.395706 0.60239,1.39364 0.0582,-0.0011 0.42902,-0.186739 0.82402,-0.412547 0.39499,-0.225807 0.74772,-0.410559 0.78384,-0.410559 0.0361,0 0.0657,1.151006 0.0657,2.557791 v 2.557791 h -1.07262 -1.07262 v 0.742584 0.742584 h 2.88783 2.88782 z m 7.26083,0 v -0.742584 h -0.9076 -0.90761 v -3.547904 -3.547903 h -0.76352 c -0.58397,0 -1.05935,0.161388 -2.02148,0.686282 -0.69188,0.377454 -1.28652,0.709236 -1.32142,0.737293 -0.0768,0.06175 0.31241,1.075395 0.49154,1.280061 0.0708,0.08091 0.45782,-0.04765 0.86928,-0.288783 0.4079,-0.239045 0.78411,-0.434628 0.83602,-0.434628 0.0519,0 0.0944,1.151006 0.0944,2.557791 v 2.557791 h -1.07262 -1.07263 v 0.742584 0.742584 h 2.88783 2.88783 z"
       id="path20"
       transform="matrix(3.7500026,0,0,-3.7500026,2917.7041,1525.355)" /><path
       style="fill:#f17634;fill-rule:evenodd;stroke:#f17634;stroke-width:0.495212;stroke-linecap:square;stroke-linejoin:round;stroke-dashoffset:1.2;paint-order:markers stroke fill"
       d="m 262.88763,102.13774 c -4.16736,-1.09122 -7.27186,-4.121325 -8.61946,-8.412899 -0.55532,-1.76849 -0.55549,-4.817075 -3.5e-4,-6.594935 1.09775,-3.515639 3.2579,-6.029171 6.54433,-7.614949 1.83324,-0.884574 3.35768,-1.179486 5.61064,-1.085406 3.26867,0.136495 5.60339,1.180901 8.00783,3.582197 2.37544,2.372338 3.51231,5.097251 3.51231,8.418534 0,3.364955 -1.1276,6.034721 -3.59788,8.518527 -1.27586,1.282851 -1.72786,1.617201 -3.05946,2.263141 -0.85933,0.41685 -2.0451,0.87084 -2.63505,1.00887 -1.5231,0.35635 -4.23398,0.31727 -5.76291,-0.0831 z m 2.46254,-8.159555 v -0.742584 h -0.99011 -0.99012 v -3.547904 -3.547903 h -0.66164 c -0.47153,0 -1.05968,0.215216 -2.04693,0.749013 l -1.38529,0.749014 0.25676,0.653646 c 0.14121,0.359505 0.33831,0.653265 0.438,0.6528 0.0997,-4.65e-4 0.47827,-0.183793 0.84131,-0.407396 0.36304,-0.223604 0.71577,-0.408869 0.78384,-0.411702 0.0681,-0.0028 0.12377,1.145856 0.12377,2.552641 v 2.557791 h -1.07263 -1.07262 v 0.742584 0.742584 h 2.88783 2.88783 z m 5.23916,0.274815 c 1.34929,-0.700181 1.92172,-2.103968 1.83236,-4.493507 -0.0978,-2.614829 -0.79384,-3.495633 -2.83066,-3.581993 -0.99798,-0.04231 -1.29282,0.01044 -1.84321,0.329767 -1.00493,0.583051 -1.40766,1.299671 -1.40692,2.503504 0.001,1.920335 0.92189,2.675334 3.09266,2.536023 0.65846,-0.04226 1.19721,-0.04847 1.19721,-0.01381 0,0.03466 -0.10871,0.323218 -0.24159,0.641231 -0.31037,0.742816 -1.0535,1.061383 -2.47592,1.061383 h -1.07792 v 0.762267 0.762268 l 1.52642,-0.07165 c 1.14995,-0.05398 1.69936,-0.161385 2.22757,-0.43549 z"
       id="path21"
       transform="matrix(3.7500026,0,0,-3.7500026,2917.7041,1525.355)" /><path
       style="fill:#f17634;fill-rule:evenodd;stroke:#f17634;stroke-width:0.495212;stroke-linecap:square;stroke-linejoin:round;stroke-dashoffset:1.2;paint-order:markers stroke fill"
       d="m 278.07509,67.485256 c -3.47721,-0.910633 -6.2941,-3.179991 -7.84423,-6.319502 -0.94672,-1.917399 -1.2454,-3.209925 -1.2454,-5.389412 0,-2.19113 0.29812,-3.469305 1.27015,-5.44562 0.64145,-1.304199 1.00818,-1.803422 2.18203,-2.970337 2.44961,-2.43514 4.7416,-3.450185 8.10573,-3.589758 1.58042,-0.06557 2.14618,-0.01928 3.28547,0.268824 4.2661,1.078807 7.54306,4.230719 8.85699,8.519025 0.42873,1.399235 0.42873,5.036496 0,6.435731 -1.30242,4.250712 -4.57822,7.426122 -8.76577,8.497115 -1.70841,0.436939 -4.1631,0.434392 -5.84497,-0.0061 z m 8.09999,-7.832926 c 0.45619,-0.301894 0.79066,-0.720782 1.09508,-1.371479 0.3824,-0.817381 0.4384,-1.147238 0.43917,-2.587019 7.9e-4,-1.474063 -0.0484,-1.750547 -0.46088,-2.590505 -0.62813,-1.279109 -1.31346,-1.699983 -2.76816,-1.699983 -1.45328,0 -2.23991,0.500776 -2.89732,1.844466 -0.41148,0.841049 -0.467,1.13928 -0.47005,2.524952 -0.002,1.112521 0.0815,1.791231 0.28737,2.324704 0.32726,0.847864 1.11431,1.673719 1.85442,1.945864 0.79089,0.290822 2.16886,0.106331 2.92037,-0.391 z m -5.97322,-0.328085 v -0.742584 h -0.90761 -0.9076 v -3.547904 -3.547903 h -0.74625 c -0.54215,0 -1.1063,0.181032 -2.06273,0.661917 -0.72407,0.364054 -1.31649,0.726277 -1.31649,0.804941 0,0.191351 0.48246,1.338461 0.56294,1.338461 0.0349,0 0.38663,-0.184752 0.78162,-0.410559 0.395,-0.225808 0.77387,-0.411454 0.84194,-0.412547 0.0681,-0.0011 0.12377,1.149018 0.12377,2.555803 v 2.557791 h -1.07263 -1.07262 v 0.742584 0.742584 h 2.88783 2.88783 z"
       id="path22"
       transform="matrix(3.7500026,0,0,-3.7500026,2917.7041,1525.355)" /><path
       style="fill:#f17634;fill-rule:evenodd;stroke:#f17634;stroke-width:0.495212;stroke-linecap:square;stroke-linejoin:round;stroke-dashoffset:1.2;paint-order:markers stroke fill"
       d="m 263.20917,32.910939 c -1.36707,-0.296344 -3.42814,-1.291603 -4.7583,-2.297708 -1.88913,-1.428905 -3.38964,-3.649487 -4.18305,-6.190454 -0.55482,-1.77684 -0.55482,-4.823911 0,-6.600751 1.67765,-5.37282 6.17762,-8.7515643 11.64506,-8.7435549 2.10674,0.00309 3.40641,0.3084288 5.37271,1.2622599 1.3316,0.645943 1.7836,0.98029 3.05946,2.263143 2.47028,2.483806 3.59788,5.153572 3.59788,8.518528 0,3.367397 -1.13077,6.043985 -3.59263,8.503905 -1.70752,1.706187 -3.35142,2.649465 -5.60239,3.214697 -1.54675,0.388398 -3.93076,0.418501 -5.53874,0.06994 z m 5.93643,-8.158125 v -0.825093 h -0.9076 -0.90761 v -3.547904 -3.547903 h -0.68459 c -0.5007,0 -1.05478,0.201789 -2.06273,0.751226 -0.75798,0.413175 -1.37814,0.782964 -1.37814,0.821755 0,0.03879 0.11972,0.369745 0.26605,0.735455 l 0.26605,0.664927 0.88908,-0.50868 0.88908,-0.50868 v 2.569902 2.569902 h -1.07262 -1.07263 v 0.715081 c 0,0.393295 0.0495,0.764587 0.11002,0.825093 0.0605,0.06051 1.36003,0.110013 2.88783,0.110013 h 2.77781 z"
       id="path23"
       transform="matrix(3.7500026,0,0,-3.7500026,2917.7041,1525.355)" /><path
       style="fill:#f17634;fill-rule:evenodd;stroke:#f17634;stroke-width:0.495212;stroke-linecap:square;stroke-linejoin:round;stroke-dashoffset:1.2;paint-order:markers stroke fill"
       d="m 232.70603,32.847777 c -0.66443,-0.163184 -1.85048,-0.615032 -2.63566,-1.004105 -1.16358,-0.576574 -1.70315,-0.984876 -2.91745,-2.20769 -1.63001,-1.641425 -2.37723,-2.770497 -2.97932,-4.501783 -1.99813,-5.745621 0.46952,-11.922216 5.88969,-14.742102 3.3481,-1.7418724 7.47845,-1.7834137 10.80406,-0.108663 3.2287,1.62595 5.49791,4.401381 6.43343,7.86863 0.39469,1.462841 0.39411,4.481545 -0.001,5.940675 -1.46877,5.422022 -6.26702,9.101648 -11.81785,9.062728 -0.91333,-0.0064 -2.07191,-0.134831 -2.77574,-0.30769 z m 5.9111,-8.259981 v -0.825094 h -1.67808 -1.67807 l 1.18338,-1.220425 c 1.75845,-1.813495 2.23506,-3.207261 1.55369,-4.543502 -0.40139,-0.787177 -0.97379,-1.156079 -1.97844,-1.275065 -1.06248,-0.125834 -2.14689,0.15819 -2.84267,0.744539 l -0.51771,0.436287 0.47374,0.563379 0.47374,0.56338 0.50431,-0.372853 c 0.69765,-0.515796 1.64566,-0.527966 2.05185,-0.02634 0.66922,0.826457 0.27539,1.649101 -1.86047,3.886169 -1.44325,1.511644 -1.62595,1.769947 -1.62595,2.298809 v 0.59581 h 2.97034 2.97034 z"
       id="path24"
       transform="matrix(3.7500026,0,0,-3.7500026,2917.7041,1525.355)" /><path
       style="fill:#f17634;fill-rule:evenodd;stroke:#f17634;stroke-width:0.495212;stroke-linecap:square;stroke-linejoin:round;stroke-dashoffset:1.2;paint-order:markers stroke fill"
       d="m 202.33148,32.841829 c -2.45195,-0.663276 -4.27975,-1.767261 -5.99726,-3.622325 -3.43181,-3.706676 -4.12388,-9.15366 -1.74766,-13.755054 0.534,-1.03405 1.05481,-1.712173 2.19695,-2.860576 1.28478,-1.291808 1.71857,-1.611441 3.05946,-2.254325 2.01208,-0.9646766 3.31757,-1.2735171 5.38326,-1.2735171 4.7977,0 8.87544,2.5949931 10.9447,6.9649981 3.11291,6.574032 -0.35399,14.35149 -7.4222,16.650584 -1.60002,0.520445 -4.77396,0.59474 -6.41725,0.150215 z m 4.36135,-7.739119 c 0.36679,-0.166613 0.86804,-0.541972 1.11387,-0.834131 0.36905,-0.438588 0.44698,-0.691681 0.44698,-1.451692 0,-0.855474 -0.0455,-0.963783 -0.64424,-1.533346 l -0.64425,-0.612853 0.42915,-0.429143 c 0.35423,-0.35423 0.43068,-0.586515 0.43797,-1.330657 0.008,-0.771619 -0.0586,-0.971932 -0.45909,-1.39024 -0.61298,-0.640242 -1.66521,-0.925725 -2.96473,-0.804373 -1.52011,0.14195 -1.60043,0.195074 -1.60043,1.058552 0,0.625398 0.0434,0.725923 0.27514,0.637004 0.15132,-0.05807 0.70558,-0.150571 1.23168,-0.205559 1.55605,-0.16264 2.28417,0.623497 1.48806,1.606648 -0.24218,0.299081 -0.51577,0.392478 -1.32015,0.450662 l -1.01466,0.07339 v 0.618068 0.618069 l 1.15939,0.08295 c 1.3217,0.09457 1.81095,0.403118 1.81095,1.1421 0,0.258214 -0.14852,0.617997 -0.33004,0.799518 -0.3502,0.350202 -0.73487,0.401656 -2.51653,0.336613 l -1.11388,-0.04066 v 0.759629 0.759628 l 1.77395,-0.0036 c 1.36302,-0.0028 1.92844,-0.0738 2.44086,-0.306555 z"
       id="path25"
       transform="matrix(3.7500026,0,0,-3.7500026,2917.7041,1525.355)" /><path
       style="fill:#f17634;fill-rule:evenodd;stroke:#f17634;stroke-width:0.495212;stroke-linecap:square;stroke-linejoin:round;stroke-dashoffset:1.2;paint-order:markers stroke fill"
       d="m 172.03206,32.854074 c -4.18119,-1.141296 -7.18637,-3.940036 -8.61022,-8.01875 -0.42359,-1.213427 -0.46055,-1.513587 -0.45712,-3.712922 0.003,-2.153331 0.0481,-2.524878 0.4471,-3.712923 0.63928,-1.903485 1.50644,-3.282325 3.00963,-4.785517 1.50319,-1.503193 2.88203,-2.370351 4.78552,-3.0096316 1.19121,-0.400065 1.55385,-0.4433691 3.71292,-0.4433691 2.15907,0 2.52171,0.043304 3.71292,0.4433691 1.90348,0.6392806 3.28233,1.5064386 4.78552,3.0096316 1.50319,1.503192 2.37035,2.882032 3.00963,4.785517 0.40006,1.191211 0.44337,1.553854 0.44337,3.712923 0,2.159068 -0.0433,2.521711 -0.44337,3.712922 -0.62423,1.858667 -1.49292,3.257789 -2.9271,4.714391 -1.41759,1.439764 -2.96137,2.41005 -4.86805,3.059648 -1.79082,0.610122 -4.84696,0.723424 -6.60075,0.244711 z m 4.86805,-8.513807 v -0.907603 h 0.66008 0.66007 V 22.69008 21.947495 h -0.66007 -0.66008 v -2.6403 -2.6403 l -1.11387,5.38e-4 -1.11388,5.37e-4 -1.60893,2.628387 c -1.41696,2.314762 -1.60894,2.718351 -1.60894,3.382347 v 0.75396 h 1.89772 1.89772 v 0.907603 0.907604 h 0.82509 0.82509 z"
       id="path26"
       transform="matrix(3.7500026,0,0,-3.7500026,2917.7041,1525.355)" /></g></svg>
