<?xml version="1.0" encoding="UTF-8" standalone="no"?>
<svg
   width="120.77572mm"
   height="44.27359mm"
   viewBox="566.3281 1648.3672 1711.7826 627.50032"
   version="1.0"
   id="svg27"
   xml:space="preserve"
   sodipodi:docname="DB26-male.svg"
   inkscape:version="1.4 (86a8ad7, 2024-10-11)"
   xmlns:inkscape="http://www.inkscape.org/namespaces/inkscape"
   xmlns:sodipodi="http://sodipodi.sourceforge.net/DTD/sodipodi-0.dtd"
   xmlns="http://www.w3.org/2000/svg"
   xmlns:svg="http://www.w3.org/2000/svg"><sodipodi:namedview
     id="namedview1"
     pagecolor="#ffffff"
     bordercolor="#000000"
     borderopacity="0.25"
     inkscape:showpageshadow="2"
     inkscape:pageopacity="0.0"
     inkscape:pagecheckerboard="0"
     inkscape:deskcolor="#d1d1d1"
     inkscape:document-units="mm"
     inkscape:zoom="1.5149792"
     inkscape:cx="58.086606"
     inkscape:cy="17.822027"
     inkscape:window-width="1440"
     inkscape:window-height="830"
     inkscape:window-x="-6"
     inkscape:window-y="-6"
     inkscape:window-maximized="1"
     inkscape:current-layer="g27" /><defs
     id="defs27"><rect
       x="538.0542"
       y="309.02002"
       width="18.322737"
       height="16.208574"
       id="rect30" /></defs><desc
     id="desc1">
  Exported by the ArtWorks SVGExport module.
  Source document: SCSI::Develop.$.Develop.Web.!WebXpress.^.Input.cm.Pages.ref.conn.dsub.artwork.DE9_M
</desc><g
     transform="matrix(1,0,0,-1,-1440.148,1801.6653)"
     stroke-miterlimit="16"
     fill-rule="evenodd"
     clip-rule="evenodd"
     stroke-linejoin="bevel"
     stroke-linecap="butt"
     id="g27"><g
       id="g1"
       transform="matrix(1.5,0,0,1.5,-1003.2381,-76.64904)"><ellipse
         cx="-2321.2935"
         cy="-55.839615"
         stroke="#000000"
         stroke-width="11.2465"
         stroke-linejoin="miter"
         fill="#ffff00"
         id="circle10-7-0-9-1-0-8-4-2-20-0"
         style="fill:#e8590c;fill-opacity:1;stroke:#cccccc;stroke-width:7.50001;stroke-dasharray:none;stroke-opacity:1"
         rx="41.941048"
         ry="41.94104"
         transform="scale(-1,1)" /><text
         xml:space="preserve"
         style="font-style:normal;font-variant:normal;font-weight:bold;font-stretch:normal;font-size:49.3397px;line-height:0px;font-family:Consolas;-inkscape-font-specification:'Consolas, Bold';font-variant-ligatures:normal;font-variant-caps:normal;font-variant-numeric:normal;font-variant-east-asian:normal;text-align:start;writing-mode:lr-tb;direction:ltr;text-anchor:start;fill:#000000;fill-opacity:1;fill-rule:evenodd;stroke:#e580ff;stroke-width:9.86797;stroke-linecap:square;stroke-dashoffset:1.2;stroke-opacity:1;paint-order:markers stroke fill"
         x="2294.1064"
         y="71.848526"
         id="text28-03-4-6-6-9-1-6-0-7"
         transform="scale(1,-1)"><tspan
           style="font-style:normal;font-variant:normal;font-weight:bold;font-stretch:normal;font-size:49.3397px;font-family:Consolas;-inkscape-font-specification:'Consolas, Bold';font-variant-ligatures:normal;font-variant-caps:normal;font-variant-numeric:normal;font-variant-east-asian:normal;fill:#000000;fill-opacity:1;stroke:none;stroke-width:9.86797"
           x="2294.1064"
           y="71.848526"
           id="tspan31-1-8-4-5-3-78">12</tspan></text><ellipse
         cx="-2435.0024"
         cy="-55.839615"
         stroke="#000000"
         stroke-width="11.2465"
         stroke-linejoin="miter"
         fill="#ffff00"
         id="circle10-7-0-9-1-0-8-4-2-20-5-3"
         style="fill:#e8590c;fill-opacity:1;stroke:#cccccc;stroke-width:7.50001;stroke-dasharray:none;stroke-opacity:1"
         rx="41.941048"
         ry="41.94104"
         transform="scale(-1,1)" /><text
         xml:space="preserve"
         style="font-style:normal;font-variant:normal;font-weight:bold;font-stretch:normal;font-size:49.3397px;line-height:0px;font-family:Consolas;-inkscape-font-specification:'Consolas, Bold';font-variant-ligatures:normal;font-variant-caps:normal;font-variant-numeric:normal;font-variant-east-asian:normal;text-align:start;writing-mode:lr-tb;direction:ltr;text-anchor:start;fill:#000000;fill-opacity:1;fill-rule:evenodd;stroke:#e580ff;stroke-width:9.86797;stroke-linecap:square;stroke-dashoffset:1.2;stroke-opacity:1;paint-order:markers stroke fill"
         x="2407.7185"
         y="71.848526"
         id="text28-03-4-6-6-9-1-6-0-2-0"
         transform="scale(1,-1)"><tspan
           style="font-style:normal;font-variant:normal;font-weight:bold;font-stretch:normal;font-size:49.3397px;font-family:Consolas;-inkscape-font-specification:'Consolas, Bold';font-variant-ligatures:normal;font-variant-caps:normal;font-variant-numeric:normal;font-variant-east-asian:normal;fill:#000000;fill-opacity:1;stroke:none;stroke-width:9.86797"
           x="2407.7185"
           y="71.848526"
           id="tspan31-1-8-4-5-3-5-3">13</tspan></text><ellipse
         cx="-2548.7112"
         cy="-55.839615"
         stroke="#000000"
         stroke-width="11.2465"
         stroke-linejoin="miter"
         fill="#ffff00"
         id="circle10-7-0-9-1-0-8-4-2-20-8-2"
         style="fill:#e8590c;fill-opacity:1;stroke:#cccccc;stroke-width:7.50001;stroke-dasharray:none;stroke-opacity:1"
         rx="41.941048"
         ry="41.94104"
         transform="scale(-1,1)" /><text
         xml:space="preserve"
         style="font-style:normal;font-variant:normal;font-weight:bold;font-stretch:normal;font-size:49.3397px;line-height:0px;font-family:Consolas;-inkscape-font-specification:'Consolas, Bold';font-variant-ligatures:normal;font-variant-caps:normal;font-variant-numeric:normal;font-variant-east-asian:normal;text-align:start;writing-mode:lr-tb;direction:ltr;text-anchor:start;fill:#000000;fill-opacity:1;fill-rule:evenodd;stroke:#e580ff;stroke-width:9.86797;stroke-linecap:square;stroke-dashoffset:1.2;stroke-opacity:1;paint-order:markers stroke fill"
         x="2519.9097"
         y="71.848526"
         id="text28-03-4-6-6-9-1-6-0-6-5"
         transform="scale(1,-1)"><tspan
           style="font-style:normal;font-variant:normal;font-weight:bold;font-stretch:normal;font-size:49.3397px;font-family:Consolas;-inkscape-font-specification:'Consolas, Bold';font-variant-ligatures:normal;font-variant-caps:normal;font-variant-numeric:normal;font-variant-east-asian:normal;fill:#000000;fill-opacity:1;stroke:none;stroke-width:9.86797"
           x="2519.9097"
           y="71.848526"
           id="tspan31-1-8-4-5-3-7-2">14</tspan></text><ellipse
         cx="-2662.4202"
         cy="-55.839615"
         stroke="#000000"
         stroke-width="11.2465"
         stroke-linejoin="miter"
         fill="#ffff00"
         id="circle10-7-0-9-1-0-8-4-2-20-7-3"
         style="fill:#e8590c;fill-opacity:1;stroke:#cccccc;stroke-width:7.50001;stroke-dasharray:none;stroke-opacity:1"
         rx="41.941048"
         ry="41.94104"
         transform="scale(-1,1)" /><text
         xml:space="preserve"
         style="font-style:normal;font-variant:normal;font-weight:bold;font-stretch:normal;font-size:49.3397px;line-height:0px;font-family:Consolas;-inkscape-font-specification:'Consolas, Bold';font-variant-ligatures:normal;font-variant-caps:normal;font-variant-numeric:normal;font-variant-east-asian:normal;text-align:start;writing-mode:lr-tb;direction:ltr;text-anchor:start;fill:#000000;fill-opacity:1;fill-rule:evenodd;stroke:#e580ff;stroke-width:9.86797;stroke-linecap:square;stroke-dashoffset:1.2;stroke-opacity:1;paint-order:markers stroke fill"
         x="2635.4736"
         y="71.848526"
         id="text28-03-4-6-6-9-1-6-0-22-7"
         transform="scale(1,-1)"><tspan
           style="font-style:normal;font-variant:normal;font-weight:bold;font-stretch:normal;font-size:49.3397px;font-family:Consolas;-inkscape-font-specification:'Consolas, Bold';font-variant-ligatures:normal;font-variant-caps:normal;font-variant-numeric:normal;font-variant-east-asian:normal;fill:#000000;fill-opacity:1;stroke:none;stroke-width:9.86797"
           x="2635.4736"
           y="71.848526"
           id="tspan31-1-8-4-5-3-9-2">15</tspan></text><ellipse
         cx="-2776.1292"
         cy="-55.839615"
         stroke="#000000"
         stroke-width="11.2465"
         stroke-linejoin="miter"
         fill="#ffff00"
         id="circle10-7-0-9-1-0-8-4-2-20-4-7"
         style="fill:#e8590c;fill-opacity:1;stroke:#cccccc;stroke-width:7.50001;stroke-dasharray:none;stroke-opacity:1"
         rx="41.941048"
         ry="41.94104"
         transform="scale(-1,1)" /><text
         xml:space="preserve"
         style="font-style:normal;font-variant:normal;font-weight:bold;font-stretch:normal;font-size:49.3397px;line-height:0px;font-family:Consolas;-inkscape-font-specification:'Consolas, Bold';font-variant-ligatures:normal;font-variant-caps:normal;font-variant-numeric:normal;font-variant-east-asian:normal;text-align:start;writing-mode:lr-tb;direction:ltr;text-anchor:start;fill:#000000;fill-opacity:1;fill-rule:evenodd;stroke:#e580ff;stroke-width:9.86797;stroke-linecap:square;stroke-dashoffset:1.2;stroke-opacity:1;paint-order:markers stroke fill"
         x="2881.7085"
         y="-1184.4479"
         id="text28-03-4-6-6-9-1-6-0-1-3"
         transform="matrix(0.99999999,0,0,-0.99999999,-133.5618,-1256.2964)"><tspan
           style="font-style:normal;font-variant:normal;font-weight:bold;font-stretch:normal;font-size:49.3397px;font-family:Consolas;-inkscape-font-specification:'Consolas, Bold';font-variant-ligatures:normal;font-variant-caps:normal;font-variant-numeric:normal;font-variant-east-asian:normal;fill:#000000;fill-opacity:1;stroke:none;stroke-width:9.86797"
           x="2881.7085"
           y="-1184.4479"
           id="tspan31-1-8-4-5-3-96-4">16</tspan></text><ellipse
         cx="2805.7708"
         cy="1206.0818"
         stroke="#000000"
         stroke-width="11.2465"
         stroke-linejoin="miter"
         fill="#ffff00"
         id="circle10-7-0-9-1-0-8-4-2-20-9-1"
         style="fill:#e8590c;fill-opacity:1;stroke:#cccccc;stroke-width:7.50001;stroke-dasharray:none;stroke-opacity:1"
         rx="41.941048"
         ry="41.94104"
         transform="matrix(-0.99999999,0,0,0.99999999,5695.6085,-1261.9214)" /><text
         xml:space="preserve"
         style="font-style:normal;font-variant:normal;font-weight:bold;font-stretch:normal;font-size:49.3397px;line-height:0px;font-family:Consolas;-inkscape-font-specification:'Consolas, Bold';font-variant-ligatures:normal;font-variant-caps:normal;font-variant-numeric:normal;font-variant-east-asian:normal;text-align:start;writing-mode:lr-tb;direction:ltr;text-anchor:start;fill:#000000;fill-opacity:1;fill-rule:evenodd;stroke:#e580ff;stroke-width:9.86797;stroke-linecap:square;stroke-dashoffset:1.2;stroke-opacity:1;paint-order:markers stroke fill"
         x="2862.6987"
         y="71.848526"
         id="text28-03-4-6-6-9-1-6-0-8-1"
         transform="scale(1,-1)"><tspan
           style="font-style:normal;font-variant:normal;font-weight:bold;font-stretch:normal;font-size:49.3397px;font-family:Consolas;-inkscape-font-specification:'Consolas, Bold';font-variant-ligatures:normal;font-variant-caps:normal;font-variant-numeric:normal;font-variant-east-asian:normal;fill:#000000;fill-opacity:1;stroke:none;stroke-width:9.86797"
           x="2862.6987"
           y="71.848526"
           id="tspan31-1-8-4-5-3-2-3">17</tspan></text><ellipse
         cx="-3003.5466"
         cy="-55.839615"
         stroke="#000000"
         stroke-width="11.2465"
         stroke-linejoin="miter"
         fill="#ffff00"
         id="circle10-7-0-9-1-0-8-4-2-20-55-5"
         style="fill:#e8590c;fill-opacity:1;stroke:#cccccc;stroke-width:7.50001;stroke-dasharray:none;stroke-opacity:1"
         rx="41.941048"
         ry="41.94104"
         transform="scale(-1,1)" /><text
         xml:space="preserve"
         style="font-style:normal;font-variant:normal;font-weight:bold;font-stretch:normal;font-size:49.3397px;line-height:0px;font-family:Consolas;-inkscape-font-specification:'Consolas, Bold';font-variant-ligatures:normal;font-variant-caps:normal;font-variant-numeric:normal;font-variant-east-asian:normal;text-align:start;writing-mode:lr-tb;direction:ltr;text-anchor:start;fill:#000000;fill-opacity:1;fill-rule:evenodd;stroke:#e580ff;stroke-width:9.86797;stroke-linecap:square;stroke-dashoffset:1.2;stroke-opacity:1;paint-order:markers stroke fill"
         x="2976.1667"
         y="71.848526"
         id="text28-03-4-6-6-9-1-6-0-4-3"
         transform="scale(1,-1)"><tspan
           style="font-style:normal;font-variant:normal;font-weight:bold;font-stretch:normal;font-size:49.3397px;font-family:Consolas;-inkscape-font-specification:'Consolas, Bold';font-variant-ligatures:normal;font-variant-caps:normal;font-variant-numeric:normal;font-variant-east-asian:normal;fill:#000000;fill-opacity:1;stroke:none;stroke-width:9.86797"
           x="2976.1667"
           y="71.848526"
           id="tspan31-1-8-4-5-3-91-5">18</tspan></text><ellipse
         cx="-2207.5847"
         cy="-55.839615"
         stroke="#000000"
         stroke-width="11.2465"
         stroke-linejoin="miter"
         fill="#ffff00"
         id="circle10-7-0-9-1-0-8-4-2-91-2"
         style="fill:#e8590c;fill-opacity:1;stroke:#cccccc;stroke-width:7.50001;stroke-dasharray:none;stroke-opacity:1"
         rx="41.941048"
         ry="41.94104"
         transform="scale(-1,1)" /><text
         xml:space="preserve"
         style="font-style:normal;font-variant:normal;font-weight:bold;font-stretch:normal;font-size:49.3397px;line-height:0px;font-family:Consolas;-inkscape-font-specification:'Consolas, Bold';font-variant-ligatures:normal;font-variant-caps:normal;font-variant-numeric:normal;font-variant-east-asian:normal;text-align:start;writing-mode:lr-tb;direction:ltr;text-anchor:start;fill:#000000;fill-opacity:1;fill-rule:evenodd;stroke:#e580ff;stroke-width:9.86797;stroke-linecap:square;stroke-dashoffset:1.2;stroke-opacity:1;paint-order:markers stroke fill"
         x="2180.3252"
         y="71.679825"
         id="text28-03-4-6-6-9-1-6-8-2"
         transform="scale(1,-1)"><tspan
           style="font-style:normal;font-variant:normal;font-weight:bold;font-stretch:normal;font-size:49.3397px;font-family:Consolas;-inkscape-font-specification:'Consolas, Bold';font-variant-ligatures:normal;font-variant-caps:normal;font-variant-numeric:normal;font-variant-east-asian:normal;fill:#000000;fill-opacity:1;stroke:none;stroke-width:9.86797"
           x="2180.3252"
           y="71.679825"
           id="tspan31-1-8-4-5-19-6">11</tspan></text><ellipse
         cx="-2093.8757"
         cy="-55.839615"
         stroke="#000000"
         stroke-width="11.2465"
         stroke-linejoin="miter"
         fill="#ffff00"
         id="circle10-7-0-9-1-0-8-4-2-5-0"
         style="fill:#e8590c;fill-opacity:1;stroke:#cccccc;stroke-width:7.50001;stroke-dasharray:none;stroke-opacity:1"
         rx="41.941048"
         ry="41.94104"
         transform="scale(-1,1)" /><text
         xml:space="preserve"
         style="font-style:normal;font-variant:normal;font-weight:bold;font-stretch:normal;font-size:49.3397px;line-height:0px;font-family:Consolas;-inkscape-font-specification:'Consolas, Bold';font-variant-ligatures:normal;font-variant-caps:normal;font-variant-numeric:normal;font-variant-east-asian:normal;text-align:start;writing-mode:lr-tb;direction:ltr;text-anchor:start;fill:#000000;fill-opacity:1;fill-rule:evenodd;stroke:#e580ff;stroke-width:9.86797;stroke-linecap:square;stroke-dashoffset:1.2;stroke-opacity:1;paint-order:markers stroke fill"
         x="2066.0017"
         y="71.571426"
         id="text28-03-4-6-6-9-1-6-3-7"
         transform="scale(1,-1)"><tspan
           style="font-style:normal;font-variant:normal;font-weight:bold;font-stretch:normal;font-size:49.3397px;font-family:Consolas;-inkscape-font-specification:'Consolas, Bold';font-variant-ligatures:normal;font-variant-caps:normal;font-variant-numeric:normal;font-variant-east-asian:normal;fill:#000000;fill-opacity:1;stroke:none;stroke-width:9.86797"
           x="2066.0017"
           y="71.571426"
           id="tspan31-1-8-4-5-2-0">10</tspan></text><ellipse
         cx="-3060.2639"
         cy="74.148392"
         stroke="#000000"
         stroke-width="11.2465"
         stroke-linejoin="miter"
         fill="#ffff00"
         id="circle10-7-0-81-0"
         style="fill:#e8590c;fill-opacity:1;stroke:#cccccc;stroke-width:7.50001;stroke-dasharray:none;stroke-opacity:1"
         rx="41.941048"
         ry="41.94104"
         transform="scale(-1,1)" /><text
         xml:space="preserve"
         style="font-style:normal;font-variant:normal;font-weight:bold;font-stretch:normal;font-size:49.3397px;line-height:0px;font-family:Consolas;-inkscape-font-specification:'Consolas, Bold';font-variant-ligatures:normal;font-variant-caps:normal;font-variant-numeric:normal;font-variant-east-asian:normal;text-align:start;writing-mode:lr-tb;direction:ltr;text-anchor:start;fill:#000000;fill-opacity:1;fill-rule:evenodd;stroke:#e580ff;stroke-width:9.86797;stroke-linecap:square;stroke-dashoffset:1.2;stroke-opacity:1;paint-order:markers stroke fill"
         x="3047.604"
         y="-58.30806"
         id="text28-03-9-5"
         transform="scale(1,-1)"><tspan
           id="tspan28-80-8-3"
           style="font-style:normal;font-variant:normal;font-weight:bold;font-stretch:normal;font-size:49.3397px;font-family:Consolas;-inkscape-font-specification:'Consolas, Bold';font-variant-ligatures:normal;font-variant-caps:normal;font-variant-numeric:normal;font-variant-east-asian:normal;fill:#000000;fill-opacity:1;stroke:none;stroke-width:9.86797"
           x="3047.604"
           y="-58.30806">9</tspan></text><ellipse
         cx="-2832.8462"
         cy="74.148392"
         stroke="#000000"
         stroke-width="11.2465"
         stroke-linejoin="miter"
         fill="#ffff00"
         id="circle10-7-0-8-9-0"
         style="fill:#e8590c;fill-opacity:1;stroke:#cccccc;stroke-width:7.50001;stroke-dasharray:none;stroke-opacity:1"
         rx="41.941048"
         ry="41.94104"
         transform="scale(-1,1)" /><text
         xml:space="preserve"
         style="font-style:normal;font-variant:normal;font-weight:bold;font-stretch:normal;font-size:49.3397px;line-height:0px;font-family:Consolas;-inkscape-font-specification:'Consolas, Bold';font-variant-ligatures:normal;font-variant-caps:normal;font-variant-numeric:normal;font-variant-east-asian:normal;text-align:start;writing-mode:lr-tb;direction:ltr;text-anchor:start;fill:#000000;fill-opacity:1;fill-rule:evenodd;stroke:#e580ff;stroke-width:9.86797;stroke-linecap:square;stroke-dashoffset:1.2;stroke-opacity:1;paint-order:markers stroke fill"
         x="2820.0896"
         y="-58.452591"
         id="text28-03-3-7-6"
         transform="scale(1,-1)"><tspan
           id="tspan28-80-5-2-7"
           style="font-style:normal;font-variant:normal;font-weight:bold;font-stretch:normal;font-size:49.3397px;font-family:Consolas;-inkscape-font-specification:'Consolas, Bold';font-variant-ligatures:normal;font-variant-caps:normal;font-variant-numeric:normal;font-variant-east-asian:normal;fill:#000000;fill-opacity:1;stroke:none;stroke-width:9.86797"
           x="2820.0896"
           y="-58.452591">7</tspan></text><ellipse
         cx="-2719.1375"
         cy="74.148392"
         stroke="#000000"
         stroke-width="11.2465"
         stroke-linejoin="miter"
         fill="#ffff00"
         id="circle10-7-0-8-1-2-0"
         style="fill:#e8590c;fill-opacity:1;stroke:#cccccc;stroke-width:7.50001;stroke-dasharray:none;stroke-opacity:1"
         rx="41.941048"
         ry="41.94104"
         transform="scale(-1,1)" /><text
         xml:space="preserve"
         style="font-style:normal;font-variant:normal;font-weight:bold;font-stretch:normal;font-size:49.3397px;line-height:0px;font-family:Consolas;-inkscape-font-specification:'Consolas, Bold';font-variant-ligatures:normal;font-variant-caps:normal;font-variant-numeric:normal;font-variant-east-asian:normal;text-align:start;writing-mode:lr-tb;direction:ltr;text-anchor:start;fill:#000000;fill-opacity:1;fill-rule:evenodd;stroke:#e580ff;stroke-width:9.86797;stroke-linecap:square;stroke-dashoffset:1.2;stroke-opacity:1;paint-order:markers stroke fill"
         x="2704.8391"
         y="-58.500809"
         id="text28-03-3-2-8-0"
         transform="scale(1,-1)"><tspan
           id="tspan28-80-5-0-2-4"
           style="font-style:normal;font-variant:normal;font-weight:bold;font-stretch:normal;font-size:49.3397px;font-family:Consolas;-inkscape-font-specification:'Consolas, Bold';font-variant-ligatures:normal;font-variant-caps:normal;font-variant-numeric:normal;font-variant-east-asian:normal;fill:#000000;fill-opacity:1;stroke:none;stroke-width:9.86797"
           x="2704.8391"
           y="-58.500809">6</tspan></text><ellipse
         cx="-2946.5552"
         cy="74.148392"
         stroke="#000000"
         stroke-width="11.2465"
         stroke-linejoin="miter"
         fill="#ffff00"
         id="circle10-7-0-9-8-4"
         style="fill:#e8590c;fill-opacity:1;stroke:#cccccc;stroke-width:7.50001;stroke-dasharray:none;stroke-opacity:1"
         rx="41.941048"
         ry="41.94104"
         transform="scale(-1,1)" /><text
         xml:space="preserve"
         style="font-style:normal;font-variant:normal;font-weight:bold;font-stretch:normal;font-size:49.3397px;line-height:0px;font-family:Consolas;-inkscape-font-specification:'Consolas, Bold';font-variant-ligatures:normal;font-variant-caps:normal;font-variant-numeric:normal;font-variant-east-asian:normal;text-align:start;writing-mode:lr-tb;direction:ltr;text-anchor:start;fill:#000000;fill-opacity:1;fill-rule:evenodd;stroke:#e580ff;stroke-width:9.86797;stroke-linecap:square;stroke-dashoffset:1.2;stroke-opacity:1;paint-order:markers stroke fill"
         x="2933.1721"
         y="-57.970779"
         id="text28-03-4-9-9"
         transform="scale(1,-1)"><tspan
           id="tspan28-80-7-0-5"
           style="font-style:normal;font-variant:normal;font-weight:bold;font-stretch:normal;font-size:49.3397px;font-family:Consolas;-inkscape-font-specification:'Consolas, Bold';font-variant-ligatures:normal;font-variant-caps:normal;font-variant-numeric:normal;font-variant-east-asian:normal;fill:#000000;fill-opacity:1;stroke:none;stroke-width:9.86797"
           x="2933.1721"
           y="-57.970779">8</tspan></text><ellipse
         cx="-2605.4285"
         cy="74.148392"
         stroke="#000000"
         stroke-width="11.2465"
         stroke-linejoin="miter"
         fill="#ffff00"
         id="circle10-7-0-9-1-7-4"
         style="fill:#e8590c;fill-opacity:1;stroke:#cccccc;stroke-width:7.50001;stroke-dasharray:none;stroke-opacity:1"
         rx="41.941048"
         ry="41.94104"
         transform="scale(-1,1)" /><text
         xml:space="preserve"
         style="font-style:normal;font-variant:normal;font-weight:bold;font-stretch:normal;font-size:49.3397px;line-height:0px;font-family:Consolas;-inkscape-font-specification:'Consolas, Bold';font-variant-ligatures:normal;font-variant-caps:normal;font-variant-numeric:normal;font-variant-east-asian:normal;text-align:start;writing-mode:lr-tb;direction:ltr;text-anchor:start;fill:#000000;fill-opacity:1;fill-rule:evenodd;stroke:#e580ff;stroke-width:9.86797;stroke-linecap:square;stroke-dashoffset:1.2;stroke-opacity:1;paint-order:markers stroke fill"
         x="2591.7329"
         y="-58.98262"
         id="text28-03-4-6-8-8"
         transform="scale(1,-1)"><tspan
           style="font-style:normal;font-variant:normal;font-weight:bold;font-stretch:normal;font-size:49.3397px;font-family:Consolas;-inkscape-font-specification:'Consolas, Bold';font-variant-ligatures:normal;font-variant-caps:normal;font-variant-numeric:normal;font-variant-east-asian:normal;fill:#000000;fill-opacity:1;stroke:none;stroke-width:9.86797"
           x="2591.7329"
           y="-58.98262"
           id="tspan31-15-2">5</tspan></text><ellipse
         cx="-2491.7197"
         cy="74.148392"
         stroke="#000000"
         stroke-width="11.2465"
         stroke-linejoin="miter"
         fill="#ffff00"
         id="circle10-7-0-9-1-0-86-6"
         style="fill:#e8590c;fill-opacity:1;stroke:#cccccc;stroke-width:7.50001;stroke-dasharray:none;stroke-opacity:1"
         rx="41.941048"
         ry="41.94104"
         transform="scale(-1,1)" /><text
         xml:space="preserve"
         style="font-style:normal;font-variant:normal;font-weight:bold;font-stretch:normal;font-size:49.3397px;line-height:0px;font-family:Consolas;-inkscape-font-specification:'Consolas, Bold';font-variant-ligatures:normal;font-variant-caps:normal;font-variant-numeric:normal;font-variant-east-asian:normal;text-align:start;writing-mode:lr-tb;direction:ltr;text-anchor:start;fill:#000000;fill-opacity:1;fill-rule:evenodd;stroke:#e580ff;stroke-width:9.86797;stroke-linecap:square;stroke-dashoffset:1.2;stroke-opacity:1;paint-order:markers stroke fill"
         x="2478.626"
         y="-59.054764"
         id="text28-03-4-6-6-1-8"
         transform="scale(1,-1)"><tspan
           style="font-style:normal;font-variant:normal;font-weight:bold;font-stretch:normal;font-size:49.3397px;font-family:Consolas;-inkscape-font-specification:'Consolas, Bold';font-variant-ligatures:normal;font-variant-caps:normal;font-variant-numeric:normal;font-variant-east-asian:normal;fill:#000000;fill-opacity:1;stroke:none;stroke-width:9.86797"
           x="2478.626"
           y="-59.054764"
           id="tspan31-1-2-3">4</tspan></text><ellipse
         cx="-2378.0107"
         cy="74.148392"
         stroke="#000000"
         stroke-width="11.2465"
         stroke-linejoin="miter"
         fill="#ffff00"
         id="circle10-7-0-9-1-0-8-42-4"
         style="fill:#e8590c;fill-opacity:1;stroke:#cccccc;stroke-width:7.50001;stroke-dasharray:none;stroke-opacity:1"
         rx="41.941048"
         ry="41.94104"
         transform="scale(-1,1)" /><text
         xml:space="preserve"
         style="font-style:normal;font-variant:normal;font-weight:bold;font-stretch:normal;font-size:49.3397px;line-height:0px;font-family:Consolas;-inkscape-font-specification:'Consolas, Bold';font-variant-ligatures:normal;font-variant-caps:normal;font-variant-numeric:normal;font-variant-east-asian:normal;text-align:start;writing-mode:lr-tb;direction:ltr;text-anchor:start;fill:#000000;fill-opacity:1;fill-rule:evenodd;stroke:#e580ff;stroke-width:9.86797;stroke-linecap:square;stroke-dashoffset:1.2;stroke-opacity:1;paint-order:markers stroke fill"
         x="2363.375"
         y="-58.500687"
         id="text28-03-4-6-6-9-5-8"
         transform="scale(1,-1)"><tspan
           style="font-style:normal;font-variant:normal;font-weight:bold;font-stretch:normal;font-size:49.3397px;font-family:Consolas;-inkscape-font-specification:'Consolas, Bold';font-variant-ligatures:normal;font-variant-caps:normal;font-variant-numeric:normal;font-variant-east-asian:normal;fill:#000000;fill-opacity:1;stroke:none;stroke-width:9.86797"
           x="2363.375"
           y="-58.500687"
           id="tspan31-1-8-86-4">3</tspan></text><ellipse
         cx="-2150.593"
         cy="74.148392"
         stroke="#000000"
         stroke-width="11.2465"
         stroke-linejoin="miter"
         fill="#ffff00"
         id="circle10-7-0-9-1-0-8-4-2-0"
         style="fill:#e8590c;fill-opacity:1;stroke:#cccccc;stroke-width:7.50001;stroke-dasharray:none;stroke-opacity:1"
         rx="41.941048"
         ry="41.94104"
         transform="scale(-1,1)" /><text
         xml:space="preserve"
         style="font-style:normal;font-variant:normal;font-weight:bold;font-stretch:normal;font-size:49.3397px;line-height:0px;font-family:Consolas;-inkscape-font-specification:'Consolas, Bold';font-variant-ligatures:normal;font-variant-caps:normal;font-variant-numeric:normal;font-variant-east-asian:normal;text-align:start;writing-mode:lr-tb;direction:ltr;text-anchor:start;fill:#000000;fill-opacity:1;fill-rule:evenodd;stroke:#e580ff;stroke-width:9.86797;stroke-linecap:square;stroke-dashoffset:1.2;stroke-opacity:1;paint-order:markers stroke fill"
         x="2135.8613"
         y="-57.970657"
         id="text28-03-4-6-6-9-1-6-7"
         transform="scale(1,-1)"><tspan
           style="font-style:normal;font-variant:normal;font-weight:bold;font-stretch:normal;font-size:49.3397px;font-family:Consolas;-inkscape-font-specification:'Consolas, Bold';font-variant-ligatures:normal;font-variant-caps:normal;font-variant-numeric:normal;font-variant-east-asian:normal;fill:#000000;fill-opacity:1;stroke:none;stroke-width:9.86797"
           x="2135.8613"
           y="-57.970657"
           id="tspan31-1-8-4-5-0">1</tspan></text><ellipse
         cx="-2264.302"
         cy="74.148392"
         stroke="#000000"
         stroke-width="11.2465"
         stroke-linejoin="miter"
         fill="#ffff00"
         id="circle10-7-0-9-1-0-8-3-3-0"
         style="fill:#e8590c;fill-opacity:1;stroke:#cccccc;stroke-width:7.50001;stroke-dasharray:none;stroke-opacity:1"
         rx="41.941048"
         ry="41.94104"
         transform="scale(-1,1)" /><text
         xml:space="preserve"
         style="font-style:normal;font-variant:normal;font-weight:bold;font-stretch:normal;font-size:49.3397px;line-height:0px;font-family:Consolas;-inkscape-font-specification:'Consolas, Bold';font-variant-ligatures:normal;font-variant-caps:normal;font-variant-numeric:normal;font-variant-east-asian:normal;text-align:start;writing-mode:lr-tb;direction:ltr;text-anchor:start;fill:#000000;fill-opacity:1;fill-rule:evenodd;stroke:#e580ff;stroke-width:9.86797;stroke-linecap:square;stroke-dashoffset:1.2;stroke-opacity:1;paint-order:markers stroke fill"
         x="2250.2927"
         y="-58.524734"
         id="text28-03-4-6-6-9-9-9-7"
         transform="scale(1,-1)"><tspan
           style="font-style:normal;font-variant:normal;font-weight:bold;font-stretch:normal;font-size:49.3397px;font-family:Consolas;-inkscape-font-specification:'Consolas, Bold';font-variant-ligatures:normal;font-variant-caps:normal;font-variant-numeric:normal;font-variant-east-asian:normal;fill:#000000;fill-opacity:1;stroke:none;stroke-width:9.86797"
           x="2250.2927"
           y="-58.524734"
           id="tspan31-1-8-8-2-0">2</tspan></text><ellipse
         cx="-2150.8523"
         cy="-185.88567"
         stroke="#000000"
         stroke-width="11.2465"
         stroke-linejoin="miter"
         fill="#ffff00"
         id="circle10-7-0-9-1-0-8-4-2-20-2-73"
         style="fill:#e8590c;fill-opacity:1;stroke:#cccccc;stroke-width:7.50001;stroke-dasharray:none;stroke-opacity:1"
         rx="41.941048"
         ry="41.94104"
         transform="scale(-1,1)" /><text
         xml:space="preserve"
         style="font-style:normal;font-variant:normal;font-weight:bold;font-stretch:normal;font-size:49.3397px;line-height:0px;font-family:Consolas;-inkscape-font-specification:'Consolas, Bold';font-variant-ligatures:normal;font-variant-caps:normal;font-variant-numeric:normal;font-variant-east-asian:normal;text-align:start;writing-mode:lr-tb;direction:ltr;text-anchor:start;fill:#000000;fill-opacity:1;fill-rule:evenodd;stroke:#e580ff;stroke-width:9.86797;stroke-linecap:square;stroke-dashoffset:1.2;stroke-opacity:1;paint-order:markers stroke fill"
         x="2123.5205"
         y="201.89455"
         id="text28-03-4-6-6-9-1-6-0-5-84"
         transform="scale(1,-1)"><tspan
           style="font-style:normal;font-variant:normal;font-weight:bold;font-stretch:normal;font-size:49.3397px;font-family:Consolas;-inkscape-font-specification:'Consolas, Bold';font-variant-ligatures:normal;font-variant-caps:normal;font-variant-numeric:normal;font-variant-east-asian:normal;fill:#000000;fill-opacity:1;stroke:none;stroke-width:9.86797"
           x="2123.5205"
           y="201.89455"
           id="tspan31-1-8-4-5-3-0-92">19</tspan></text><ellipse
         cx="-2264.5613"
         cy="-185.88567"
         stroke="#000000"
         stroke-width="11.2465"
         stroke-linejoin="miter"
         fill="#ffff00"
         id="circle10-7-0-9-1-0-8-4-2-20-2-3-5"
         style="fill:#e8590c;fill-opacity:1;stroke:#cccccc;stroke-width:7.50001;stroke-dasharray:none;stroke-opacity:1"
         rx="41.941048"
         ry="41.94104"
         transform="scale(-1,1)" /><text
         xml:space="preserve"
         style="font-style:normal;font-variant:normal;font-weight:bold;font-stretch:normal;font-size:49.3397px;line-height:0px;font-family:Consolas;-inkscape-font-specification:'Consolas, Bold';font-variant-ligatures:normal;font-variant-caps:normal;font-variant-numeric:normal;font-variant-east-asian:normal;text-align:start;writing-mode:lr-tb;direction:ltr;text-anchor:start;fill:#000000;fill-opacity:1;fill-rule:evenodd;stroke:#e580ff;stroke-width:9.86797;stroke-linecap:square;stroke-dashoffset:1.2;stroke-opacity:1;paint-order:markers stroke fill"
         x="2235.8081"
         y="201.89455"
         id="text28-03-4-6-6-9-1-6-0-5-9-7"
         transform="scale(1,-1)"><tspan
           style="font-style:normal;font-variant:normal;font-weight:bold;font-stretch:normal;font-size:49.3397px;font-family:Consolas;-inkscape-font-specification:'Consolas, Bold';font-variant-ligatures:normal;font-variant-caps:normal;font-variant-numeric:normal;font-variant-east-asian:normal;fill:#000000;fill-opacity:1;stroke:none;stroke-width:9.86797"
           x="2235.8081"
           y="201.89455"
           id="tspan31-1-8-4-5-3-0-3-7">20</tspan></text><ellipse
         cx="-2378.27"
         cy="-185.88567"
         stroke="#000000"
         stroke-width="11.2465"
         stroke-linejoin="miter"
         fill="#ffff00"
         id="circle10-7-0-9-1-0-8-4-2-20-2-6-5"
         style="fill:#e8590c;fill-opacity:1;stroke:#cccccc;stroke-width:7.50001;stroke-dasharray:none;stroke-opacity:1"
         rx="41.941048"
         ry="41.94104"
         transform="scale(-1,1)" /><text
         xml:space="preserve"
         style="font-style:normal;font-variant:normal;font-weight:bold;font-stretch:normal;font-size:49.3397px;line-height:0px;font-family:Consolas;-inkscape-font-specification:'Consolas, Bold';font-variant-ligatures:normal;font-variant-caps:normal;font-variant-numeric:normal;font-variant-east-asian:normal;text-align:start;writing-mode:lr-tb;direction:ltr;text-anchor:start;fill:#000000;fill-opacity:1;fill-rule:evenodd;stroke:#e580ff;stroke-width:9.86797;stroke-linecap:square;stroke-dashoffset:1.2;stroke-opacity:1;paint-order:markers stroke fill"
         x="2350.7454"
         y="201.89455"
         id="text28-03-4-6-6-9-1-6-0-5-7-7"
         transform="scale(1,-1)"><tspan
           style="font-style:normal;font-variant:normal;font-weight:bold;font-stretch:normal;font-size:49.3397px;font-family:Consolas;-inkscape-font-specification:'Consolas, Bold';font-variant-ligatures:normal;font-variant-caps:normal;font-variant-numeric:normal;font-variant-east-asian:normal;fill:#000000;fill-opacity:1;stroke:none;stroke-width:9.86797"
           x="2350.7454"
           y="201.89455"
           id="tspan31-1-8-4-5-3-0-9-9">21</tspan></text><ellipse
         cx="-2491.979"
         cy="-185.88567"
         stroke="#000000"
         stroke-width="11.2465"
         stroke-linejoin="miter"
         fill="#ffff00"
         id="circle10-7-0-9-1-0-8-4-2-20-2-7-3"
         style="fill:#e8590c;fill-opacity:1;stroke:#cccccc;stroke-width:7.50001;stroke-dasharray:none;stroke-opacity:1"
         rx="41.941048"
         ry="41.94104"
         transform="scale(-1,1)" /><text
         xml:space="preserve"
         style="font-style:normal;font-variant:normal;font-weight:bold;font-stretch:normal;font-size:49.3397px;line-height:0px;font-family:Consolas;-inkscape-font-specification:'Consolas, Bold';font-variant-ligatures:normal;font-variant-caps:normal;font-variant-numeric:normal;font-variant-east-asian:normal;text-align:start;writing-mode:lr-tb;direction:ltr;text-anchor:start;fill:#000000;fill-opacity:1;fill-rule:evenodd;stroke:#e580ff;stroke-width:9.86797;stroke-linecap:square;stroke-dashoffset:1.2;stroke-opacity:1;paint-order:markers stroke fill"
         x="2464.5989"
         y="201.89455"
         id="text28-03-4-6-6-9-1-6-0-5-6-0"
         transform="scale(1,-1)"><tspan
           style="font-style:normal;font-variant:normal;font-weight:bold;font-stretch:normal;font-size:49.3397px;font-family:Consolas;-inkscape-font-specification:'Consolas, Bold';font-variant-ligatures:normal;font-variant-caps:normal;font-variant-numeric:normal;font-variant-east-asian:normal;fill:#000000;fill-opacity:1;stroke:none;stroke-width:9.86797"
           x="2464.5989"
           y="201.89455"
           id="tspan31-1-8-4-5-3-0-93-2">22</tspan></text><ellipse
         cx="-2605.688"
         cy="-185.88567"
         stroke="#000000"
         stroke-width="11.2465"
         stroke-linejoin="miter"
         fill="#ffff00"
         id="circle10-7-0-9-1-0-8-4-2-20-2-76-3"
         style="fill:#e8590c;fill-opacity:1;stroke:#cccccc;stroke-width:7.50001;stroke-dasharray:none;stroke-opacity:1"
         rx="41.941048"
         ry="41.94104"
         transform="scale(-1,1)" /><text
         xml:space="preserve"
         style="font-style:normal;font-variant:normal;font-weight:bold;font-stretch:normal;font-size:49.3397px;line-height:0px;font-family:Consolas;-inkscape-font-specification:'Consolas, Bold';font-variant-ligatures:normal;font-variant-caps:normal;font-variant-numeric:normal;font-variant-east-asian:normal;text-align:start;writing-mode:lr-tb;direction:ltr;text-anchor:start;fill:#000000;fill-opacity:1;fill-rule:evenodd;stroke:#e580ff;stroke-width:9.86797;stroke-linecap:square;stroke-dashoffset:1.2;stroke-opacity:1;paint-order:markers stroke fill"
         x="2578.2114"
         y="201.89455"
         id="text28-03-4-6-6-9-1-6-0-5-65-6"
         transform="scale(1,-1)"><tspan
           style="font-style:normal;font-variant:normal;font-weight:bold;font-stretch:normal;font-size:49.3397px;font-family:Consolas;-inkscape-font-specification:'Consolas, Bold';font-variant-ligatures:normal;font-variant-caps:normal;font-variant-numeric:normal;font-variant-east-asian:normal;fill:#000000;fill-opacity:1;stroke:none;stroke-width:9.86797"
           x="2578.2114"
           y="201.89455"
           id="tspan31-1-8-4-5-3-0-8-7">23</tspan></text><ellipse
         cx="-2719.3967"
         cy="-185.88567"
         stroke="#000000"
         stroke-width="11.2465"
         stroke-linejoin="miter"
         fill="#ffff00"
         id="circle10-7-0-9-1-0-8-4-2-20-2-5-5"
         style="fill:#e8590c;fill-opacity:1;stroke:#cccccc;stroke-width:7.50001;stroke-dasharray:none;stroke-opacity:1"
         rx="41.941048"
         ry="41.94104"
         transform="scale(-1,1)" /><text
         xml:space="preserve"
         style="font-style:normal;font-variant:normal;font-weight:bold;font-stretch:normal;font-size:49.3397px;line-height:0px;font-family:Consolas;-inkscape-font-specification:'Consolas, Bold';font-variant-ligatures:normal;font-variant-caps:normal;font-variant-numeric:normal;font-variant-east-asian:normal;text-align:start;writing-mode:lr-tb;direction:ltr;text-anchor:start;fill:#000000;fill-opacity:1;fill-rule:evenodd;stroke:#e580ff;stroke-width:9.86797;stroke-linecap:square;stroke-dashoffset:1.2;stroke-opacity:1;paint-order:markers stroke fill"
         x="2990.4585"
         y="-1045.6978"
         id="text28-03-4-6-6-9-1-6-0-5-4-0"
         transform="matrix(0.99999999,0,0,-0.99999999,-300.0561,-1247.5923)"><tspan
           style="font-style:normal;font-variant:normal;font-weight:bold;font-stretch:normal;font-size:49.3397px;font-family:Consolas;-inkscape-font-specification:'Consolas, Bold';font-variant-ligatures:normal;font-variant-caps:normal;font-variant-numeric:normal;font-variant-east-asian:normal;fill:#000000;fill-opacity:1;stroke:none;stroke-width:9.86797"
           x="2990.4585"
           y="-1045.6978"
           id="tspan31-1-8-4-5-3-0-4-2">24</tspan></text><ellipse
         cx="-2833.1057"
         cy="-185.88567"
         stroke="#000000"
         stroke-width="11.2465"
         stroke-linejoin="miter"
         fill="#ffff00"
         id="circle10-7-0-9-1-0-8-4-2-20-2-61-6"
         style="fill:#e8590c;fill-opacity:1;stroke:#cccccc;stroke-width:7.50001;stroke-dasharray:none;stroke-opacity:1"
         rx="41.941048"
         ry="41.94104"
         transform="scale(-1,1)" /><text
         xml:space="preserve"
         style="font-style:normal;font-variant:normal;font-weight:bold;font-stretch:normal;font-size:49.3397px;line-height:0px;font-family:Consolas;-inkscape-font-specification:'Consolas, Bold';font-variant-ligatures:normal;font-variant-caps:normal;font-variant-numeric:normal;font-variant-east-asian:normal;text-align:start;writing-mode:lr-tb;direction:ltr;text-anchor:start;fill:#000000;fill-opacity:1;fill-rule:evenodd;stroke:#e580ff;stroke-width:9.86797;stroke-linecap:square;stroke-dashoffset:1.2;stroke-opacity:1;paint-order:markers stroke fill"
         x="2805.9666"
         y="201.89455"
         id="text28-03-4-6-6-9-1-6-0-5-63-1"
         transform="scale(1,-1)"><tspan
           style="font-style:normal;font-variant:normal;font-weight:bold;font-stretch:normal;font-size:49.3397px;font-family:Consolas;-inkscape-font-specification:'Consolas, Bold';font-variant-ligatures:normal;font-variant-caps:normal;font-variant-numeric:normal;font-variant-east-asian:normal;fill:#000000;fill-opacity:1;stroke:none;stroke-width:9.86797"
           x="2805.9666"
           y="201.89455"
           id="tspan31-1-8-4-5-3-0-35-1">25</tspan></text><ellipse
         cx="-2946.8145"
         cy="-185.88567"
         stroke="#000000"
         stroke-width="11.2465"
         stroke-linejoin="miter"
         fill="#ffff00"
         id="circle10-7-0-9-1-0-8-4-2-20-2-32-3"
         style="fill:#e8590c;fill-opacity:1;stroke:#cccccc;stroke-width:7.50001;stroke-dasharray:none;stroke-opacity:1"
         rx="41.941048"
         ry="41.94104"
         transform="scale(-1,1)" /><text
         xml:space="preserve"
         style="font-style:normal;font-variant:normal;font-weight:bold;font-stretch:normal;font-size:49.3397px;line-height:0px;font-family:Consolas;-inkscape-font-specification:'Consolas, Bold';font-variant-ligatures:normal;font-variant-caps:normal;font-variant-numeric:normal;font-variant-east-asian:normal;text-align:start;writing-mode:lr-tb;direction:ltr;text-anchor:start;fill:#000000;fill-opacity:1;fill-rule:evenodd;stroke:#e580ff;stroke-width:9.86797;stroke-linecap:square;stroke-dashoffset:1.2;stroke-opacity:1;paint-order:markers stroke fill"
         x="2918.6394"
         y="201.89455"
         id="text28-03-4-6-6-9-1-6-0-5-8-0"
         transform="scale(1,-1)"><tspan
           style="font-style:normal;font-variant:normal;font-weight:bold;font-stretch:normal;font-size:49.3397px;font-family:Consolas;-inkscape-font-specification:'Consolas, Bold';font-variant-ligatures:normal;font-variant-caps:normal;font-variant-numeric:normal;font-variant-east-asian:normal;fill:#000000;fill-opacity:1;stroke:none;stroke-width:9.86797"
           x="2918.6394"
           y="201.89455"
           id="tspan31-1-8-4-5-3-0-2-0">26</tspan></text><path
         d="M 3097.7796,147.67308 H 2056.9682 c -38.7235,0 -49.1392,-72.325503 -43.3678,-119.730103 l 24.7815,-203.543137 c 4.6858,-38.4679 22.9376,-83.8102 43.3678,-83.8102 h 991.2484 c 20.437,0 38.9334,45.2391 43.3664,83.8102 l 24.7814,215.516437 c 5.1096,44.4069 -12.3907,107.756803 -43.3663,107.756803 z"
         stroke="#000000"
         stroke-width="4.99997"
         stroke-linejoin="miter"
         fill="#e6e6e6"
         id="path1-1-4-4-48"
         style="clip-rule:evenodd;fill:none;fill-rule:evenodd;stroke:#2f9e44;stroke-width:11.25;stroke-linecap:butt;stroke-miterlimit:16;stroke-dasharray:none;stroke-opacity:1" /><path
         style="fill:#f17634;fill-rule:evenodd;stroke:#f17634;stroke-width:0.350168;stroke-linecap:square;stroke-linejoin:round;stroke-dashoffset:1.2;paint-order:markers stroke fill"
         d="m 37.11318,31.152238 c -4.129225,-0.57421 -7.55494,-3.676584 -8.524194,-7.719625 -0.341687,-1.425278 -0.32198,-3.337191 0.04949,-4.801581 0.723623,-2.852606 2.702496,-5.286509 5.375457,-6.611509 5.635935,-2.7937614 12.449709,0.313591 14.198735,6.47519 0.350014,1.233057 0.377184,3.894478 0.05182,5.075836 -0.827684,3.005188 -2.959403,5.518886 -5.755333,6.786623 -1.509249,0.684325 -3.783056,1.019357 -5.395975,0.795066 z m 3.960252,-6.473173 V 23.920607 H 40.198288 39.323143 V 20.42003 16.919453 h -0.71009 c -0.622528,0 -0.849637,0.07168 -1.841755,0.581297 -1.686112,0.866097 -1.617625,0.792006 -1.363356,1.474912 0.116567,0.313073 0.249141,0.610703 0.294608,0.661401 0.04547,0.0507 0.457021,-0.119956 0.914564,-0.37923 0.457544,-0.259273 0.859762,-0.471405 0.893819,-0.471405 0.03406,0 0.06192,1.15519 0.06192,2.567089 v 2.56709 H 36.52268 35.472507 v 0.758458 0.758458 h 2.800462 2.800461 z"
         id="path1"
         transform="matrix(3.7500026,0,0,-3.7500026,2006.4763,153.2981)" /><path
         style="fill:#f17634;fill-rule:evenodd;stroke:#f17634;stroke-width:0.350168;stroke-linecap:square;stroke-linejoin:round;stroke-dashoffset:1.2;paint-order:markers stroke fill"
         d="m 67.45151,31.151797 c -3.271908,-0.453071 -6.243348,-2.567184 -7.711004,-5.486207 -2.89678,-5.761411 0.215805,-12.655722 6.485033,-14.364213 0.74325,-0.20255 1.251267,-0.252892 2.560791,-0.253759 1.439193,-9.53e-4 1.755755,0.03606 2.66004,0.311009 1.787497,0.543492 2.991449,1.244891 4.325305,2.519835 0.953857,0.911729 1.580689,1.800395 2.176373,3.085468 0.699467,1.508963 0.867164,2.331556 0.859198,4.214558 -0.006,1.423728 -0.04693,1.765473 -0.318371,2.660041 -0.901571,2.971184 -2.888675,5.270501 -5.628431,6.512766 -1.502951,0.68147 -3.806527,1.022391 -5.408934,0.800502 z m 4.193624,-6.589418 V 23.803921 H 69.907057 68.16898 l 1.19646,-1.196461 c 1.522874,-1.522874 1.861545,-2.131263 1.867228,-3.354289 0.0052,-1.11262 -0.261535,-1.670578 -1.025282,-2.144938 -1.04236,-0.647407 -2.805517,-0.52305 -3.908076,0.275639 -0.268659,0.194616 -0.48847,0.410316 -0.48847,0.479334 0,0.06902 0.191592,0.359301 0.42576,0.645072 0.423874,0.517283 0.426846,0.518593 0.670944,0.29583 0.808265,-0.737621 2.047814,-0.799668 2.411189,-0.120694 0.22867,0.427274 0.148139,1.241556 -0.177792,1.797714 -0.162356,0.277041 -0.978048,1.21081 -1.812647,2.075043 l -1.517454,1.571331 v 0.596668 0.596667 h 2.917147 2.917147 z"
         id="path2"
         transform="matrix(3.7500026,0,0,-3.7500026,2006.4763,153.2981)" /><path
         style="fill:#f17634;fill-rule:evenodd;stroke:#f17634;stroke-width:0.350168;stroke-linecap:square;stroke-linejoin:round;stroke-dashoffset:1.2;paint-order:markers stroke fill"
         d="m 52.216934,65.805931 c -2.320451,-0.360576 -4.287717,-1.407518 -5.967307,-3.17569 -4.712844,-4.961398 -3.12506,-13.051116 3.144548,-16.02139 1.418614,-0.67208 2.490961,-0.90219 4.222989,-0.906194 2.132502,-0.0049 3.724438,0.441574 5.407431,1.51667 2.085024,1.331914 3.75403,3.583657 4.396164,5.931094 0.287194,1.049888 0.355695,3.526999 0.127275,4.602521 -0.814939,3.837173 -3.723302,6.883 -7.473311,7.826537 -1.092515,0.274888 -2.873359,0.379423 -3.857789,0.226452 z m 0.758458,-6.471158 v -0.758458 h -0.933487 -0.933487 v -3.55892 -3.558919 h -0.659995 c -0.583598,0 -0.816594,0.08291 -2.012832,0.716263 -0.74406,0.393944 -1.364976,0.725512 -1.379814,0.736816 -0.05295,0.04034 0.495105,1.346924 0.565076,1.347151 0.03925,1.27e-4 0.453459,-0.209804 0.920475,-0.466513 0.467017,-0.256709 0.868103,-0.466743 0.891304,-0.466743 0.0232,0 0.04218,1.181444 0.04218,2.625432 v 2.625433 H 48.3663 47.257784 v 0.758458 0.758458 h 2.858804 2.858804 z m 7.234525,0 V 58.576315 H 59.27643 58.342943 v -3.55892 -3.558919 h -0.659995 c -0.583598,0 -0.816594,0.08291 -2.012832,0.716263 -0.74406,0.393944 -1.364976,0.725512 -1.379814,0.736816 -0.05295,0.04034 0.495105,1.346924 0.565076,1.347151 0.03925,1.27e-4 0.453459,-0.209804 0.920475,-0.466513 0.467017,-0.256709 0.868104,-0.466743 0.891304,-0.466743 0.0232,0 0.04218,1.181444 0.04218,2.625432 v 2.625433 h -1.108515 -1.108516 v 0.758458 0.758458 h 2.858804 2.858804 z"
         id="path3"
         transform="matrix(3.7500026,0,0,-3.7500026,2006.4763,153.2981)" /><path
         style="fill:#f17634;fill-rule:evenodd;stroke:#f17634;stroke-width:0.350168;stroke-linecap:square;stroke-linejoin:round;stroke-dashoffset:1.2;paint-order:markers stroke fill"
         d="m 21.959451,65.802384 c -3.380577,-0.438895 -6.353757,-2.658103 -7.829617,-5.844098 -0.599054,-1.2932 -0.829831,-2.238016 -0.907577,-3.715689 -0.144364,-2.74382 0.802799,-5.3107 2.704857,-7.330363 3.75454,-3.986684 9.613691,-4.361172 13.878542,-0.887049 1.935998,1.577054 3.324147,4.211762 3.544763,6.727968 0.176827,2.016767 -0.122573,3.691077 -0.967901,5.412713 -1.525522,3.106955 -4.368177,5.157466 -7.814367,5.636787 -1.003396,0.139559 -1.532104,0.139505 -2.6087,-2.69e-4 z m 6.073143,-5.908993 c 0.580838,-0.232404 1.419611,-1.179431 1.658022,-1.872011 0.479776,-1.393733 0.449307,-3.646253 -0.06508,-4.810928 -0.514613,-1.165195 -1.461446,-1.790493 -2.729444,-1.802552 -1.115013,-0.0106 -1.778904,0.261839 -2.445946,1.003752 -0.742026,0.825311 -1.010649,1.734998 -1.010649,3.422544 0,2.47391 0.785259,3.847328 2.431801,4.253223 0.543582,0.134 1.572275,0.04165 2.161291,-0.194028 z m -5.512218,-0.675304 v -0.758458 h -0.933487 -0.933487 v -3.500577 -3.500576 h -0.709011 c -0.643768,0 -0.831668,0.06532 -2.042003,0.709819 -0.733145,0.3904 -1.332992,0.729763 -1.332992,0.754138 0,0.06631 0.480313,1.272185 0.524247,1.316171 0.02088,0.02091 0.436554,-0.180747 0.923718,-0.448119 l 0.885752,-0.486129 v 2.577636 2.577637 h -1.050172 -1.050173 v 0.758458 0.758458 h 2.858804 2.858804 z"
         id="path4"
         transform="matrix(3.7500026,0,0,-3.7500026,2006.4763,153.2981)" /><path
         style="fill:#f17634;fill-rule:evenodd;stroke:#f17634;stroke-width:0.350168;stroke-linecap:square;stroke-linejoin:round;stroke-dashoffset:1.2;paint-order:markers stroke fill"
         d="M 82.555264,65.805931 C 78.684797,65.204498 75.558681,62.554751 74.301239,58.809686 73.9424,57.74095 73.929071,57.63208 73.929818,55.775853 c 7.24e-4,-1.799377 0.02232,-1.990195 0.330222,-2.917147 1.203724,-3.623913 3.70784,-5.972365 7.42008,-6.958824 1.134605,-0.3015 3.499092,-0.272665 4.725778,0.05763 6.609127,1.779568 9.676268,9.173654 6.221943,14.999495 -0.577782,0.974449 -2.00623,2.497941 -2.93244,3.127556 -2.061932,1.401647 -4.858646,2.075889 -7.140137,1.721368 z m 0.758458,-6.471158 v -0.758458 h -0.933487 -0.933487 v -3.500577 -3.500577 l -0.729287,0.0021 c -0.662581,0.0019 -0.846688,0.0643 -2.012831,0.682482 -1.402722,0.743597 -1.37466,0.697724 -0.984139,1.608773 0.166466,0.38835 0.267845,0.503239 0.372997,0.422704 0.07942,-0.06083 0.498832,-0.30557 0.932028,-0.543875 l 0.78763,-0.43328 v 2.631143 2.631144 H 78.70463 77.596114 v 0.758458 0.758458 h 2.858804 2.858804 z m 7.234525,0 v -0.758458 l -1.721116,3.01e-4 -1.721117,3.01e-4 1.225201,-1.254675 c 1.456466,-1.4915 1.784906,-2.069002 1.841729,-3.238334 0.03281,-0.675126 -0.0071,-0.907715 -0.230075,-1.340946 -0.475184,-0.923264 -1.433089,-1.352019 -2.803845,-1.25499 -0.814595,0.05766 -1.873806,0.488254 -2.265365,0.920922 -0.181379,0.200422 -0.172684,0.243512 0.140254,0.695082 0.395578,0.570819 0.573128,0.660372 0.842074,0.424725 0.612727,-0.536863 1.606766,-0.716583 2.090278,-0.377918 0.372248,0.260733 0.541131,0.8782 0.391838,1.432633 -0.174257,0.647142 -0.667649,1.283303 -2.24422,2.89361 l -1.37993,1.409458 v 0.603374 0.603373 h 2.917147 2.917147 z"
         id="path5"
         transform="matrix(3.7500026,0,0,-3.7500026,2006.4763,153.2981)" /><path
         style="fill:#f17634;fill-rule:evenodd;stroke:#f17634;stroke-width:0.350168;stroke-linecap:square;stroke-linejoin:round;stroke-dashoffset:1.2;paint-order:markers stroke fill"
         d="m 97.738154,31.146012 c -2.142557,-0.293215 -4.20284,-1.330555 -5.784994,-2.912709 -3.888931,-3.888932 -4.002124,-9.97477 -0.260688,-14.015968 1.277374,-1.379716 2.997578,-2.410553 4.865098,-2.915424 1.32714,-0.358783 3.69256,-0.358467 5.01749,6.7e-4 3.60795,0.977973 6.33085,3.700875 7.30882,7.308818 0.35384,1.305381 0.35927,3.694593 0.0113,4.970047 -1.01426,3.717714 -3.92389,6.557602 -7.55797,7.376806 -1.07932,0.243303 -2.609774,0.323146 -3.599056,0.18776 z m 1.857905,-5.886415 c 1.404761,-0.359395 2.154451,-1.230162 2.153601,-2.501402 -6.2e-4,-0.910448 -0.46481,-1.573484 -1.34146,-1.916099 -0.0642,-0.02508 0.0542,-0.206355 0.26314,-0.402828 0.48265,-0.453935 0.61201,-0.801244 0.61201,-1.643181 0,-0.86563 -0.31254,-1.361759 -1.10869,-1.759948 -0.512636,-0.256394 -0.731603,-0.291374 -1.808458,-0.288906 -0.697784,0.0016 -1.413566,0.06828 -1.662774,0.154906 l -0.437572,0.152099 v 0.704675 c 0,0.674385 0.01129,0.701571 0.262543,0.632446 0.917901,-0.252527 1.865348,-0.333734 2.316536,-0.198555 0.857929,0.257042 1.002672,1.334402 0.245895,1.830261 -0.19176,0.125646 -0.629034,0.222461 -1.158128,0.256417 l -0.850045,0.05455 v 0.611795 0.611795 l 0.962658,0.05245 c 1.528778,0.0833 2.117725,0.539463 1.886908,1.461462 -0.0771,0.307966 -0.222801,0.496729 -0.515848,0.6683 -0.356495,0.208719 -0.597487,0.238002 -1.896146,0.230406 l -1.487745,-0.0087 v 0.671091 c 0,0.541014 0.03958,0.681432 0.2042,0.724452 0.508707,0.132939 2.708187,0.06911 3.359375,-0.09749 z"
         id="path6"
         transform="matrix(3.7500026,0,0,-3.7500026,2006.4763,153.2981)" /><path
         style="fill:#f17634;fill-rule:evenodd;stroke:#f17634;stroke-width:0.350168;stroke-linecap:square;stroke-linejoin:round;stroke-dashoffset:1.2;paint-order:markers stroke fill"
         d="m 128.08176,31.139781 c -1.87979,-0.241545 -4.07974,-1.271047 -5.5106,-2.578768 -1.38199,-1.263061 -2.48357,-3.087083 -2.98246,-4.93842 -0.35791,-1.328169 -0.35888,-3.697154 -0.002,-5.011194 0.80542,-2.966066 2.79367,-5.358702 5.5305,-6.655317 1.44834,-0.686178 2.49053,-0.906533 4.28752,-0.906533 1.83302,0 2.85645,0.223038 4.37572,0.953609 3.86526,1.858683 6.22413,6.143237 5.66179,10.283846 -0.31678,2.332523 -1.29049,4.312434 -2.92436,5.946299 -1.64018,1.640179 -3.65922,2.630558 -5.94323,2.915263 -1.10808,0.138123 -1.35634,0.137248 -2.49281,-0.0088 z m 3.53992,-6.810774 v -0.875144 h 0.64177 0.64177 v -0.758458 -0.758458 h -0.64177 -0.64177 v -2.629658 -2.629658 l -1.13487,0.0334 -1.13488,0.0334 -1.60724,2.621626 -1.60725,2.621627 v 0.733093 0.733092 h 1.92532 1.92532 v 0.875144 0.875144 h 0.8168 0.8168 z"
         id="path7"
         transform="matrix(3.7500026,0,0,-3.7500026,2006.4763,153.2981)" /><path
         style="fill:#f17634;fill-rule:evenodd;stroke:#f17634;stroke-width:0.350168;stroke-linecap:square;stroke-linejoin:round;stroke-dashoffset:1.2;paint-order:markers stroke fill"
         d="m 112.89359,65.805445 c -3.3636,-0.520337 -6.23906,-2.624512 -7.69919,-5.634031 -0.71222,-1.467974 -0.99206,-2.71062 -0.99309,-4.40977 -0.003,-4.681809 3.03316,-8.582015 7.64211,-9.817527 1.31062,-0.351336 3.57324,-0.344583 4.90081,0.01463 1.92147,0.519903 3.46184,1.439702 4.85524,2.899204 1.75024,1.833274 2.61101,3.83603 2.7476,6.392821 0.14943,2.797102 -0.76523,5.303578 -2.69091,7.374061 -1.86841,2.008902 -4.19598,3.095698 -6.92172,3.231915 -0.6274,0.03135 -1.45578,0.0083 -1.84085,-0.0513 z m 6.16977,-5.888734 c 0.85027,-0.307041 1.53208,-1.022432 1.69062,-1.773902 0.22433,-1.063265 -0.10287,-1.919613 -0.88565,-2.317925 -0.24218,-0.123233 -0.45977,-0.234754 -0.48354,-0.247824 -0.0238,-0.01307 0.14167,-0.198135 0.36765,-0.411253 0.49553,-0.467352 0.72114,-1.19011 0.60829,-1.948747 -0.10948,-0.735944 -0.83056,-1.435438 -1.69303,-1.642341 -0.69709,-0.167229 -2.40638,-0.100062 -3.00282,0.117997 -0.37048,0.13545 -0.37922,0.154838 -0.37922,0.840957 0,0.672181 0.0113,0.699175 0.26254,0.629238 0.83493,-0.23238 1.85608,-0.340594 2.25656,-0.239133 0.62554,0.158478 0.93918,0.620422 0.79839,1.175896 -0.16299,0.643084 -0.57143,0.882941 -1.61784,0.950096 l -0.88285,0.05666 v 0.626427 0.626428 h 0.7884 c 1.45151,0 2.12874,0.37938 2.12874,1.192503 0,1.0406 -1.21489,1.458375 -3.35472,1.153616 l -0.6126,-0.08725 v 0.729788 c 0,0.704964 0.0109,0.731665 0.32089,0.784973 0.74052,0.127352 3.1258,-0.0124 3.69019,-0.216204 z m -5.41131,-0.581938 v -0.758458 h -0.93348 -0.93349 v -3.500577 -3.500577 h -0.75201 c -0.68806,0 -0.85923,0.05623 -2.01283,0.661143 -0.69345,0.363628 -1.28099,0.67697 -1.30564,0.696316 -0.0247,0.01935 0.0737,0.352054 0.21852,0.739353 l 0.26335,0.70418 0.84601,-0.467009 c 0.46531,-0.256854 0.87893,-0.467008 0.91916,-0.467008 0.0402,0 0.0731,1.15519 0.0731,2.567089 v 2.56709 h -1.05017 -1.05018 v 0.758458 0.758458 h 2.85881 2.8588 z"
         id="path8"
         transform="matrix(3.7500026,0,0,-3.7500026,2006.4763,153.2981)" /><path
         style="fill:#f17634;fill-rule:evenodd;stroke:#f17634;stroke-width:0.350168;stroke-linecap:square;stroke-linejoin:round;stroke-dashoffset:1.2;paint-order:markers stroke fill"
         d="m 143.17358,65.790584 c -1.06698,-0.152125 -2.72275,-0.727989 -3.62101,-1.259363 -4.19298,-2.480382 -6.05683,-7.391531 -4.53834,-11.958267 1.10965,-3.337195 4.04591,-5.965157 7.51758,-6.728262 1.11181,-0.244385 3.43459,-0.185632 4.55075,0.115108 1.74662,0.470613 3.16444,1.267641 4.47656,2.516495 4.25809,4.052791 4.18818,10.731733 -0.15422,14.732985 -2.23937,2.063445 -5.24737,3.006738 -8.23132,2.581304 z m 0.35006,-6.455811 v -0.758458 h -0.93349 -0.93348 v -3.500577 -3.500577 l -0.72929,0.0017 c -0.665,0.0015 -0.84244,0.0622 -2.01283,0.688186 -1.39746,0.747433 -1.37004,0.703176 -0.98794,1.594595 0.21478,0.50106 0.23661,0.517212 0.48968,0.362281 0.14569,-0.08919 0.56681,-0.327826 0.93583,-0.530305 l 0.67094,-0.368145 v 2.62643 2.62643 h -1.10851 -1.10852 v 0.758458 0.758458 h 2.85881 2.8588 z m 6.41772,-0.116686 v -0.875144 h 0.58343 0.58343 v -0.700115 -0.700116 h -0.58343 -0.58343 v -2.683775 -2.683776 h -1.1494 -1.1494 l -1.65106,2.692144 c -1.63521,2.666294 -1.65106,2.698787 -1.65106,3.383891 v 0.691747 h 1.98366 1.98366 v 0.875144 0.875144 h 0.8168 0.8168 z"
         id="path9"
         transform="matrix(3.7500026,0,0,-3.7500026,2006.4763,153.2981)" /><path
         style="fill:#f17634;fill-rule:evenodd;stroke:#f17634;stroke-width:0.350168;stroke-linecap:square;stroke-linejoin:round;stroke-dashoffset:1.2;paint-order:markers stroke fill"
         d="m 158.51451,31.156601 c -4.15164,-0.580438 -7.30991,-3.289223 -8.53242,-7.318072 -0.27145,-0.894568 -0.31235,-1.236313 -0.31837,-2.660041 -0.008,-1.890527 0.15937,-2.704994 0.87148,-4.240776 1.27899,-2.758349 3.50422,-4.671437 6.48939,-5.579085 0.90429,-0.27495 1.22085,-0.311962 2.66004,-0.311009 1.30953,8.67e-4 1.81755,0.05121 2.5608,0.253759 6.27898,1.71115 9.38425,8.595265 6.48196,14.369968 -1.59662,3.176789 -4.87443,5.315205 -8.46604,5.523174 -0.5739,0.03323 -1.35998,0.01617 -1.74684,-0.03792 z m 2.4735,-6.310847 c 1.10899,-0.556688 1.47773,-1.098482 1.53625,-2.257198 0.0857,-1.697445 -0.6621,-2.424797 -2.7351,-2.660277 l -1.09636,-0.124538 v -0.742028 -0.742029 h 1.69195 1.69195 v -0.816801 -0.816801 h -2.45041 -2.4504 v 2.260691 2.260692 l 1.31271,0.05568 c 1.44617,0.06134 1.88634,0.20353 2.13827,0.690722 0.41487,0.80227 -0.0112,1.583095 -1.01131,1.853508 -0.48588,0.131367 -1.9643,0.08208 -2.38544,-0.07952 -0.13936,-0.05348 -0.17092,0.0753 -0.17092,0.697604 0,0.741324 0.009,0.764782 0.32089,0.818706 0.17649,0.03053 0.88115,0.0434 1.56592,0.02858 1.15833,-0.02506 1.30053,-0.05479 2.042,-0.426993 z"
         id="path10"
         transform="matrix(3.7500026,0,0,-3.7500026,2006.4763,153.2981)" /><path
         style="fill:#f17634;fill-rule:evenodd;stroke:#f17634;stroke-width:0.350168;stroke-linecap:square;stroke-linejoin:round;stroke-dashoffset:1.2;paint-order:markers stroke fill"
         d="m 188.77605,31.152951 c -2.30159,-0.361632 -4.11859,-1.234115 -5.67661,-2.725778 -3.91334,-3.746669 -4.23426,-9.882794 -0.72605,-13.882421 1.01066,-1.152229 1.86036,-1.803404 3.21551,-2.464219 1.50479,-0.733787 2.39083,-0.976438 3.90898,-1.070518 5.7435,-0.355925 10.6211,4.282025 10.6176,10.095921 -0.002,2.547594 -0.74855,4.580149 -2.4428,6.646633 -1.07526,1.3115 -3.35446,2.708965 -5.15771,3.162393 -1.07203,0.269561 -2.82701,0.381268 -3.73892,0.237989 z m 2.38484,-5.881909 c 1.13118,-0.403678 1.83433,-1.42481 1.83642,-2.6669 0.002,-1.113256 -0.51373,-1.991909 -1.39909,-2.38417 -0.49054,-0.217339 -2.11768,-0.246297 -2.61203,-0.04649 l -0.33666,0.136075 0.0711,-0.437944 c 0.0798,-0.491891 0.34549,-0.896946 0.82183,-1.253008 0.26645,-0.199173 0.53132,-0.247431 1.53888,-0.280375 l 1.21703,-0.03979 v -0.747837 -0.747836 l -0.78763,0.002 c -0.95719,0.0025 -2.17994,0.24915 -2.78809,0.562495 -1.35201,0.69661 -2.00882,2.348312 -1.88204,4.73283 0.0897,1.687963 0.70837,2.778041 1.79671,3.16598 0.57585,0.205259 1.95471,0.20796 2.5236,0.0049 z"
         id="path11"
         transform="matrix(3.7500026,0,0,-3.7500026,2006.4763,153.2981)" /><path
         style="fill:#f17634;fill-rule:evenodd;stroke:#f17634;stroke-width:0.350168;stroke-linecap:square;stroke-linejoin:round;stroke-dashoffset:1.2;paint-order:markers stroke fill"
         d="m 219.04191,31.153582 c -2.31128,-0.321758 -4.35383,-1.395365 -6.04815,-3.179049 -4.28059,-4.506349 -3.42508,-11.827969 1.7865,-15.289114 5.95599,-3.9555272 14.00946,-0.630856 15.49843,6.398141 0.2219,1.047482 0.22318,2.963587 0.003,4.011744 -0.95433,4.53672 -4.81023,7.856167 -9.41174,8.102327 -0.60048,0.03212 -1.42295,0.0123 -1.82773,-0.04405 z m 2.83756,-9.411883 c 1.60472,-3.341767 1.69069,-3.556851 1.69069,-4.229864 v -0.709067 h -2.97549 -2.97549 v 0.814045 0.814046 l 1.96645,0.03193 1.96645,0.03193 -1.61228,3.325548 c -0.88675,1.829051 -1.61413,3.367053 -1.61639,3.417781 -0.002,0.05073 0.41652,0.07698 0.93062,0.05834 l 0.93475,-0.03389 z"
         id="path12"
         transform="matrix(3.7500026,0,0,-3.7500026,2006.4763,153.2981)" /><path
         style="fill:#f17634;fill-rule:evenodd;stroke:#f17634;stroke-width:0.350168;stroke-linecap:square;stroke-linejoin:round;stroke-dashoffset:1.2;paint-order:markers stroke fill"
         d="m 249.36481,31.144987 c -4.31167,-0.557975 -7.89798,-4.012258 -8.65019,-8.331717 -0.17519,-1.006049 -0.0753,-3.37093 0.1825,-4.318557 0.10473,-0.385064 0.41964,-1.175584 0.6998,-1.756713 3.23302,-6.70634 12.28744,-7.7543409 16.94876,-1.96173 1.39709,1.736158 2.10651,3.621844 2.21361,5.883953 0.13436,2.837869 -0.81789,5.360061 -2.80878,7.439494 -1.64356,1.716666 -3.63154,2.71588 -6.0633,3.047592 -1.02026,0.139172 -1.43196,0.138793 -2.5224,-0.0023 z m 2.81527,-5.779199 c 0.66989,-0.214999 1.3138,-0.888829 1.49602,-1.565517 0.24437,-0.907526 -0.18153,-1.991153 -1.00412,-2.554801 l -0.38241,-0.262032 0.40793,-0.35817 c 0.62604,-0.549666 0.89666,-1.173067 0.83452,-1.922387 -0.0641,-0.772729 -0.33802,-1.161812 -1.09068,-1.549145 -0.47564,-0.244774 -0.72958,-0.292192 -1.5632,-0.291901 -1.10295,3.86e-4 -1.70061,0.163141 -2.22767,0.606632 -0.49625,0.417566 -0.7263,0.927419 -0.7263,1.609675 0,0.708853 0.21935,1.167474 0.81346,1.700801 l 0.44508,0.399545 -0.45786,0.350058 c -0.68526,0.523921 -1.02949,1.247677 -0.97485,2.049634 0.0297,0.435127 0.13218,0.772887 0.31074,1.023643 0.6753,0.948381 2.49388,1.28565 4.11934,0.763965 z"
         id="path13"
         transform="matrix(3.7500026,0,0,-3.7500026,2006.4763,153.2981)" /><path
         style="fill:#f17634;fill-rule:evenodd;stroke:#f17634;stroke-width:0.350168;stroke-linecap:square;stroke-linejoin:round;stroke-dashoffset:1.2;paint-order:markers stroke fill"
         d="m 279.70314,31.152238 c -2.4931,-0.34669 -4.96522,-1.732 -6.50378,-3.644543 -3.24793,-4.037405 -3.01599,-9.729854 0.54573,-13.39393 4.03298,-4.1488841 10.4669,-4.1640872 14.48738,-0.03423 4.9186,5.052414 3.32116,13.35102 -3.13336,16.27764 -1.50925,0.684325 -3.78305,1.019357 -5.39597,0.795066 z m 1.77429,-5.967656 c 1.87741,-0.395864 2.87987,-2.206252 2.73993,-4.948152 -0.12216,-2.393702 -1.06404,-3.459593 -3.05709,-3.459593 -1.93044,0 -3.10273,1.119794 -3.09524,2.956616 0.005,1.126692 0.63611,2.035879 1.61857,2.330231 0.47168,0.141319 2.13379,0.09588 2.51048,-0.06863 0.20362,-0.08892 0.21634,-0.05839 0.14891,0.357165 -0.17373,1.070586 -0.88588,1.492214 -2.61775,1.549834 l -1.19603,0.03979 v 0.762869 0.762868 l 1.19603,-0.08287 c 0.65782,-0.04558 1.4463,-0.135638 1.75219,-0.200136 z"
         id="path14"
         transform="matrix(3.7500026,0,0,-3.7500026,2006.4763,153.2981)" /><path
         style="fill:#f17634;fill-rule:evenodd;stroke:#f17634;stroke-width:0.350168;stroke-linecap:square;stroke-linejoin:round;stroke-dashoffset:1.2;paint-order:markers stroke fill"
         d="m 264.46856,65.805931 c -4.05245,-0.629712 -7.29975,-3.554745 -8.41507,-7.579949 -0.32258,-1.164201 -0.30014,-3.843295 0.0422,-5.035499 0.53452,-1.861567 1.3502,-3.252411 2.67512,-4.561385 1.33058,-1.314573 2.83812,-2.180756 4.6476,-2.670356 1.32757,-0.359208 3.59018,-0.365961 4.9008,-0.01463 3.01966,0.809471 5.31699,2.690539 6.65555,5.449591 1.29397,2.66714 1.34076,5.889589 0.12376,8.523624 -1.30783,2.830636 -3.78826,4.903855 -6.77215,5.660367 -1.08994,0.276335 -2.87037,0.381668 -3.85779,0.228232 z m 6.6511,-5.912467 c 1.61832,-0.846934 1.79046,-2.855201 0.33854,-3.94969 l -0.47826,-0.360522 0.4625,-0.388291 c 0.57203,-0.480253 0.78573,-0.97173 0.78573,-1.807084 0,-0.577649 -0.0443,-0.694174 -0.42282,-1.113197 -0.99942,-1.10624 -3.63797,-1.095847 -4.67441,0.01841 -0.79331,0.852865 -0.63079,2.417664 0.32911,3.168899 l 0.37252,0.291545 -0.5938,0.57838 c -1.41722,1.38042 -0.9915,3.157099 0.90464,3.775376 0.16086,0.05245 0.7913,0.08076 1.40099,0.0629 0.85325,-0.02499 1.21599,-0.08871 1.57526,-0.27673 z m -5.89264,-0.558691 v -0.758458 h -0.93349 -0.93349 v -3.500577 -3.500577 h -0.73857 c -0.66949,0 -0.85482,0.06071 -1.98121,0.648948 -0.68345,0.356921 -1.26903,0.691663 -1.3013,0.74387 -0.0323,0.05221 0.0605,0.387776 0.2061,0.745706 l 0.26477,0.650784 0.81245,-0.456221 c 0.44685,-0.250922 0.85183,-0.458447 0.89996,-0.461167 0.0481,-0.0027 0.0875,1.150245 0.0875,2.562144 v 2.56709 h -1.05018 -1.05017 v 0.758458 0.758458 h 2.8588 2.85881 z"
         id="path15"
         transform="matrix(3.7500026,0,0,-3.7500026,2006.4763,153.2981)" /><path
         style="fill:#f17634;fill-rule:evenodd;stroke:#f17634;stroke-width:0.350168;stroke-linecap:square;stroke-linejoin:round;stroke-dashoffset:1.2;paint-order:markers stroke fill"
         d="m 234.13733,65.801873 c -3.12142,-0.429879 -6.16021,-2.620689 -7.59455,-5.47527 -2.00914,-3.998514 -1.18014,-8.765704 2.06072,-11.850308 1.31116,-1.24794 2.72691,-2.044142 4.47656,-2.517553 1.34605,-0.364208 3.58827,-0.366285 4.94008,-0.0046 6.33885,1.696114 9.47336,8.565077 6.55614,14.367132 -1.92871,3.836023 -6.17867,6.0673 -10.43895,5.480575 z m 0.8097,-6.4671 v -0.700115 l -0.90431,-0.03408 -0.90432,-0.03408 V 55.07083 51.575161 h -0.7662 c -0.70731,0 -0.86409,0.05157 -2.03981,0.670944 -0.70048,0.369019 -1.27459,0.729578 -1.2758,0.801241 -0.001,0.07166 0.10898,0.397819 0.24486,0.724791 l 0.24706,0.594493 0.84224,-0.462247 c 0.46323,-0.254236 0.87714,-0.462247 0.9198,-0.462247 0.0427,0 0.0776,1.15519 0.0776,2.567089 v 2.56709 h -1.05017 -1.05017 v 0.760533 0.760533 l 2.82963,-0.03125 2.82963,-0.03125 z m 5.50422,-2.790801 c 1.60799,-3.357339 1.67196,-3.519192 1.67196,-4.229864 v -0.738947 h -2.97549 -2.97549 v 0.816802 0.816801 h 1.98366 c 1.09102,0 1.98366,0.0193 1.98366,0.04288 0,0.02358 -0.73512,1.55143 -1.6336,3.39521 -0.89848,1.843781 -1.6336,3.375613 -1.6336,3.404071 0,0.02846 0.42906,0.03649 0.95346,0.01785 l 0.95347,-0.03389 z"
         id="path16"
         transform="matrix(3.7500026,0,0,-3.7500026,2006.4763,153.2981)" /><path
         style="fill:#f17634;fill-rule:evenodd;stroke:#f17634;stroke-width:0.350168;stroke-linecap:square;stroke-linejoin:round;stroke-dashoffset:1.2;paint-order:markers stroke fill"
         d="m 249.20135,100.46896 c -4.15328,-0.755698 -7.32709,-3.723231 -8.3229,-7.781988 -0.29946,-1.220531 -0.2717,-3.451074 0.0583,-4.686751 0.51896,-1.943148 1.36251,-3.380379 2.8191,-4.803184 2.13418,-2.084675 5.2112,-3.152004 8.08144,-2.803226 2.27427,0.276357 4.32568,1.246564 5.92717,2.803226 1.85021,1.79842 2.8741,3.98295 3.09002,6.592752 0.2155,2.604648 -0.81851,5.499981 -2.67585,7.492633 -1.92895,2.069472 -4.29272,3.154428 -7.07062,3.245368 -0.73804,0.0242 -1.59605,-0.002 -1.90668,-0.0588 z m 6.25743,-5.787906 c 1.69502,-0.577553 2.3833,-2.889785 1.29102,-4.33713 -0.35009,-0.463892 -0.78732,-0.699737 -1.57372,-0.848875 -0.57055,-0.108203 -1.60525,-0.01869 -2.11949,0.183354 -0.18177,0.07142 -0.19976,0.03726 -0.1333,-0.253085 0.15675,-0.684852 0.47526,-1.141641 0.98342,-1.41036 0.42231,-0.223323 0.68415,-0.267172 1.59539,-0.267172 h 1.09016 V 86.989328 86.23087 l -0.67094,8.81e-4 c -2.35529,0.0031 -3.87606,0.789184 -4.48585,2.31874 -0.22926,0.575041 -0.26195,0.871568 -0.26529,2.406157 -0.004,1.688602 0.008,1.773968 0.32613,2.422202 0.33863,0.689595 0.8039,1.130505 1.42035,1.345988 0.53792,0.188031 1.93226,0.164015 2.54212,-0.04378 z m -5.6343,-0.690573 v -0.758458 h -1.71439 -1.7144 l 1.24254,-1.260915 c 1.47553,-1.497364 1.8333,-2.133792 1.83505,-3.264411 0.001,-0.752518 -0.20511,-1.423275 -0.55756,-1.81303 -0.59467,-0.657594 -2.07233,-0.947061 -3.18433,-0.623794 -0.61699,0.179362 -1.7412,0.826966 -1.7412,1.003016 0,0.0476 0.18777,0.327552 0.41726,0.622122 l 0.41727,0.535581 0.52574,-0.370574 c 0.43336,-0.305461 0.63626,-0.370575 1.15475,-0.370575 0.76641,0 1.0894,0.263781 1.18368,0.966692 0.10609,0.790966 -0.29179,1.409036 -2.08891,3.24493 l -1.60979,1.644532 v 0.601671 0.601671 h 2.91714 2.91715 z"
         id="path17"
         transform="matrix(3.7500026,0,0,-3.7500026,2006.4763,153.2981)" /><path
         style="fill:#f17634;fill-rule:evenodd;stroke:#f17634;stroke-width:0.350168;stroke-linecap:square;stroke-linejoin:round;stroke-dashoffset:1.2;paint-order:markers stroke fill"
         d="m 218.43598,100.3624 c -1.94166,-0.431708 -3.46783,-1.218073 -4.85213,-2.500082 -2.14599,-1.987405 -3.2435,-4.53244 -3.22958,-7.489099 0.008,-1.739732 0.26631,-2.807413 1.07199,-4.434064 1.01669,-2.052697 2.44248,-3.478115 4.50097,-4.499782 1.62656,-0.80729 2.69324,-1.065224 4.43407,-1.072203 2.19899,-0.0088 3.88943,0.491748 5.65987,1.675979 2.09548,1.401644 3.54717,3.436846 4.22776,5.927111 0.19099,0.698821 0.24238,1.231224 0.24324,2.519644 9.5e-4,1.439194 -0.0361,1.755755 -0.31101,2.660041 -0.87085,2.864146 -2.69502,5.058363 -5.29285,6.366538 -1.89498,0.954247 -4.45537,1.289917 -6.45233,0.845917 z m 6.95015,-5.963518 c 0.98342,-0.501767 1.46145,-1.168118 1.54294,-2.150803 0.13779,-1.661498 -0.85646,-2.628157 -2.80465,-2.726835 l -1.02101,-0.05172 V 88.667 87.864472 h 1.69195 1.69194 V 87.047671 86.23087 h -2.4504 -2.4504 v 2.333717 2.333718 l 1.25437,1.81e-4 c 1.50786,2.18e-4 1.97779,0.175225 2.22317,0.827922 0.24353,0.647789 -0.033,1.206912 -0.75477,1.526196 -0.47111,0.208391 -0.69903,0.23468 -1.55003,0.178774 -0.54874,-0.03605 -1.0896,-0.101268 -1.20191,-0.144933 -0.18175,-0.07066 -0.2042,0.0045 -0.2042,0.683436 0,0.916255 -0.0711,0.883853 1.87882,0.856436 1.29933,-0.01827 1.38593,-0.03545 2.15418,-0.427435 z m -5.54992,-0.408401 v -0.758458 h -1.72953 -1.72953 l 1.19105,-1.202642 c 1.68173,-1.69811 2.16756,-2.811304 1.80783,-4.142351 -0.44799,-1.657672 -2.60571,-2.276538 -4.46586,-1.280879 -0.98553,0.52751 -1.03849,0.648904 -0.55594,1.2743 0.21605,0.280009 0.40915,0.531193 0.42911,0.558187 0.02,0.02699 0.15495,-0.06239 0.29997,-0.198631 0.34256,-0.321813 1.03706,-0.608907 1.47299,-0.608907 0.20076,0 0.49486,0.126223 0.70387,0.302088 0.30498,0.256625 0.35901,0.382783 0.35901,0.838303 0,0.854721 -0.3757,1.43408 -2.05546,3.169702 l -1.56181,1.613751 v 0.596998 0.596997 h 2.91715 2.91715 z"
         id="path18"
         transform="matrix(3.7500026,0,0,-3.7500026,2006.4763,153.2981)" /><path
         style="fill:#f17634;fill-rule:evenodd;stroke:#f17634;stroke-width:0.350168;stroke-linecap:square;stroke-linejoin:round;stroke-dashoffset:1.2;paint-order:markers stroke fill"
         d="m 203.89073,65.812044 c -3.64536,-0.514174 -6.75411,-2.994332 -8.10098,-6.462946 -1.89264,-4.874168 0.37831,-10.465652 5.1732,-12.737308 1.45489,-0.689277 2.49079,-0.907832 4.28752,-0.904584 1.7494,0.0032 2.72799,0.200682 4.11894,0.831368 2.83791,1.286769 4.99108,3.872548 5.67966,6.820801 0.4796,2.053425 0.41071,3.648105 -0.24299,5.62534 -1.08653,3.286437 -3.93491,5.86899 -7.323,6.639595 -1.03867,0.236241 -2.65105,0.320502 -3.59235,0.187734 z m 6.03367,-5.779445 c 0.75322,-0.265752 1.27027,-0.718706 1.58018,-1.384286 0.56221,-1.207419 0.23711,-2.801562 -0.70064,-3.435661 -0.61762,-0.417629 -1.73576,-0.568247 -2.61816,-0.352677 -0.80298,0.196168 -0.86104,0.141004 -0.59382,-0.56427 0.32048,-0.845835 0.94727,-1.174571 2.44179,-1.280655 l 1.05102,-0.0746 v -0.682642 -0.682643 h -0.79537 c -2.31513,0 -3.70194,0.767443 -4.34769,2.405967 -0.23574,0.598172 -0.27123,0.895793 -0.27664,2.319812 -0.006,1.46608 0.0215,1.694847 0.2641,2.230831 0.32955,0.728146 0.86304,1.265038 1.48223,1.491678 0.61555,0.225313 1.8872,0.229943 2.513,0.0091 z m -5.49073,-0.697826 v -0.758458 h -0.93349 -0.93348 v -3.500577 -3.500577 h -0.75201 c -0.68806,0 -0.85923,0.05623 -2.01283,0.661143 -0.69346,0.363628 -1.28099,0.67697 -1.30564,0.696316 -0.0247,0.01935 0.0737,0.352054 0.21852,0.739353 l 0.26335,0.70418 0.84601,-0.467009 c 0.46531,-0.256854 0.87893,-0.467008 0.91916,-0.467008 0.0402,0 0.0731,1.15519 0.0731,2.567089 v 2.56709 h -1.05017 -1.05018 v 0.758458 0.758458 h 2.85881 2.8588 z"
         id="path19"
         transform="matrix(3.7500026,0,0,-3.7500026,2006.4763,153.2981)" /><path
         style="fill:#f17634;fill-rule:evenodd;stroke:#f17634;stroke-width:0.350168;stroke-linecap:square;stroke-linejoin:round;stroke-dashoffset:1.2;paint-order:markers stroke fill"
         d="m 188.29996,100.39846 c -2.7416,-0.49566 -5.39637,-2.321796 -6.80902,-4.683721 -1.01922,-1.704115 -1.45862,-3.300162 -1.45862,-5.298234 0,-3.858273 2.15815,-7.308209 5.64569,-9.024967 1.54462,-0.76035 2.63342,-1.017289 4.34495,-1.025346 2.77439,-0.01306 5.00402,0.863389 7.03903,2.766982 3.199,2.992412 4.07657,7.852959 2.12267,11.756729 -0.57329,1.145401 -0.9582,1.680729 -1.90059,2.643292 -2.34728,2.39753 -5.6844,3.461825 -8.98411,2.865265 z m 0.61449,-6.407979 v -0.758458 h -1.68763 -1.68762 l 1.20114,-1.196031 c 1.30779,-1.302222 1.77917,-2.064743 1.89786,-3.070075 0.21185,-1.794452 -1.14819,-3.016605 -3.12681,-2.809799 -0.74064,0.07741 -1.81118,0.53688 -2.18397,0.937343 -0.22865,0.245633 -0.2284,0.246578 0.21579,0.797921 l 0.44471,0.551996 0.29776,-0.234215 c 0.83837,-0.659463 1.67966,-0.744667 2.20137,-0.222951 0.32447,0.324466 0.35072,0.408069 0.30423,0.96875 -0.0666,0.803158 -0.43053,1.324957 -2.2029,3.158542 l -1.39154,1.439607 v 0.597913 0.597915 h 2.8588 2.85881 z m 6.41772,-0.05834 V 93.11534 h 0.64178 0.64177 V 92.356879 91.59842 h -0.64177 -0.64178 v -2.688001 -2.688 l -1.12179,0.0334 -1.1218,0.0334 -1.61704,2.625433 -1.61705,2.625432 -0.003,0.78763 -0.003,0.78763 h 1.92531 1.92532 v 0.816801 0.816801 h 0.8168 0.8168 z"
         id="path20"
         transform="matrix(3.7500026,0,0,-3.7500026,2006.4763,153.2981)" /><path
         style="fill:#f17634;fill-rule:evenodd;stroke:#f17634;stroke-width:0.350168;stroke-linecap:square;stroke-linejoin:round;stroke-dashoffset:1.2;paint-order:markers stroke fill"
         d="m 173.92031,65.856433 c -0.99527,-0.145696 -2.18561,-0.456085 -2.89002,-0.753593 -2.33779,-0.987362 -4.35787,-2.975641 -5.39499,-5.310061 -1.0995,-2.474845 -1.07752,-5.672193 0.0562,-8.172542 1.24541,-2.746681 3.75625,-4.862154 6.7182,-5.660329 1.32775,-0.357793 3.69693,-0.358866 5.0112,-0.0023 3.54303,0.961318 6.34169,3.760366 7.30847,7.309469 0.35235,1.293529 0.3568,3.683353 0.009,4.970047 -0.99102,3.66892 -3.83273,6.485203 -7.40805,7.341776 -0.95682,0.229234 -2.74563,0.374796 -3.41025,0.277503 z m 5.97495,-6.121971 c 1.05453,-0.538285 1.46406,-1.111458 1.5296,-2.140836 0.11273,-1.770382 -0.64379,-2.538993 -2.73259,-2.776267 l -1.09635,-0.124538 v -0.742029 -0.742028 h 1.69194 1.69195 v -0.816801 -0.816802 h -2.4504 -2.45041 v 2.260692 2.260692 l 1.31272,0.05568 c 1.44616,0.06134 1.88633,0.20353 2.13827,0.690722 0.41487,0.802269 -0.0112,1.583095 -1.01132,1.853508 -0.48587,0.131367 -1.9643,0.08208 -2.38543,-0.07952 -0.13937,-0.05348 -0.17092,0.0753 -0.17092,0.697603 0,0.741324 0.009,0.764783 0.32088,0.818707 0.17649,0.03053 0.88522,0.04323 1.57497,0.02821 1.17115,-0.0255 1.30585,-0.05373 2.03709,-0.426993 z m -5.56655,-0.399689 v -0.758458 h -0.93348 -0.93349 v -3.500577 -3.500577 l -0.72929,0.0021 c -0.6665,0.0019 -0.84172,0.0623 -2.03532,0.701851 l -1.30604,0.699797 0.18222,0.435836 c 0.10022,0.23971 0.22811,0.556414 0.2842,0.703786 l 0.10199,0.26795 0.55509,-0.315608 c 0.3053,-0.173585 0.72574,-0.416589 0.93432,-0.54001 l 0.37923,-0.224402 v 2.634949 2.63495 h -1.10852 -1.10852 v 0.758458 0.758458 h 2.85881 2.8588 z"
         id="path21"
         transform="matrix(3.7500026,0,0,-3.7500026,2006.4763,153.2981)" /><path
         style="fill:#f17634;fill-rule:evenodd;stroke:#f17634;stroke-width:0.350168;stroke-linecap:square;stroke-linejoin:round;stroke-dashoffset:1.2;paint-order:markers stroke fill"
         d="m 157.97338,100.40848 c -3.18458,-0.604868 -5.91284,-2.702746 -7.28429,-5.601198 -0.79712,-1.684643 -0.92055,-2.282676 -0.9152,-4.434063 0.004,-1.727715 0.0291,-1.940956 0.33314,-2.858805 0.95361,-2.879211 2.79397,-4.981449 5.4713,-6.249855 2.58752,-1.225855 5.78207,-1.224466 8.44021,0.0037 2.9126,1.345705 5.06194,4.090809 5.70751,7.289537 0.25797,1.27823 0.1792,3.301689 -0.17743,4.557571 -0.97706,3.440764 -3.76645,6.205003 -7.18021,7.115453 -1.22506,0.32673 -3.19175,0.40624 -4.39503,0.17769 z m 6.31352,-5.765103 c 1.35836,-0.422768 1.98293,-1.199883 1.98792,-2.473443 0.003,-0.813461 -0.31402,-1.340265 -1.02289,-1.69875 l -0.4985,-0.252093 0.33919,-0.241524 c 0.52268,-0.372179 0.75136,-0.966344 0.6975,-1.812258 -0.0566,-0.889471 -0.3511,-1.342555 -1.11798,-1.720224 -0.4715,-0.232205 -0.7262,-0.271729 -1.7203,-0.266959 -0.64177,0.0031 -1.39002,0.07074 -1.66277,0.150355 l -0.49592,0.144755 v 0.709227 c 0,0.679311 0.0111,0.706152 0.26254,0.636307 0.1444,-0.04011 0.63011,-0.128711 1.07935,-0.1969 1.43578,-0.217931 2.17479,0.27196 1.90525,1.262996 -0.15172,0.557846 -0.55262,0.761111 -1.62337,0.823096 l -0.92365,0.05347 v 0.610595 0.610595 l 1.02484,0.05843 c 1.59607,0.091 2.17491,0.52589 1.94141,1.458588 -0.0771,0.307966 -0.2228,0.496729 -0.51585,0.6683 -0.35649,0.208719 -0.59749,0.238002 -1.89615,0.230406 l -1.48774,-0.0087 v 0.669923 c 0,0.426757 0.0529,0.691284 0.14586,0.728776 0.0802,0.03237 0.75815,0.063 1.50652,0.06807 1.0305,0.007 1.53393,-0.04471 2.07474,-0.213036 z m -5.24404,-0.652896 v -0.758458 h -1.71439 -1.7144 l 1.24254,-1.260915 c 1.49933,-1.521513 1.83333,-2.126666 1.83505,-3.324801 10e-4,-0.792261 -0.16081,-1.293922 -0.56718,-1.75691 -0.57085,-0.650367 -2.06538,-0.942015 -3.17471,-0.619524 -0.61698,0.179362 -1.7412,0.826966 -1.7412,1.003016 0,0.0476 0.18777,0.327552 0.41727,0.622122 l 0.41726,0.535581 0.52574,-0.370574 c 0.43336,-0.305461 0.63626,-0.370575 1.15475,-0.370575 0.76641,0 1.0894,0.263781 1.18368,0.966692 0.10609,0.790966 -0.29179,1.409036 -2.08891,3.24493 l -1.60979,1.644532 v 0.601671 0.601671 h 2.91715 2.91714 z"
         id="path22"
         transform="matrix(3.7500026,0,0,-3.7500026,2006.4763,153.2981)" /><path
         style="fill:#f17634;fill-rule:evenodd;stroke:#f17634;stroke-width:0.350168;stroke-linecap:square;stroke-linejoin:round;stroke-dashoffset:1.2;paint-order:markers stroke fill"
         d="m 127.60361,100.39513 c -1.19212,-0.21522 -2.63265,-0.805583 -3.70743,-1.519389 -5.2262,-3.47091 -6.08722,-10.786003 -1.80073,-15.298567 2.04191,-2.149601 4.48945,-3.216918 7.36754,-3.21282 2.886,0.0041 5.29372,1.044119 7.31487,3.159633 1.99376,2.086837 2.88713,4.512077 2.74419,7.449689 -0.08,1.644971 -0.27442,2.425489 -0.95635,3.840031 -1.99942,4.147439 -6.4247,6.400603 -10.96209,5.581423 z m 1.10092,-6.404649 v -0.758458 h -1.69233 -1.69233 l 1.2035,-1.196031 c 1.50999,-1.500612 1.89308,-2.195323 1.88205,-3.413062 -0.009,-0.951359 -0.19898,-1.391746 -0.82455,-1.907395 -0.54185,-0.446637 -1.383,-0.653109 -2.27912,-0.559445 -0.76724,0.08019 -1.78931,0.513554 -2.16669,0.918685 l -0.24648,0.26461 0.44471,0.551997 0.44471,0.551996 0.29776,-0.234215 c 0.83837,-0.659463 1.67966,-0.744667 2.20137,-0.222951 0.32447,0.324466 0.35072,0.408069 0.30423,0.96875 -0.0663,0.799462 -0.39815,1.275524 -2.18668,3.136905 l -1.40776,1.465092 v 0.59599 0.59599 h 2.85881 2.8588 z m 7.23453,0 v -0.758458 h -1.69233 -1.69234 l 1.20351,-1.196031 c 1.50999,-1.500612 1.89307,-2.195323 1.88205,-3.413062 -0.009,-0.951359 -0.19899,-1.391746 -0.82456,-1.907395 -0.54185,-0.446637 -1.38299,-0.653109 -2.27912,-0.559445 -0.76724,0.08019 -1.78931,0.513554 -2.16668,0.918685 l -0.24649,0.26461 0.44472,0.551997 0.44471,0.551996 0.29775,-0.234215 c 0.83838,-0.659463 1.67966,-0.744667 2.20138,-0.222951 0.32447,0.324466 0.35072,0.408069 0.30422,0.96875 -0.0663,0.799462 -0.39815,1.275524 -2.18668,3.136905 l -1.40775,1.465092 v 0.59599 0.59599 h 2.8588 2.85881 z"
         id="path23"
         transform="matrix(3.7500026,0,0,-3.7500026,2006.4763,153.2981)" /><path
         style="fill:#f17634;fill-rule:evenodd;stroke:#f17634;stroke-width:0.350168;stroke-linecap:square;stroke-linejoin:round;stroke-dashoffset:1.2;paint-order:markers stroke fill"
         d="M 97.374372,100.41011 C 94.64225,99.901464 92.249295,98.322671 90.712352,96.014724 88.7976,93.139442 88.502939,89.38065 89.950189,86.2923 c 1.763893,-3.764049 5.183955,-5.945441 9.291157,-5.926108 2.125014,0.01 3.854064,0.554785 5.665944,1.785204 4.68475,3.181354 5.73385,9.830815 2.27657,14.429421 -2.2221,2.955664 -6.18747,4.503603 -9.809488,3.829293 z m 0.99183,-6.419629 v -0.758458 h -1.716153 -1.716152 l 1.051572,-1.021002 c 1.426513,-1.385044 1.905619,-2.120324 2.083294,-3.197219 0.09615,-0.582752 -0.122223,-1.473975 -0.474241,-1.935495 -0.493016,-0.646376 -1.119807,-0.896101 -2.262153,-0.901282 -0.855359,-0.0039 -1.080136,0.03981 -1.633603,0.317547 -0.352975,0.177125 -0.765629,0.426457 -0.91701,0.55407 l -0.275238,0.232024 0.433078,0.567889 0.433078,0.56789 0.652097,-0.392673 c 0.854652,-0.514644 1.421556,-0.530037 1.900003,-0.05159 0.259715,0.259715 0.34047,0.447608 0.338519,0.78763 -0.0047,0.815883 -0.389026,1.387907 -2.097916,3.12235 l -1.63347,1.657896 v 0.60444 0.604441 h 2.917148 2.917147 z m 7.327608,0.02917 -0.0347,-0.729286 -0.90432,-0.03408 -0.90431,-0.03408 V 89.726538 86.23087 h -0.72118 c -0.63687,0 -0.85856,0.06984 -1.89615,0.597364 -1.596975,0.811921 -1.557592,0.762334 -1.23558,1.555721 l 0.26481,0.652461 0.85507,-0.469286 c 0.47028,-0.258108 0.88379,-0.469286 0.9189,-0.469286 0.0351,0 0.0638,1.15519 0.0638,2.567089 v 2.56709 h -1.05017 -1.050176 v 0.758458 0.758458 h 2.864376 2.86437 z"
         id="path24"
         transform="matrix(3.7500026,0,0,-3.7500026,2006.4763,153.2981)" /><path
         style="fill:#f17634;fill-rule:evenodd;stroke:#f17634;stroke-width:0.350168;stroke-linecap:square;stroke-linejoin:round;stroke-dashoffset:1.2;paint-order:markers stroke fill"
         d="m 67.288053,100.46099 c -3.368525,-0.565377 -6.208512,-2.735689 -7.651156,-5.846996 -0.712107,-1.535781 -0.879481,-2.350248 -0.871484,-4.240775 0.006,-1.423367 0.04696,-1.765576 0.318092,-2.659076 1.1017,-3.630572 3.735267,-6.160257 7.384795,-7.093498 1.395408,-0.356828 3.41811,-0.357662 4.768433,-0.002 2.101878,0.553665 4.162126,1.872597 5.443103,3.484571 2.665118,3.35377 2.987087,7.854796 0.823876,11.517541 -0.637958,1.080192 -2.086615,2.601971 -3.115878,3.273158 -2.042719,1.332065 -4.831898,1.947685 -7.099781,1.567045 z m 5.802117,-5.737269 c 0.303675,-0.08972 0.702549,-0.362827 1.084738,-0.742704 0.822133,-0.817161 1.134346,-1.796163 1.131953,-3.549456 -0.002,-1.430577 -0.210505,-2.267705 -0.772735,-3.101749 -0.560053,-0.830815 -1.26659,-1.159074 -2.477802,-1.151193 -1.026199,0.0067 -1.595859,0.218569 -2.193009,0.81572 -0.890389,0.890389 -1.179098,1.89973 -1.113239,3.891937 0.04331,1.310077 0.08507,1.551014 0.382569,2.207273 0.361346,0.797093 1.030921,1.472896 1.632705,1.647887 0.527482,0.153385 1.777971,0.143857 2.32482,-0.01771 z m -5.29567,-0.73324 v -0.758458 h -1.729528 -1.729527 l 1.191043,-1.202642 c 1.681733,-1.69811 2.167562,-2.811304 1.807837,-4.142351 -0.447997,-1.657672 -2.605713,-2.276538 -4.465865,-1.280879 -0.985528,0.52751 -1.038488,0.648904 -0.555943,1.2743 0.216051,0.280009 0.409152,0.531193 0.429114,0.558187 0.01996,0.02699 0.15495,-0.06239 0.299971,-0.198631 0.342555,-0.321813 1.037056,-0.608907 1.472992,-0.608907 0.200761,0 0.49486,0.126223 0.703863,0.302088 0.304983,0.256625 0.359011,0.382783 0.359011,0.838303 0,0.854721 -0.375696,1.43408 -2.055454,3.169702 l -1.561809,1.613751 v 0.596998 0.596997 h 2.917147 2.917148 z"
         id="path25"
         transform="matrix(3.7500026,0,0,-3.7500026,2006.4763,153.2981)" /><path
         style="fill:#f17634;fill-rule:evenodd;stroke:#f17634;stroke-width:0.350168;stroke-linecap:square;stroke-linejoin:round;stroke-dashoffset:1.2;paint-order:markers stroke fill"
         d="m 36.949723,100.46854 c -4.060131,-0.735727 -7.20048,-3.598064 -8.259434,-7.528232 -0.30074,-1.116157 -0.359493,-3.438942 -0.115108,-4.55075 0.937642,-4.265708 4.480105,-7.464119 8.856375,-7.996222 2.863799,-0.348204 5.934728,0.717214 8.0813,2.803701 2.059897,2.002237 3.089542,4.464863 3.073607,7.35121 -0.02525,4.573639 -3.108684,8.521092 -7.571374,9.692973 -1.045081,0.27444 -3.154454,0.39238 -4.065366,0.22732 z m 0.856504,-6.478059 V 93.232023 H 36.87274 35.939253 V 89.731446 86.23087 h -0.70092 c -0.632908,0 -0.830583,0.06869 -2.037222,0.707925 l -1.336302,0.707925 0.236015,0.598775 c 0.129808,0.329326 0.262934,0.64233 0.295835,0.695565 0.0329,0.05324 0.442966,-0.114711 0.911256,-0.373213 0.46829,-0.258502 0.884354,-0.470003 0.924586,-0.470003 0.04023,0 0.07315,1.15519 0.07315,2.567089 v 2.56709 H 33.197135 32.08862 v 0.758458 0.758458 h 2.858804 2.858804 z m 4.334583,0.599707 c 1.918492,-0.451561 2.763558,-1.652747 2.87364,-4.084621 0.129222,-2.854742 -0.682684,-4.164447 -2.698287,-4.352667 -1.962192,-0.183232 -3.459763,1.053217 -3.459763,2.856508 0,1.276632 0.660928,2.210993 1.748523,2.471903 0.59366,0.142417 1.723226,0.108511 2.324562,-0.06978 0.26725,-0.07924 0.277527,-0.06312 0.213065,0.334106 -0.17311,1.066757 -0.869528,1.486028 -2.616417,1.575184 l -1.20299,0.0614 v 0.683357 0.683358 l 1.079345,-0.0018 c 0.593639,-10e-4 1.375884,-0.07162 1.738322,-0.156929 z"
         id="path26"
         transform="matrix(3.7500026,0,0,-3.7500026,2006.4763,153.2981)" /></g></g></svg>
