<?xml version="1.0" encoding="UTF-8" standalone="no"?>
<svg
   width="70.277664mm"
   height="31.075983mm"
   viewBox="566.3281 1648.3672 996.06188 440.44745"
   version="1.0"
   id="svg27"
   xml:space="preserve"
   sodipodi:docname="DB9-male.svg"
   inkscape:version="1.4 (86a8ad7, 2024-10-11)"
   xmlns:inkscape="http://www.inkscape.org/namespaces/inkscape"
   xmlns:sodipodi="http://sodipodi.sourceforge.net/DTD/sodipodi-0.dtd"
   xmlns="http://www.w3.org/2000/svg"
   xmlns:svg="http://www.w3.org/2000/svg"><sodipodi:namedview
     id="namedview1"
     pagecolor="#ffffff"
     bordercolor="#000000"
     borderopacity="0.25"
     inkscape:showpageshadow="2"
     inkscape:pageopacity="0.0"
     inkscape:pagecheckerboard="0"
     inkscape:deskcolor="#d1d1d1"
     inkscape:document-units="mm"
     inkscape:zoom="3.682002"
     inkscape:cx="74.144446"
     inkscape:cy="56.491007"
     inkscape:window-width="1440"
     inkscape:window-height="830"
     inkscape:window-x="-6"
     inkscape:window-y="-6"
     inkscape:window-maximized="1"
     inkscape:current-layer="g27" /><defs
     id="defs27"><rect
       x="538.0542"
       y="309.02002"
       width="18.322737"
       height="16.208574"
       id="rect30" /></defs><desc
     id="desc1">
  Exported by the ArtWorks SVGExport module.
  Source document: SCSI::Develop.$.Develop.Web.!WebXpress.^.Input.cm.Pages.ref.conn.dsub.artwork.DE9_M
</desc><g
     transform="matrix(1,0,0,-1,-3435.0584,2242.9559)"
     stroke-miterlimit="16"
     fill-rule="evenodd"
     clip-rule="evenodd"
     stroke-linejoin="bevel"
     stroke-linecap="butt"
     id="g27"><g
       id="g1"
       transform="matrix(1.5,0,0,1.5,-2000.6932,-297.29435)"><ellipse
         cx="4092.3477"
         cy="509.86896"
         stroke="#000000"
         stroke-width="11.2465"
         stroke-linejoin="miter"
         fill="#ffff00"
         id="circle10-7-0"
         style="fill:#e8590c;fill-opacity:1;stroke:#cccccc;stroke-width:7.50001;stroke-dasharray:none;stroke-opacity:1"
         rx="41.941048"
         ry="41.94104"
         inkscape:label="c1" /><text
         xml:space="preserve"
         style="font-style:normal;font-variant:normal;font-weight:bold;font-stretch:normal;font-size:49.3397px;line-height:0px;font-family:Consolas;-inkscape-font-specification:'Consolas, Bold';font-variant-ligatures:normal;font-variant-caps:normal;font-variant-numeric:normal;font-variant-east-asian:normal;text-align:start;writing-mode:lr-tb;direction:ltr;text-anchor:start;fill:#000000;fill-opacity:1;fill-rule:evenodd;stroke:#e580ff;stroke-width:9.86797;stroke-linecap:square;stroke-dashoffset:1.2;stroke-opacity:1;paint-order:markers stroke fill"
         x="4078.6514"
         y="-494.02863"
         id="text28-03"
         transform="scale(1,-1)"
         inkscape:label="1"><tspan
           id="tspan28-80"
           style="font-style:normal;font-variant:normal;font-weight:bold;font-stretch:normal;font-size:49.3397px;font-family:Consolas;-inkscape-font-specification:'Consolas, Bold';font-variant-ligatures:normal;font-variant-caps:normal;font-variant-numeric:normal;font-variant-east-asian:normal;fill:#000000;fill-opacity:1;stroke:none;stroke-width:9.86797"
           x="4078.6514"
           y="-494.02863">1</tspan></text><ellipse
         cx="4333.4067"
         cy="509.86896"
         stroke="#000000"
         stroke-width="11.2465"
         stroke-linejoin="miter"
         fill="#ffff00"
         id="circle10-7-0-8"
         style="fill:#e8590c;fill-opacity:1;stroke:#cccccc;stroke-width:7.50001;stroke-dasharray:none;stroke-opacity:1"
         rx="41.941048"
         ry="41.94104"
         inkscape:label="c3" /><text
         xml:space="preserve"
         style="font-style:normal;font-variant:normal;font-weight:bold;font-stretch:normal;font-size:49.3397px;line-height:0px;font-family:Consolas;-inkscape-font-specification:'Consolas, Bold';font-variant-ligatures:normal;font-variant-caps:normal;font-variant-numeric:normal;font-variant-east-asian:normal;text-align:start;writing-mode:lr-tb;direction:ltr;text-anchor:start;fill:#000000;fill-opacity:1;fill-rule:evenodd;stroke:#e580ff;stroke-width:9.86797;stroke-linecap:square;stroke-dashoffset:1.2;stroke-opacity:1;paint-order:markers stroke fill"
         x="4319.1807"
         y="-494.17316"
         id="text28-03-3"
         transform="scale(1,-1)"
         inkscape:label="3"><tspan
           id="tspan28-80-5"
           style="font-style:normal;font-variant:normal;font-weight:bold;font-stretch:normal;font-size:49.3397px;font-family:Consolas;-inkscape-font-specification:'Consolas, Bold';font-variant-ligatures:normal;font-variant-caps:normal;font-variant-numeric:normal;font-variant-east-asian:normal;fill:#000000;fill-opacity:1;stroke:none;stroke-width:9.86797"
           x="4319.1807"
           y="-494.17316">3</tspan></text><ellipse
         cx="4453.936"
         cy="509.86896"
         stroke="#000000"
         stroke-width="11.2465"
         stroke-linejoin="miter"
         fill="#ffff00"
         id="circle10-7-0-8-1"
         style="fill:#e8590c;fill-opacity:1;stroke:#cccccc;stroke-width:7.50001;stroke-dasharray:none;stroke-opacity:1"
         rx="41.941048"
         ry="41.94104"
         inkscape:label="c4" /><text
         xml:space="preserve"
         style="font-style:normal;font-variant:normal;font-weight:bold;font-stretch:normal;font-size:49.3397px;line-height:0px;font-family:Consolas;-inkscape-font-specification:'Consolas, Bold';font-variant-ligatures:normal;font-variant-caps:normal;font-variant-numeric:normal;font-variant-east-asian:normal;text-align:start;writing-mode:lr-tb;direction:ltr;text-anchor:start;fill:#000000;fill-opacity:1;fill-rule:evenodd;stroke:#e580ff;stroke-width:9.86797;stroke-linecap:square;stroke-dashoffset:1.2;stroke-opacity:1;paint-order:markers stroke fill"
         x="4440.6011"
         y="-494.22137"
         id="text28-03-3-2"
         transform="scale(1,-1)"
         inkscape:label="4"><tspan
           id="tspan28-80-5-0"
           style="font-style:normal;font-variant:normal;font-weight:bold;font-stretch:normal;font-size:49.3397px;font-family:Consolas;-inkscape-font-specification:'Consolas, Bold';font-variant-ligatures:normal;font-variant-caps:normal;font-variant-numeric:normal;font-variant-east-asian:normal;fill:#000000;fill-opacity:1;stroke:none;stroke-width:9.86797"
           x="4440.6011"
           y="-494.22137">4</tspan></text><ellipse
         cx="4212.877"
         cy="509.86896"
         stroke="#000000"
         stroke-width="11.2465"
         stroke-linejoin="miter"
         fill="#ffff00"
         id="circle10-7-0-9"
         style="fill:#e8590c;fill-opacity:1;stroke:#cccccc;stroke-width:7.50001;stroke-dasharray:none;stroke-opacity:1"
         rx="41.941048"
         ry="41.94104"
         inkscape:label="c2" /><text
         xml:space="preserve"
         style="font-style:normal;font-variant:normal;font-weight:bold;font-stretch:normal;font-size:49.3397px;line-height:0px;font-family:Consolas;-inkscape-font-specification:'Consolas, Bold';font-variant-ligatures:normal;font-variant-caps:normal;font-variant-numeric:normal;font-variant-east-asian:normal;text-align:start;writing-mode:lr-tb;direction:ltr;text-anchor:start;fill:#000000;fill-opacity:1;fill-rule:evenodd;stroke:#e580ff;stroke-width:9.86797;stroke-linecap:square;stroke-dashoffset:1.2;stroke-opacity:1;paint-order:markers stroke fill"
         x="4199.1328"
         y="-493.69135"
         id="text28-03-4"
         transform="scale(1,-1)"
         inkscape:label="2"><tspan
           id="tspan28-80-7"
           style="font-style:normal;font-variant:normal;font-weight:bold;font-stretch:normal;font-size:49.3397px;font-family:Consolas;-inkscape-font-specification:'Consolas, Bold';font-variant-ligatures:normal;font-variant-caps:normal;font-variant-numeric:normal;font-variant-east-asian:normal;fill:#000000;fill-opacity:1;stroke:none;stroke-width:9.86797"
           x="4199.1328"
           y="-493.69135">2</tspan></text><ellipse
         cx="4574.4653"
         cy="509.86896"
         stroke="#000000"
         stroke-width="11.2465"
         stroke-linejoin="miter"
         fill="#ffff00"
         id="circle10-7-0-9-1"
         style="fill:#e8590c;fill-opacity:1;stroke:#cccccc;stroke-width:7.50001;stroke-dasharray:none;stroke-opacity:1"
         rx="41.941048"
         ry="41.94104"
         inkscape:label="c5" /><text
         xml:space="preserve"
         style="font-style:normal;font-variant:normal;font-weight:bold;font-stretch:normal;font-size:49.3397px;line-height:0px;font-family:Consolas;-inkscape-font-specification:'Consolas, Bold';font-variant-ligatures:normal;font-variant-caps:normal;font-variant-numeric:normal;font-variant-east-asian:normal;text-align:start;writing-mode:lr-tb;direction:ltr;text-anchor:start;fill:#000000;fill-opacity:1;fill-rule:evenodd;stroke:#e580ff;stroke-width:9.86797;stroke-linecap:square;stroke-dashoffset:1.2;stroke-opacity:1;paint-order:markers stroke fill"
         x="4560.167"
         y="-494.70319"
         id="text28-03-4-6"
         transform="scale(1,-1)"
         inkscape:label="5"><tspan
           style="font-style:normal;font-variant:normal;font-weight:bold;font-stretch:normal;font-size:49.3397px;font-family:Consolas;-inkscape-font-specification:'Consolas, Bold';font-variant-ligatures:normal;font-variant-caps:normal;font-variant-numeric:normal;font-variant-east-asian:normal;fill:#000000;fill-opacity:1;stroke:none;stroke-width:9.86797"
           x="4560.167"
           y="-494.70319"
           id="tspan31">5</tspan></text><ellipse
         cx="4145.9531"
         cy="385.67688"
         stroke="#000000"
         stroke-width="11.2465"
         stroke-linejoin="miter"
         fill="#ffff00"
         id="circle10-7-0-9-1-0"
         style="fill:#e8590c;fill-opacity:1;stroke:#cccccc;stroke-width:7.50001;stroke-dasharray:none;stroke-opacity:1"
         rx="41.941048"
         ry="41.94104"
         inkscape:label="c6" /><text
         xml:space="preserve"
         style="font-style:normal;font-variant:normal;font-weight:bold;font-stretch:normal;font-size:49.3397px;line-height:0px;font-family:Consolas;-inkscape-font-specification:'Consolas, Bold';font-variant-ligatures:normal;font-variant-caps:normal;font-variant-numeric:normal;font-variant-east-asian:normal;text-align:start;writing-mode:lr-tb;direction:ltr;text-anchor:start;fill:#000000;fill-opacity:1;fill-rule:evenodd;stroke:#e580ff;stroke-width:9.86797;stroke-linecap:square;stroke-dashoffset:1.2;stroke-opacity:1;paint-order:markers stroke fill"
         x="4132.0161"
         y="-370.58331"
         id="text28-03-4-6-6"
         transform="scale(1,-1)"
         inkscape:label="6"><tspan
           style="font-style:normal;font-variant:normal;font-weight:bold;font-stretch:normal;font-size:49.3397px;font-family:Consolas;-inkscape-font-specification:'Consolas, Bold';font-variant-ligatures:normal;font-variant-caps:normal;font-variant-numeric:normal;font-variant-east-asian:normal;fill:#000000;fill-opacity:1;stroke:none;stroke-width:9.86797"
           x="4132.0161"
           y="-370.58331"
           id="tspan31-1">6</tspan></text><ellipse
         cx="4270.9219"
         cy="385.67688"
         stroke="#000000"
         stroke-width="11.2465"
         stroke-linejoin="miter"
         fill="#ffff00"
         id="circle10-7-0-9-1-0-8"
         style="fill:#e8590c;fill-opacity:1;stroke:#cccccc;stroke-width:7.50001;stroke-dasharray:none;stroke-opacity:1"
         rx="41.941048"
         ry="41.94104"
         inkscape:label="c7" /><text
         xml:space="preserve"
         style="font-style:normal;font-variant:normal;font-weight:bold;font-stretch:normal;font-size:49.3397px;line-height:0px;font-family:Consolas;-inkscape-font-specification:'Consolas, Bold';font-variant-ligatures:normal;font-variant-caps:normal;font-variant-numeric:normal;font-variant-east-asian:normal;text-align:start;writing-mode:lr-tb;direction:ltr;text-anchor:start;fill:#000000;fill-opacity:1;fill-rule:evenodd;stroke:#e580ff;stroke-width:9.86797;stroke-linecap:square;stroke-dashoffset:1.2;stroke-opacity:1;paint-order:markers stroke fill"
         x="4257.6357"
         y="-370.02917"
         id="text28-03-4-6-6-9"
         transform="scale(1,-1)"
         inkscape:label="7"><tspan
           style="font-style:normal;font-variant:normal;font-weight:bold;font-stretch:normal;font-size:49.3397px;font-family:Consolas;-inkscape-font-specification:'Consolas, Bold';font-variant-ligatures:normal;font-variant-caps:normal;font-variant-numeric:normal;font-variant-east-asian:normal;fill:#000000;fill-opacity:1;stroke:none;stroke-width:9.86797"
           x="4257.6357"
           y="-370.02917"
           id="tspan31-1-8">7</tspan></text><ellipse
         cx="4520.8604"
         cy="385.67688"
         stroke="#000000"
         stroke-width="11.2465"
         stroke-linejoin="miter"
         fill="#ffff00"
         id="circle10-7-0-9-1-0-8-4"
         style="fill:#e8590c;fill-opacity:1;stroke:#cccccc;stroke-width:7.50001;stroke-dasharray:none;stroke-opacity:1"
         rx="41.941048"
         ry="41.94104"
         inkscape:label="c9" /><text
         xml:space="preserve"
         style="font-style:normal;font-variant:normal;font-weight:bold;font-stretch:normal;font-size:49.3397px;line-height:0px;font-family:Consolas;-inkscape-font-specification:'Consolas, Bold';font-variant-ligatures:normal;font-variant-caps:normal;font-variant-numeric:normal;font-variant-east-asian:normal;text-align:start;writing-mode:lr-tb;direction:ltr;text-anchor:start;fill:#000000;fill-opacity:1;fill-rule:evenodd;stroke:#e580ff;stroke-width:9.86797;stroke-linecap:square;stroke-dashoffset:1.2;stroke-opacity:1;paint-order:markers stroke fill"
         x="4508.2002"
         y="-369.49915"
         id="text28-03-4-6-6-9-1"
         transform="scale(1,-1)"
         inkscape:label="9"><tspan
           style="font-style:normal;font-variant:normal;font-weight:bold;font-stretch:normal;font-size:49.3397px;font-family:Consolas;-inkscape-font-specification:'Consolas, Bold';font-variant-ligatures:normal;font-variant-caps:normal;font-variant-numeric:normal;font-variant-east-asian:normal;fill:#000000;fill-opacity:1;stroke:none;stroke-width:9.86797"
           x="4508.2002"
           y="-369.49915"
           id="tspan31-1-8-4">9</tspan></text><ellipse
         cx="4395.8911"
         cy="385.67688"
         stroke="#000000"
         stroke-width="11.2465"
         stroke-linejoin="miter"
         fill="#ffff00"
         id="circle10-7-0-9-1-0-8-3"
         style="fill:#e8590c;fill-opacity:1;stroke:#cccccc;stroke-width:7.50001;stroke-dasharray:none;stroke-opacity:1"
         rx="41.941048"
         ry="41.94104"
         inkscape:label="c8" /><text
         xml:space="preserve"
         style="font-style:normal;font-variant:normal;font-weight:bold;font-stretch:normal;font-size:49.3397px;line-height:0px;font-family:Consolas;-inkscape-font-specification:'Consolas, Bold';font-variant-ligatures:normal;font-variant-caps:normal;font-variant-numeric:normal;font-variant-east-asian:normal;text-align:start;writing-mode:lr-tb;direction:ltr;text-anchor:start;fill:#000000;fill-opacity:1;fill-rule:evenodd;stroke:#e580ff;stroke-width:9.86797;stroke-linecap:square;stroke-dashoffset:1.2;stroke-opacity:1;paint-order:markers stroke fill"
         x="4382.46"
         y="-370.05328"
         id="text28-03-4-6-6-9-9"
         transform="scale(1,-1)"
         inkscape:label="8"><tspan
           style="font-style:normal;font-variant:normal;font-weight:bold;font-stretch:normal;font-size:49.3397px;font-family:Consolas;-inkscape-font-specification:'Consolas, Bold';font-variant-ligatures:normal;font-variant-caps:normal;font-variant-numeric:normal;font-variant-east-asian:normal;fill:#000000;fill-opacity:1;stroke:none;stroke-width:9.86797"
           x="4382.46"
           y="-370.05328"
           id="tspan31-1-8-8">8</tspan></text><path
         d="M 4634.2305,588.9637 H 4032.935 c -22.3712,0 -28.3885,-50.17025 -25.0542,-83.05335 l 14.3166,-141.19164 c 2.7071,-26.68396 13.2515,-58.13656 25.0544,-58.13656 h 572.6618 c 11.8069,0 22.4926,31.38095 25.0537,58.13656 l 14.3166,149.49714 c 2.9519,30.80378 -7.1583,74.74785 -25.0534,74.74785 z"
         stroke="#000000"
         stroke-width="4.99997"
         stroke-linejoin="miter"
         fill="#e6e6e6"
         id="path1-1-4-4-4-2"
         style="clip-rule:evenodd;fill:none;fill-rule:evenodd;stroke:#2f9e44;stroke-width:11.25;stroke-linecap:butt;stroke-miterlimit:16;stroke-dasharray:none;stroke-opacity:1" /><path
         style="fill:#f17634;fill-rule:evenodd;stroke:#f17634;stroke-width:0.815031;stroke-linecap:square;stroke-linejoin:round;stroke-dashoffset:1.2;paint-order:markers stroke fill"
         d="m 20.951218,32.064038 c -3.461892,-1.28366 -5.82322,-4.143072 -6.595016,-7.986126 -0.602881,-3.001965 0.68828,-6.561209 3.219312,-8.874429 1.94171,-1.774614 3.924443,-2.524926 6.746,-2.552845 2.004512,-0.01984 2.359889,0.0639 4.262894,1.004414 2.346319,1.159614 3.686437,2.506977 4.787278,4.813162 0.615033,1.288452 0.713032,1.848928 0.713032,4.077992 0,2.366367 -0.07442,2.735531 -0.882654,4.378753 -1.696114,3.448352 -4.749314,5.42699 -8.623044,5.588196 -1.666874,0.06937 -2.511502,-0.0352 -3.627802,-0.449117 z m 6.429653,-5.923368 c -0.07161,-0.622339 -0.233117,-0.761067 -0.968609,-0.831981 l -0.882672,-0.08511 v -3.51348 -3.513481 h -0.742572 c -0.408414,0 -1.384647,0.336095 -2.169407,0.746877 -1.166714,0.610716 -1.39712,0.845902 -1.263839,1.290059 0.269306,0.897451 0.566231,1.036633 1.225856,0.574613 0.344575,-0.241349 0.721523,-0.438818 0.837661,-0.438818 0.116139,0 0.211161,1.099945 0.211161,2.444323 v 2.444322 h -1.086366 c -1.026011,0 -1.086365,0.04527 -1.086365,0.814774 v 0.814775 h 3.005545 3.005545 z"
         id="path1"
         transform="matrix(3.7500028,0,0,-3.7500028,4001.3865,594.5887)" /><path
         style="fill:#f17634;fill-rule:evenodd;stroke:#f17634;stroke-width:0.815031;stroke-linecap:square;stroke-linejoin:round;stroke-dashoffset:1.2;paint-order:markers stroke fill"
         d="m 53.581187,32.21279 c -2.738924,-0.893879 -4.867889,-2.734393 -6.22709,-5.38339 -1.04227,-2.031319 -1.212924,-5.392679 -0.385231,-7.58784 2.027208,-5.376447 7.852367,-7.996926 13.186622,-5.932075 1.923625,0.744622 4.324345,2.98964 5.245057,4.904884 2.39684,4.985846 0.27902,10.939097 -4.779449,13.435172 -1.858307,0.916972 -5.149283,1.180276 -7.039909,0.563249 z m 5.846635,-6.07212 0.0851,-0.882672 h -1.704444 -1.704444 l 1.282899,-1.302483 c 1.486833,-1.509533 1.89797,-2.601959 1.509182,-4.010032 -0.462449,-1.674853 -2.962656,-2.242146 -4.742366,-1.076035 -0.745877,0.488718 -0.785842,0.667475 -0.298292,1.334238 0.335544,0.458885 0.398269,0.45925 1.344911,0.0078 0.8171,-0.389648 1.067411,-0.411711 1.413384,-0.124578 0.873116,0.724621 0.503386,1.756245 -1.344911,3.752577 -1.243667,1.343274 -1.765344,2.118211 -1.765344,2.622368 v 0.715634 l 2.919607,-0.07709 2.919607,-0.07709 z"
         id="path2"
         transform="matrix(3.7500028,0,0,-3.7500028,4001.3865,594.5887)" /><path
         style="fill:#f17634;fill-rule:evenodd;stroke:#f17634;stroke-width:0.815031;stroke-linecap:square;stroke-linejoin:round;stroke-dashoffset:1.2;paint-order:markers stroke fill"
         d="m 85.415489,32.101501 c -5.640092,-1.959273 -8.395285,-8.191488 -5.990415,-13.550251 0.929971,-2.072253 3.027893,-4.162348 5.175641,-5.156331 1.379759,-0.638557 1.983415,-0.753786 3.938074,-0.751721 2.933908,0.0031 4.969015,0.85236 7.008717,2.924773 6.303894,6.404991 1.844259,17.062172 -7.119779,17.014128 -0.909855,-0.0049 -2.265362,-0.221145 -3.012238,-0.480598 z m 4.818589,-5.714841 c 1.350143,-0.776767 1.552756,-2.839444 0.374931,-3.816952 -0.382872,-0.317756 -0.386013,-0.421224 -0.02829,-0.931941 0.605455,-0.864408 0.495939,-2.014335 -0.264237,-2.774511 -0.545101,-0.545101 -0.937158,-0.666634 -2.150519,-0.666634 -1.943139,0 -2.34298,0.17872 -2.34358,1.047525 -4.79e-4,0.692612 0.05418,0.717819 1.556435,0.717819 1.322748,0 1.572371,0.079 1.659577,0.525232 0.128766,0.658885 -0.638889,1.240112 -1.637877,1.240112 -0.621352,0 -0.762865,0.119319 -0.762865,0.643219 0,0.550541 0.164937,0.665341 1.144734,0.796759 0.629604,0.08445 1.297057,0.361855 1.483229,0.616461 0.774311,1.058933 -0.825202,1.991639 -2.784991,1.623981 -0.889265,-0.166827 -0.929338,-0.139423 -0.929338,0.635528 0,0.713815 0.104693,0.820759 0.882672,0.901655 1.387195,0.144244 2.987767,-0.09089 3.800122,-0.558253 z"
         id="path3"
         transform="matrix(3.7500028,0,0,-3.7500028,4001.3865,594.5887)" /><path
         style="fill:#f17634;fill-rule:evenodd;stroke:#f17634;stroke-width:0.815031;stroke-linecap:square;stroke-linejoin:round;stroke-dashoffset:1.2;paint-order:markers stroke fill"
         d="m 117.59907,32.110283 c -3.63562,-1.399889 -5.73499,-3.725011 -6.67448,-7.392207 -0.83851,-3.273013 0.17906,-6.568947 2.85923,-9.261097 4.15757,-4.176162 11.20719,-3.694962 14.79987,1.010224 1.55725,2.039472 2.12239,3.913295 1.99598,6.618064 -0.0925,1.979376 -0.23719,2.550631 -1.01477,4.006542 -1.81199,3.392741 -4.78989,5.272399 -8.57094,5.409996 -1.56594,0.05699 -2.51405,-0.05235 -3.39489,-0.391522 z m 5.43182,-6.037511 c 0,-0.633713 0.12071,-0.814774 0.54319,-0.814774 0.42247,0 0.54318,-0.181061 0.54318,-0.814774 0,-0.633713 -0.12071,-0.814774 -0.54318,-0.814774 -0.50717,0 -0.54319,-0.181061 -0.54319,-2.730795 v -2.730794 l -1.26729,0.08278 -1.26729,0.08278 -1.58402,2.580118 c -1.07592,1.752514 -1.58414,2.863246 -1.58441,3.46279 l -4e-4,0.882672 h 1.90114 1.90113 v 0.814774 c 0,0.75011 0.0755,0.814775 0.95057,0.814775 0.87513,0 0.95057,-0.06467 0.95057,-0.814775 z"
         id="path4"
         transform="matrix(3.7500028,0,0,-3.7500028,4001.3865,594.5887)" /><path
         style="fill:#f17634;fill-rule:evenodd;stroke:#f17634;stroke-width:0.815031;stroke-linecap:square;stroke-linejoin:round;stroke-dashoffset:1.2;paint-order:markers stroke fill"
         d="m 149.99613,32.21279 c -2.8157,-0.918934 -5.02703,-2.87587 -6.28758,-5.564241 -0.61586,-1.313431 -0.71569,-1.886257 -0.71569,-4.106465 0,-2.232894 0.0982,-2.78976 0.73008,-4.137909 2.88128,-6.147822 10.82009,-7.732973 15.82407,-3.159612 4.26738,3.90014 4.38426,10.362046 0.2611,14.434281 -1.90944,1.88585 -3.81595,2.713873 -6.49478,2.820763 -1.34024,0.05348 -2.61123,-0.05641 -3.3172,-0.286817 z m 3.85107,-5.711235 c 0.94559,-0.395092 1.77466,-1.598176 1.77466,-2.575247 0,-1.457959 -0.82712,-2.19765 -2.91961,-2.610983 -0.70471,-0.139203 -0.88267,-0.306901 -0.88267,-0.831755 0,-0.622427 0.0867,-0.657399 1.62955,-0.657399 h 1.62955 v -0.814774 -0.814775 h -2.58012 -2.58012 v 2.308527 2.308527 h 1.29753 c 1.28943,0 2.50475,0.557151 2.50475,1.148278 0,0.791068 -0.91587,1.296044 -2.35062,1.296044 -1.43189,0 -1.45166,0.01109 -1.45166,0.814774 0,0.807118 0.0141,0.814775 1.50248,0.814775 0.82636,0 1.91819,-0.173697 2.42628,-0.385992 z"
         id="path5"
         transform="matrix(3.7500028,0,0,-3.7500028,4001.3865,594.5887)" /><path
         style="fill:#f17634;fill-rule:evenodd;stroke:#f17634;stroke-width:0.815031;stroke-linecap:square;stroke-linejoin:round;stroke-dashoffset:1.2;paint-order:markers stroke fill"
         d="m 136.20308,65.482034 c -3.57625,-0.960945 -5.99173,-3.253079 -7.20893,-6.840818 -1.56618,-4.616364 0.88617,-9.940118 5.57938,-12.112149 2.19033,-1.013692 5.52726,-1.071815 7.60456,-0.132457 3.11044,1.40655 4.80498,3.231603 5.84438,6.294512 1.57539,4.642344 -0.691,9.83976 -5.267,12.078587 -1.2459,0.609559 -2.03579,0.793758 -3.66302,0.854199 -1.14103,0.04238 -2.44125,-0.02146 -2.88937,-0.141874 z m 3.88652,-6.010484 c 1.27634,-0.778165 1.75701,-2.109753 1.63485,-4.528956 -0.0873,-1.728648 -0.19507,-2.075451 -0.84783,-2.728209 -0.63667,-0.636675 -0.97221,-0.747819 -2.25767,-0.747819 -1.36209,0 -1.58742,0.08681 -2.30236,0.886957 -1.03236,1.155414 -1.08751,2.677852 -0.13703,3.78285 0.57271,0.665814 0.84702,0.762021 2.17273,0.762021 0.8345,0 1.51727,0.09166 1.51727,0.203693 0,0.572425 -1.19776,1.286128 -2.43354,1.450059 -1.20805,0.160254 -1.36874,0.257175 -1.36874,0.82556 0,0.603043 0.0993,0.643924 1.56165,0.642974 1.0869,-7.07e-4 1.83496,-0.167645 2.46067,-0.54913 z"
         id="path6"
         transform="matrix(3.7500028,0,0,-3.7500028,4001.3865,594.5887)" /><path
         style="fill:#f17634;fill-rule:evenodd;stroke:#f17634;stroke-width:0.815031;stroke-linecap:square;stroke-linejoin:round;stroke-dashoffset:1.2;paint-order:markers stroke fill"
         d="M 102.52575,65.360375 C 100.56636,64.71009 99.273303,63.8968 97.950696,62.482825 94.063538,58.32714 94.306521,52.179141 98.509744,48.337632 c 3.349256,-3.06103 8.292316,-3.477882 12.119406,-1.02204 4.20697,2.699601 5.7296,8.233233 3.50715,12.745837 -1.6724,3.395726 -4.75059,5.418728 -8.48188,5.574325 -1.20443,0.05023 -2.488,-0.06275 -3.12867,-0.275379 z m 5.04533,-6.132563 c 0.43663,-0.436635 0.79388,-1.053785 0.79388,-1.371444 0,-0.721379 -0.69348,-2.094438 -1.13157,-2.24047 -0.21607,-0.07202 -0.12521,-0.312434 0.26587,-0.703516 0.59212,-0.59212 0.80189,-2.035808 0.38626,-2.658281 -0.39088,-0.585394 -1.40621,-0.92333 -2.77415,-0.92333 -1.11172,0 -1.5209,0.132751 -2.05479,0.666633 -0.83817,0.838171 -0.90139,2.295825 -0.12985,2.994057 0.53299,0.482348 0.53203,0.491428 -0.13579,1.285092 -0.87125,1.035411 -0.87352,2.210941 -0.006,3.078508 0.56261,0.562604 0.92612,0.666634 2.32942,0.666634 1.47569,0 1.75211,-0.08933 2.45667,-0.793883 z"
         id="path7"
         transform="matrix(3.7500028,0,0,-3.7500028,4001.3865,594.5887)" /><path
         style="fill:#f17634;fill-rule:evenodd;stroke:#f17634;stroke-width:0.815031;stroke-linecap:square;stroke-linejoin:round;stroke-dashoffset:1.2;paint-order:markers stroke fill"
         d="m 69.061896,65.347173 c -2.739527,-0.894637 -4.867966,-2.734778 -6.22709,-5.383625 -1.048333,-2.043136 -1.213284,-5.391639 -0.375116,-7.614876 2.540366,-6.738313 10.857927,-8.809444 16.108145,-4.01104 6.611714,6.042734 2.635448,16.917454 -6.324528,17.297003 -1.228382,0.05204 -2.491231,-0.06207 -3.181411,-0.287462 z m 4.229829,-8.924064 c 0.922697,-1.979222 1.67535,-3.93468 1.672563,-4.345462 l -0.0051,-0.746876 H 71.971715 68.98421 v 0.950569 0.95057 h 1.903616 1.903616 l -1.380428,2.750824 c -2.096369,4.177503 -2.067777,4.038961 -0.833548,4.038961 h 1.036629 z"
         id="path8"
         transform="matrix(3.7500028,0,0,-3.7500028,4001.3865,594.5887)" /><path
         style="fill:#f17634;fill-rule:evenodd;stroke:#f17634;stroke-width:0.815031;stroke-linecap:square;stroke-linejoin:round;stroke-dashoffset:1.2;paint-order:markers stroke fill"
         d="m 35.442675,65.253544 c -5.287877,-1.906602 -8.112116,-7.459518 -6.390525,-12.564817 0.969987,-2.876448 2.766123,-4.850632 5.619883,-6.176968 1.334607,-0.620283 1.950619,-0.736466 3.893943,-0.734413 2.933907,0.0031 4.969014,0.85236 7.008716,2.924773 5.04695,5.12789 3.429589,13.332687 -3.206437,16.266115 -1.766058,0.780679 -5.163514,0.920642 -6.92558,0.28531 z m 4.752849,-5.707556 c 1.20504,-0.601986 1.732552,-1.980175 1.324115,-3.459414 -0.327081,-1.184589 -1.691579,-1.911958 -3.144433,-1.676192 -0.622959,0.101092 -0.895596,0.03933 -0.895596,-0.202884 0,-0.63238 0.97111,-1.241773 2.260478,-1.4185 1.105258,-0.151493 1.27021,-0.257481 1.27021,-0.816165 0,-0.591074 -0.109972,-0.642062 -1.384809,-0.642062 -2.642293,0 -3.959521,1.206979 -4.233244,3.878933 -0.210339,2.053226 0.288713,3.630456 1.354293,4.280179 1.07671,0.65651 2.210198,0.674949 3.448986,0.05611 z"
         id="path9"
         transform="matrix(3.7500028,0,0,-3.7500028,4001.3865,594.5887)" /></g></g></svg>
