<?xml version="1.0" encoding="UTF-8" standalone="no"?>
<svg
   width="46.851776mm"
   height="20.717319mm"
   viewBox="566.3281 1648.3672 664.04125 293.63159"
   version="1.0"
   id="svg27"
   xml:space="preserve"
   sodipodi:docname="DB9-female.svg"
   inkscape:version="1.4 (86a8ad7, 2024-10-11)"
   xmlns:inkscape="http://www.inkscape.org/namespaces/inkscape"
   xmlns:sodipodi="http://sodipodi.sourceforge.net/DTD/sodipodi-0.dtd"
   xmlns="http://www.w3.org/2000/svg"
   xmlns:svg="http://www.w3.org/2000/svg"><sodipodi:namedview
     id="namedview1"
     pagecolor="#ffffff"
     bordercolor="#000000"
     borderopacity="0.25"
     inkscape:showpageshadow="2"
     inkscape:pageopacity="0.0"
     inkscape:pagecheckerboard="0"
     inkscape:deskcolor="#d1d1d1"
     inkscape:document-units="mm"
     inkscape:zoom="1.841001"
     inkscape:cx="91.797885"
     inkscape:cy="54.861458"
     inkscape:window-width="1440"
     inkscape:window-height="830"
     inkscape:window-x="-6"
     inkscape:window-y="-6"
     inkscape:window-maximized="1"
     inkscape:current-layer="svg27" /><defs
     id="defs27"><rect
       x="538.0542"
       y="309.02002"
       width="18.322737"
       height="16.208574"
       id="rect30" /></defs><desc
     id="desc1">
  Exported by the ArtWorks SVGExport module.
  Source document: SCSI::Develop.$.Develop.Web.!WebXpress.^.Input.cm.Pages.ref.conn.dsub.artwork.DE9_M
</desc><ellipse
     cx="657.28925"
     cy="-1733.0869"
     stroke="#000000"
     stroke-width="11.2465"
     stroke-linejoin="miter"
     fill="#ffff00"
     id="circle10-7-0-3"
     style="fill:#f17634;fill-opacity:1;stroke:#f17634;stroke-width:7.50001;stroke-dasharray:none;stroke-opacity:1"
     rx="41.941048"
     ry="41.94104"
     inkscape:label="c5"
     transform="scale(1,-1)" /><text
     xml:space="preserve"
     style="font-style:normal;font-variant:normal;font-weight:bold;font-stretch:normal;font-size:49.3397px;line-height:0px;font-family:Consolas;-inkscape-font-specification:'Consolas, Bold';font-variant-ligatures:normal;font-variant-caps:normal;font-variant-numeric:normal;font-variant-east-asian:normal;text-align:start;writing-mode:lr-tb;direction:ltr;text-anchor:start;fill:#000000;fill-opacity:1;fill-rule:evenodd;stroke:none;stroke-width:9.86797;stroke-linecap:square;stroke-dashoffset:1.2;stroke-opacity:1;paint-order:markers stroke fill"
     x="642.99066"
     y="1748.2528"
     id="text28-03-49"
     inkscape:label="5"><tspan
       id="tspan28-80-6"
       style="font-style:normal;font-variant:normal;font-weight:bold;font-stretch:normal;font-size:49.3397px;font-family:Consolas;-inkscape-font-specification:'Consolas, Bold';font-variant-ligatures:normal;font-variant-caps:normal;font-variant-numeric:normal;font-variant-east-asian:normal;fill:#000000;fill-opacity:1;stroke:none;stroke-width:9.86797"
       x="642.99066"
       y="1748.2528">5</tspan></text><ellipse
     cx="898.34833"
     cy="-1733.0869"
     stroke="#000000"
     stroke-width="11.2465"
     stroke-linejoin="miter"
     fill="#ffff00"
     id="circle10-7-0-8-5"
     style="fill:#e8590c;fill-opacity:1;stroke:#e8590c;stroke-width:7.50001;stroke-dasharray:none;stroke-opacity:1"
     rx="41.941048"
     ry="41.94104"
     inkscape:label="c3"
     transform="scale(1,-1)" /><text
     xml:space="preserve"
     style="font-style:normal;font-variant:normal;font-weight:bold;font-stretch:normal;font-size:49.3397px;line-height:0px;font-family:Consolas;-inkscape-font-specification:'Consolas, Bold';font-variant-ligatures:normal;font-variant-caps:normal;font-variant-numeric:normal;font-variant-east-asian:normal;text-align:start;writing-mode:lr-tb;direction:ltr;text-anchor:start;fill:#000000;fill-opacity:1;fill-rule:evenodd;stroke:#e580ff;stroke-width:9.86797;stroke-linecap:square;stroke-dashoffset:1.2;stroke-opacity:1;paint-order:markers stroke fill"
     x="884.12225"
     y="1748.7828"
     id="text28-03-3-1"
     inkscape:label="3"><tspan
       id="tspan28-80-5-09"
       style="font-style:normal;font-variant:normal;font-weight:bold;font-stretch:normal;font-size:49.3397px;font-family:Consolas;-inkscape-font-specification:'Consolas, Bold';font-variant-ligatures:normal;font-variant-caps:normal;font-variant-numeric:normal;font-variant-east-asian:normal;fill:#000000;fill-opacity:1;stroke:none;stroke-width:9.86797"
       x="884.12225"
       y="1748.7828">3</tspan></text><ellipse
     cx="1018.8776"
     cy="-1733.0869"
     stroke="#000000"
     stroke-width="11.2465"
     stroke-linejoin="miter"
     fill="#ffff00"
     id="circle10-7-0-8-1-9"
     style="fill:#e8590c;fill-opacity:1;stroke:#e8590c;stroke-width:7.50001;stroke-dasharray:none;stroke-opacity:1"
     rx="41.941048"
     ry="41.94104"
     inkscape:label="c2"
     transform="scale(1,-1)" /><text
     xml:space="preserve"
     style="font-style:normal;font-variant:normal;font-weight:bold;font-stretch:normal;font-size:49.3397px;line-height:0px;font-family:Consolas;-inkscape-font-specification:'Consolas, Bold';font-variant-ligatures:normal;font-variant-caps:normal;font-variant-numeric:normal;font-variant-east-asian:normal;text-align:start;writing-mode:lr-tb;direction:ltr;text-anchor:start;fill:#000000;fill-opacity:1;fill-rule:evenodd;stroke:#e580ff;stroke-width:9.86797;stroke-linecap:square;stroke-dashoffset:1.2;stroke-opacity:1;paint-order:markers stroke fill"
     x="1005.1335"
     y="1749.2646"
     id="text28-03-3-2-6"
     inkscape:label="2"><tspan
       id="tspan28-80-5-0-8"
       style="font-style:normal;font-variant:normal;font-weight:bold;font-stretch:normal;font-size:49.3397px;font-family:Consolas;-inkscape-font-specification:'Consolas, Bold';font-variant-ligatures:normal;font-variant-caps:normal;font-variant-numeric:normal;font-variant-east-asian:normal;fill:#000000;fill-opacity:1;stroke:none;stroke-width:9.86797"
       x="1005.1335"
       y="1749.2646">2</tspan></text><ellipse
     cx="777.81879"
     cy="-1733.0869"
     stroke="#000000"
     stroke-width="11.2465"
     stroke-linejoin="miter"
     fill="#ffff00"
     id="circle10-7-0-9-3"
     style="fill:#e8590c;fill-opacity:1;stroke:#e8590c;stroke-width:7.50001;stroke-dasharray:none;stroke-opacity:1"
     rx="41.941048"
     ry="41.94104"
     inkscape:label="c4"
     transform="scale(1,-1)" /><text
     xml:space="preserve"
     style="font-style:normal;font-variant:normal;font-weight:bold;font-stretch:normal;font-size:49.3397px;line-height:0px;font-family:Consolas;-inkscape-font-specification:'Consolas, Bold';font-variant-ligatures:normal;font-variant-caps:normal;font-variant-numeric:normal;font-variant-east-asian:normal;text-align:start;writing-mode:lr-tb;direction:ltr;text-anchor:start;fill:#1a1a1a;fill-opacity:1;fill-rule:evenodd;stroke:#e580ff;stroke-width:9.86797;stroke-linecap:square;stroke-dashoffset:1.2;stroke-opacity:1;paint-order:markers stroke fill"
     x="764.48407"
     y="1748.7346"
     id="text28-03-4-4"
     inkscape:label="4"><tspan
       id="tspan28-80-7-8"
       style="font-style:normal;font-variant:normal;font-weight:bold;font-stretch:normal;font-size:49.3397px;font-family:Consolas;-inkscape-font-specification:'Consolas, Bold';font-variant-ligatures:normal;font-variant-caps:normal;font-variant-numeric:normal;font-variant-east-asian:normal;fill:#1a1a1a;fill-opacity:1;stroke:none;stroke-width:9.86797"
       x="764.48407"
       y="1748.7346">4</tspan></text><ellipse
     cx="710.89471"
     cy="-1857.2791"
     stroke="#000000"
     stroke-width="11.2465"
     stroke-linejoin="miter"
     fill="#ffff00"
     id="circle10-7-0-9-1-0-2"
     style="fill:#e8590c;fill-opacity:1;stroke:#e8590c;stroke-width:7.50001;stroke-dasharray:none;stroke-opacity:1"
     rx="41.941048"
     ry="41.94104"
     inkscape:label="c9"
     transform="scale(1,-1)" /><text
     xml:space="preserve"
     style="font-style:normal;font-variant:normal;font-weight:bold;font-stretch:normal;font-size:49.3397px;line-height:0px;font-family:Consolas;-inkscape-font-specification:'Consolas, Bold';font-variant-ligatures:normal;font-variant-caps:normal;font-variant-numeric:normal;font-variant-east-asian:normal;text-align:start;writing-mode:lr-tb;direction:ltr;text-anchor:start;fill:#000000;fill-opacity:1;fill-rule:evenodd;stroke:#e580ff;stroke-width:9.86797;stroke-linecap:square;stroke-dashoffset:1.2;stroke-opacity:1;paint-order:markers stroke fill"
     x="698.23456"
     y="1873.4568"
     id="text28-03-4-6-6-5"
     inkscape:label="9"><tspan
       style="font-style:normal;font-variant:normal;font-weight:bold;font-stretch:normal;font-size:49.3397px;font-family:Consolas;-inkscape-font-specification:'Consolas, Bold';font-variant-ligatures:normal;font-variant-caps:normal;font-variant-numeric:normal;font-variant-east-asian:normal;fill:#000000;fill-opacity:1;stroke:none;stroke-width:9.86797"
       x="698.23456"
       y="1873.4568"
       id="tspan31-1-5">9</tspan></text><ellipse
     cx="835.86371"
     cy="-1857.2791"
     stroke="#000000"
     stroke-width="11.2465"
     stroke-linejoin="miter"
     fill="#ffff00"
     id="circle10-7-0-9-1-0-8-33"
     style="fill:#e8590c;fill-opacity:1;stroke:#e8590c;stroke-width:7.50001;stroke-dasharray:none;stroke-opacity:1"
     rx="41.941048"
     ry="41.94104"
     inkscape:label="c8"
     transform="scale(1,-1)" /><text
     xml:space="preserve"
     style="font-style:normal;font-variant:normal;font-weight:bold;font-stretch:normal;font-size:49.3397px;line-height:0px;font-family:Consolas;-inkscape-font-specification:'Consolas, Bold';font-variant-ligatures:normal;font-variant-caps:normal;font-variant-numeric:normal;font-variant-east-asian:normal;text-align:start;writing-mode:lr-tb;direction:ltr;text-anchor:start;fill:#000000;fill-opacity:1;fill-rule:evenodd;stroke:#e580ff;stroke-width:9.86797;stroke-linecap:square;stroke-dashoffset:1.2;stroke-opacity:1;paint-order:markers stroke fill"
     x="822.43256"
     y="1872.9026"
     id="text28-03-4-6-6-9-3"
     inkscape:label="8"><tspan
       style="font-style:normal;font-variant:normal;font-weight:bold;font-stretch:normal;font-size:49.3397px;font-family:Consolas;-inkscape-font-specification:'Consolas, Bold';font-variant-ligatures:normal;font-variant-caps:normal;font-variant-numeric:normal;font-variant-east-asian:normal;fill:#000000;fill-opacity:1;stroke:none;stroke-width:9.86797"
       x="822.43256"
       y="1872.9026"
       id="tspan31-1-8-7">8</tspan></text><ellipse
     cx="1085.802"
     cy="-1857.2791"
     stroke="#000000"
     stroke-width="11.2465"
     stroke-linejoin="miter"
     fill="#ffff00"
     id="circle10-7-0-9-1-0-8-4-4"
     style="fill:#e8590c;fill-opacity:1;stroke:#e8590c;stroke-width:7.50001;stroke-dasharray:none;stroke-opacity:1"
     rx="41.941048"
     ry="41.94104"
     inkscape:label="c6"
     transform="scale(1,-1)" /><text
     xml:space="preserve"
     style="font-style:normal;font-variant:normal;font-weight:bold;font-stretch:normal;font-size:49.3397px;line-height:0px;font-family:Consolas;-inkscape-font-specification:'Consolas, Bold';font-variant-ligatures:normal;font-variant-caps:normal;font-variant-numeric:normal;font-variant-east-asian:normal;text-align:start;writing-mode:lr-tb;direction:ltr;text-anchor:start;fill:#000000;fill-opacity:1;fill-rule:evenodd;stroke:#e580ff;stroke-width:9.86797;stroke-linecap:square;stroke-dashoffset:1.2;stroke-opacity:1;paint-order:markers stroke fill"
     x="1071.865"
     y="1872.3726"
     id="text28-03-4-6-6-9-1-3"
     inkscape:label="6"><tspan
       style="font-style:normal;font-variant:normal;font-weight:bold;font-stretch:normal;font-size:49.3397px;font-family:Consolas;-inkscape-font-specification:'Consolas, Bold';font-variant-ligatures:normal;font-variant-caps:normal;font-variant-numeric:normal;font-variant-east-asian:normal;fill:#000000;fill-opacity:1;stroke:none;stroke-width:9.86797"
       x="1071.865"
       y="1872.3726"
       id="tspan31-1-8-4-8">6</tspan></text><ellipse
     cx="960.8327"
     cy="-1857.2791"
     stroke="#000000"
     stroke-width="11.2465"
     stroke-linejoin="miter"
     fill="#ffff00"
     id="circle10-7-0-9-1-0-8-3-0"
     style="fill:#e8590c;fill-opacity:1;stroke:#e8590c;stroke-width:7.50001;stroke-dasharray:none;stroke-opacity:1"
     rx="41.941048"
     ry="41.94104"
     inkscape:label="c7"
     transform="scale(1,-1)" /><text
     xml:space="preserve"
     style="font-style:normal;font-variant:normal;font-weight:bold;font-stretch:normal;font-size:49.3397px;line-height:0px;font-family:Consolas;-inkscape-font-specification:'Consolas, Bold';font-variant-ligatures:normal;font-variant-caps:normal;font-variant-numeric:normal;font-variant-east-asian:normal;text-align:start;writing-mode:lr-tb;direction:ltr;text-anchor:start;fill:#000000;fill-opacity:1;fill-rule:evenodd;stroke:#e580ff;stroke-width:9.86797;stroke-linecap:square;stroke-dashoffset:1.2;stroke-opacity:1;paint-order:markers stroke fill"
     x="947.54633"
     y="1872.9268"
     id="text28-03-4-6-6-9-9-8"
     inkscape:label="7"><tspan
       style="font-style:normal;font-variant:normal;font-weight:bold;font-stretch:normal;font-size:49.3397px;font-family:Consolas;-inkscape-font-specification:'Consolas, Bold';font-variant-ligatures:normal;font-variant-caps:normal;font-variant-numeric:normal;font-variant-east-asian:normal;fill:#000000;fill-opacity:1;stroke:none;stroke-width:9.86797"
       x="947.54633"
       y="1872.9268"
       id="tspan31-1-8-8-8">7</tspan></text><ellipse
     cx="1139.4072"
     cy="-1733.0869"
     stroke="#000000"
     stroke-width="11.2465"
     stroke-linejoin="miter"
     fill="#ffff00"
     id="circle10-7-0-9-1-4"
     style="fill:#e8590c;fill-opacity:1;stroke:#e8590c;stroke-width:7.50001;stroke-dasharray:none;stroke-opacity:1"
     rx="41.941048"
     ry="41.94104"
     inkscape:label="c1"
     transform="scale(1,-1)" /><text
     xml:space="preserve"
     style="font-style:normal;font-variant:normal;font-weight:bold;font-stretch:normal;font-size:49.3397px;line-height:0px;font-family:Consolas;-inkscape-font-specification:'Consolas, Bold';font-variant-ligatures:normal;font-variant-caps:normal;font-variant-numeric:normal;font-variant-east-asian:normal;text-align:start;writing-mode:lr-tb;direction:ltr;text-anchor:start;fill:#000000;fill-opacity:1;fill-rule:evenodd;stroke:#e580ff;stroke-width:9.86797;stroke-linecap:square;stroke-dashoffset:1.2;stroke-opacity:1;paint-order:markers stroke fill"
     x="1125.7109"
     y="1748.9274"
     id="text28-03-4-6-9"
     inkscape:label="1"><tspan
       style="font-style:normal;font-variant:normal;font-weight:bold;font-stretch:normal;font-size:49.3397px;font-family:Consolas;-inkscape-font-specification:'Consolas, Bold';font-variant-ligatures:normal;font-variant-caps:normal;font-variant-numeric:normal;font-variant-east-asian:normal;fill:#000000;fill-opacity:1;stroke:none;stroke-width:9.86797"
       x="1125.7109"
       y="1748.9274"
       id="tspan31-9">1</tspan></text><path
     d="M 1199.1721,1653.9922 H 597.8766 c -22.3712,0 -28.3885,50.1702 -25.0542,83.0533 l 14.3166,141.1917 c 2.7071,26.6839 13.2515,58.1365 25.0544,58.1365 h 572.6618 c 11.8069,0 22.4926,-31.3809 25.0537,-58.1365 l 14.3166,-149.4972 c 2.9519,-30.8038 -7.1583,-74.7478 -25.0534,-74.7478 z"
     stroke="#000000"
     stroke-width="4.99997"
     stroke-linejoin="miter"
     fill="#e6e6e6"
     id="path1-1-4-4-4"
     style="clip-rule:evenodd;fill:none;fill-rule:evenodd;stroke:#2f9e44;stroke-width:11.25;stroke-linecap:butt;stroke-miterlimit:16;stroke-dasharray:none;stroke-opacity:1" /><path
     style="fill:#f17634;fill-opacity:1;fill-rule:evenodd;stroke:#f17634;stroke-width:0.288157;stroke-linecap:square;stroke-linejoin:round;stroke-dashoffset:1.2;stroke-opacity:1;paint-order:markers stroke fill"
     d="m 55.500746,34.703499 c -2.055828,-0.234188 -3.76704,-0.77342 -5.233202,-1.649069 -5.531949,-3.303898 -7.562848,-10.198576 -4.687779,-15.914494 1.135278,-2.257043 3.205499,-4.3205 5.419547,-5.401837 1.636698,-0.799361 3.073717,-1.164844 4.894795,-1.244915 2.037938,-0.0896 3.902642,0.291184 5.70404,1.164813 3.488701,1.691926 5.884577,4.74217 6.681708,8.506634 0.274152,1.294685 0.297515,3.488786 0.04959,4.65707 -0.927786,4.371952 -3.825618,7.738974 -7.931574,9.215781 -1.323699,0.476101 -3.712426,0.800972 -4.897125,0.666017 z m 3.072706,-8.777545 v -0.864198 h 0.624143 0.624144 V 24.34159 23.621425 h -0.624144 -0.624143 v -2.640607 -2.640606 l -1.128259,8.51e-4 -1.128259,8.5e-4 -1.656381,2.708496 -1.65638,2.708496 v 0.651426 0.651425 h 1.968452 1.968452 v 0.864198 0.864199 h 0.816187 0.816188 z"
     id="path1"
     transform="matrix(3.7500028,0,0,3.7500028,566.3281,1648.3672)" /><path
     style="fill:#f17634;fill-opacity:1;fill-rule:evenodd;stroke:#f17634;stroke-width:0.288157;stroke-linecap:square;stroke-linejoin:round;stroke-dashoffset:1.2;stroke-opacity:1;paint-order:markers stroke fill"
     d="m 37.4486,67.788489 c -3.595433,-0.325484 -6.956404,-2.330322 -8.965227,-5.347809 -3.2667,-4.906967 -2.590117,-11.2926 1.63228,-15.405567 2.296936,-2.237406 5.248001,-3.441871 8.430116,-3.440715 5.807871,0.0021 10.784557,4.116478 11.930744,9.863491 0.266141,1.334438 0.226365,3.523274 -0.08874,4.883554 -0.672118,2.90142 -2.284959,5.373008 -4.641459,7.112774 -2.369723,1.749527 -5.385481,2.597906 -8.297709,2.334272 z m 1.440331,-7.891513 c 1.947711,-0.460392 2.876901,-1.926473 2.877576,-4.540263 7.12e-4,-2.762268 -1.048738,-3.988806 -3.311296,-3.870052 -1.773975,0.09311 -2.83103,1.154925 -2.83103,2.84378 0,0.80228 0.147476,1.275713 0.540368,1.73472 0.700206,0.818032 2.005921,1.046615 3.564575,0.624027 0.180015,-0.04881 0.215698,-0.02067 0.213941,0.168673 -0.0033,0.360971 -0.327721,0.98071 -0.659364,1.259768 -0.416046,0.350081 -0.8347,0.45424 -2.099161,0.522267 l -1.080248,0.05812 v 0.718233 0.718234 l 1.17627,-0.06768 c 0.646948,-0.03722 1.370715,-0.113645 1.608369,-0.16982 z"
     id="path2"
     transform="matrix(3.7500028,0,0,3.7500028,566.3281,1648.3672)" /><path
     style="fill:#f17634;fill-opacity:1;fill-rule:evenodd;stroke:#f17634;stroke-width:0.288157;stroke-linecap:square;stroke-linejoin:round;stroke-dashoffset:1.2;stroke-opacity:1;paint-order:markers stroke fill"
     d="m 70.768253,67.788489 c -2.836742,-0.256802 -5.572906,-1.573494 -7.594804,-3.654759 -1.629946,-1.677804 -2.702701,-3.7267 -3.215529,-6.141459 -0.234683,-1.105053 -0.238912,-3.374545 -0.0085,-4.534382 0.467336,-2.35195 1.559194,-4.426388 3.249435,-6.173656 2.308623,-2.386512 5.372617,-3.691031 8.666517,-3.689835 3.210802,0.0012 6.062852,1.156464 8.398446,3.402012 4.256865,4.092746 4.959746,10.514881 1.688602,15.428523 -1.77904,2.672326 -4.577174,4.547552 -7.704986,5.163652 -1.146259,0.225783 -2.398538,0.297735 -3.479231,0.199904 z M 73.24302,59.84927 c 0.296863,-0.08867 0.681151,-0.305122 0.928946,-0.52324 0.555616,-0.489072 0.760815,-1.025262 0.708256,-1.850683 -0.04624,-0.726192 -0.341284,-1.233915 -1.016172,-1.74867 l -0.404125,-0.308235 0.386689,-0.306263 c 0.785278,-0.621953 1.105456,-1.881988 0.682424,-2.685637 -0.486859,-0.924904 -2.146358,-1.384407 -3.620584,-1.002513 -1.187398,0.307592 -1.812605,1.036956 -1.802577,2.102876 0.0069,0.735804 0.256876,1.256737 0.8348,1.739822 l 0.422409,0.353089 -0.486054,0.39657 c -0.26733,0.218114 -0.586662,0.587008 -0.709626,0.819766 -0.410851,0.777693 -0.254544,2.014206 0.318337,2.518294 0.781884,0.687994 2.397955,0.900827 3.757277,0.494824 z"
     id="path3"
     transform="matrix(3.7500028,0,0,3.7500028,566.3281,1648.3672)" /><path
     style="fill:#f17634;fill-opacity:1;fill-rule:evenodd;stroke:#f17634;stroke-width:0.288157;stroke-linecap:square;stroke-linejoin:round;stroke-dashoffset:1.2;stroke-opacity:1;paint-order:markers stroke fill"
     d="m 87.24648,34.664447 c -5.475439,-0.688987 -9.736727,-4.70475 -10.669726,-10.05496 -0.187541,-1.075441 -0.182276,-2.934135 0.01152,-4.067852 0.989211,-5.78686 6.070523,-10.077065 11.932629,-10.074845 5.2291,0.002 9.863254,3.351166 11.533037,8.335131 0.77904,2.325265 0.77824,5.32043 -0.002,7.604143 -1.201592,3.516858 -4.003785,6.377632 -7.464226,7.620261 -1.523063,0.546924 -3.85342,0.825335 -5.341216,0.638122 z m 1.918782,-7.912337 c 1.036507,-0.274259 1.846217,-0.930146 2.048763,-1.659552 0.1495,-0.538386 0.125165,-1.347277 -0.05175,-1.720097 -0.198391,-0.418079 -0.741892,-0.895375 -1.101457,-0.967289 -0.352576,-0.07052 -0.347697,-0.128702 0.03087,-0.368111 0.898279,-0.568087 1.056188,-2.189518 0.29526,-3.031774 -0.50291,-0.556662 -1.182979,-0.774957 -2.408343,-0.773054 -0.544814,8.46e-4 -1.064399,0.02292 -1.154634,0.04904 -0.09023,0.02613 -0.347706,0.09495 -0.572158,0.152943 l -0.408093,0.105438 v 0.726738 c 0,0.653474 0.01694,0.720027 0.168038,0.660174 0.472419,-0.187133 1.564797,-0.350206 2.03482,-0.303762 0.928666,0.09176 1.346168,0.673569 1.028657,1.433478 -0.213223,0.510314 -0.738129,0.735831 -1.719168,0.738611 l -0.744171,0.0021 v 0.60997 0.609971 l 0.929496,0.06534 c 1.517186,0.106648 2.128458,0.505838 2.019419,1.318782 -0.115175,0.858701 -0.913788,1.204211 -2.562866,1.108795 -0.555606,-0.03215 -1.107414,-0.08635 -1.226242,-0.120445 -0.210533,-0.06041 -0.216049,-0.04337 -0.216049,0.667543 0,0.678094 0.01523,0.732973 0.216049,0.778288 0.726565,0.163959 2.636557,0.117167 3.393564,-0.08314 z"
     id="path4"
     transform="matrix(3.7500028,0,0,3.7500028,566.3281,1648.3672)" /><path
     style="fill:#f17634;fill-opacity:1;fill-rule:evenodd;stroke:#f17634;stroke-width:0.288157;stroke-linecap:square;stroke-linejoin:round;stroke-dashoffset:1.2;stroke-opacity:1;paint-order:markers stroke fill"
     d="m 104.03989,67.783406 c -3.53475,-0.324507 -6.914475,-2.352074 -8.949632,-5.369072 -0.801749,-1.188545 -1.59255,-3.183882 -1.864738,-4.705081 -0.18416,-1.029233 -0.159155,-3.219396 0.04824,-4.22497 0.527909,-2.55965 1.595412,-4.546502 3.407084,-6.341314 1.084102,-1.074013 1.878253,-1.65176 3.148585,-2.290603 3.782121,-1.902006 8.421781,-1.633961 11.967241,0.691379 1.91205,1.254044 3.33782,2.889952 4.33687,4.976037 1.31769,2.751463 1.5503,5.673147 0.6876,8.636663 -1.60262,5.505293 -7.01219,9.156588 -12.78125,8.626961 z m 2.50008,-11.406068 1.67688,-3.492411 V 52.176373 51.46782 h -2.97668 -2.97668 v 0.766267 0.766267 l 2.01089,0.02591 2.0109,0.02591 -1.62681,3.349788 c -0.89474,1.842384 -1.62681,3.388702 -1.62681,3.436265 0,0.04756 0.41207,0.07411 0.91572,0.059 l 0.91571,-0.02748 z"
     id="path5"
     transform="matrix(3.7500028,0,0,3.7500028,566.3281,1648.3672)" /><path
     style="fill:#f17634;fill-opacity:1;fill-rule:evenodd;stroke:#f17634;stroke-width:0.288157;stroke-linecap:square;stroke-linejoin:round;stroke-dashoffset:1.2;stroke-opacity:1;paint-order:markers stroke fill"
     d="m 119.41387,34.664028 c -3.16595,-0.396372 -5.77753,-1.762866 -7.86304,-4.114283 -2.84241,-3.204838 -3.74601,-7.78895 -2.34044,-11.873456 0.78022,-2.267278 2.27711,-4.33607 4.15973,-5.748994 6.72951,-5.0505806 16.35558,-1.952063 18.8934,6.081561 0.64264,2.034317 0.70288,4.459457 0.16308,6.56554 -0.33766,1.317395 -1.0728,2.915632 -1.83315,3.985379 -1.8261,2.569177 -4.61832,4.372836 -7.66342,4.950249 -0.96756,0.183468 -2.68129,0.258528 -3.51616,0.154004 z m 4.16651,-8.450008 v -0.768176 h -1.72457 -1.72457 l 1.22831,-1.224281 c 0.99418,-0.990922 1.29087,-1.352074 1.55653,-1.894727 0.29735,-0.607371 0.32781,-0.74739 0.32381,-1.488341 -0.003,-0.644169 -0.0482,-0.901412 -0.21039,-1.211077 -0.81929,-1.563883 -3.35033,-1.747842 -5.03908,-0.366247 l -0.26073,0.213312 0.40476,0.534224 c 0.22263,0.293822 0.43756,0.535526 0.47762,0.537118 0.0401,0.0016 0.24851,-0.124351 0.4632,-0.279873 0.21469,-0.155522 0.62008,-0.334179 0.90087,-0.397016 0.45081,-0.100888 0.55377,-0.09309 0.88035,0.06672 0.44395,0.217232 0.6081,0.51279 0.60999,1.098329 0.003,0.780838 -0.36788,1.327878 -2.08339,3.076878 l -1.56403,1.594558 v 0.63839 0.638389 h 2.88066 2.88066 z"
     id="path6"
     transform="matrix(3.7500028,0,0,3.7500028,566.3281,1648.3672)" /><path
     style="fill:#f17634;fill-opacity:1;fill-rule:evenodd;stroke:#f17634;stroke-width:0.288157;stroke-linecap:square;stroke-linejoin:round;stroke-dashoffset:1.2;stroke-opacity:1;paint-order:markers stroke fill"
     d="m 137.4084,67.783753 c -4.73581,-0.460218 -8.69445,-3.551617 -10.31858,-8.058036 -0.90324,-2.506177 -0.8999,-5.557602 0.009,-8.08829 1.71684,-4.781026 6.34361,-8.044858 11.4017,-8.043029 5.83304,0.0021 10.69433,3.991245 11.93512,9.793863 0.25587,1.196594 0.23596,3.669696 -0.039,4.849114 -0.44043,1.888925 -1.20092,3.483846 -2.38684,5.005767 -2.4533,3.148387 -6.60948,4.928522 -10.60122,4.540611 z m 2.63137,-8.19376 c 1.0102,-0.49424 1.53182,-1.368728 1.52592,-2.558137 -0.006,-1.154405 -0.44968,-1.915665 -1.35254,-2.319236 -0.60126,-0.268759 -1.57161,-0.324996 -2.3158,-0.134213 -0.33795,0.08664 -0.63734,0.134641 -0.66532,0.106669 -0.028,-0.02797 0.0233,-0.285966 0.11384,-0.573319 0.31789,-1.008467 1.06887,-1.39565 2.70702,-1.39565 h 0.81146 v -0.720166 -0.720165 l -0.74417,7.25e-4 c -2.62429,0.0026 -4.0459,0.932911 -4.54735,2.975959 -0.2049,0.834789 -0.17622,2.997467 0.0484,3.648838 0.50236,1.456935 1.41786,2.05005 3.05682,1.980392 0.66515,-0.02827 0.94651,-0.08854 1.36174,-0.291697 z"
     id="path7"
     transform="matrix(3.7500028,0,0,3.7500028,566.3281,1648.3672)" /><path
     style="fill:#f17634;fill-opacity:1;fill-rule:evenodd;stroke:#f17634;stroke-width:0.288157;stroke-linecap:square;stroke-linejoin:round;stroke-dashoffset:1.2;stroke-opacity:1;paint-order:markers stroke fill"
     d="m 151.5228,34.653482 c -2.7599,-0.312664 -5.341,-1.564103 -7.30444,-3.541535 -4.63618,-4.669222 -4.7009,-12.137239 -0.14631,-16.881799 1.56861,-1.634041 3.58066,-2.818615 5.77036,-3.397244 1.10067,-0.290853 1.23396,-0.304486 2.97669,-0.304486 1.74273,0 1.87601,0.01363 2.97668,0.304486 5.15898,1.363263 8.82566,5.823332 9.13214,11.108135 0.27825,4.797887 -2.37986,9.336926 -6.73573,11.502081 -2.12045,1.054003 -4.39919,1.467549 -6.66939,1.210362 z m 4.22497,-8.535484 v -0.768176 h -0.91221 -0.91221 v -3.504805 -3.504805 h -0.71205 c -0.69854,0 -0.73634,0.01295 -1.99246,0.682641 -0.70422,0.375453 -1.29814,0.699258 -1.31982,0.719567 -0.0217,0.02031 0.0797,0.340394 0.22518,0.7113 l 0.26458,0.674375 0.90309,-0.488285 0.90308,-0.488286 v 2.599149 2.599149 h -1.05624 -1.05624 v 0.768176 0.768177 h 2.83265 2.83265 z"
     id="path8"
     transform="matrix(3.7500028,0,0,3.7500028,566.3281,1648.3672)" /></svg>
