<?xml version="1.0" encoding="UTF-8"?>
<!DOCTYPE svg PUBLIC "-//W3C//DTD SVG 1.1//EN" "http://www.w3.org/Graphics/SVG/1.1/DTD/svg11.dtd">
<!-- Creator: CorelDRAW X8 -->
<svg xmlns="http://www.w3.org/2000/svg" xml:space="preserve" width="8.9562mm" height="21.9934mm" version="1.1" style="shape-rendering:geometricPrecision; text-rendering:geometricPrecision; image-rendering:optimizeQuality; fill-rule:evenodd; clip-rule:evenodd"
viewBox="0 0 2960 7268"
 xmlns:xlink="http://www.w3.org/1999/xlink">
 <defs>
  <style type="text/css">
   <![CDATA[
    .str2 {stroke:black;stroke-width:9.88083;stroke-linecap:round;stroke-linejoin:round}
    .str0 {stroke:black;stroke-width:14.8378;stroke-linecap:round;stroke-linejoin:round}
    .str1 {stroke:black;stroke-width:14.8378;stroke-linecap:round;stroke-linejoin:bevel}
    .fil0 {fill:none;fill-rule:nonzero}
   ]]>
  </style>
 </defs>
 <g id="图层_x0020_1">
  <metadata id="CorelCorpID_0Corel-Layer"/>
  <polygon class="fil0 str0" points="1416,1069 1544,1069 1544,943 1606,839 1710,777 1836,777 1836,648 1710,648 1606,587 1544,483 1544,356 1416,356 1416,483 1354,587 1250,648 1124,648 1124,777 1250,777 1354,839 1416,943 "/>
  <polygon class="fil0 str1" points="851,713 854,775 864,836 879,898 901,958 928,1012 960,1067 997,1116 1042,1163 1089,1205 1138,1240 1193,1272 1250,1297 1309,1319 1371,1331 1433,1339 1495,1341 1559,1336 1621,1326 1680,1309 1737,1287 1794,1257 1846,1222 1896,1183 1940,1141 1980,1091 2017,1039 2047,985 2071,928 2089,869 2101,807 2108,745 2108,681 2101,619 2089,557 2071,497 2047,441 2017,386 1980,334 1940,285 1896,243 1846,203 1794,168 1737,139 1680,116 1621,99 1559,89 1495,84 1433,87 1371,94 1309,106 1250,129 1193,153 1138,186 1089,220 1042,262 997,309 960,359 928,413 901,468 879,527 864,589 854,651 "/>
  <polygon class="fil0 str0" points="1416,6912 1544,6912 1544,6785 1606,6681 1710,6620 1836,6620 1836,6489 1710,6489 1606,6429 1544,6323 1544,6199 1416,6199 1416,6323 1354,6429 1250,6489 1124,6489 1124,6620 1250,6620 1354,6681 1416,6785 "/>
  <polygon class="fil0 str1" points="851,6555 854,6617 864,6679 879,6741 901,6800 928,6855 960,6909 997,6959 1042,7006 1089,7048 1138,7082 1193,7115 1250,7139 1309,7162 1371,7174 1433,7181 1495,7184 1559,7179 1621,7169 1680,7152 1737,7129 1794,7100 1846,7065 1896,7025 1940,6983 1980,6934 2017,6882 2047,6828 2071,6771 2089,6711 2101,6649 2108,6587 2108,6523 2101,6461 2089,6399 2071,6340 2047,6283 2017,6229 1980,6177 1940,6127 1896,6085 1846,6046 1794,6011 1737,5981 1680,5959 1621,5942 1559,5932 1495,5927 1433,5929 1371,5937 1309,5949 1250,5971 1193,5996 1138,6028 1089,6063 1042,6105 997,6152 960,6201 928,6256 901,6310 879,6370 864,6432 854,6493 "/>
  <polyline class="fil0 str0" points="2460,4746 2400,4746 2400,4301 2460,4301 "/>
  <polyline class="fil0 str0" points="2460,3855 2400,3855 2400,3410 2460,3410 "/>
  <polyline class="fil0 str0" points="2460,2967 2400,2967 2400,2522 2460,2522 "/>
  <polyline class="fil0 str0" points="500,4746 559,4746 559,4301 500,4301 "/>
  <polyline class="fil0 str0" points="500,3855 559,3855 559,3410 500,3410 "/>
  <polyline class="fil0 str0" points="500,2967 559,2967 559,2522 500,2522 "/>
  <line class="fil0 str2" x1="1811" y1="2725" x2="1811" y2= "2606" />
  <line class="fil0 str2" x1="1752" y1="2665" x2="1871" y2= "2665" />
  <line class="fil0 str2" x1="1811" y1="4660" x2="1811" y2= "4541" />
  <line class="fil0 str2" x1="1752" y1="4600" x2="1871" y2= "4600" />
  <line class="fil0 str2" x1="1811" y1="4014" x2="1811" y2= "3895" />
  <line class="fil0 str2" x1="1752" y1="3954" x2="1871" y2= "3954" />
  <line class="fil0 str2" x1="1811" y1="3373" x2="1811" y2= "3254" />
  <line class="fil0 str2" x1="1752" y1="3314" x2="1871" y2= "3314" />
  <line class="fil0 str2" x1="1148" y1="2405" x2="1148" y2= "2287" />
  <line class="fil0 str2" x1="1089" y1="2346" x2="1208" y2= "2346" />
  <line class="fil0 str2" x1="1148" y1="3046" x2="1148" y2= "2928" />
  <line class="fil0 str2" x1="1089" y1="2987" x2="1208" y2= "2987" />
  <line class="fil0 str2" x1="1148" y1="3692" x2="1148" y2= "3573" />
  <line class="fil0 str2" x1="1089" y1="3633" x2="1208" y2= "3633" />
  <line class="fil0 str2" x1="1148" y1="4341" x2="1148" y2= "4222" />
  <line class="fil0 str2" x1="1089" y1="4281" x2="1208" y2= "4281" />
  <line class="fil0 str2" x1="1148" y1="4981" x2="1148" y2= "4863" />
  <line class="fil0 str2" x1="1089" y1="4922" x2="1208" y2= "4922" />
  <line class="fil0 str0" x1="500" y1="2353" x2="500" y2= "4922" />
  <polyline class="fil0 str1" points="502,4922 505,4986 515,5053 530,5115 552,5177 579,5236 614,5293 653,5345 695,5395 745,5439 797,5479 851,5514 911,5543 973,5565 1034,5583 1099,5593 1166,5598 1230,5595 1294,5588 "/>
  <line class="fil0 str0" x1="1294" y1="5588" x2="1901" y2= "5481" />
  <polyline class="fil0 str1" points="1898,5481 1965,5466 2029,5444 2091,5417 2148,5382 2202,5343 2254,5298 2299,5249 2341,5197 2376,5140 2405,5078 2428,5014 2445,4949 2455,4882 2457,4816 "/>
  <line class="fil0 str0" x1="2460" y1="4816" x2="2460" y2= "2452" />
  <polyline class="fil0 str1" points="2457,2452 2455,2386 2445,2319 2428,2254 2405,2190 2376,2128 2341,2071 2299,2019 2254,1970 2202,1925 2148,1886 2091,1851 2029,1824 1965,1802 1898,1787 "/>
  <polyline class="fil0 str0" points="1901,1787 1294,1678 1188,1668 1079,1675 975,1700 874,1740 782,1797 700,1866 629,1948 572,2039 532,2141 507,2245 500,2353 "/>
  <line class="fil0 str0" x1="411" y1="2346" x2="411" y2= "4922" />
  <polyline class="fil0 str1" points="413,4922 416,4991 426,5061 443,5130 465,5197 492,5261 527,5323 567,5380 611,5434 661,5484 713,5531 772,5570 832,5605 896,5632 963,5657 1032,5672 1101,5682 1171,5687 1242,5684 1312,5674 "/>
  <line class="fil0 str0" x1="1309" y1="5677" x2="1915" y2= "5570" />
  <polyline class="fil0 str1" points="1915,5568 1985,5553 2051,5531 2116,5504 2180,5469 2240,5429 2294,5385 2344,5333 2391,5278 2430,5221 2465,5160 2494,5093 2517,5026 2534,4957 2544,4887 2546,4816 "/>
  <line class="fil0 str0" x1="2549" y1="4816" x2="2549" y2= "2452" />
  <polyline class="fil0 str1" points="2546,2452 2544,2381 2534,2311 2517,2242 2494,2175 2465,2111 2433,2049 2391,1990 2346,1935 2296,1886 2242,1841 2183,1802 2121,1767 2056,1740 1990,1717 1920,1700 "/>
  <polyline class="fil0 str0" points="1920,1700 1309,1591 1200,1579 1089,1584 980,1606 874,1643 775,1693 686,1759 604,1836 537,1925 483,2022 443,2126 418,2235 411,2346 "/>
  <polygon class="fil0 str1" points="1680,4600 1683,4628 1693,4655 1708,4680 1727,4699 1750,4717 1777,4727 1804,4731 1834,4729 1861,4722 1886,4709 1905,4689 1923,4667 1935,4642 1943,4615 1943,4586 1935,4558 1923,4534 1905,4511 1886,4491 1861,4479 1834,4472 1804,4469 1777,4474 1750,4484 1727,4501 1708,4521 1693,4546 1683,4573 "/>
  <polygon class="fil0 str1" points="1680,3954 1683,3982 1693,4009 1708,4034 1727,4053 1750,4071 1777,4081 1804,4086 1834,4083 1861,4076 1886,4063 1905,4044 1923,4021 1935,3997 1943,3969 1943,3940 1935,3912 1923,3888 1905,3865 1886,3846 1861,3833 1834,3826 1804,3823 1777,3828 1750,3838 1727,3855 1708,3875 1693,3900 1683,3927 "/>
  <polygon class="fil0 str1" points="1680,3314 1683,3341 1693,3368 1708,3393 1727,3413 1750,3430 1777,3440 1804,3445 1834,3442 1861,3435 1886,3422 1905,3403 1923,3380 1935,3356 1943,3328 1943,3299 1935,3271 1923,3247 1905,3224 1886,3205 1861,3192 1834,3185 1804,3182 1777,3187 1750,3197 1727,3215 1708,3234 1693,3259 1683,3286 "/>
  <polygon class="fil0 str1" points="1680,2665 1683,2692 1693,2720 1708,2744 1727,2764 1750,2782 1777,2791 1804,2796 1834,2794 1861,2786 1886,2774 1905,2754 1923,2732 1935,2707 1943,2680 1943,2650 1935,2623 1923,2598 1905,2576 1886,2556 1861,2544 1834,2537 1804,2534 1777,2539 1750,2549 1727,2566 1708,2586 1693,2611 1683,2638 "/>
  <polygon class="fil0 str1" points="1017,2346 1020,2373 1029,2400 1044,2425 1064,2445 1086,2462 1114,2472 1141,2477 1171,2475 1198,2467 1222,2455 1242,2435 1260,2413 1272,2388 1279,2361 1279,2331 1272,2304 1260,2279 1242,2257 1222,2237 1198,2225 1171,2217 1141,2215 1114,2220 1086,2230 1064,2247 1044,2267 1029,2292 1020,2319 "/>
  <polygon class="fil0 str1" points="1017,2987 1020,3014 1029,3041 1044,3066 1064,3086 1086,3103 1114,3113 1141,3118 1171,3116 1198,3108 1222,3096 1242,3076 1260,3054 1272,3029 1279,3002 1279,2972 1272,2945 1260,2920 1242,2898 1222,2878 1198,2866 1171,2858 1141,2856 1114,2861 1086,2871 1064,2888 1044,2908 1029,2932 1020,2960 "/>
  <polygon class="fil0 str1" points="1017,3633 1020,3660 1029,3687 1044,3712 1064,3732 1086,3749 1114,3759 1141,3764 1171,3761 1198,3754 1222,3742 1242,3722 1260,3700 1272,3675 1279,3648 1279,3618 1272,3591 1260,3566 1242,3544 1222,3524 1198,3511 1171,3504 1141,3502 1114,3507 1086,3516 1064,3534 1044,3554 1029,3578 1020,3606 "/>
  <polygon class="fil0 str1" points="1017,4281 1020,4308 1029,4336 1044,4360 1064,4380 1086,4397 1114,4407 1141,4412 1171,4410 1198,4402 1222,4390 1242,4370 1260,4348 1272,4323 1279,4296 1279,4266 1272,4239 1260,4214 1242,4192 1222,4172 1198,4160 1171,4152 1141,4150 1114,4155 1086,4165 1064,4182 1044,4202 1029,4227 1020,4254 "/>
  <polygon class="fil0 str1" points="1017,4922 1020,4949 1029,4977 1044,5001 1064,5021 1086,5038 1114,5048 1141,5053 1171,5051 1198,5043 1222,5031 1242,5011 1260,4989 1272,4964 1279,4937 1279,4907 1272,4880 1260,4855 1242,4833 1222,4813 1198,4801 1171,4793 1141,4791 1114,4796 1086,4806 1064,4823 1044,4843 1029,4868 1020,4895 "/>
  <polyline class="fil0 str1" points="10,6894 12,6941 22,6988 37,7035 59,7077 87,7117 116,7154 153,7184 193,7211 235,7233 282,7248 329,7258 376,7261 "/>
  <line class="fil0 str0" x1="376" y1="7261" x2="2584" y2= "7261" />
  <polyline class="fil0 str1" points="2584,7261 2631,7258 2678,7248 2725,7233 2767,7211 2806,7184 2843,7154 2873,7117 2900,7077 2923,7035 2937,6988 2947,6941 2950,6894 "/>
  <line class="fil0 str0" x1="2952" y1="6894" x2="2952" y2= "374" />
  <polyline class="fil0 str1" points="2950,374 2947,327 2937,280 2923,233 2900,191 2873,151 2843,114 2806,84 2767,57 2725,35 2678,20 2631,10 2584,7 "/>
  <line class="fil0 str0" x1="2584" y1="7" x2="376" y2= "7" />
  <polyline class="fil0 str1" points="376,7 329,10 282,20 235,35 193,57 153,84 116,114 87,151 59,191 37,233 22,280 12,327 10,374 "/>
  <line class="fil0 str0" x1="7" y1="374" x2="7" y2= "6894" />
  <polyline class="fil0 str2" points="688,4934 683,4924 668,4910 780,4910 "/>
  <polyline class="fil0 str2" points="693,4318 688,4318 678,4311 673,4306 668,4294 668,4269 673,4256 678,4251 688,4244 698,4244 710,4251 725,4264 780,4323 780,4239 "/>
  <polyline class="fil0 str2" points="668,3665 668,3598 710,3633 710,3615 715,3603 720,3598 735,3591 747,3591 762,3598 772,3610 780,3628 780,3645 772,3665 767,3670 757,3675 "/>
  <polyline class="fil0 str2" points="668,2972 742,3029 742,2945 "/>
  <line class="fil0 str2" x1="668" y1="2972" x2="780" y2= "2972" />
  <polyline class="fil0 str2" points="668,2316 668,2376 715,2381 710,2376 705,2358 705,2339 710,2321 720,2309 735,2304 747,2304 762,2309 772,2321 780,2339 780,2358 772,2376 767,2381 757,2388 "/>
  <polyline class="fil0 str2" points="2217,2623 2235,2631 2245,2643 2249,2663 2249,2670 2245,2690 2235,2702 2217,2707 2212,2707 2198,2702 2188,2690 2180,2670 2180,2663 2188,2643 2198,2631 2217,2623 2245,2623 2272,2631 2287,2643 2292,2663 2292,2675 2287,2695 2277,2702 "/>
  <polygon class="fil0 str2" points="2180,3326 2188,3343 2198,3348 2207,3348 2217,3343 2225,3331 2230,3306 2235,3289 2245,3276 2254,3271 2272,3271 2282,3276 2287,3284 2292,3301 2292,3326 2287,3343 2282,3348 2272,3356 2254,3356 2245,3348 2235,3338 2230,3318 2225,3296 2217,3284 2207,3276 2198,3276 2188,3284 2180,3301 "/>
  <polyline class="fil0 str2" points="2292,3972 2180,3912 2180,3997 "/>
  <polyline class="fil0 str2" points="2198,4566 2188,4573 2180,4593 2180,4605 2188,4625 2202,4637 2230,4645 2254,4645 2277,4637 2287,4625 2292,4605 2292,4598 2287,4578 2277,4566 2262,4561 2254,4561 2240,4566 2230,4578 2225,4598 2225,4605 2230,4625 2240,4637 2254,4645 "/>
 </g>
</svg>
