<?xml version="1.0" encoding="UTF-8"?>
<!DOCTYPE svg PUBLIC "-//W3C//DTD SVG 1.1//EN" "http://www.w3.org/Graphics/SVG/1.1/DTD/svg11.dtd">
<!-- Creator: CorelDRAW X8 -->
<svg xmlns="http://www.w3.org/2000/svg" xml:space="preserve" width="9.8365mm" height="29.435mm" version="1.1" style="shape-rendering:geometricPrecision; text-rendering:geometricPrecision; image-rendering:optimizeQuality; fill-rule:evenodd; clip-rule:evenodd"
viewBox="0 0 10140 30343"
 xmlns:xlink="http://www.w3.org/1999/xlink">
 <defs>
  <style type="text/css">
   <![CDATA[
    .str3 {stroke:black;stroke-width:34.0185;stroke-linecap:round;stroke-linejoin:round}
    .str1 {stroke:black;stroke-width:51.0277;stroke-linecap:round;stroke-linejoin:round}
    .str0 {stroke:black;stroke-width:51.0277;stroke-linecap:round;stroke-linejoin:round}
    .str2 {stroke:black;stroke-width:25.5654;stroke-linecap:round;stroke-linejoin:round}
    .fil0 {fill:none;fill-rule:nonzero}
   ]]>
  </style>
 </defs>
 <g id="图层_x0020_1">
  <metadata id="CorelCorpID_0Corel-Layer"/>
  <path class="fil0 str0" d="M5066 27239c-439,0 -796,356 -796,795 0,439 357,795 796,795 439,0 795,-356 795,-795 0,-439 -356,-795 -795,-795"/>
  <path class="fil0 str0" d="M5066 27715c-176,0 -319,143 -319,319 0,176 143,319 319,319 176,0 319,-143 319,-319 0,-176 -143,-319 -319,-319"/>
  <path class="fil0 str0" d="M5066 27366c-369,0 -668,299 -668,668 0,369 299,668 668,668 369,0 668,-299 668,-668 0,-369 -299,-668 -668,-668"/>
  <path class="fil0 str0" d="M5066 26669c-754,0 -1366,611 -1366,1365 0,754 612,1365 1366,1365 754,0 1365,-611 1365,-1365 0,-754 -611,-1365 -1365,-1365"/>
  <polyline class="fil0 str1" points="4611,28872 4517,28821 4441,28753 "/>
  <polyline class="fil0 str2" points="4441,28753 4415,28727 4356,28659 4296,28583 "/>
  <polyline class="fil0 str1" points="4611,28872 4738,28931 4670,28906 4611,28872 4526,28821 4449,28761 4381,28693 4321,28625 4270,28549 4219,28463 4185,28378 4151,28285 4134,28191 4126,28098 4126,28004 4134,27911 4151,27817 4177,27723 4211,27638 4253,27553 4313,27468 4373,27400 4441,27332 4509,27273 4594,27221 4670,27179 4764,27136 4857,27111 4951,27094 5045,27085 5138,27085 5232,27102 5325,27119 5419,27153 5504,27187 5580,27239 5666,27290 5734,27358 5802,27426 5853,27502 5904,27579 5946,27664 5980,27757 6006,27842 6023,27945 6023,28038 6023,28132 6006,28225 5980,28319 5955,28404 5912,28489 5861,28574 5802,28651 5742,28719 5666,28778 5589,28838 5504,28889 5419,28923 5334,28957 5240,28974 5147,28991 5045,28991 4951,28982 4857,28965 4772,28940 4679,28906 4594,28863 4517,28812 4441,28753 4373,28685 4313,28608 4262,28532 4211,28446 4177,28361 4151,28268 4134,28174 4126,28081 4126,27987 4134,27894 4151,27800 4177,27706 4219,27621 4262,27536 4321,27460 4381,27383 4449,27324 4526,27264 4602,27213 4687,27170 4781,27136 4866,27111 4959,27094 5062,27085 5155,27094 5249,27102 5342,27128 5427,27153 5512,27196 5597,27247 5674,27298 5742,27366 5810,27434 5861,27511 5912,27596 5955,27681 5989,27766 6006,27859 6023,27953 6023,28055 6014,28149 6006,28242 5980,28336 5946,28421 5904,28506 5853,28583 5793,28659 5725,28727 5657,28795 5580,28846 5495,28889 5402,28931 5317,28957 5223,28982 5130,28991 5036,28991 4934,28982 4840,28965 4755,28931 4662,28897 4585,28855 4500,28804 4432,28736 "/>
  <path class="fil0 str0" d="M5066 1514c-439,0 -796,356 -796,796 0,439 357,795 796,795 439,0 795,-356 795,-795 0,-440 -356,-796 -795,-796"/>
  <path class="fil0 str0" d="M5066 1991c-176,0 -319,142 -319,319 0,176 143,319 319,319 176,0 319,-143 319,-319 0,-177 -143,-319 -319,-319"/>
  <path class="fil0 str0" d="M5066 1642c-369,0 -668,299 -668,668 0,368 299,667 668,667 369,0 668,-299 668,-667 0,-369 -299,-668 -668,-668"/>
  <path class="fil0 str0" d="M5066 944c-754,0 -1366,612 -1366,1366 0,754 612,1365 1366,1365 754,0 1365,-611 1365,-1365 0,-754 -611,-1366 -1365,-1366"/>
  <polyline class="fil0 str1" points="4738,3207 4670,3182 4611,3148 4517,3097 4441,3028 4415,3003 4356,2935 4296,2858 "/>
  <polyline class="fil0 str1" points="4432,3020 4500,3079 4585,3131 4662,3173 4755,3207 4840,3241 4934,3258 5036,3267 5130,3267 5223,3258 5317,3233 5402,3207 5495,3165 5580,3122 5657,3071 5725,3003 5793,2935 5853,2858 5904,2782 5946,2697 5980,2612 6006,2518 6014,2424 6023,2331 6023,2229 6006,2135 5989,2042 5955,1957 5912,1872 5861,1786 5810,1710 5742,1642 5674,1574 5597,1523 5512,1472 5427,1429 5342,1404 5249,1378 5155,1370 5062,1361 4959,1370 4866,1387 4781,1412 4687,1446 4602,1489 4526,1540 4449,1599 4381,1659 4321,1735 4262,1812 4219,1897 4177,1982 4151,2076 4134,2169 4126,2263 4126,2356 4134,2450 4151,2544 4177,2637 4211,2722 4262,2807 4313,2884 4373,2960 4441,3028 4517,3088 4594,3139 4679,3182 4772,3216 4857,3241 4951,3258 5045,3267 5147,3267 5240,3250 5334,3233 5419,3199 5504,3165 5589,3114 5666,3054 5742,2994 5802,2926 5861,2850 5912,2765 5955,2680 5980,2595 6006,2501 6023,2407 6023,2314 6023,2220 6006,2127 5980,2033 5946,1940 5904,1855 5853,1778 5802,1701 5734,1633 5666,1565 5580,1514 5504,1463 5419,1429 5325,1395 5232,1378 5138,1361 5045,1361 4951,1370 4857,1387 4764,1412 4670,1455 4594,1497 4509,1548 4441,1608 4373,1676 4313,1744 4253,1829 4211,1914 4177,1999 4151,2093 4134,2186 4126,2280 4126,2373 4134,2467 4151,2561 4185,2654 4219,2739 4270,2824 4321,2901 4381,2969 4449,3037 4526,3097 4611,3148 4738,3207 "/>
  <path class="fil0 str0" d="M6657 7733c-266,0 -481,215 -481,480 0,266 215,481 481,481 265,0 480,-215 480,-481 0,-265 -215,-480 -480,-480"/>
  <path class="fil0 str0" d="M6657 9579c-266,0 -481,215 -481,480 0,266 215,481 481,481 265,0 480,-215 480,-481 0,-265 -215,-480 -480,-480"/>
  <path class="fil0 str0" d="M6657 16937c-266,0 -481,215 -481,481 0,265 215,480 481,480 265,0 480,-215 480,-480 0,-266 -215,-481 -480,-481"/>
  <path class="fil0 str0" d="M6657 18783c-266,0 -481,215 -481,480 0,266 215,481 481,481 265,0 480,-215 480,-481 0,-265 -215,-480 -480,-480"/>
  <path class="fil0 str0" d="M6657 20620c-266,0 -481,216 -481,481 0,265 215,481 481,481 265,0 480,-216 480,-481 0,-265 -215,-481 -480,-481"/>
  <path class="fil0 str0" d="M5066 19702c-266,0 -481,215 -481,480 0,266 215,481 481,481 265,0 480,-215 480,-481 0,-265 -215,-480 -480,-480"/>
  <path class="fil0 str0" d="M5066 17856c-266,0 -481,215 -481,480 0,266 215,481 481,481 265,0 480,-215 480,-481 0,-265 -215,-480 -480,-480"/>
  <path class="fil0 str0" d="M5066 16018c-266,0 -481,215 -481,481 0,265 215,480 481,480 265,0 480,-215 480,-480 0,-266 -215,-481 -480,-481"/>
  <path class="fil0 str0" d="M5066 8651c-266,0 -481,216 -481,481 0,265 215,481 481,481 265,0 480,-216 480,-481 0,-265 -215,-481 -480,-481"/>
  <path class="fil0 str0" d="M3475 9579c-265,0 -481,215 -481,480 0,266 216,481 481,481 265,0 481,-215 481,-481 0,-265 -216,-480 -481,-480"/>
  <path class="fil0 str0" d="M3475 16937c-265,0 -481,215 -481,481 0,265 216,480 481,480 265,0 481,-215 481,-480 0,-266 -216,-481 -481,-481"/>
  <path class="fil0 str0" d="M3475 18783c-265,0 -481,215 -481,480 0,266 216,481 481,481 265,0 481,-215 481,-481 0,-265 -216,-480 -481,-480"/>
  <path class="fil0 str0" d="M3475 20620c-265,0 -481,216 -481,481 0,265 216,481 481,481 265,0 481,-216 481,-481 0,-265 -216,-481 -481,-481"/>
  <path class="fil0 str0" d="M3475 22458c-265,0 -481,215 -481,480 0,266 216,481 481,481 265,0 481,-215 481,-481 0,-265 -216,-480 -481,-480"/>
  <path class="fil0 str0" d="M8243 7992c0,-935 -671,-1735 -1592,-1897"/>
  <path class="fil0 str0" d="M1897 23153c-9,565 234,1104 663,1471 430,367 1001,523 1557,425"/>
  <path class="fil0 str0" d="M6651 24249c921,-162 1592,-963 1592,-1898"/>
  <path class="fil0 str0" d="M4117 5294c-556,-97 -1127,58 -1557,425 -429,367 -672,907 -663,1471"/>
  <path class="fil0 str0" d="M10115 1229c0,-664 -539,-1203 -1204,-1203"/>
  <path class="fil0 str0" d="M1249 34c-668,-2 -1214,535 -1223,1204"/>
  <path class="fil0 str0" d="M8911 30318c665,0 1204,-539 1204,-1204"/>
  <path class="fil0 str0" d="M26 29114c9,669 555,1206 1223,1204"/>
  <path class="fil0 str0" d="M3475 9672c-214,0 -387,173 -387,387 0,214 173,387 387,387 214,0 387,-173 387,-387 0,-214 -173,-387 -387,-387"/>
  <path class="fil0 str0" d="M3475 17030c-214,0 -387,174 -387,388 0,213 173,387 387,387 214,0 387,-174 387,-387 0,-214 -173,-388 -387,-388"/>
  <path class="fil0 str0" d="M3475 18876c-214,0 -387,174 -387,387 0,214 173,388 387,388 214,0 387,-174 387,-388 0,-213 -173,-387 -387,-387"/>
  <path class="fil0 str0" d="M3475 20714c-214,0 -387,173 -387,387 0,214 173,387 387,387 214,0 387,-173 387,-387 0,-214 -173,-387 -387,-387"/>
  <path class="fil0 str0" d="M3475 22551c-214,0 -387,174 -387,387 0,214 173,387 387,387 214,0 387,-173 387,-387 0,-213 -173,-387 -387,-387"/>
  <path class="fil0 str0" d="M5066 19795c-214,0 -387,173 -387,387 0,214 173,387 387,387 214,0 387,-173 387,-387 0,-214 -173,-387 -387,-387"/>
  <path class="fil0 str0" d="M5066 17949c-214,0 -387,173 -387,387 0,214 173,387 387,387 214,0 387,-173 387,-387 0,-214 -173,-387 -387,-387"/>
  <path class="fil0 str0" d="M5066 16112c-214,0 -387,173 -387,387 0,214 173,387 387,387 214,0 387,-173 387,-387 0,-214 -173,-387 -387,-387"/>
  <path class="fil0 str0" d="M5066 8745c-214,0 -387,173 -387,387 0,214 173,387 387,387 214,0 387,-173 387,-387 0,-214 -173,-387 -387,-387"/>
  <path class="fil0 str0" d="M6657 20714c-214,0 -387,173 -387,387 0,214 173,387 387,387 213,0 387,-173 387,-387 0,-214 -174,-387 -387,-387"/>
  <path class="fil0 str0" d="M6657 17030c-214,0 -387,174 -387,388 0,213 173,387 387,387 213,0 387,-174 387,-387 0,-214 -174,-388 -387,-388"/>
  <path class="fil0 str0" d="M6657 18876c-214,0 -387,174 -387,387 0,214 173,388 387,388 213,0 387,-174 387,-388 0,-213 -174,-387 -387,-387"/>
  <path class="fil0 str0" d="M6657 7826c-214,0 -387,174 -387,387 0,214 173,387 387,387 213,0 387,-173 387,-387 0,-213 -174,-387 -387,-387"/>
  <path class="fil0 str0" d="M6657 9672c-214,0 -387,173 -387,387 0,214 173,387 387,387 213,0 387,-173 387,-387 0,-214 -174,-387 -387,-387"/>
  <polyline class="fil0 str1" points="10115,34 8915,34 1251,34 "/>
  <line class="fil0 str1" x1="10115" y1="961" x2="10089" y2= "961" />
  <line class="fil0 str1" x1="26" y1="1234" x2="26" y2= "29118" />
  <line class="fil0 str1" x1="1897" y1="23155" x2="1897" y2= "7197" />
  <line class="fil0 str1" x1="4126" y1="5300" x2="6652" y2= "6099" />
  <line class="fil0 str1" x1="6652" y1="6099" x2="6584" y2= "6499" />
  <line class="fil0 str1" x1="8252" y1="7996" x2="8252" y2= "22356" />
  <line class="fil0 str1" x1="10115" y1="29118" x2="10115" y2= "1234" />
  <line class="fil0 str1" x1="10115" y1="29391" x2="10115" y2= "30318" />
  <line class="fil0 str1" x1="10115" y1="34" x2="10115" y2= "961" />
  <line class="fil0 str1" x1="6652" y1="24253" x2="4126" y2= "25052" />
  <line class="fil0 str1" x1="10115" y1="29391" x2="10089" y2= "29391" />
  <polyline class="fil0 str1" points="10115,30318 8915,30318 1251,30318 "/>
  <line class="fil0 str1" x1="2297" y1="23155" x2="2297" y2= "7197" />
  <path class="fil0 str0" d="M4048 5688c-440,-77 -892,47 -1231,338 -338,290 -529,718 -520,1164"/>
  <line class="fil0 str1" x1="4049" y1="5691" x2="6584" y2= "6499" />
  <path class="fil0 str0" d="M7843 7992c0,-741 -532,-1375 -1262,-1504"/>
  <line class="fil0 str1" x1="7843" y1="7996" x2="7843" y2= "22356" />
  <path class="fil0 str0" d="M6581 23855c730,-128 1262,-763 1262,-1504"/>
  <line class="fil0 str1" x1="6584" y1="23861" x2="4049" y2= "24661" />
  <path class="fil0 str0" d="M2297 23153c-9,447 182,874 520,1165 339,291 791,415 1231,338"/>
  <path class="fil0 str0" d="M5066 6908c-214,0 -387,173 -387,387 0,213 173,387 387,387 214,0 387,-174 387,-387 0,-214 -173,-387 -387,-387"/>
  <path class="fil0 str0" d="M5066 6814c-266,0 -481,215 -481,481 0,265 215,480 481,480 265,0 480,-215 480,-480 0,-266 -215,-481 -480,-481"/>
  <path class="fil0 str0" d="M5066 21539c-266,0 -481,215 -481,481 0,265 215,480 481,480 265,0 480,-215 480,-480 0,-266 -215,-481 -480,-481"/>
  <path class="fil0 str0" d="M5066 21633c-214,0 -387,173 -387,387 0,213 173,387 387,387 214,0 387,-174 387,-387 0,-214 -173,-387 -387,-387"/>
  <path class="fil0 str0" d="M3475 7733c-265,0 -481,215 -481,480 0,266 216,481 481,481 265,0 481,-215 481,-481 0,-265 -216,-480 -481,-480"/>
  <path class="fil0 str0" d="M3475 7826c-214,0 -387,174 -387,387 0,214 173,387 387,387 214,0 387,-173 387,-387 0,-213 -173,-387 -387,-387"/>
  <path class="fil0 str0" d="M6657 11416c-266,0 -481,215 -481,481 0,265 215,480 481,480 265,0 480,-215 480,-480 0,-266 -215,-481 -480,-481"/>
  <path class="fil0 str0" d="M6657 13254c-266,0 -481,215 -481,480 0,266 215,481 481,481 265,0 480,-215 480,-481 0,-265 -215,-480 -480,-480"/>
  <path class="fil0 str0" d="M6657 15099c-266,0 -481,216 -481,481 0,266 215,481 481,481 265,0 480,-215 480,-481 0,-265 -215,-481 -480,-481"/>
  <path class="fil0 str0" d="M5066 14181c-266,0 -481,215 -481,480 0,266 215,481 481,481 265,0 480,-215 480,-481 0,-265 -215,-480 -480,-480"/>
  <path class="fil0 str0" d="M5066 12335c-266,0 -481,215 -481,480 0,266 215,481 481,481 265,0 480,-215 480,-481 0,-265 -215,-480 -480,-480"/>
  <path class="fil0 str0" d="M5066 10497c-266,0 -481,216 -481,481 0,265 215,481 481,481 265,0 480,-216 480,-481 0,-265 -215,-481 -480,-481"/>
  <path class="fil0 str0" d="M3475 11416c-265,0 -481,215 -481,481 0,265 216,480 481,480 265,0 481,-215 481,-480 0,-266 -216,-481 -481,-481"/>
  <path class="fil0 str0" d="M3475 13254c-265,0 -481,215 -481,480 0,266 216,481 481,481 265,0 481,-215 481,-481 0,-265 -216,-480 -481,-480"/>
  <path class="fil0 str0" d="M3475 15099c-265,0 -481,216 -481,481 0,266 216,481 481,481 265,0 481,-215 481,-481 0,-265 -216,-481 -481,-481"/>
  <path class="fil0 str0" d="M3475 11510c-214,0 -387,173 -387,387 0,213 173,387 387,387 214,0 387,-174 387,-387 0,-214 -173,-387 -387,-387"/>
  <path class="fil0 str0" d="M3475 13347c-214,0 -387,173 -387,387 0,214 173,387 387,387 214,0 387,-173 387,-387 0,-214 -173,-387 -387,-387"/>
  <path class="fil0 str0" d="M3475 15193c-214,0 -387,173 -387,387 0,214 173,387 387,387 214,0 387,-173 387,-387 0,-214 -173,-387 -387,-387"/>
  <path class="fil0 str0" d="M5066 14274c-214,0 -387,174 -387,387 0,214 173,387 387,387 214,0 387,-173 387,-387 0,-213 -173,-387 -387,-387"/>
  <path class="fil0 str0" d="M5066 12428c-214,0 -387,174 -387,387 0,214 173,387 387,387 214,0 387,-173 387,-387 0,-213 -173,-387 -387,-387"/>
  <path class="fil0 str0" d="M5066 10591c-214,0 -387,173 -387,387 0,214 173,387 387,387 214,0 387,-173 387,-387 0,-214 -173,-387 -387,-387"/>
  <path class="fil0 str0" d="M6657 15193c-214,0 -387,173 -387,387 0,214 173,387 387,387 213,0 387,-173 387,-387 0,-214 -174,-387 -387,-387"/>
  <path class="fil0 str0" d="M6657 11510c-214,0 -387,173 -387,387 0,213 173,387 387,387 213,0 387,-174 387,-387 0,-214 -174,-387 -387,-387"/>
  <path class="fil0 str0" d="M6657 13347c-214,0 -387,173 -387,387 0,214 173,387 387,387 213,0 387,-173 387,-387 0,-214 -174,-387 -387,-387"/>
  <polyline class="fil0 str3" points="2722,7580 2680,7520 2561,7426 3377,7426 "/>
  <polyline class="fil0 str3" points="3973,6916 3930,6848 3811,6754 4628,6754 "/>
  <polyline class="fil0 str3" points="3811,6201 3854,6295 3973,6355 4160,6389 4279,6389 4475,6355 4585,6295 4628,6201 4628,6142 4585,6048 4475,5980 4279,5955 4160,5955 3973,5980 3854,6048 3811,6142 3811,6201 "/>
  <polyline class="fil0 str3" points="5844,7784 5802,7724 5691,7631 6499,7631 "/>
  <polyline class="fil0 str3" points="5963,6856 6074,6882 6150,6950 6193,7044 6193,7069 6150,7163 6074,7222 5963,7256 5921,7256 5802,7222 5725,7163 5691,7069 5691,7044 5725,6950 5802,6882 5963,6856 6150,6856 6346,6882 6465,6950 6499,7044 6499,7103 6465,7197 6389,7222 "/>
  <polyline class="fil0 str3" points="3275,23674 3386,23708 3471,23768 3505,23861 3505,23895 3471,23980 3386,24049 3275,24074 3233,24074 3122,24049 3037,23980 3003,23895 3003,23861 3037,23768 3122,23708 3275,23674 3471,23674 3658,23708 3777,23768 3820,23861 3820,23921 3777,24014 3700,24049 "/>
  <polyline class="fil0 str3" points="4908,23632 4874,23564 4755,23470 5572,23470 "/>
  <polyline class="fil0 str3" points="4755,22943 4798,23036 4874,23070 4951,23070 5028,23036 5070,22977 5104,22858 5147,22764 5223,22696 5300,22670 5419,22670 5495,22696 5529,22730 5572,22824 5572,22943 5529,23036 5495,23070 5419,23104 5300,23104 5223,23070 5147,23011 5104,22917 5070,22790 5028,22730 4951,22696 4874,22696 4798,22730 4755,22824 4755,22943 "/>
  <polyline class="fil0 str3" points="6499,22790 6465,22790 6389,22764 6346,22730 6304,22670 6304,22543 6346,22483 6389,22449 6465,22424 6542,22424 6618,22449 6737,22517 7120,22824 7120,22390 "/>
  <polyline class="fil0 str3" points="6423,21803 6346,21828 6304,21922 6304,21990 6346,22083 6465,22143 6652,22177 6848,22177 7001,22143 7086,22083 7120,21990 7120,21956 7086,21862 7001,21803 6890,21769 6848,21769 6737,21803 6652,21862 6618,21956 6618,21990 6652,22083 6737,22143 6848,22177 "/>
  <line class="fil0 str3" x1="3479" y1="16486" x2="3479" y2= "16188" />
  <line class="fil0 str3" x1="3479" y1="16129" x2="3479" y2= "16061" />
  <line class="fil0 str3" x1="3479" y1="16001" x2="3479" y2= "15678" />
  <line class="fil0 str3" x1="3479" y1="15618" x2="3479" y2= "15550" />
  <line class="fil0 str3" x1="3479" y1="15491" x2="3479" y2= "15168" />
  <line class="fil0 str3" x1="3479" y1="15108" x2="3479" y2= "15040" />
  <line class="fil0 str3" x1="3479" y1="14980" x2="3479" y2= "14683" />
  <line class="fil0 str3" x1="2663" y1="15584" x2="2867" y2= "15584" />
  <line class="fil0 str3" x1="2935" y1="15584" x2="2994" y2= "15584" />
  <line class="fil0 str3" x1="3062" y1="15584" x2="3377" y2= "15584" />
  <line class="fil0 str3" x1="3445" y1="15584" x2="3505" y2= "15584" />
  <line class="fil0 str3" x1="3573" y1="15584" x2="3888" y2= "15584" />
  <line class="fil0 str3" x1="3956" y1="15584" x2="4015" y2= "15584" />
  <line class="fil0 str3" x1="4083" y1="15584" x2="4287" y2= "15584" />
 </g>
</svg>
