<svg width="360" height="128" xmlns="http://www.w3.org/2000/svg" version="1.1">

 <g>
  <title>background</title>
  <rect fill="none" id="canvas_background" height="625" width="1182" y="-1" x="-1"/>
 </g>
 <g>
  <title>Layer 1</title>
  <g id="surface1">
   <path stroke="#000" id="svg_1" fill-rule="nonzero" fill="#fff" d="m60.46875,0.91797c-25.625,3.5 -46.73047,22.1875 -53.125,47.04687c-1.625,6.20704 -2.03906,10.28125 -1.85156,17.89063c0.13281,5.53906 0.32031,7.35156 1.02344,10.66406c2.73828,13.11719 8.71875,23.9375 18.33203,33.29688c9.64453,9.35937 21.67578,15.21484 35.17187,17.1875c4.55078,0.67187 13.20703,0.67187 17.76172,0c28.36328,-4.10157 50.45313,-26.42188 54.17578,-54.71875c0.63672,-4.77344 0.44922,-14.86719 -0.3164,-19.00391c-1.24219,-6.62109 -2.71094,-11.04687 -5.57422,-17.03125c-9.48438,-19.60937 -28.55078,-33.14062 -50.06641,-35.46484c-4.07422,-0.44141 -11.74609,-0.37891 -15.53125,0.13281zm14.25781,4.00781c7.54297,0.79688 13.75,2.60938 20.6875,6.01563c5.47657,2.70312 8.02344,4.83984 8.02344,6.71875c0,4.13672 -9.26172,6.24218 -29.125,6.55859l-10.82422,0.1875l4.29688,0.73438c12.54297,2.1289 21.16797,5.0625 24.38672,8.27734c3.4375,3.40625 2.41406,7.12891 -3.4375,12.76562c-6.04688,5.75782 -17.51172,13.23829 -41.32032,26.99219c-4.80468,2.77344 -8.8789,5.15625 -9.07031,5.32031c-0.15625,0.15625 1.11328,-0.22656 2.86328,-0.85937c27.08985,-9.90234 40.48828,-14.01172 52.51953,-16.10938c4.83985,-0.82812 12.16407,-1.14843 14.86719,-0.60546c9.32813,1.8125 9.64453,8.8164 1.05078,22.4414c-0.3164,0.51172 1.75,-1.33594 4.61328,-4.17187c7.57813,-7.35157 11.14063,-9.67578 12.73438,-8.24219c0.82812,0.76562 0.82812,2.19531 -0.03516,6.11328c-3.24609,14.95703 -12.66797,28.51953 -25.78125,37.01953c-23.74609,15.375 -55.03125,11.83985 -74.80078,-8.46875c-8.27734,-8.53125 -13.55859,-18.55469 -15.94531,-30.39844c-0.64063,-3.18359 -0.73438,-4.55468 -0.73438,-11.10937c0,-6.62109 0.09375,-7.89844 0.76563,-11.14063c2.60937,-12.67187 8.40234,-23.24218 17.63281,-32.02734c4.39453,-4.20312 8.34375,-6.96875 13.91016,-9.76953c10.47265,-5.28906 21.80078,-7.45313 32.72265,-6.24219zm0,0"/>
   <path stroke="#000" id="svg_2" fill-rule="nonzero" fill="#fff" d="m206.72656,29.72266c-0.70312,0.125 -2.51562,0.35156 -4.03906,0.48047c-2.07422,0.15625 -2.80469,0.34765 -2.80469,0.66796c0,0.25391 0.32032,0.44532 0.76172,0.44532c0.41797,0 1.08203,0.28906 1.5,0.60547c0.60547,0.47265 0.73047,0.85937 0.66797,1.97265c-0.125,2.92969 -2.96094,25.94531 -3.27734,26.77344c-0.41797,1.01562 -1.75391,1.625 -3.62891,1.58594c-1.75,-0.03125 -2.64062,-0.47266 -2.86719,-1.42969c-0.1289,-0.41406 0.25782,-4.23047 0.76172,-8.49609c0.54297,-4.26563 0.95703,-7.76954 0.89453,-7.80079c-0.03515,-0.03125 -1.27343,0.12891 -2.76953,0.34766c-1.49609,0.22266 -3.53125,0.41797 -4.51953,0.41797c-2.23047,0.03125 -2.60937,0.79687 -0.57422,1.11328c2.03516,0.31641 2.09766,0.69922 1.17578,7.98828c-0.72656,6.01563 -0.82812,6.36719 -1.625,7.07031c-0.47265,0.41016 -1.26953,0.72657 -1.8125,0.72657c-0.60156,0 -0.92187,0.16406 -0.92187,0.48047c0,0.41015 1.58984,0.48046 12.41406,0.48046c10.56641,0 12.41406,-0.07031 12.41406,-0.44921c0,-0.28516 -0.38281,-0.51172 -1.01953,-0.57422c-0.60547,-0.0625 -1.20703,-0.37891 -1.55859,-0.89063c-0.57031,-0.76562 -0.53906,-1.14453 1.24219,-16.33203c1.59375,-13.37109 1.78125,-15.5 1.33593,-15.46875c-0.2539,0.03125 -1.05078,0.16016 -1.75,0.28516zm0,0"/>
   <path stroke="#000" id="svg_3" fill-rule="nonzero" fill="#fff" d="m170.02344,31.79297c-4.26563,0.92578 -6.52344,3.40625 -7.25391,7.95703c-0.57422,3.82422 1.78125,6.49609 8.84766,9.93359c6.62109,3.25 8.24609,4.9375 7.57422,7.92579c-0.66797,2.96484 -2.64063,4.10937 -7,4.10937c-3.34375,0 -4.10938,-0.28516 -6.65235,-2.32812c-1.65625,-1.33204 -3.75781,-4.45313 -4.04687,-5.98438c-0.09375,-0.60547 -0.37891,-1.07812 -0.63281,-1.07812c-0.35157,0 -0.38282,0.95312 -0.22657,5.3125c0.10157,2.96484 0.22657,5.3789 0.25782,5.4414c0.0625,0.07031 0.70312,-0.0625 1.39843,-0.2539c1.11719,-0.28516 2.03907,-0.21875 5.76172,0.48046c3.79297,0.70313 4.77735,0.79688 6.58985,0.53907c3.40625,-0.50782 5.72656,-1.52344 7.57812,-3.375c1.91016,-1.91016 2.70313,-3.84766 2.70313,-6.67969c0,-3.98047 -2.35547,-6.59375 -8.78125,-9.71094c-4.6211,-2.25781 -6.5586,-3.53515 -7.10157,-4.67969c-0.95703,-2.13281 0.09375,-4.55468 2.51563,-5.79296c4.26562,-2.19922 10.63281,1.33203 12.125,6.78125c0.19531,0.60546 0.51172,1.10937 0.73437,1.10937c0.28907,0 0.47657,-0.89062 0.60547,-3.27734c0.125,-1.78125 0.28516,-3.78516 0.41016,-4.45703l0.22656,-1.17579l-1.71875,0c-0.95312,0 -2.92969,-0.28906 -4.42969,-0.63671c-3.11328,-0.73438 -6.61718,-0.76563 -9.48437,-0.16016zm0,0"/>
   <path stroke="#000" id="svg_4" fill-rule="nonzero" fill="#fff" d="m191.32031,31.85938c-1.30468,0.63671 -2.42187,2.86328 -2.10156,4.16796c0.47656,1.94141 2.42188,2.96094 4.39453,2.28907c1.65625,-0.53907 2.51563,-1.65625 2.70313,-3.46875c0.1289,-1.46094 0.0625,-1.6875 -0.82813,-2.57813c-1.11328,-1.11328 -2.44922,-1.23828 -4.16797,-0.41015zm0,0"/>
   <path stroke="#000" id="svg_5" fill-rule="nonzero" fill="#fff" d="m283.28125,31.76172c-4.77734,1.05078 -7.32422,4.14062 -7.32422,8.81641c0,3.79296 1.65625,5.54296 8.5625,8.98046c6.75,3.34375 8.5,5.1875 7.82813,8.14454c-0.25391,1.24609 -1.52735,2.76953 -2.79688,3.40625c-1.30859,0.70312 -5.51172,0.95703 -7.09765,0.44921c-3.21875,-1.05468 -6.4961,-4.32812 -7.70313,-7.70312c-0.76562,-2.19922 -1.46484,-2.03906 -1.21094,0.28516c0.09375,1.01562 0.25,3.46875 0.38282,5.4414c0.15625,2.80469 0.28515,3.57031 0.60156,3.4375c1.33984,-0.50781 2.86719,-0.47656 5.73047,0.09375c5.03125,0.99219 5.34765,1.02344 7.82812,0.67188c6.08203,-0.85938 9.9336,-4.67969 9.96485,-9.86719c0.03125,-4.26563 -2.03907,-6.55859 -9.13672,-9.99609c-6.875,-3.375 -8.17578,-4.96875 -6.52735,-8.15235c1.02344,-2.0039 2.39063,-2.70312 5.19532,-2.70312c1.78125,0.03125 2.54687,0.1875 3.84765,0.85937c2.23047,1.17969 4.42578,3.69531 5.125,5.85547c0.57422,1.84766 1.3711,2.32813 1.3711,0.82813c0.03125,-0.95313 0.57031,-6.7461 0.69531,-7.41797c0.07031,-0.31641 -0.50391,-0.50782 -2.12891,-0.63282c-1.20703,-0.125 -3.21484,-0.44921 -4.45703,-0.73437c-2.60937,-0.57422 -6.27344,-0.60547 -8.75,-0.0625zm0,0"/>
   <path stroke="#000" id="svg_6" fill-rule="nonzero" fill="#fff" d="m306.48438,39.97266c-0.22657,0.57422 -1.27735,1.91406 -2.35547,2.99609c-1.5625,1.58984 -2.29297,2.06641 -3.72266,2.51172c-2.51562,0.70312 -2.71094,1.42969 -0.38672,1.42969l1.75,0l-0.1875,1.33984c-0.09765,0.76563 -0.44922,3.79297 -0.79687,6.75c-0.63672,5.15625 -0.63672,5.41016 -0.09375,6.52734c1.17578,2.38282 4.29687,2.92579 7.57422,1.33594c1.05078,-0.53906 2.28906,-1.21094 2.76953,-1.5c0.82812,-0.53906 0.85937,-0.53906 1.71875,0.51172c2.09765,2.45313 5.95312,2.51563 10.66015,0.12891l1.46485,-0.73438l0.76562,0.79688c0.95313,1.01562 2.26172,1.71875 3.21485,1.71875c1.71875,0 6.30078,-3.46875 6.30078,-4.74219l0,-0.76563l-0.69922,0.64063c-1.49219,1.33203 -3.21094,1.78125 -4.00781,0.98437c-0.51172,-0.51171 -0.48047,-2.35546 0.09375,-5.82421c0.70312,-4.36329 0.63281,-5.95313 -0.32032,-7.12891c-1.30468,-1.53125 -3.28125,-2.10547 -7.32031,-2.10547c-3.12109,0 -3.65625,0.09766 -5.09375,0.82813c-1.62109,0.82812 -3.11719,2.57812 -2.96094,3.4375c0.0625,0.28515 0.99219,0.67187 2.64063,1.01953c1.40234,0.32031 2.71094,0.57422 2.90234,0.57422c0.1875,0.03125 0.44141,-0.60547 0.53516,-1.40235c0.07031,-0.79687 0.38672,-1.71875 0.70312,-2.0664c0.79688,-0.89454 2.26172,-1.11329 3.1836,-0.51172c0.66797,0.44531 0.79687,0.76172 0.76562,2.19922c0,0.89062 -0.09765,2.22265 -0.22265,2.92578l-0.22657,1.27343l-3.34375,0.22266c-5.21875,0.31641 -8.05078,1.65625 -9.32031,4.29688c-0.89062,1.91015 -2.42187,2.96484 -4.23437,2.96484c-2.57813,0 -2.77344,-0.92969 -1.78125,-9.07422l0.53906,-4.45703l3.18359,-0.09375c3.08985,-0.10156 3.625,-0.28906 3.66016,-1.27734c0,-0.28516 -0.85938,-0.37891 -3.3125,-0.37891l-3.3125,0l0.16406,-1.37109c0.09375,-0.73438 0.25391,-2.16797 0.37891,-3.1836c0.22265,-1.59375 0.1914,-1.8164 -0.28516,-1.8164c-0.32031,0 -0.73047,0.44921 -0.98437,1.01953zm18.10937,14.83593c0.31641,0.22266 0.31641,0.76563 0.0625,2.48438c-0.15625,1.20703 -0.32031,2.28906 -0.32031,2.42187c0,0.47266 -1.9375,1.20704 -3.21094,1.20704c-2.38672,0 -3.53125,-1.97266 -2.48437,-4.26563c0.70312,-1.5 4.58203,-2.70703 5.95312,-1.84766zm0,0"/>
   <path stroke="#000" id="svg_7" fill-rule="nonzero" fill="#fff" d="m263.57813,44.6875c-0.76563,0.34766 -2.07422,1.14453 -2.9336,1.78125l-1.55859,1.14453l0,-3.14844l-1.49219,0.22266c-0.85937,0.15625 -2.77344,0.34766 -4.29687,0.47266c-1.97657,0.16406 -2.80469,0.35547 -2.80469,0.64062c0,0.25 0.44531,0.50781 0.95312,0.63672c0.54297,0.125 1.21094,0.57422 1.4961,1.01563c0.51172,0.76562 0.51172,1.14453 -0.03125,5.95312c-0.28516,2.80078 -0.69922,5.66797 -0.85938,6.30859c-0.34765,1.33204 -1.58984,2.47657 -2.70312,2.47657c-0.48047,0 -0.76563,0.19531 -0.76563,0.48047c0,0.41015 0.92188,0.48046 6.52735,0.48046c5.60156,0 6.52343,-0.07031 6.52343,-0.48046c0,-0.31641 -0.3164,-0.48047 -0.95312,-0.48047c-1.36719,0 -2.83203,-0.82813 -3.05469,-1.71875c-0.16406,-0.66407 0.57031,-8.14453 1.01563,-10.47266c0.22265,-1.07812 2.64453,-2.76562 3.94531,-2.76562c1.65625,0 2.16797,1.71875 0.85937,2.76562c-0.60156,0.48047 -1.36718,1.6875 -1.08203,1.6875c0.06641,0 1.53125,-0.79687 3.25,-1.75c1.75,-0.95312 3.3086,-1.75 3.46875,-1.75c0.48047,0 -0.03125,-2.86328 -0.60547,-3.5c-0.76562,-0.82812 -3.05468,-0.82812 -4.89843,0zm0,0"/>
   <path stroke="#000" id="svg_8" fill-rule="nonzero" fill="#fff" d="m348.87891,44.6875c-0.76172,0.34766 -2.06641,1.14453 -2.89453,1.75c-0.82813,0.60547 -1.5586,1.11328 -1.625,1.11328c-0.0625,0 -0.0625,-0.70312 -0.03125,-1.5625l0.1289,-1.52344l-1.5625,0.22266c-0.82812,0.125 -2.76562,0.34766 -4.29687,0.47266c-1.97266,0.16406 -2.80078,0.35547 -2.80078,0.64062c0,0.25 0.44531,0.50781 0.95703,0.63672c0.54297,0.125 1.20703,0.57422 1.49609,1.01563c0.50781,0.76562 0.50781,1.14453 -0.03125,5.95312c-0.28906,2.80078 -0.70312,5.66797 -0.85937,6.30859c-0.35157,1.33204 -1.59375,2.47657 -2.71094,2.47657c-0.47266,0 -0.75781,0.19531 -0.75781,0.48047c0,0.41015 0.92187,0.48046 6.52343,0.48046c5.60157,0 6.52344,-0.07031 6.52344,-0.48046c0,-0.31641 -0.32031,-0.48047 -0.95312,-0.48047c-1.3711,0 -2.83594,-0.82813 -3.0586,-1.71875c-0.15625,-0.66407 0.57422,-8.14453 1.01953,-10.47266c0.22657,-1.07812 2.64063,-2.76562 3.94922,-2.76562c1.65625,0 2.16016,1.71875 0.85938,2.76562c-0.60547,0.48047 -1.3711,1.6875 -1.08203,1.6875c0.0625,0 1.52343,-0.79687 3.24218,-1.75c1.75,-0.95312 3.3125,-1.75 3.46875,-1.75c0.44922,0 -0.09375,-2.92578 -0.66406,-3.56641c-0.69922,-0.76171 -3.02344,-0.73046 -4.83984,0.06641zm0,0"/>
   <path stroke="#000" id="svg_9" fill-rule="nonzero" fill="#fff" d="m237.85938,45.16016c-3.25,0.99218 -5.32032,2.80468 -6.75,5.89062c-0.66797,1.4336 -0.79688,2.23047 -0.82813,4.46094c0,3.87891 1.01953,5.66406 4.29688,7.35156c1.24218,0.66797 1.8789,0.76172 4.61328,0.76172c2.89453,0 3.375,-0.09375 5.2539,-0.98437c2.76563,-1.33985 4.77344,-2.86329 4.77344,-3.62891c0,-0.54297 -0.21875,-0.51172 -2.44922,0.57031c-2.19922,1.02344 -2.76953,1.17969 -4.87109,1.17969c-2.00391,0 -2.54688,-0.125 -3.4375,-0.73047c-1.30469,-0.95703 -1.94141,-2.19922 -2.19531,-4.23437l-0.19532,-1.5625l13.88282,0l-0.16407,-2.03516c-0.28515,-3.5 -2.0664,-5.98438 -5.08593,-7.07031c-1.59375,-0.53907 -5.03125,-0.53907 -6.84375,0.03125zm4.83593,1.5625c0.85938,0.38281 1.14844,0.73047 1.46485,1.84375c0.21875,0.85937 0.2539,1.78906 0.09375,2.48437l-0.28516,1.11719l-3.72656,0.09375c-2.35156,0.06641 -3.75391,-0.03125 -3.75391,-0.21875c0,-0.92969 1.40235,-3.85547 2.16016,-4.55859c1.40234,-1.30079 2.29297,-1.46485 4.04687,-0.76172zm0,0"/>
   <path stroke="#000" id="svg_10" fill-rule="nonzero" fill="#fff" d="m208.47656,45.64063c0,0.28515 0.41407,0.66796 0.92188,0.85937c1.71875,0.63672 3.05859,3.5 5.69922,12.03125l1.55859,5.09375l1.39844,0.06641l1.40234,0.09375l3.62891,-5.82813c5.28125,-8.5625 6.90625,-10.75781 8.5625,-11.51953c0.73047,-0.34766 1.33984,-0.76562 1.33984,-0.95703c0,-0.1875 -1.5625,-0.32031 -4.29687,-0.32031c-3.21875,0 -4.29688,0.10156 -4.29688,0.38672c0,0.21875 0.50391,0.60546 1.10938,0.85937c0.92578,0.37891 1.11328,0.63672 1.11328,1.43359c0,0.53907 -0.15625,1.36719 -0.37891,1.84375c-0.51172,1.20704 -5.125,9.00782 -5.34765,9.00782c-0.38282,0 -2.89844,-9.32813 -2.80469,-10.44141c0.10156,-1.05078 0.25781,-1.23828 1.46875,-1.8125c0.73047,-0.34766 1.33594,-0.76562 1.33594,-0.95703c0,-0.1875 -2.16407,-0.32031 -6.20313,-0.32031c-5.35156,0 -6.21094,0.07031 -6.21094,0.48047zm0,0"/>
   <path stroke="#000" id="svg_11" fill-rule="nonzero" fill="#fff" d="m193.19531,77.95313c-0.4414,0.2539 -1.04687,0.4414 -1.33203,0.47265c-0.82812,0 -0.70312,0.57422 0.15625,0.70313c0.70313,0.09375 0.70313,0.15625 0.79688,5.76172c0.0625,5.47265 0.0625,5.69921 -0.57422,5.85937c-1.36719,0.34766 -0.53906,0.73047 1.59375,0.73047c2.10156,0 3.11719,-0.47656 1.52734,-0.69922c-0.70312,-0.09766 -0.73437,-0.25391 -0.82812,-2.89453c-0.09375,-2.57813 -0.03125,-2.83594 0.69922,-3.57031c0.95703,-0.95313 2.10156,-1.01953 2.83203,-0.22266c0.41797,0.48047 0.54297,1.24609 0.54297,3.53516c0,2.86718 0,2.92968 -0.85938,3.27734c-0.89062,0.38672 -0.89062,0.38672 0.47656,0.51172c0.73047,0.0625 1.88282,0.0625 2.54688,0l1.17969,-0.125l-0.85938,-0.35547c-0.82812,-0.37891 -0.82812,-0.44141 -0.95312,-3.91016c-0.10157,-3.28125 -0.16407,-3.60156 -0.85938,-4.17187c-1.05469,-0.85938 -2.64844,-0.76563 -3.82422,0.22266l-0.98437,0.82812l0,-3.21875c0,-1.78125 -0.09766,-3.21484 -0.22266,-3.21484c-0.16406,0.03125 -0.60547,0.22656 -1.05469,0.48047zm0,0"/>
   <path stroke="#000" id="svg_12" fill-rule="nonzero" fill="#fff" d="m226.71875,78.07813c-1.71875,0.66796 -2.00781,0.98828 -0.96094,0.98828l0.85938,0l0,5.73047c0,3.15234 -0.125,5.73046 -0.25391,5.73046c-0.15625,0 -0.53515,0.22266 -0.89062,0.47657c-0.54297,0.41406 -0.37891,0.44531 1.8789,0.47656c2.48438,0 3.02344,-0.22656 1.75,-0.79688c-0.73437,-0.32031 -0.73437,-0.38281 -0.73437,-6.77734c0,-3.53516 -0.0625,-6.43359 -0.15625,-6.40234c-0.09375,0.03125 -0.76563,0.28906 -1.49219,0.57422zm0,0"/>
   <path stroke="#000" id="svg_13" fill-rule="nonzero" fill="#fff" d="m161.36719,78.58984c0,0.34766 -0.09375,1.17579 -0.22266,1.87891c-0.2539,1.55859 0.44922,1.46484 0.98828,-0.12891c0.35157,-1.08593 0.41407,-1.11718 2.19532,-1.21093l1.8164,-0.09766l0,5.70313c0,6.10937 0,6.10937 -1.625,6.10937c-0.3164,0 -0.60547,0.125 -0.60547,0.31641c0,0.19531 1.27344,0.32031 3.1836,0.32031c1.91015,0 3.18359,-0.125 3.18359,-0.32031c0,-0.19141 -0.28906,-0.31641 -0.60547,-0.31641c-1.625,0 -1.625,0 -1.625,-6.07812l0,-5.69922l1.71875,0c1.81641,0 2.19922,0.25 2.54688,1.65234c0.09765,0.51172 0.34765,0.89453 0.51172,0.89453c0.34765,0 0.41015,-0.89453 0.125,-2.54687l-0.1875,-1.11328l-5.69922,0c-5.47266,0 -5.69922,0.03125 -5.69922,0.63671zm0,0"/>
   <path stroke="#000" id="svg_14" fill-rule="nonzero" fill="#fff" d="m175.85156,82.375c-3.5664,1.625 -3.91406,7.35547 -0.53906,8.98047c1.33203,0.63281 2.64063,0.41016 4.10156,-0.70313c1.17969,-0.89062 1.4336,-1.62109 0.38282,-1.04687c-1.27344,0.66406 -2.54297,0.89062 -3.3086,0.60156c-0.98828,-0.38281 -1.8164,-2.0039 -1.6875,-3.28125l0.09375,-1.01562l2.70703,-0.16016c2.64063,-0.15625 2.70313,-0.19141 2.80469,-0.98437c0.21875,-1.94141 -2.48437,-3.34375 -4.55469,-2.39063zm2.44922,1.05078c0.31641,0.28906 0.57422,0.76563 0.57422,1.11719c0,0.50781 -0.25781,0.57031 -2.07031,0.57031c-1.14453,0 -2.06641,-0.1289 -2.06641,-0.28515c0,-0.12891 0.28516,-0.63672 0.66797,-1.11329c0.76563,-0.95312 2.00391,-1.08593 2.89453,-0.28906zm0,0"/>
   <path stroke="#000" id="svg_15" fill-rule="nonzero" fill="#fff" d="m185.94141,82.15234c-0.41797,0.09766 -1.3086,0.70313 -1.97266,1.36719c-3.5625,3.57031 -0.51172,9.7461 3.85156,7.86719c2.57813,-1.11719 2.99219,-2.23047 0.47657,-1.37109c-1.8125,0.60546 -2.80469,0.28515 -3.69532,-1.14454c-0.75781,-1.24218 -0.82812,-3.12109 -0.15625,-4.39062c1.11719,-2.16797 3.625,-2.13672 4.39063,0.0625c0.32031,0.89062 0.76562,0.66406 0.99219,-0.41797c0.28515,-1.49609 0.28515,-1.49609 -0.99219,-1.84375c-1.23828,-0.34766 -1.625,-0.37891 -2.89453,-0.12891zm0,0"/>
   <path stroke="#000" id="svg_16" fill-rule="nonzero" fill="#fff" d="m217.48438,82.25c-2.03907,0.63672 -3.2461,3.01953 -2.86719,5.79297c0.22656,1.78125 1.11719,2.86328 2.74219,3.40625c1.78125,0.57031 3.34375,0.22266 4.73828,-1.05469c1.08203,-1.01562 1.15234,-1.20703 1.27734,-3.24219c0.09375,-2.41796 -0.22656,-3.375 -1.5625,-4.32812c-0.98437,-0.73438 -2.92969,-0.99219 -4.32812,-0.57422zm2.83203,0.98438c1.84765,0.98828 2.03515,6.33984 0.2539,7.29296c-0.66406,0.34766 -1.9414,0.41016 -2.70312,0.125c-0.89063,-0.35156 -1.53125,-2.07031 -1.53125,-4.16796c-0.03125,-1.6875 0.10156,-2.13672 0.73437,-2.80079c0.79688,-0.85937 2.13282,-1.05468 3.2461,-0.44921zm0,0"/>
   <path stroke="#000" id="svg_17" fill-rule="nonzero" fill="#fff" d="m234.00391,82.53516c-2.26172,1.08593 -3.1836,3.98047 -2.09766,6.68359c0.92188,2.32813 3.40625,3.12109 5.98438,1.97266c1.17578,-0.50782 1.61718,-0.92188 2.09765,-2.00391c2.03516,-4.48828 -1.6875,-8.625 -5.98437,-6.65234zm3.78515,1.17968c0.60938,0.66407 0.76563,1.20704 0.85938,3.08594c0.10156,1.97656 0.03906,2.41797 -0.57031,3.15235c-0.92188,1.20703 -2.73438,1.23828 -3.85157,0.0625c-0.60156,-0.66797 -0.76562,-1.20704 -0.85937,-3.08985c-0.09375,-1.97265 -0.03125,-2.41406 0.57422,-3.17969c0.92187,-1.17968 2.73828,-1.21093 3.84765,-0.03125zm0,0"/>
   <path stroke="#000" id="svg_18" fill-rule="nonzero" fill="#fff" d="m204.11719,82.82422c-1.53125,0.57031 -1.78516,1.01562 -0.57031,1.01562l0.82031,0l-0.09375,3.40625c-0.09375,3.28125 -0.125,3.4375 -0.79688,3.53516c-0.41015,0.0625 -0.72656,0.25391 -0.72656,0.41016c0,0.16406 1.08203,0.28906 2.38281,0.28906c1.3086,0 2.38672,-0.0625 2.38672,-0.15625c0,-0.10156 -0.34765,-0.32031 -0.79297,-0.48047c-0.76562,-0.28516 -0.79687,-0.41016 -0.79687,-3.15234c0,-2.54688 0.09375,-2.95703 0.69922,-3.53125c0.38672,-0.35157 1.08203,-0.64063 1.5625,-0.64063c1.37109,0 1.875,1.02344 1.875,3.75781c0,2.45313 -0.34766,3.56641 -1.11328,3.56641c-0.25,0 -0.47657,0.125 -0.47657,0.31641c0,0.19531 0.95313,0.32031 2.23047,0.32031c1.26953,0 2.22266,-0.125 2.22266,-0.32031c0,-0.19141 -0.21875,-0.31641 -0.47266,-0.31641c-0.82812,0 -1.11328,-1.17578 -1.11328,-4.39062c0,-3.62891 -0.32031,-4.20313 -2.39062,-4.20313c-0.92188,0 -1.46485,0.22266 -2.13282,0.85938l-0.89062,0.85937l0,-0.85937c0,-0.95704 0,-0.95704 -1.8125,-0.28516zm0,0"/>
   <path stroke="#000" id="svg_19" fill-rule="nonzero" fill="#fff" d="m244.09375,83.17188c-1.27344,1.30859 -1.36719,3.15234 -0.1875,4.42578l0.69531,0.76172l-0.89062,0.64062c-1.01563,0.73047 -1.08203,1.33203 -0.22266,1.9375c0.60547,0.41797 0.60547,0.44922 -0.3164,1.14453c-1.78125,1.3086 -0.95313,2.9961 1.6875,3.44531c1.65625,0.25 4.20312,-0.48046 5.34765,-1.53125c0.79688,-0.73046 0.95313,-1.11718 0.85938,-2.10156c-0.12891,-1.5625 -0.98828,-2.0039 -3.94922,-2.0039c-2.45313,0 -2.80078,-0.12891 -2.35156,-0.95704c0.1875,-0.38281 0.69531,-0.54296 1.6875,-0.54296c1.78125,-0.03125 2.60937,-0.47266 3.27343,-1.75c0.48047,-0.92188 0.48047,-1.6875 -0.03125,-2.89454c-0.1914,-0.44921 -0.0625,-0.54296 0.60547,-0.54296c1.625,0 0.79688,-0.54297 -1.11328,-0.76563c-3.5,-0.34766 -4.07422,-0.25 -5.09375,0.73438zm3.59766,0.2539c0.41797,0.35156 0.57422,0.95313 0.57422,2.03906c0,1.27344 -0.125,1.625 -0.76563,2.03516c-0.63672,0.44922 -0.92187,0.44922 -1.52734,0.12891c-0.41016,-0.22266 -0.82813,-0.53907 -0.95313,-0.73438c-0.35547,-0.50781 -0.3164,-2.67187 0.0625,-3.40625c0.41016,-0.76562 1.8125,-0.79687 2.60938,-0.0625zm1.11328,7.92969c0.85937,0.22266 1.21094,1.14453 0.76562,2.00391c-0.67187,1.20703 -3.75781,1.71875 -5.0625,0.79687c-0.89062,-0.60547 -0.89062,-1.30859 0,-2.26172c0.51172,-0.57031 1.01563,-0.73437 2.13282,-0.73437c0.79687,0 1.78515,0.09375 2.16406,0.19531zm0,0"/>
   <path stroke="#000" id="svg_20" fill-rule="nonzero" fill="#fff" d="m252.40625,82.50391c0,0.0625 0.34766,0.41406 0.75781,0.79297c0.41797,0.38671 1.4961,2.32812 2.35547,4.33203c1.3711,3.12109 1.5625,3.75781 1.27735,4.55468c-0.48047,1.36719 -1.71875,2.19141 -2.71094,1.8125c-1.01563,-0.38281 -1.14453,-0.25781 -0.75781,0.79688c0.79687,2.03516 3.21093,0.125 4.64453,-3.63281c2.38672,-6.39453 2.83203,-7.41407 3.375,-7.89453c0.34765,-0.28516 0.60547,-0.60547 0.60547,-0.69922c0,-0.12891 -2.32422,-0.12891 -3.15235,-0.03125c-0.09375,0.03125 0.125,0.22656 0.44922,0.47656c0.57031,0.41406 0.53516,0.50781 -0.32422,3.02344c-0.5039,1.40234 -1.01562,2.57812 -1.11328,2.57812c-0.125,0 -0.69922,-1.08203 -1.24219,-2.41406c-0.98437,-2.32422 -1.08203,-3.3125 -0.34765,-3.3125c0.15625,0 0.3164,-0.09375 0.3164,-0.25781c0,-0.125 -0.92187,-0.22266 -2.0664,-0.22266c-1.14453,0 -2.06641,0.03125 -2.06641,0.09766zm0,0"/>
  </g>
 </g>
</svg>