<?xml version="1.0"?>
<svg width="1200" height="1200" xmlns="http://www.w3.org/2000/svg" xmlns:svg="http://www.w3.org/2000/svg" preserveAspectRatio="xMidYMid meet" version="1.0">
 <g class="layer">
  <title>Layer 1</title>
  <g fill="#000000" id="svg_1" transform="matrix(0.146529 0 0 -0.14728 -5.19015 -4.35743)">
   <path d="m3830,-112c-749,-52 -1506,-335 -2104,-786c-1275,-959 -1858,-2556 -1501,-4108c42,-181 141,-486 210,-649c412,-964 1165,-1717 2131,-2130c161,-69 467,-168 649,-210c719,-166 1465,-131 2160,100c611,203 1116,515 1571,969c455,456 766,960 969,1571c301,904 266,1892 -96,2778c-70,169 -219,457 -320,615c-438,690 -1066,1222 -1825,1547c-161,69 -467,168 -649,210c-385,89 -799,121 -1195,93zm577,-269c496,-40 969,-174 1413,-400c357,-181 504,-322 470,-450c-27,-100 -152,-174 -403,-239c-354,-92 -781,-130 -1557,-138l-555,-5l200,-34c694,-116 1184,-255 1449,-411c97,-56 213,-164 244,-224c12,-24 27,-68 33,-96c35,-150 -76,-361 -307,-582c-413,-396 -1160,-877 -3096,-1991c-80,-46 -145,-85 -144,-87c2,-1 102,34 222,79c614,227 1040,378 1509,532c1710,564 2712,688 3056,379c32,-29 61,-69 85,-117c32,-65 37,-86 42,-168c12,-237 -114,-560 -375,-962l-65,-100l288,285c450,445 653,600 785,600c57,0 93,-34 108,-102c28,-125 -120,-670 -279,-1025c-187,-419 -438,-782 -769,-1114c-610,-609 -1376,-976 -2246,-1075c-179,-20 -563,-23 -735,-5c-570,58 -1101,232 -1580,518c-523,312 -971,760 -1281,1280c-288,485 -459,1001 -520,1573c-18,170 -16,564 5,745c147,1288 905,2379 2052,2953c407,204 898,341 1359,381c146,12 445,13 592,0z" id="svg_2"/>
  </g>
 </g>
</svg>