<?xml version="1.0" encoding="UTF-8"?>
<svg xmlns="http://www.w3.org/2000/svg" xmlns:xlink="http://www.w3.org/1999/xlink" width="360px" height="128px" viewBox="0 0 360 128" version="1.1">
<g id="surface1">
<path style=" stroke:none;fill-rule:nonzero;fill:rgb(0%,0%,0%);fill-opacity:1;" d="M 60.46875 0.917969 C 34.84375 4.417969 13.738281 23.105469 7.34375 47.964844 C 5.71875 54.171875 5.304688 58.246094 5.492188 65.855469 C 5.625 71.394531 5.8125 73.207031 6.515625 76.519531 C 9.253906 89.636719 15.234375 100.457031 24.847656 109.816406 C 34.492188 119.175781 46.523438 125.03125 60.019531 127.003906 C 64.570312 127.675781 73.226562 127.675781 77.78125 127.003906 C 106.144531 122.902344 128.234375 100.582031 131.957031 72.285156 C 132.59375 67.511719 132.40625 57.417969 131.640625 53.28125 C 130.398438 46.660156 128.929688 42.234375 126.066406 36.25 C 116.582031 16.640625 97.515625 3.109375 76 0.785156 C 71.925781 0.34375 64.253906 0.40625 60.46875 0.917969 Z M 74.726562 4.925781 C 82.269531 5.722656 88.476562 7.535156 95.414062 10.941406 C 100.890625 13.644531 103.4375 15.78125 103.4375 17.660156 C 103.4375 21.796875 94.175781 23.902344 74.3125 24.21875 L 63.488281 24.40625 L 67.785156 25.140625 C 80.328125 27.269531 88.953125 30.203125 92.171875 33.417969 C 95.609375 36.824219 94.585938 40.546875 88.734375 46.183594 C 82.6875 51.941406 71.222656 59.421875 47.414062 73.175781 C 42.609375 75.949219 38.535156 78.332031 38.34375 78.496094 C 38.1875 78.652344 39.457031 78.269531 41.207031 77.636719 C 68.296875 67.734375 81.695312 63.625 93.726562 61.527344 C 98.566406 60.699219 105.890625 60.378906 108.59375 60.921875 C 117.921875 62.734375 118.238281 69.738281 109.644531 83.363281 C 109.328125 83.875 111.394531 82.027344 114.257812 79.191406 C 121.835938 71.839844 125.398438 69.515625 126.992188 70.949219 C 127.820312 71.714844 127.820312 73.144531 126.957031 77.0625 C 123.710938 92.019531 114.289062 105.582031 101.175781 114.082031 C 77.429688 129.457031 46.144531 125.921875 26.375 105.613281 C 18.097656 97.082031 12.816406 87.058594 10.429688 75.214844 C 9.789062 72.03125 9.695312 70.660156 9.695312 64.105469 C 9.695312 57.484375 9.789062 56.207031 10.460938 52.964844 C 13.070312 40.292969 18.863281 29.722656 28.09375 20.9375 C 32.488281 16.734375 36.4375 13.96875 42.003906 11.167969 C 52.476562 5.878906 63.804688 3.714844 74.726562 4.925781 Z M 74.726562 4.925781 "/>
<path style=" stroke:none;fill-rule:nonzero;fill:rgb(0%,0%,0%);fill-opacity:1;" d="M 206.726562 29.722656 C 206.023438 29.847656 204.210938 30.074219 202.6875 30.203125 C 200.613281 30.359375 199.882812 30.550781 199.882812 30.871094 C 199.882812 31.125 200.203125 31.316406 200.644531 31.316406 C 201.0625 31.316406 201.726562 31.605469 202.144531 31.921875 C 202.75 32.394531 202.875 32.78125 202.8125 33.894531 C 202.6875 36.824219 199.851562 59.839844 199.535156 60.667969 C 199.117188 61.683594 197.78125 62.292969 195.90625 62.253906 C 194.15625 62.222656 193.265625 61.78125 193.039062 60.824219 C 192.910156 60.410156 193.296875 56.59375 193.800781 52.328125 C 194.34375 48.0625 194.757812 44.558594 194.695312 44.527344 C 194.660156 44.496094 193.421875 44.65625 191.925781 44.875 C 190.429688 45.097656 188.394531 45.292969 187.40625 45.292969 C 185.175781 45.324219 184.796875 46.089844 186.832031 46.40625 C 188.867188 46.722656 188.929688 47.105469 188.007812 54.394531 C 187.28125 60.410156 187.179688 60.761719 186.382812 61.464844 C 185.910156 61.875 185.113281 62.191406 184.570312 62.191406 C 183.96875 62.191406 183.648438 62.355469 183.648438 62.671875 C 183.648438 63.082031 185.238281 63.152344 196.0625 63.152344 C 206.628906 63.152344 208.476562 63.082031 208.476562 62.703125 C 208.476562 62.417969 208.09375 62.191406 207.457031 62.128906 C 206.851562 62.066406 206.25 61.75 205.898438 61.238281 C 205.328125 60.472656 205.359375 60.09375 207.140625 44.90625 C 208.734375 31.535156 208.921875 29.40625 208.476562 29.4375 C 208.222656 29.46875 207.425781 29.597656 206.726562 29.722656 Z M 206.726562 29.722656 "/>
<path style=" stroke:none;fill-rule:nonzero;fill:rgb(0%,0%,0%);fill-opacity:1;" d="M 170.023438 31.792969 C 165.757812 32.71875 163.5 35.199219 162.769531 39.75 C 162.195312 43.574219 164.550781 46.246094 171.617188 49.683594 C 178.238281 52.933594 179.863281 54.621094 179.191406 57.609375 C 178.523438 60.574219 176.550781 61.71875 172.191406 61.71875 C 168.847656 61.71875 168.082031 61.433594 165.539062 59.390625 C 163.882812 58.058594 161.78125 54.9375 161.492188 53.40625 C 161.398438 52.800781 161.113281 52.328125 160.859375 52.328125 C 160.507812 52.328125 160.476562 53.28125 160.632812 57.640625 C 160.734375 60.605469 160.859375 63.019531 160.890625 63.082031 C 160.953125 63.152344 161.59375 63.019531 162.289062 62.828125 C 163.40625 62.542969 164.328125 62.609375 168.050781 63.308594 C 171.84375 64.011719 172.828125 64.105469 174.640625 63.847656 C 178.046875 63.339844 180.367188 62.324219 182.21875 60.472656 C 184.128906 58.5625 184.921875 56.625 184.921875 53.792969 C 184.921875 49.8125 182.566406 47.199219 176.140625 44.082031 C 171.519531 41.824219 169.582031 40.546875 169.039062 39.402344 C 168.082031 37.269531 169.132812 34.847656 171.554688 33.609375 C 175.820312 31.410156 182.1875 34.941406 183.679688 40.390625 C 183.875 40.996094 184.191406 41.5 184.414062 41.5 C 184.703125 41.5 184.890625 40.609375 185.019531 38.222656 C 185.144531 36.441406 185.304688 34.4375 185.429688 33.765625 L 185.65625 32.589844 L 183.9375 32.589844 C 182.984375 32.589844 181.007812 32.300781 179.507812 31.953125 C 176.394531 31.21875 172.890625 31.1875 170.023438 31.792969 Z M 170.023438 31.792969 "/>
<path style=" stroke:none;fill-rule:nonzero;fill:rgb(0%,0%,0%);fill-opacity:1;" d="M 191.320312 31.859375 C 190.015625 32.496094 188.898438 34.722656 189.21875 36.027344 C 189.695312 37.96875 191.640625 38.988281 193.613281 38.316406 C 195.269531 37.777344 196.128906 36.660156 196.316406 34.847656 C 196.445312 33.386719 196.378906 33.160156 195.488281 32.269531 C 194.375 31.15625 193.039062 31.03125 191.320312 31.859375 Z M 191.320312 31.859375 "/>
<path style=" stroke:none;fill-rule:nonzero;fill:rgb(0%,0%,0%);fill-opacity:1;" d="M 283.28125 31.761719 C 278.503906 32.8125 275.957031 35.902344 275.957031 40.578125 C 275.957031 44.371094 277.613281 46.121094 284.519531 49.558594 C 291.269531 52.902344 293.019531 54.746094 292.347656 57.703125 C 292.09375 58.949219 290.820312 60.472656 289.550781 61.109375 C 288.242188 61.8125 284.039062 62.066406 282.453125 61.558594 C 279.234375 60.503906 275.957031 57.230469 274.75 53.855469 C 273.984375 51.65625 273.285156 51.816406 273.539062 54.140625 C 273.632812 55.15625 273.789062 57.609375 273.921875 59.582031 C 274.078125 62.386719 274.207031 63.152344 274.523438 63.019531 C 275.863281 62.511719 277.390625 62.542969 280.253906 63.113281 C 285.285156 64.105469 285.601562 64.136719 288.082031 63.785156 C 294.164062 62.925781 298.015625 59.105469 298.046875 53.917969 C 298.078125 49.652344 296.007812 47.359375 288.910156 43.921875 C 282.035156 40.546875 280.734375 38.953125 282.382812 35.769531 C 283.40625 33.765625 284.773438 33.066406 287.578125 33.066406 C 289.359375 33.097656 290.125 33.253906 291.425781 33.925781 C 293.65625 35.105469 295.851562 37.621094 296.550781 39.78125 C 297.125 41.628906 297.921875 42.109375 297.921875 40.609375 C 297.953125 39.65625 298.492188 33.863281 298.617188 33.191406 C 298.6875 32.875 298.113281 32.683594 296.488281 32.558594 C 295.28125 32.433594 293.273438 32.109375 292.03125 31.824219 C 289.421875 31.25 285.757812 31.21875 283.28125 31.761719 Z M 283.28125 31.761719 "/>
<path style=" stroke:none;fill-rule:nonzero;fill:rgb(0%,0%,0%);fill-opacity:1;" d="M 306.484375 39.972656 C 306.257812 40.546875 305.207031 41.886719 304.128906 42.96875 C 302.566406 44.558594 301.835938 45.035156 300.40625 45.480469 C 297.890625 46.183594 297.695312 46.910156 300.019531 46.910156 L 301.769531 46.910156 L 301.582031 48.25 C 301.484375 49.015625 301.132812 52.042969 300.785156 55 C 300.148438 60.15625 300.148438 60.410156 300.691406 61.527344 C 301.867188 63.910156 304.988281 64.453125 308.265625 62.863281 C 309.316406 62.324219 310.554688 61.652344 311.035156 61.363281 C 311.863281 60.824219 311.894531 60.824219 312.753906 61.875 C 314.851562 64.328125 318.707031 64.390625 323.414062 62.003906 L 324.878906 61.269531 L 325.644531 62.066406 C 326.597656 63.082031 327.90625 63.785156 328.859375 63.785156 C 330.578125 63.785156 335.160156 60.316406 335.160156 59.042969 L 335.160156 58.277344 L 334.460938 58.917969 C 332.96875 60.25 331.25 60.699219 330.453125 59.902344 C 329.941406 59.390625 329.972656 57.546875 330.546875 54.078125 C 331.25 49.714844 331.179688 48.125 330.226562 46.949219 C 328.921875 45.417969 326.945312 44.84375 322.90625 44.84375 C 319.785156 44.84375 319.25 44.941406 317.8125 45.671875 C 316.191406 46.5 314.695312 48.25 314.851562 49.109375 C 314.914062 49.394531 315.84375 49.78125 317.492188 50.128906 C 318.894531 50.449219 320.203125 50.703125 320.394531 50.703125 C 320.582031 50.734375 320.835938 50.097656 320.929688 49.300781 C 321 48.503906 321.316406 47.582031 321.632812 47.234375 C 322.429688 46.339844 323.894531 46.121094 324.816406 46.722656 C 325.484375 47.167969 325.613281 47.484375 325.582031 48.921875 C 325.582031 49.8125 325.484375 51.144531 325.359375 51.847656 L 325.132812 53.121094 L 321.789062 53.34375 C 316.570312 53.660156 313.738281 55 312.46875 57.640625 C 311.578125 59.550781 310.046875 60.605469 308.234375 60.605469 C 305.65625 60.605469 305.460938 59.675781 306.453125 51.53125 L 306.992188 47.074219 L 310.175781 46.980469 C 313.265625 46.878906 313.800781 46.691406 313.835938 45.703125 C 313.835938 45.417969 312.976562 45.324219 310.523438 45.324219 L 307.210938 45.324219 L 307.375 43.953125 C 307.46875 43.21875 307.628906 41.785156 307.753906 40.769531 C 307.976562 39.175781 307.945312 38.953125 307.46875 38.953125 C 307.148438 38.953125 306.738281 39.402344 306.484375 39.972656 Z M 324.59375 54.808594 C 324.910156 55.03125 324.910156 55.574219 324.65625 57.292969 C 324.5 58.5 324.335938 59.582031 324.335938 59.714844 C 324.335938 60.1875 322.398438 60.921875 321.125 60.921875 C 318.738281 60.921875 317.59375 58.949219 318.640625 56.65625 C 319.34375 55.15625 323.222656 53.949219 324.59375 54.808594 Z M 324.59375 54.808594 "/>
<path style=" stroke:none;fill-rule:nonzero;fill:rgb(0%,0%,0%);fill-opacity:1;" d="M 263.578125 44.6875 C 262.8125 45.035156 261.503906 45.832031 260.644531 46.46875 L 259.085938 47.613281 L 259.085938 44.464844 L 257.59375 44.6875 C 256.734375 44.84375 254.820312 45.035156 253.296875 45.160156 C 251.320312 45.324219 250.492188 45.515625 250.492188 45.800781 C 250.492188 46.050781 250.9375 46.308594 251.445312 46.4375 C 251.988281 46.5625 252.65625 47.011719 252.941406 47.453125 C 253.453125 48.21875 253.453125 48.597656 252.910156 53.40625 C 252.625 56.207031 252.210938 59.074219 252.050781 59.714844 C 251.703125 61.046875 250.460938 62.191406 249.347656 62.191406 C 248.867188 62.191406 248.582031 62.386719 248.582031 62.671875 C 248.582031 63.082031 249.503906 63.152344 255.109375 63.152344 C 260.710938 63.152344 261.632812 63.082031 261.632812 62.671875 C 261.632812 62.355469 261.316406 62.191406 260.679688 62.191406 C 259.3125 62.191406 257.847656 61.363281 257.625 60.472656 C 257.460938 59.808594 258.195312 52.328125 258.640625 50 C 258.863281 48.921875 261.285156 47.234375 262.585938 47.234375 C 264.242188 47.234375 264.753906 48.953125 263.445312 50 C 262.84375 50.480469 262.078125 51.6875 262.363281 51.6875 C 262.429688 51.6875 263.894531 50.890625 265.613281 49.9375 C 267.363281 48.984375 268.921875 48.1875 269.082031 48.1875 C 269.5625 48.1875 269.050781 45.324219 268.476562 44.6875 C 267.710938 43.859375 265.421875 43.859375 263.578125 44.6875 Z M 263.578125 44.6875 "/>
<path style=" stroke:none;fill-rule:nonzero;fill:rgb(0%,0%,0%);fill-opacity:1;" d="M 348.878906 44.6875 C 348.117188 45.035156 346.8125 45.832031 345.984375 46.4375 C 345.15625 47.042969 344.425781 47.550781 344.359375 47.550781 C 344.296875 47.550781 344.296875 46.847656 344.328125 45.988281 L 344.457031 44.464844 L 342.894531 44.6875 C 342.066406 44.8125 340.128906 45.035156 338.597656 45.160156 C 336.625 45.324219 335.796875 45.515625 335.796875 45.800781 C 335.796875 46.050781 336.242188 46.308594 336.753906 46.4375 C 337.296875 46.5625 337.960938 47.011719 338.25 47.453125 C 338.757812 48.21875 338.757812 48.597656 338.21875 53.40625 C 337.929688 56.207031 337.515625 59.074219 337.359375 59.714844 C 337.007812 61.046875 335.765625 62.191406 334.648438 62.191406 C 334.175781 62.191406 333.890625 62.386719 333.890625 62.671875 C 333.890625 63.082031 334.8125 63.152344 340.414062 63.152344 C 346.015625 63.152344 346.9375 63.082031 346.9375 62.671875 C 346.9375 62.355469 346.617188 62.191406 345.984375 62.191406 C 344.613281 62.191406 343.148438 61.363281 342.925781 60.472656 C 342.769531 59.808594 343.5 52.328125 343.945312 50 C 344.171875 48.921875 346.585938 47.234375 347.894531 47.234375 C 349.550781 47.234375 350.054688 48.953125 348.753906 50 C 348.148438 50.480469 347.382812 51.6875 347.671875 51.6875 C 347.734375 51.6875 349.195312 50.890625 350.914062 49.9375 C 352.664062 48.984375 354.226562 48.1875 354.382812 48.1875 C 354.832031 48.1875 354.289062 45.261719 353.71875 44.621094 C 353.019531 43.859375 350.695312 43.890625 348.878906 44.6875 Z M 348.878906 44.6875 "/>
<path style=" stroke:none;fill-rule:nonzero;fill:rgb(0%,0%,0%);fill-opacity:1;" d="M 237.859375 45.160156 C 234.609375 46.152344 232.539062 47.964844 231.109375 51.050781 C 230.441406 52.484375 230.3125 53.28125 230.28125 55.511719 C 230.28125 59.390625 231.300781 61.175781 234.578125 62.863281 C 235.820312 63.53125 236.457031 63.625 239.191406 63.625 C 242.085938 63.625 242.566406 63.53125 244.445312 62.640625 C 247.210938 61.300781 249.21875 59.777344 249.21875 59.011719 C 249.21875 58.46875 249 58.5 246.769531 59.582031 C 244.570312 60.605469 244 60.761719 241.898438 60.761719 C 239.894531 60.761719 239.351562 60.636719 238.460938 60.03125 C 237.15625 59.074219 236.519531 57.832031 236.265625 55.796875 L 236.070312 54.234375 L 249.953125 54.234375 L 249.789062 52.199219 C 249.503906 48.699219 247.722656 46.214844 244.703125 45.128906 C 243.109375 44.589844 239.671875 44.589844 237.859375 45.160156 Z M 242.695312 46.722656 C 243.554688 47.105469 243.84375 47.453125 244.160156 48.566406 C 244.378906 49.425781 244.414062 50.355469 244.253906 51.050781 L 243.96875 52.167969 L 240.242188 52.261719 C 237.890625 52.328125 236.488281 52.230469 236.488281 52.042969 C 236.488281 51.113281 237.890625 48.1875 238.648438 47.484375 C 240.050781 46.183594 240.941406 46.019531 242.695312 46.722656 Z M 242.695312 46.722656 "/>
<path style=" stroke:none;fill-rule:nonzero;fill:rgb(0%,0%,0%);fill-opacity:1;" d="M 208.476562 45.640625 C 208.476562 45.925781 208.890625 46.308594 209.398438 46.5 C 211.117188 47.136719 212.457031 50 215.097656 58.53125 L 216.65625 63.625 L 218.054688 63.691406 L 219.457031 63.785156 L 223.085938 57.957031 C 228.367188 49.394531 229.992188 47.199219 231.648438 46.4375 C 232.378906 46.089844 232.988281 45.671875 232.988281 45.480469 C 232.988281 45.292969 231.425781 45.160156 228.691406 45.160156 C 225.472656 45.160156 224.394531 45.261719 224.394531 45.546875 C 224.394531 45.765625 224.898438 46.152344 225.503906 46.40625 C 226.429688 46.785156 226.617188 47.042969 226.617188 47.839844 C 226.617188 48.378906 226.460938 49.207031 226.238281 49.683594 C 225.726562 50.890625 221.113281 58.691406 220.890625 58.691406 C 220.507812 58.691406 217.992188 49.363281 218.085938 48.25 C 218.1875 47.199219 218.34375 47.011719 219.554688 46.4375 C 220.285156 46.089844 220.890625 45.671875 220.890625 45.480469 C 220.890625 45.292969 218.726562 45.160156 214.6875 45.160156 C 209.335938 45.160156 208.476562 45.230469 208.476562 45.640625 Z M 208.476562 45.640625 "/>
<path style=" stroke:none;fill-rule:nonzero;fill:rgb(0%,0%,0%);fill-opacity:1;" d="M 193.195312 77.953125 C 192.753906 78.207031 192.148438 78.394531 191.863281 78.425781 C 191.035156 78.425781 191.160156 79 192.019531 79.128906 C 192.722656 79.222656 192.722656 79.285156 192.816406 84.890625 C 192.878906 90.363281 192.878906 90.589844 192.242188 90.75 C 190.875 91.097656 191.703125 91.480469 193.835938 91.480469 C 195.9375 91.480469 196.953125 91.003906 195.363281 90.78125 C 194.660156 90.683594 194.628906 90.527344 194.535156 87.886719 C 194.441406 85.308594 194.503906 85.050781 195.234375 84.316406 C 196.191406 83.363281 197.335938 83.296875 198.066406 84.09375 C 198.484375 84.574219 198.609375 85.339844 198.609375 87.628906 C 198.609375 90.496094 198.609375 90.558594 197.75 90.90625 C 196.859375 91.292969 196.859375 91.292969 198.226562 91.417969 C 198.957031 91.480469 200.109375 91.480469 200.773438 91.417969 L 201.953125 91.292969 L 201.09375 90.9375 C 200.265625 90.558594 200.265625 90.496094 200.140625 87.027344 C 200.039062 83.746094 199.976562 83.425781 199.28125 82.855469 C 198.226562 81.996094 196.632812 82.089844 195.457031 83.078125 L 194.472656 83.90625 L 194.472656 80.6875 C 194.472656 78.90625 194.375 77.472656 194.25 77.472656 C 194.085938 77.503906 193.644531 77.699219 193.195312 77.953125 Z M 193.195312 77.953125 "/>
<path style=" stroke:none;fill-rule:nonzero;fill:rgb(0%,0%,0%);fill-opacity:1;" d="M 226.71875 78.078125 C 225 78.746094 224.710938 79.066406 225.757812 79.066406 L 226.617188 79.066406 L 226.617188 84.796875 C 226.617188 87.949219 226.492188 90.527344 226.363281 90.527344 C 226.207031 90.527344 225.828125 90.75 225.472656 91.003906 C 224.929688 91.417969 225.09375 91.449219 227.351562 91.480469 C 229.835938 91.480469 230.375 91.253906 229.101562 90.683594 C 228.367188 90.363281 228.367188 90.300781 228.367188 83.90625 C 228.367188 80.371094 228.304688 77.472656 228.210938 77.503906 C 228.117188 77.535156 227.445312 77.792969 226.71875 78.078125 Z M 226.71875 78.078125 "/>
<path style=" stroke:none;fill-rule:nonzero;fill:rgb(0%,0%,0%);fill-opacity:1;" d="M 161.367188 78.589844 C 161.367188 78.9375 161.273438 79.765625 161.144531 80.46875 C 160.890625 82.027344 161.59375 81.933594 162.132812 80.339844 C 162.484375 79.253906 162.546875 79.222656 164.328125 79.128906 L 166.144531 79.03125 L 166.144531 84.734375 C 166.144531 90.84375 166.144531 90.84375 164.519531 90.84375 C 164.203125 90.84375 163.914062 90.96875 163.914062 91.160156 C 163.914062 91.355469 165.1875 91.480469 167.097656 91.480469 C 169.007812 91.480469 170.28125 91.355469 170.28125 91.160156 C 170.28125 90.96875 169.992188 90.84375 169.675781 90.84375 C 168.050781 90.84375 168.050781 90.84375 168.050781 84.765625 L 168.050781 79.066406 L 169.769531 79.066406 C 171.585938 79.066406 171.96875 79.316406 172.316406 80.71875 C 172.414062 81.230469 172.664062 81.613281 172.828125 81.613281 C 173.175781 81.613281 173.238281 80.71875 172.953125 79.066406 L 172.765625 77.953125 L 167.066406 77.953125 C 161.59375 77.953125 161.367188 77.984375 161.367188 78.589844 Z M 161.367188 78.589844 "/>
<path style=" stroke:none;fill-rule:nonzero;fill:rgb(0%,0%,0%);fill-opacity:1;" d="M 175.851562 82.375 C 172.285156 84 171.9375 89.730469 175.3125 91.355469 C 176.644531 91.988281 177.953125 91.765625 179.414062 90.652344 C 180.59375 89.761719 180.847656 89.03125 179.796875 89.605469 C 178.523438 90.269531 177.253906 90.496094 176.488281 90.207031 C 175.5 89.824219 174.671875 88.203125 174.800781 86.925781 L 174.894531 85.910156 L 177.601562 85.75 C 180.242188 85.59375 180.304688 85.558594 180.40625 84.765625 C 180.625 82.824219 177.921875 81.421875 175.851562 82.375 Z M 178.300781 83.425781 C 178.617188 83.714844 178.875 84.191406 178.875 84.542969 C 178.875 85.050781 178.617188 85.113281 176.804688 85.113281 C 175.660156 85.113281 174.738281 84.984375 174.738281 84.828125 C 174.738281 84.699219 175.023438 84.191406 175.40625 83.714844 C 176.171875 82.761719 177.410156 82.628906 178.300781 83.425781 Z M 178.300781 83.425781 "/>
<path style=" stroke:none;fill-rule:nonzero;fill:rgb(0%,0%,0%);fill-opacity:1;" d="M 185.941406 82.152344 C 185.523438 82.25 184.632812 82.855469 183.96875 83.519531 C 180.40625 87.089844 183.457031 93.265625 187.820312 91.386719 C 190.398438 90.269531 190.8125 89.15625 188.296875 90.015625 C 186.484375 90.621094 185.492188 90.300781 184.601562 88.871094 C 183.84375 87.628906 183.773438 85.75 184.445312 84.480469 C 185.5625 82.3125 188.070312 82.34375 188.835938 84.542969 C 189.15625 85.433594 189.601562 85.207031 189.828125 84.125 C 190.113281 82.628906 190.113281 82.628906 188.835938 82.28125 C 187.597656 81.933594 187.210938 81.902344 185.941406 82.152344 Z M 185.941406 82.152344 "/>
<path style=" stroke:none;fill-rule:nonzero;fill:rgb(0%,0%,0%);fill-opacity:1;" d="M 217.484375 82.25 C 215.445312 82.886719 214.238281 85.269531 214.617188 88.042969 C 214.84375 89.824219 215.734375 90.90625 217.359375 91.449219 C 219.140625 92.019531 220.703125 91.671875 222.097656 90.394531 C 223.179688 89.378906 223.25 89.1875 223.375 87.152344 C 223.46875 84.734375 223.148438 83.777344 221.8125 82.824219 C 220.828125 82.089844 218.882812 81.832031 217.484375 82.25 Z M 220.316406 83.234375 C 222.164062 84.222656 222.351562 89.574219 220.570312 90.527344 C 219.90625 90.875 218.628906 90.9375 217.867188 90.652344 C 216.976562 90.300781 216.335938 88.582031 216.335938 86.484375 C 216.304688 84.796875 216.4375 84.347656 217.070312 83.683594 C 217.867188 82.824219 219.203125 82.628906 220.316406 83.234375 Z M 220.316406 83.234375 "/>
<path style=" stroke:none;fill-rule:nonzero;fill:rgb(0%,0%,0%);fill-opacity:1;" d="M 234.003906 82.535156 C 231.742188 83.621094 230.820312 86.515625 231.90625 89.21875 C 232.828125 91.546875 235.3125 92.339844 237.890625 91.191406 C 239.066406 90.683594 239.507812 90.269531 239.988281 89.1875 C 242.023438 84.699219 238.300781 80.5625 234.003906 82.535156 Z M 237.789062 83.714844 C 238.398438 84.378906 238.554688 84.921875 238.648438 86.800781 C 238.75 88.777344 238.6875 89.21875 238.078125 89.953125 C 237.15625 91.160156 235.34375 91.191406 234.226562 90.015625 C 233.625 89.347656 233.460938 88.808594 233.367188 86.925781 C 233.273438 84.953125 233.335938 84.511719 233.941406 83.746094 C 234.863281 82.566406 236.679688 82.535156 237.789062 83.714844 Z M 237.789062 83.714844 "/>
<path style=" stroke:none;fill-rule:nonzero;fill:rgb(0%,0%,0%);fill-opacity:1;" d="M 204.117188 82.824219 C 202.585938 83.394531 202.332031 83.839844 203.546875 83.839844 L 204.367188 83.839844 L 204.273438 87.246094 C 204.179688 90.527344 204.148438 90.683594 203.476562 90.78125 C 203.066406 90.84375 202.75 91.035156 202.75 91.191406 C 202.75 91.355469 203.832031 91.480469 205.132812 91.480469 C 206.441406 91.480469 207.519531 91.417969 207.519531 91.324219 C 207.519531 91.222656 207.171875 91.003906 206.726562 90.84375 C 205.960938 90.558594 205.929688 90.433594 205.929688 87.691406 C 205.929688 85.144531 206.023438 84.734375 206.628906 84.160156 C 207.015625 83.808594 207.710938 83.519531 208.191406 83.519531 C 209.5625 83.519531 210.066406 84.542969 210.066406 87.277344 C 210.066406 89.730469 209.71875 90.84375 208.953125 90.84375 C 208.703125 90.84375 208.476562 90.96875 208.476562 91.160156 C 208.476562 91.355469 209.429688 91.480469 210.707031 91.480469 C 211.976562 91.480469 212.929688 91.355469 212.929688 91.160156 C 212.929688 90.96875 212.710938 90.84375 212.457031 90.84375 C 211.628906 90.84375 211.34375 89.667969 211.34375 86.453125 C 211.34375 82.824219 211.023438 82.25 208.953125 82.25 C 208.03125 82.25 207.488281 82.472656 206.820312 83.109375 L 205.929688 83.96875 L 205.929688 83.109375 C 205.929688 82.152344 205.929688 82.152344 204.117188 82.824219 Z M 204.117188 82.824219 "/>
<path style=" stroke:none;fill-rule:nonzero;fill:rgb(0%,0%,0%);fill-opacity:1;" d="M 244.09375 83.171875 C 242.820312 84.480469 242.726562 86.324219 243.90625 87.597656 L 244.601562 88.359375 L 243.710938 89 C 242.695312 89.730469 242.628906 90.332031 243.488281 90.9375 C 244.09375 91.355469 244.09375 91.386719 243.171875 92.082031 C 241.390625 93.390625 242.21875 95.078125 244.859375 95.527344 C 246.515625 95.777344 249.0625 95.046875 250.207031 93.996094 C 251.003906 93.265625 251.160156 92.878906 251.066406 91.894531 C 250.9375 90.332031 250.078125 89.890625 247.117188 89.890625 C 244.664062 89.890625 244.316406 89.761719 244.765625 88.933594 C 244.953125 88.550781 245.460938 88.390625 246.453125 88.390625 C 248.234375 88.359375 249.0625 87.917969 249.726562 86.640625 C 250.207031 85.71875 250.207031 84.953125 249.695312 83.746094 C 249.503906 83.296875 249.632812 83.203125 250.300781 83.203125 C 251.925781 83.203125 251.097656 82.660156 249.1875 82.4375 C 245.6875 82.089844 245.113281 82.1875 244.09375 83.171875 Z M 247.691406 83.425781 C 248.109375 83.777344 248.265625 84.378906 248.265625 85.464844 C 248.265625 86.738281 248.140625 87.089844 247.5 87.5 C 246.863281 87.949219 246.578125 87.949219 245.972656 87.628906 C 245.5625 87.40625 245.144531 87.089844 245.019531 86.894531 C 244.664062 86.386719 244.703125 84.222656 245.082031 83.488281 C 245.492188 82.722656 246.894531 82.691406 247.691406 83.425781 Z M 248.804688 91.355469 C 249.664062 91.578125 250.015625 92.5 249.570312 93.359375 C 248.898438 94.566406 245.8125 95.078125 244.507812 94.15625 C 243.617188 93.550781 243.617188 92.847656 244.507812 91.894531 C 245.019531 91.324219 245.523438 91.160156 246.640625 91.160156 C 247.4375 91.160156 248.425781 91.253906 248.804688 91.355469 Z M 248.804688 91.355469 "/>
<path style=" stroke:none;fill-rule:nonzero;fill:rgb(0%,0%,0%);fill-opacity:1;" d="M 252.40625 82.503906 C 252.40625 82.566406 252.753906 82.917969 253.164062 83.296875 C 253.582031 83.683594 254.660156 85.625 255.519531 87.628906 C 256.890625 90.75 257.082031 91.386719 256.796875 92.183594 C 256.316406 93.550781 255.078125 94.375 254.085938 93.996094 C 253.070312 93.613281 252.941406 93.738281 253.328125 94.792969 C 254.125 96.828125 256.539062 94.917969 257.972656 91.160156 C 260.359375 84.765625 260.804688 83.746094 261.347656 83.265625 C 261.695312 82.980469 261.953125 82.660156 261.953125 82.566406 C 261.953125 82.4375 259.628906 82.4375 258.800781 82.535156 C 258.707031 82.566406 258.925781 82.761719 259.25 83.011719 C 259.820312 83.425781 259.785156 83.519531 258.925781 86.035156 C 258.421875 87.4375 257.910156 88.613281 257.8125 88.613281 C 257.6875 88.613281 257.113281 87.53125 256.570312 86.199219 C 255.585938 83.875 255.488281 82.886719 256.222656 82.886719 C 256.378906 82.886719 256.539062 82.792969 256.539062 82.628906 C 256.539062 82.503906 255.617188 82.40625 254.472656 82.40625 C 253.328125 82.40625 252.40625 82.4375 252.40625 82.503906 Z M 252.40625 82.503906 "/>
</g>
</svg>
